G75*
%MOIN*%
%OFA0B0*%
%FSLAX24Y24*%
%IPPOS*%
%LPD*%
%AMOC8*
5,1,8,0,0,1.08239X$1,22.5*
%
%ADD10C,0.0030*%
%ADD11C,0.0100*%
D10*
X015748Y011741D02*
X015796Y011692D01*
X015893Y011692D01*
X015941Y011741D01*
X016042Y011741D02*
X016042Y011983D01*
X015941Y011934D02*
X015941Y011886D01*
X015893Y011838D01*
X015796Y011838D01*
X015748Y011789D01*
X015748Y011741D01*
X015748Y011934D02*
X015796Y011983D01*
X015893Y011983D01*
X015941Y011934D01*
X016042Y011741D02*
X016091Y011692D01*
X016187Y011692D01*
X016236Y011741D01*
X016236Y011983D01*
X016337Y011934D02*
X016337Y011886D01*
X016385Y011838D01*
X016530Y011838D01*
X016632Y011789D02*
X016632Y011983D01*
X016530Y011983D02*
X016385Y011983D01*
X016337Y011934D01*
X016385Y011838D02*
X016337Y011789D01*
X016337Y011741D01*
X016385Y011692D01*
X016530Y011692D01*
X016530Y011983D01*
X016632Y011789D02*
X016728Y011692D01*
X016825Y011789D01*
X016825Y011983D01*
X015615Y014700D02*
X015422Y014700D01*
X015325Y014797D01*
X015422Y014893D01*
X015615Y014893D01*
X015567Y014994D02*
X015518Y014994D01*
X015470Y015043D01*
X015470Y015140D01*
X015422Y015188D01*
X015373Y015188D01*
X015325Y015140D01*
X015325Y015043D01*
X015373Y014994D01*
X015567Y014994D02*
X015615Y015043D01*
X015615Y015140D01*
X015567Y015188D01*
X015567Y015289D02*
X015373Y015289D01*
X015325Y015338D01*
X015325Y015434D01*
X015373Y015483D01*
X015567Y015483D01*
X015615Y015434D01*
X015615Y015338D01*
X015567Y015289D01*
X015615Y015584D02*
X015373Y015584D01*
X015325Y015632D01*
X015325Y015729D01*
X015373Y015777D01*
X015615Y015777D01*
X015615Y015878D02*
X015615Y016024D01*
X015567Y016072D01*
X015470Y016072D01*
X015422Y016024D01*
X015422Y015878D01*
X015325Y015878D02*
X015615Y015878D01*
X015422Y015975D02*
X015325Y016072D01*
X015373Y016173D02*
X015325Y016221D01*
X015325Y016318D01*
X015373Y016367D01*
X015325Y016468D02*
X015615Y016468D01*
X015615Y016661D01*
X015470Y016564D02*
X015470Y016468D01*
X015567Y016367D02*
X015615Y016318D01*
X015615Y016221D01*
X015567Y016173D01*
X015373Y016173D01*
X015325Y016468D02*
X015325Y016661D01*
X014148Y018221D02*
X014148Y018414D01*
X014052Y018318D02*
X014245Y018318D01*
X013950Y018414D02*
X013902Y018463D01*
X013805Y018463D01*
X013757Y018414D01*
X013757Y018366D01*
X013950Y018172D01*
X013757Y018172D01*
X013656Y018269D02*
X013559Y018172D01*
X013462Y018269D01*
X013462Y018463D01*
X013656Y018463D02*
X013656Y018269D01*
X010085Y020019D02*
X009988Y019922D01*
X009892Y020019D01*
X009892Y020213D01*
X009790Y020213D02*
X009645Y020213D01*
X009597Y020164D01*
X009597Y019971D01*
X009645Y019922D01*
X009790Y019922D01*
X009790Y020213D01*
X009496Y020213D02*
X009496Y019922D01*
X009351Y019922D01*
X009302Y019971D01*
X009302Y020164D01*
X009351Y020213D01*
X009496Y020213D01*
X010085Y020213D02*
X010085Y020019D01*
X011896Y012943D02*
X011993Y012943D01*
X012041Y012894D01*
X012041Y012701D01*
X011993Y012652D01*
X011896Y012652D01*
X011848Y012701D01*
X011848Y012894D02*
X011896Y012943D01*
X012142Y012894D02*
X012191Y012943D01*
X012287Y012943D01*
X012336Y012894D01*
X012336Y012701D01*
X012287Y012652D01*
X012191Y012652D01*
X012142Y012701D01*
X012437Y012749D02*
X012437Y012943D01*
X012630Y012943D02*
X012630Y012749D01*
X012534Y012652D01*
X012437Y012749D01*
X012732Y012749D02*
X012828Y012652D01*
X012925Y012749D01*
X012925Y012943D01*
X012732Y012943D02*
X012732Y012749D01*
X021205Y010361D02*
X021205Y010168D01*
X021205Y010264D02*
X021495Y010264D01*
X021398Y010168D01*
X021350Y010067D02*
X021302Y010018D01*
X021302Y009873D01*
X021205Y009873D02*
X021495Y009873D01*
X021495Y010018D01*
X021447Y010067D01*
X021350Y010067D01*
X021302Y009772D02*
X021253Y009772D01*
X021205Y009724D01*
X021205Y009627D01*
X021253Y009578D01*
X021350Y009627D02*
X021350Y009724D01*
X021302Y009772D01*
X021447Y009772D02*
X021495Y009724D01*
X021495Y009627D01*
X021447Y009578D01*
X021398Y009578D01*
X021350Y009627D01*
X022465Y009627D02*
X022513Y009578D01*
X022465Y009627D02*
X022465Y009724D01*
X022513Y009772D01*
X022562Y009772D01*
X022610Y009724D01*
X022610Y009627D01*
X022658Y009578D01*
X022707Y009578D01*
X022755Y009627D01*
X022755Y009724D01*
X022707Y009772D01*
X022755Y009873D02*
X022755Y010018D01*
X022707Y010067D01*
X022610Y010067D01*
X022562Y010018D01*
X022562Y009873D01*
X022465Y009873D02*
X022755Y009873D01*
X022707Y010168D02*
X022755Y010216D01*
X022755Y010313D01*
X022707Y010361D01*
X022658Y010361D01*
X022465Y010168D01*
X022465Y010361D01*
X026965Y009833D02*
X026965Y009688D01*
X027255Y009688D01*
X027255Y009833D01*
X027207Y009881D01*
X027013Y009881D01*
X026965Y009833D01*
X026965Y009587D02*
X027255Y009587D01*
X027255Y009393D02*
X026965Y009393D01*
X027013Y009292D02*
X027110Y009292D01*
X027110Y009195D01*
X027013Y009098D02*
X026965Y009147D01*
X026965Y009244D01*
X027013Y009292D01*
X027013Y009098D02*
X027207Y009098D01*
X027255Y009147D01*
X027255Y009244D01*
X027207Y009292D01*
X027255Y009393D02*
X026965Y009587D01*
X028357Y009944D02*
X028357Y010137D01*
X028502Y010238D02*
X028405Y010335D01*
X028502Y010432D01*
X028695Y010432D01*
X028695Y010533D02*
X028695Y010678D01*
X028647Y010727D01*
X028453Y010727D01*
X028405Y010678D01*
X028405Y010533D01*
X028695Y010533D01*
X028695Y010238D02*
X028502Y010238D01*
X028502Y009843D02*
X028453Y009843D01*
X028405Y009794D01*
X028405Y009698D01*
X028453Y009649D01*
X028550Y009698D02*
X028550Y009794D01*
X028502Y009843D01*
X028647Y009843D02*
X028695Y009794D01*
X028695Y009698D01*
X028647Y009649D01*
X028598Y009649D01*
X028550Y009698D01*
X028550Y009548D02*
X028550Y009354D01*
X028598Y009354D02*
X028695Y009451D01*
X028598Y009548D01*
X028405Y009548D01*
X028405Y009354D02*
X028598Y009354D01*
X028550Y009253D02*
X028502Y009205D01*
X028502Y009060D01*
X028405Y009060D02*
X028695Y009060D01*
X028695Y009205D01*
X028647Y009253D01*
X028550Y009253D01*
X028453Y010828D02*
X028405Y010876D01*
X028405Y010973D01*
X028453Y011021D01*
X028453Y010828D02*
X028647Y010828D01*
X028695Y010876D01*
X028695Y010973D01*
X028647Y011021D01*
X026808Y016672D02*
X026712Y016769D01*
X026712Y016963D01*
X026610Y016963D02*
X026514Y016963D01*
X026562Y016963D02*
X026562Y016672D01*
X026610Y016672D02*
X026514Y016672D01*
X026414Y016672D02*
X026414Y016963D01*
X026220Y016672D01*
X026220Y016963D01*
X026808Y016672D02*
X026905Y016769D01*
X026905Y016963D01*
X034223Y023942D02*
X034368Y023942D01*
X034416Y023991D01*
X034416Y024088D01*
X034368Y024136D01*
X034223Y024136D01*
X034223Y024233D02*
X034223Y023942D01*
X034517Y024039D02*
X034711Y024039D01*
X034711Y023991D02*
X034711Y024088D01*
X034663Y024136D01*
X034566Y024136D01*
X034517Y024088D01*
X034517Y024039D01*
X034566Y023942D02*
X034663Y023942D01*
X034711Y023991D01*
X034811Y023942D02*
X034859Y023991D01*
X034859Y024184D01*
X034907Y024136D02*
X034811Y024136D01*
X035009Y024136D02*
X035154Y024136D01*
X035202Y024088D01*
X035154Y024039D01*
X035057Y024039D01*
X035009Y023991D01*
X035057Y023942D01*
X035202Y023942D01*
X035303Y024039D02*
X035497Y024039D01*
X035497Y023991D02*
X035497Y024088D01*
X035448Y024136D01*
X035352Y024136D01*
X035303Y024088D01*
X035303Y024039D01*
X035352Y023942D02*
X035448Y023942D01*
X035497Y023991D01*
X035695Y023942D02*
X035695Y024233D01*
X035791Y024233D02*
X035598Y024233D01*
X036187Y024088D02*
X036187Y024039D01*
X036381Y024039D01*
X036381Y023991D02*
X036381Y024088D01*
X036332Y024136D01*
X036236Y024136D01*
X036187Y024088D01*
X036236Y023942D02*
X036332Y023942D01*
X036381Y023991D01*
X036481Y024136D02*
X036529Y024136D01*
X036626Y024039D01*
X036626Y023942D02*
X036626Y024136D01*
X036727Y024088D02*
X036776Y024136D01*
X036872Y024136D01*
X036872Y024039D02*
X036727Y024039D01*
X036727Y024088D02*
X036727Y023942D01*
X036872Y023942D01*
X036921Y023991D01*
X036872Y024039D01*
X037022Y023991D02*
X037022Y024136D01*
X037022Y023991D02*
X037070Y023942D01*
X037119Y023991D01*
X037167Y023942D01*
X037216Y023991D01*
X037216Y024136D01*
X037317Y024136D02*
X037462Y024136D01*
X037510Y024088D01*
X037510Y023991D01*
X037462Y023942D01*
X037317Y023942D01*
X037317Y024233D01*
X037611Y024136D02*
X037659Y024136D01*
X037756Y024039D01*
X037756Y023942D02*
X037756Y024136D01*
X037857Y024088D02*
X037905Y024136D01*
X038002Y024136D01*
X038002Y024039D02*
X037857Y024039D01*
X037857Y024088D02*
X037857Y023942D01*
X038002Y023942D01*
X038050Y023991D01*
X038002Y024039D01*
X038152Y024088D02*
X038345Y024088D01*
X038345Y024233D02*
X038345Y023942D01*
X038152Y023942D02*
X038152Y024233D01*
X021805Y026909D02*
X021708Y026812D01*
X021612Y026909D01*
X021612Y027103D01*
X021510Y027103D02*
X021365Y027103D01*
X021317Y027054D01*
X021317Y026861D01*
X021365Y026812D01*
X021510Y026812D01*
X021510Y027103D01*
X021216Y027103D02*
X021216Y026812D01*
X021071Y026812D01*
X021022Y026861D01*
X021022Y027054D01*
X021071Y027103D01*
X021216Y027103D01*
X021805Y027103D02*
X021805Y026909D01*
X038456Y004373D02*
X038601Y004228D01*
X038408Y004228D01*
X038456Y004373D02*
X038456Y004082D01*
X038702Y004082D02*
X038896Y004082D01*
X038799Y004082D02*
X038799Y004373D01*
X038896Y004276D01*
X038997Y004324D02*
X039190Y004131D01*
X039142Y004082D01*
X039045Y004082D01*
X038997Y004131D01*
X038997Y004324D01*
X039045Y004373D01*
X039142Y004373D01*
X039190Y004324D01*
X039190Y004131D01*
X039292Y004082D02*
X039485Y004082D01*
X039292Y004276D01*
X039292Y004324D01*
X039340Y004373D01*
X039437Y004373D01*
X039485Y004324D01*
D11*
X038600Y023987D02*
X038540Y023987D01*
X038540Y024107D01*
X038480Y024107D02*
X038480Y023987D01*
X038540Y023987D01*
X038600Y023987D02*
X038600Y024167D01*
X038480Y024167D01*
X034820Y024347D02*
X034820Y023867D01*
X034160Y023867D01*
X034160Y024347D01*
X034820Y024347D01*
M02*
