%
M48
M72
T01C0.0120
T02C0.0200
T03C0.0236
T04C0.0252
T05C0.0315
T06C0.0320
T07C0.0370
T08C0.0394
T09C0.0400
T10C0.0512
T11C0.0591
T12C0.0630
T13C0.1102
T14C0.1181
T15C0.1260
T16C0.1280
T17C0.2165
%
T01
X7940Y7607
X10280Y7727
X10280Y8687
X10280Y9587
X8120Y9527
X8120Y11987
X12200Y11747
X13400Y11087
X13940Y10007
X14720Y12527
X15740Y14327
X19100Y16907
X21320Y16247
X22820Y16187
X25040Y15047
X24800Y14087
X23900Y13067
X24800Y12587
X26420Y12527
X27440Y12227
X28820Y12167
X30560Y11027
X31040Y9827
X31880Y10727
X31760Y11807
X36860Y11687
X31580Y16727
X31220Y16727
X30860Y16727
X30860Y17747
X31220Y17747
X31580Y17747
X32900Y17387
X28880Y18587
X28820Y19247
X27740Y17507
X25220Y18107
X25220Y21407
X25580Y22127
X22940Y21587
X20660Y24647
X19640Y24587
X18320Y25427
X18020Y25427
X18020Y25787
X18320Y25787
X18320Y26147
X18020Y26147
X18020Y26507
X18320Y26507
X18320Y26867
X18020Y26867
X17639Y26856
X17639Y26502
X17639Y26148
X17284Y26148
X17284Y26502
X16930Y26502
X16930Y26856
X17284Y26856
X16930Y26148
X16930Y25793
X16930Y25439
X17284Y25439
X17284Y25793
X17639Y25793
X17639Y25439
X16400Y24587
X16580Y24107
X16160Y24047
X15620Y23987
X15200Y24107
X14540Y23987
X14060Y23987
X13640Y24047
X13220Y24107
X13220Y24827
X14120Y24947
X15620Y24887
X15320Y22667
X14720Y21347
X14720Y21047
X14480Y20627
X14420Y20207
X14000Y20147
X13580Y20447
X13280Y20147
X12560Y20867
X11420Y21347
X10700Y20687
X10340Y21347
X9560Y21347
X9080Y22667
X8360Y22667
X8060Y22667
X8360Y23987
X9560Y24227
X10160Y24227
X11360Y24827
X11840Y23927
X11600Y22607
X10580Y22667
X9860Y22727
X7640Y21347
X8600Y19847
X11480Y19667
X11900Y18887
X11840Y18587
X13040Y19067
X14480Y19487
X15860Y18827
X16700Y19007
X16640Y19307
X16640Y19667
X17120Y19007
X17720Y18587
X15860Y20747
X17720Y21587
X18680Y22367
X18920Y21347
X16880Y22667
X12980Y22667
X12680Y22667
X8060Y25187
X9260Y27647
X9920Y28007
X7640Y28607
X8360Y30527
X12320Y28247
X12980Y27527
X13280Y27527
X15740Y28247
X15920Y28847
X17060Y29627
X17120Y28427
X18140Y29087
X19460Y30527
X18980Y27287
X22340Y26147
X24140Y26327
X24860Y28847
X26720Y28847
X32360Y30527
X32540Y29627
X37640Y28787
X39920Y28007
X38000Y26627
X26720Y13727
X22880Y12407
X21920Y12287
X20900Y12407
X18020Y9827
X17960Y8987
X17900Y8387
X19220Y6947
X16940Y6107
X16400Y6647
X15800Y6227
X12860Y5687
X11720Y7007
X11240Y4907
X20180Y9527
X22760Y7787
X23120Y6827
X25460Y9107
X25220Y10727
X30080Y7127
X11900Y16367
X12140Y16907
X11120Y16547
X14420Y30527
T02
X18020Y24287
X23300Y20207
X24740Y16547
X25340Y11507
X18080Y18467
X14360Y16427
X8900Y21107
X34880Y17027
X34940Y16367
X36920Y17027
X34940Y14147
X40460Y11027
X36080Y22127
T03
X20900Y8987
T04
X34902Y9176
X34902Y10176
X34902Y11176
X34902Y12176
X34902Y26176
X34902Y27176
X34902Y28176
X34902Y29176
T05
X31220Y17207
T06
X28368Y23335
X26968Y23335
X31760Y25327
X31760Y26727
T07
X31340Y5888
X30540Y5888
X29741Y5888
X28942Y5888
X29285Y5187
X30084Y5187
X30883Y5187
X31682Y5187
X24722Y5127
X24380Y5828
X23580Y5828
X23923Y5127
X23124Y5127
X22781Y5828
X21982Y5828
X22325Y5127
T08
X18375Y5520
X18375Y6307
X18375Y7094
X18375Y7882
T09
X18404Y12464
X18404Y14464
X12580Y14727
X11580Y14727
X10580Y14727
X10580Y13727
X11580Y13727
X12580Y13727
X9580Y13727
X8580Y13727
X8580Y14727
X9580Y14727
X9580Y25727
X8580Y25727
X8580Y26727
X9580Y26727
X10580Y26727
X11580Y26727
X12580Y26727
X13580Y26727
X14580Y26727
X15580Y26727
X15580Y25727
X14580Y25727
X13580Y25727
X12580Y25727
X11580Y25727
X10580Y25727
X10920Y29307
X9920Y29307
X8920Y29307
X7920Y29307
X24143Y27115
X24143Y25115
X36750Y27387
X38530Y27387
X38530Y29947
X36750Y29947
T10
X32238Y28493
X31254Y28493
X26298Y28493
X25314Y28493
X20418Y28493
X19434Y28493
X14507Y28514
X13523Y28514
T11
X17253Y8079
X19497Y8079
X19497Y5323
X17253Y5323
X8840Y5447
T12
X7840Y4447
X9840Y4447
X9840Y6447
X7840Y6447
T13
X36160Y4821
X38050Y6160
T14
X39619Y8188
X6155Y8188
T15
X36160Y7282
T16
X32820Y4187
X27820Y4187
X25860Y4127
X20860Y4127
T17
X6056Y26062
X39718Y26062
M30
