G75*
%MOIN*%
%OFA0B0*%
%FSLAX24Y24*%
%IPPOS*%
%LPD*%
%AMOC8*
5,1,8,0,0,1.08239X$1,22.5*
%
%ADD10C,0.1221*%
%ADD11C,0.2205*%
%ADD12R,0.0473X0.0434*%
%ADD13R,0.0749X0.0197*%
%ADD14R,0.0749X0.1540*%
%ADD15C,0.0280*%
%ADD16R,0.0434X0.0473*%
%ADD17R,0.0178X0.0591*%
%ADD18R,0.0749X0.0788*%
%ADD19R,0.0788X0.0788*%
%ADD20C,0.1040*%
%ADD21OC8,0.1040*%
%ADD22R,0.0296X0.0873*%
%ADD23C,0.1700*%
%ADD24C,0.1542*%
%ADD25C,0.0670*%
%ADD26OC8,0.0670*%
%ADD27R,0.0619X0.0540*%
%ADD28R,0.0540X0.0619*%
%ADD29R,0.0788X0.0709*%
%ADD30C,0.0631*%
%ADD31C,0.0926*%
%ADD32C,0.0059*%
%ADD33C,0.0197*%
%ADD34R,0.0197X0.0394*%
%ADD35C,0.0552*%
%ADD36C,0.0205*%
%ADD37R,0.1103X0.1497*%
%ADD38C,0.0512*%
%ADD39R,0.2402X0.1024*%
%ADD40C,0.0050*%
%ADD41OC8,0.0640*%
%ADD42C,0.0640*%
%ADD43R,0.1240X0.0840*%
%ADD44R,0.1540X0.0840*%
%ADD45R,0.0290X0.0790*%
%ADD46C,0.1320*%
%ADD47C,0.0595*%
%ADD48R,0.0197X0.0276*%
%ADD49C,0.0985*%
%ADD50R,0.0418X0.0418*%
%ADD51C,0.0418*%
%ADD52R,0.0453X0.0906*%
%ADD53R,0.0473X0.0473*%
D10*
X006155Y008188D03*
X039619Y008188D03*
D11*
X039718Y026062D03*
X006056Y026062D03*
D12*
X010011Y020964D03*
X010011Y020294D03*
X014950Y015482D03*
X014950Y014813D03*
X010580Y012802D03*
X010580Y012133D03*
X009560Y012133D03*
X009560Y012802D03*
X016378Y008173D03*
X016378Y007504D03*
X018019Y010726D03*
X018688Y010726D03*
X021560Y010282D03*
X021560Y009613D03*
X022700Y009613D03*
X022700Y010282D03*
X023900Y010282D03*
X023900Y009613D03*
X025220Y009613D03*
X025220Y010282D03*
X026540Y010342D03*
X026540Y009673D03*
X027680Y009673D03*
X027680Y010342D03*
X029420Y010402D03*
X029420Y009733D03*
X030560Y009733D03*
X030560Y010402D03*
X031820Y012673D03*
X031820Y013342D03*
X032900Y013342D03*
X032900Y012673D03*
X034040Y012673D03*
X034040Y013342D03*
X033980Y017593D03*
X033980Y018262D03*
X029960Y020113D03*
X029960Y020782D03*
X028820Y020782D03*
X028820Y020113D03*
X017846Y022450D03*
X017846Y023120D03*
X018560Y028873D03*
X018560Y029542D03*
X021380Y029542D03*
X021380Y028873D03*
X024260Y028873D03*
X024260Y029542D03*
X027380Y029542D03*
X027380Y028873D03*
X030140Y028873D03*
X030140Y029542D03*
X033200Y029602D03*
X033200Y028933D03*
X033920Y028933D03*
X033920Y029602D03*
X015500Y029482D03*
X015500Y028813D03*
X012560Y028873D03*
X012560Y029542D03*
X012398Y006319D03*
X012398Y005650D03*
X011240Y005593D03*
X011240Y006262D03*
D13*
X019646Y025148D03*
X019646Y025648D03*
X019646Y026148D03*
X019646Y026648D03*
X019646Y027148D03*
D14*
X017284Y026148D03*
D15*
X017284Y026148D03*
X017284Y026502D03*
X016930Y026502D03*
X016930Y026856D03*
X017284Y026856D03*
X017639Y026856D03*
X017639Y026502D03*
X017639Y026148D03*
X017639Y025793D03*
X017639Y025439D03*
X017284Y025439D03*
X016930Y025439D03*
X016930Y025793D03*
X017284Y025793D03*
X016930Y026148D03*
D16*
X020765Y026245D03*
X021435Y026245D03*
X021435Y025307D03*
X020765Y025307D03*
X020753Y027290D03*
X021422Y027290D03*
X033225Y019487D03*
X033895Y019487D03*
X033895Y016787D03*
X033225Y016787D03*
X033225Y015167D03*
X033895Y015167D03*
X033895Y014087D03*
X033225Y014087D03*
X032925Y011807D03*
X033595Y011807D03*
X033595Y010607D03*
X032925Y010607D03*
X029310Y016409D03*
X028641Y016409D03*
X014257Y013563D03*
X013588Y013563D03*
D17*
X013600Y004911D03*
X013856Y004911D03*
X014112Y004911D03*
X013344Y004911D03*
X013088Y004911D03*
D18*
X012025Y003867D03*
X015175Y003867D03*
D19*
X014100Y003867D03*
X013100Y003867D03*
D20*
X018404Y012464D03*
X025040Y019367D03*
X022400Y024467D03*
X024143Y027115D03*
X026540Y027167D03*
X027800Y027167D03*
D21*
X024143Y025115D03*
X018404Y014464D03*
D22*
X017078Y021988D03*
X016578Y021988D03*
X016078Y021988D03*
X015578Y021988D03*
X015078Y021988D03*
X014578Y021988D03*
X014078Y021988D03*
X013578Y021988D03*
X013078Y021988D03*
X012578Y021988D03*
X012078Y021988D03*
X011578Y021988D03*
X011078Y021988D03*
X010578Y021988D03*
X010078Y021988D03*
X009578Y021988D03*
X009078Y021988D03*
X008578Y021988D03*
X008078Y021988D03*
X007578Y021988D03*
X007578Y023321D03*
X008078Y023321D03*
X008578Y023321D03*
X009078Y023321D03*
X009578Y023321D03*
X010078Y023321D03*
X010578Y023321D03*
X011078Y023321D03*
X011578Y023321D03*
X012078Y023321D03*
X012578Y023321D03*
X013078Y023321D03*
X013578Y023321D03*
X014078Y023321D03*
X014578Y023321D03*
X015078Y023321D03*
X015578Y023321D03*
X016078Y023321D03*
X016578Y023321D03*
X017078Y023321D03*
D23*
X036160Y007282D03*
D24*
X038050Y006160D03*
X036160Y004821D03*
D25*
X028368Y023335D03*
X031760Y026727D03*
D26*
X031760Y025327D03*
X026968Y023335D03*
D27*
X031005Y023247D03*
X031005Y021554D03*
D28*
X027737Y019697D03*
X026045Y019697D03*
X026045Y018122D03*
X027737Y018122D03*
X027737Y016547D03*
X026045Y016547D03*
D29*
X036962Y012387D03*
X036962Y010379D03*
X040506Y010379D03*
X040506Y012387D03*
D30*
X018375Y007882D03*
X018375Y007094D03*
X018375Y006307D03*
X018375Y005520D03*
D31*
X017253Y005323D03*
X019497Y005323D03*
X019497Y008079D03*
X017253Y008079D03*
X008840Y005447D03*
D32*
X016336Y008611D02*
X016336Y008789D01*
X016396Y008789D01*
X016396Y008611D01*
X016336Y008611D01*
X016336Y008669D02*
X016396Y008669D01*
X016396Y008727D02*
X016336Y008727D01*
X016336Y008785D02*
X016396Y008785D01*
X016533Y008789D02*
X016533Y008611D01*
X016533Y008789D02*
X016593Y008789D01*
X016593Y008611D01*
X016533Y008611D01*
X016533Y008669D02*
X016593Y008669D01*
X016593Y008727D02*
X016533Y008727D01*
X016533Y008785D02*
X016593Y008785D01*
X016730Y008789D02*
X016730Y008611D01*
X016730Y008789D02*
X016790Y008789D01*
X016790Y008611D01*
X016730Y008611D01*
X016730Y008669D02*
X016790Y008669D01*
X016790Y008727D02*
X016730Y008727D01*
X016730Y008785D02*
X016790Y008785D01*
X016730Y009201D02*
X016730Y009379D01*
X016790Y009379D01*
X016790Y009201D01*
X016730Y009201D01*
X016730Y009259D02*
X016790Y009259D01*
X016790Y009317D02*
X016730Y009317D01*
X016730Y009375D02*
X016790Y009375D01*
X016533Y009379D02*
X016533Y009201D01*
X016533Y009379D02*
X016593Y009379D01*
X016593Y009201D01*
X016533Y009201D01*
X016533Y009259D02*
X016593Y009259D01*
X016593Y009317D02*
X016533Y009317D01*
X016533Y009375D02*
X016593Y009375D01*
X016336Y009379D02*
X016336Y009201D01*
X016336Y009379D02*
X016396Y009379D01*
X016396Y009201D01*
X016336Y009201D01*
X016336Y009259D02*
X016396Y009259D01*
X016396Y009317D02*
X016336Y009317D01*
X016336Y009375D02*
X016396Y009375D01*
D33*
X016425Y008995D02*
X016425Y008995D01*
X016701Y008995D01*
X016701Y008995D01*
X016425Y008995D01*
D34*
X014198Y029084D03*
X013860Y029084D03*
X013860Y029733D03*
X014198Y029733D03*
X019765Y029733D03*
X020104Y029733D03*
X020104Y029084D03*
X019765Y029084D03*
X025671Y029084D03*
X026009Y029084D03*
X026009Y029733D03*
X025671Y029733D03*
X031576Y029733D03*
X031915Y029733D03*
X031915Y029084D03*
X031576Y029084D03*
D35*
X031254Y028493D03*
X032238Y028493D03*
X026298Y028493D03*
X025314Y028493D03*
X020418Y028493D03*
X019434Y028493D03*
X014507Y028514D03*
X013523Y028514D03*
D36*
X029852Y017907D02*
X030188Y017907D01*
X029852Y017907D02*
X029852Y017907D01*
X030188Y017907D01*
X030188Y017907D01*
X030188Y017407D02*
X029852Y017407D01*
X029852Y017407D01*
X030188Y017407D01*
X030188Y017407D01*
X030188Y016907D02*
X029852Y016907D01*
X029852Y016907D01*
X030188Y016907D01*
X030188Y016907D01*
X030188Y016407D02*
X029852Y016407D01*
X029852Y016407D01*
X030188Y016407D01*
X030188Y016407D01*
X032214Y016407D02*
X032550Y016407D01*
X032214Y016407D02*
X032214Y016407D01*
X032550Y016407D01*
X032550Y016407D01*
X032550Y016907D02*
X032214Y016907D01*
X032214Y016907D01*
X032550Y016907D01*
X032550Y016907D01*
X032550Y017407D02*
X032214Y017407D01*
X032214Y017407D01*
X032550Y017407D01*
X032550Y017407D01*
X032550Y017907D02*
X032214Y017907D01*
X032214Y017907D01*
X032550Y017907D01*
X032550Y017907D01*
D37*
X031220Y017207D03*
D38*
X031220Y017207D03*
D39*
X033029Y020611D03*
X033029Y022304D03*
D40*
X039618Y028654D02*
X039667Y028606D01*
X039723Y028566D01*
X039785Y028537D01*
X039852Y028520D01*
X039920Y028514D01*
X039988Y028520D01*
X040055Y028537D01*
X040117Y028566D01*
X040173Y028606D01*
X040222Y028654D01*
X040261Y028711D01*
X040290Y028773D01*
X040308Y028839D01*
X040314Y028907D01*
X040308Y028976D01*
X040290Y029042D01*
X040261Y029104D01*
X040222Y029160D01*
X040173Y029209D01*
X040117Y029248D01*
X040055Y029277D01*
X039988Y029295D01*
X039920Y029301D01*
X039852Y029295D01*
X039785Y029277D01*
X039723Y029248D01*
X039667Y029209D01*
X039618Y029160D01*
X039579Y029104D01*
X039550Y029042D01*
X039532Y028976D01*
X039526Y028907D01*
X039532Y028839D01*
X039550Y028773D01*
X039579Y028711D01*
X039618Y028654D01*
X039631Y028642D02*
X040209Y028642D01*
X040247Y028690D02*
X039593Y028690D01*
X039566Y028739D02*
X040274Y028739D01*
X040294Y028787D02*
X039546Y028787D01*
X039533Y028836D02*
X040307Y028836D01*
X040312Y028884D02*
X039528Y028884D01*
X039528Y028933D02*
X040312Y028933D01*
X040306Y028981D02*
X039534Y028981D01*
X039547Y029030D02*
X040293Y029030D01*
X040273Y029078D02*
X039567Y029078D01*
X039595Y029127D02*
X040245Y029127D01*
X040207Y029175D02*
X039633Y029175D01*
X039688Y029224D02*
X040152Y029224D01*
X040066Y029272D02*
X039774Y029272D01*
X039685Y028593D02*
X040155Y028593D01*
X040070Y028545D02*
X039770Y028545D01*
X022650Y023042D02*
X022621Y023104D01*
X022582Y023160D01*
X022533Y023209D01*
X022477Y023248D01*
X022415Y023277D01*
X022348Y023295D01*
X022280Y023301D01*
X022212Y023295D01*
X022145Y023277D01*
X022083Y023248D01*
X022027Y023209D01*
X021978Y023160D01*
X021939Y023104D01*
X021910Y023042D01*
X021892Y022976D01*
X021886Y022907D01*
X021892Y022839D01*
X021910Y022773D01*
X022650Y022773D01*
X022668Y022839D01*
X022674Y022907D01*
X022668Y022976D01*
X022650Y023042D01*
X022640Y023064D02*
X021920Y023064D01*
X021903Y023016D02*
X022657Y023016D01*
X022668Y022967D02*
X021892Y022967D01*
X021887Y022919D02*
X022673Y022919D01*
X022670Y022870D02*
X021890Y022870D01*
X021897Y022822D02*
X022663Y022822D01*
X022650Y022773D02*
X022621Y022711D01*
X022582Y022654D01*
X022533Y022606D01*
X022477Y022566D01*
X022415Y022537D01*
X022348Y022520D01*
X022280Y022514D01*
X022212Y022520D01*
X022145Y022537D01*
X022083Y022566D01*
X022027Y022606D01*
X021978Y022654D01*
X021939Y022711D01*
X021910Y022773D01*
X021933Y022725D02*
X022627Y022725D01*
X022597Y022676D02*
X021963Y022676D01*
X022005Y022628D02*
X022555Y022628D01*
X022495Y022579D02*
X022065Y022579D01*
X022171Y022530D02*
X022389Y022530D01*
X022615Y023113D02*
X021945Y023113D01*
X021979Y023161D02*
X022581Y023161D01*
X022532Y023210D02*
X022028Y023210D01*
X022104Y023258D02*
X022456Y023258D01*
X011493Y010009D02*
X011437Y010048D01*
X011375Y010077D01*
X011308Y010095D01*
X011240Y010101D01*
X011172Y010095D01*
X011105Y010077D01*
X011043Y010048D01*
X010987Y010009D01*
X010938Y009960D01*
X010899Y009904D01*
X010870Y009842D01*
X010852Y009776D01*
X010846Y009707D01*
X010852Y009639D01*
X010870Y009573D01*
X010899Y009511D01*
X010938Y009454D01*
X010987Y009406D01*
X011043Y009366D01*
X011105Y009337D01*
X011172Y009320D01*
X011240Y009314D01*
X011308Y009320D01*
X011375Y009337D01*
X011437Y009366D01*
X011493Y009406D01*
X011542Y009454D01*
X011581Y009511D01*
X011610Y009573D01*
X011628Y009639D01*
X011634Y009707D01*
X011628Y009776D01*
X011610Y009842D01*
X011581Y009904D01*
X011542Y009960D01*
X011493Y010009D01*
X011481Y010017D02*
X010999Y010017D01*
X010947Y009969D02*
X011533Y009969D01*
X011570Y009920D02*
X010910Y009920D01*
X010884Y009872D02*
X011596Y009872D01*
X011615Y009823D02*
X010865Y009823D01*
X010852Y009775D02*
X011628Y009775D01*
X011632Y009726D02*
X010848Y009726D01*
X010849Y009678D02*
X011631Y009678D01*
X011625Y009629D02*
X010855Y009629D01*
X010868Y009581D02*
X011612Y009581D01*
X011591Y009532D02*
X010889Y009532D01*
X010918Y009484D02*
X011562Y009484D01*
X011523Y009435D02*
X010957Y009435D01*
X011014Y009387D02*
X011466Y009387D01*
X011377Y009338D02*
X011103Y009338D01*
X011081Y010066D02*
X011399Y010066D01*
X039352Y004976D02*
X039346Y004907D01*
X039352Y004839D01*
X039370Y004773D01*
X039399Y004711D01*
X039438Y004654D01*
X039487Y004606D01*
X039543Y004566D01*
X039605Y004537D01*
X039672Y004520D01*
X039740Y004514D01*
X039808Y004520D01*
X039875Y004537D01*
X039937Y004566D01*
X039993Y004606D01*
X040042Y004654D01*
X040081Y004711D01*
X040110Y004773D01*
X040128Y004839D01*
X040134Y004907D01*
X040128Y004976D01*
X040110Y005042D01*
X040081Y005104D01*
X040042Y005160D01*
X039993Y005209D01*
X039937Y005248D01*
X039875Y005277D01*
X039808Y005295D01*
X039740Y005301D01*
X039672Y005295D01*
X039605Y005277D01*
X039543Y005248D01*
X039487Y005209D01*
X039438Y005160D01*
X039399Y005104D01*
X039370Y005042D01*
X039352Y004976D01*
X039352Y004973D02*
X040128Y004973D01*
X040132Y004925D02*
X039348Y004925D01*
X039349Y004876D02*
X040131Y004876D01*
X040125Y004828D02*
X039355Y004828D01*
X039368Y004779D02*
X040112Y004779D01*
X040090Y004731D02*
X039390Y004731D01*
X039419Y004682D02*
X040061Y004682D01*
X040021Y004634D02*
X039459Y004634D01*
X039516Y004585D02*
X039964Y004585D01*
X039873Y004537D02*
X039607Y004537D01*
X039365Y005022D02*
X040115Y005022D01*
X040097Y005070D02*
X039383Y005070D01*
X039409Y005119D02*
X040071Y005119D01*
X040035Y005167D02*
X039445Y005167D01*
X039497Y005216D02*
X039983Y005216D01*
X039902Y005264D02*
X039578Y005264D01*
D41*
X012580Y013727D03*
X011580Y013727D03*
X010580Y013727D03*
X009580Y013727D03*
X008580Y013727D03*
X008580Y014727D03*
X009580Y014727D03*
X010580Y014727D03*
X011580Y014727D03*
X012580Y014727D03*
X012580Y025727D03*
X011580Y025727D03*
X010580Y025727D03*
X009580Y025727D03*
X008580Y025727D03*
X008580Y026727D03*
X009580Y026727D03*
X010580Y026727D03*
X011580Y026727D03*
X012580Y026727D03*
X013580Y026727D03*
X014580Y026727D03*
X015580Y026727D03*
X015580Y025727D03*
X014580Y025727D03*
X013580Y025727D03*
D42*
X010920Y029007D02*
X010920Y029607D01*
X009920Y029607D02*
X009920Y029007D01*
X008920Y029007D02*
X008920Y029607D01*
X007920Y029607D02*
X007920Y029007D01*
X036750Y029647D02*
X036750Y030247D01*
X038530Y030247D02*
X038530Y029647D01*
X038530Y027687D02*
X038530Y027087D01*
X036750Y027087D02*
X036750Y027687D01*
D43*
X014466Y007127D03*
X012694Y007127D03*
D44*
X012200Y008117D03*
X014960Y008117D03*
D45*
X020940Y011367D03*
X021440Y011367D03*
X021940Y011367D03*
X022440Y011367D03*
X022940Y011367D03*
X023440Y011367D03*
X023940Y011367D03*
X024440Y011367D03*
X026460Y011367D03*
X026960Y011367D03*
X027460Y011367D03*
X027960Y011367D03*
X028460Y011367D03*
X028960Y011367D03*
X029460Y011367D03*
X029960Y011367D03*
X029960Y014817D03*
X029460Y014817D03*
X028960Y014817D03*
X028460Y014817D03*
X027960Y014817D03*
X027460Y014817D03*
X026960Y014817D03*
X026460Y014817D03*
X024440Y014817D03*
X023940Y014817D03*
X023440Y014817D03*
X022940Y014817D03*
X022440Y014817D03*
X021940Y014817D03*
X021440Y014817D03*
X020940Y014817D03*
D46*
X020860Y004127D03*
X025860Y004127D03*
X027820Y004187D03*
X032820Y004187D03*
D47*
X031682Y005187D03*
X030883Y005187D03*
X030084Y005187D03*
X029285Y005187D03*
X028942Y005888D03*
X029741Y005888D03*
X030540Y005888D03*
X031340Y005888D03*
X024722Y005127D03*
X024380Y005828D03*
X023580Y005828D03*
X023923Y005127D03*
X023124Y005127D03*
X022781Y005828D03*
X021982Y005828D03*
X022325Y005127D03*
D48*
X015764Y012834D03*
X015508Y012834D03*
X015252Y012834D03*
X014996Y012834D03*
X014996Y013700D03*
X015252Y013700D03*
X015508Y013700D03*
X015764Y013700D03*
D49*
X007840Y004447D03*
X009840Y004447D03*
X009840Y006447D03*
X007840Y006447D03*
D50*
X034902Y009176D03*
X034902Y026176D03*
D51*
X034902Y027176D03*
X034902Y028176D03*
X034902Y029176D03*
X034902Y012176D03*
X034902Y011176D03*
X034902Y010176D03*
D52*
X009481Y010707D03*
X008319Y010707D03*
D53*
X008900Y010107D03*
M02*
