G75*
%MOIN*%
%OFA0B0*%
%FSLAX24Y24*%
%IPPOS*%
%LPD*%
%AMOC8*
5,1,8,0,0,1.08239X$1,22.5*
%
%ADD10R,0.0433X0.0394*%
%ADD11R,0.0709X0.0157*%
%ADD12R,0.0709X0.1500*%
%ADD13R,0.0394X0.0433*%
%ADD14R,0.0138X0.0551*%
%ADD15R,0.0709X0.0748*%
%ADD16R,0.0748X0.0748*%
%ADD17R,0.0256X0.0833*%
%ADD18R,0.0579X0.0500*%
%ADD19R,0.0500X0.0579*%
%ADD20R,0.0748X0.0669*%
%ADD21C,0.0039*%
%ADD22C,0.0157*%
%ADD23R,0.0157X0.0354*%
%ADD24C,0.0165*%
%ADD25R,0.1063X0.1457*%
%ADD26R,0.2362X0.0984*%
%ADD27R,0.1200X0.0800*%
%ADD28R,0.1500X0.0800*%
%ADD29R,0.0250X0.0750*%
%ADD30R,0.0157X0.0236*%
%ADD31R,0.0413X0.0866*%
%ADD32R,0.0433X0.0433*%
D10*
X011240Y005593D03*
X011240Y006262D03*
X012398Y006319D03*
X012398Y005650D03*
X016378Y007504D03*
X016378Y008173D03*
X018019Y010726D03*
X018688Y010726D03*
X021560Y010282D03*
X021560Y009613D03*
X022700Y009613D03*
X022700Y010282D03*
X023900Y010282D03*
X023900Y009613D03*
X025220Y009613D03*
X025220Y010282D03*
X026540Y010342D03*
X026540Y009673D03*
X027680Y009673D03*
X027680Y010342D03*
X029420Y010402D03*
X029420Y009733D03*
X030560Y009733D03*
X030560Y010402D03*
X031820Y012673D03*
X031820Y013342D03*
X032900Y013342D03*
X032900Y012673D03*
X034040Y012673D03*
X034040Y013342D03*
X033980Y017593D03*
X033980Y018262D03*
X029960Y020113D03*
X029960Y020782D03*
X028820Y020782D03*
X028820Y020113D03*
X017846Y022450D03*
X017846Y023120D03*
X018560Y028873D03*
X018560Y029542D03*
X021380Y029542D03*
X021380Y028873D03*
X024260Y028873D03*
X024260Y029542D03*
X027380Y029542D03*
X027380Y028873D03*
X030140Y028873D03*
X030140Y029542D03*
X033200Y029602D03*
X033200Y028933D03*
X033920Y028933D03*
X033920Y029602D03*
X015500Y029482D03*
X015500Y028813D03*
X012560Y028873D03*
X012560Y029542D03*
X010011Y020964D03*
X010011Y020294D03*
X014950Y015482D03*
X014950Y014813D03*
X010580Y012802D03*
X010580Y012133D03*
X009560Y012133D03*
X009560Y012802D03*
D11*
X019646Y025148D03*
X019646Y025648D03*
X019646Y026148D03*
X019646Y026648D03*
X019646Y027148D03*
D12*
X017284Y026148D03*
D13*
X020765Y026245D03*
X021435Y026245D03*
X021435Y025307D03*
X020765Y025307D03*
X020753Y027290D03*
X021422Y027290D03*
X033225Y019487D03*
X033895Y019487D03*
X033895Y016787D03*
X033225Y016787D03*
X033225Y015167D03*
X033895Y015167D03*
X033895Y014087D03*
X033225Y014087D03*
X032925Y011807D03*
X033595Y011807D03*
X033595Y010607D03*
X032925Y010607D03*
X029310Y016409D03*
X028641Y016409D03*
X014257Y013563D03*
X013588Y013563D03*
D14*
X013600Y004911D03*
X013856Y004911D03*
X014112Y004911D03*
X013344Y004911D03*
X013088Y004911D03*
D15*
X012025Y003867D03*
X015175Y003867D03*
D16*
X014100Y003867D03*
X013100Y003867D03*
D17*
X013078Y021988D03*
X012578Y021988D03*
X012078Y021988D03*
X011578Y021988D03*
X011078Y021988D03*
X010578Y021988D03*
X010078Y021988D03*
X009578Y021988D03*
X009078Y021988D03*
X008578Y021988D03*
X008078Y021988D03*
X007578Y021988D03*
X007578Y023321D03*
X008078Y023321D03*
X008578Y023321D03*
X009078Y023321D03*
X009578Y023321D03*
X010078Y023321D03*
X010578Y023321D03*
X011078Y023321D03*
X011578Y023321D03*
X012078Y023321D03*
X012578Y023321D03*
X013078Y023321D03*
X013578Y023321D03*
X014078Y023321D03*
X014578Y023321D03*
X015078Y023321D03*
X015578Y023321D03*
X016078Y023321D03*
X016578Y023321D03*
X017078Y023321D03*
X017078Y021988D03*
X016578Y021988D03*
X016078Y021988D03*
X015578Y021988D03*
X015078Y021988D03*
X014578Y021988D03*
X014078Y021988D03*
X013578Y021988D03*
D18*
X031005Y021554D03*
X031005Y023247D03*
D19*
X027737Y019697D03*
X026045Y019697D03*
X026045Y018122D03*
X027737Y018122D03*
X027737Y016547D03*
X026045Y016547D03*
D20*
X036962Y012387D03*
X036962Y010379D03*
X040506Y010379D03*
X040506Y012387D03*
D21*
X016740Y009369D02*
X016740Y009211D01*
X016740Y009369D02*
X016780Y009369D01*
X016780Y009211D01*
X016740Y009211D01*
X016740Y009249D02*
X016780Y009249D01*
X016780Y009287D02*
X016740Y009287D01*
X016740Y009325D02*
X016780Y009325D01*
X016780Y009363D02*
X016740Y009363D01*
X016543Y009369D02*
X016543Y009211D01*
X016543Y009369D02*
X016583Y009369D01*
X016583Y009211D01*
X016543Y009211D01*
X016543Y009249D02*
X016583Y009249D01*
X016583Y009287D02*
X016543Y009287D01*
X016543Y009325D02*
X016583Y009325D01*
X016583Y009363D02*
X016543Y009363D01*
X016346Y009369D02*
X016346Y009211D01*
X016346Y009369D02*
X016386Y009369D01*
X016386Y009211D01*
X016346Y009211D01*
X016346Y009249D02*
X016386Y009249D01*
X016386Y009287D02*
X016346Y009287D01*
X016346Y009325D02*
X016386Y009325D01*
X016386Y009363D02*
X016346Y009363D01*
X016346Y008779D02*
X016346Y008621D01*
X016346Y008779D02*
X016386Y008779D01*
X016386Y008621D01*
X016346Y008621D01*
X016346Y008659D02*
X016386Y008659D01*
X016386Y008697D02*
X016346Y008697D01*
X016346Y008735D02*
X016386Y008735D01*
X016386Y008773D02*
X016346Y008773D01*
X016543Y008779D02*
X016543Y008621D01*
X016543Y008779D02*
X016583Y008779D01*
X016583Y008621D01*
X016543Y008621D01*
X016543Y008659D02*
X016583Y008659D01*
X016583Y008697D02*
X016543Y008697D01*
X016543Y008735D02*
X016583Y008735D01*
X016583Y008773D02*
X016543Y008773D01*
X016740Y008779D02*
X016740Y008621D01*
X016740Y008779D02*
X016780Y008779D01*
X016780Y008621D01*
X016740Y008621D01*
X016740Y008659D02*
X016780Y008659D01*
X016780Y008697D02*
X016740Y008697D01*
X016740Y008735D02*
X016780Y008735D01*
X016780Y008773D02*
X016740Y008773D01*
D22*
X016425Y008995D02*
X016425Y008995D01*
X016701Y008995D01*
X016701Y008995D01*
X016425Y008995D01*
D23*
X014198Y029084D03*
X013860Y029084D03*
X013860Y029733D03*
X014198Y029733D03*
X019765Y029733D03*
X020104Y029733D03*
X020104Y029084D03*
X019765Y029084D03*
X025671Y029084D03*
X026009Y029084D03*
X026009Y029733D03*
X025671Y029733D03*
X031576Y029733D03*
X031915Y029733D03*
X031915Y029084D03*
X031576Y029084D03*
D24*
X032214Y017907D02*
X032550Y017907D01*
X032214Y017907D02*
X032214Y017907D01*
X032550Y017907D01*
X032550Y017907D01*
X032550Y017407D02*
X032214Y017407D01*
X032214Y017407D01*
X032550Y017407D01*
X032550Y017407D01*
X032550Y016907D02*
X032214Y016907D01*
X032214Y016907D01*
X032550Y016907D01*
X032550Y016907D01*
X032550Y016407D02*
X032214Y016407D01*
X032214Y016407D01*
X032550Y016407D01*
X032550Y016407D01*
X030188Y016407D02*
X029852Y016407D01*
X029852Y016407D01*
X030188Y016407D01*
X030188Y016407D01*
X030188Y016907D02*
X029852Y016907D01*
X029852Y016907D01*
X030188Y016907D01*
X030188Y016907D01*
X030188Y017407D02*
X029852Y017407D01*
X029852Y017407D01*
X030188Y017407D01*
X030188Y017407D01*
X030188Y017907D02*
X029852Y017907D01*
X029852Y017907D01*
X030188Y017907D01*
X030188Y017907D01*
D25*
X031220Y017207D03*
D26*
X033029Y020611D03*
X033029Y022304D03*
D27*
X014466Y007127D03*
X012694Y007127D03*
D28*
X012200Y008117D03*
X014960Y008117D03*
D29*
X020940Y011367D03*
X021440Y011367D03*
X021940Y011367D03*
X022440Y011367D03*
X022940Y011367D03*
X023440Y011367D03*
X023940Y011367D03*
X024440Y011367D03*
X026460Y011367D03*
X026960Y011367D03*
X027460Y011367D03*
X027960Y011367D03*
X028460Y011367D03*
X028960Y011367D03*
X029460Y011367D03*
X029960Y011367D03*
X029960Y014817D03*
X029460Y014817D03*
X028960Y014817D03*
X028460Y014817D03*
X027960Y014817D03*
X027460Y014817D03*
X026960Y014817D03*
X026460Y014817D03*
X024440Y014817D03*
X023940Y014817D03*
X023440Y014817D03*
X022940Y014817D03*
X022440Y014817D03*
X021940Y014817D03*
X021440Y014817D03*
X020940Y014817D03*
D30*
X015764Y013700D03*
X015508Y013700D03*
X015252Y013700D03*
X014996Y013700D03*
X014996Y012834D03*
X015252Y012834D03*
X015508Y012834D03*
X015764Y012834D03*
D31*
X009481Y010707D03*
X008319Y010707D03*
D32*
X008900Y010107D03*
M02*
