G75*
%MOIN*%
%OFA0B0*%
%FSLAX24Y24*%
%IPPOS*%
%LPD*%
%AMOC8*
5,1,8,0,0,1.08239X$1,22.5*
%
%ADD10C,0.0240*%
%ADD11C,0.1000*%
%ADD12OC8,0.1000*%
%ADD13C,0.1660*%
%ADD14C,0.1502*%
%ADD15C,0.0630*%
%ADD16OC8,0.0630*%
%ADD17C,0.0591*%
%ADD18C,0.0886*%
%ADD19C,0.0472*%
%ADD20R,0.1063X0.1457*%
%ADD21C,0.0394*%
%ADD22OC8,0.0600*%
%ADD23C,0.0600*%
%ADD24C,0.0555*%
%ADD25C,0.0945*%
%ADD26R,0.0378X0.0378*%
%ADD27C,0.0378*%
%ADD28C,0.0320*%
%ADD29C,0.0320*%
%ADD30C,0.0080*%
%ADD31C,0.0160*%
%ADD32C,0.0356*%
D10*
X007940Y007607D03*
X010280Y007727D03*
X010280Y008687D03*
X010280Y009587D03*
X008120Y009527D03*
X008120Y011987D03*
X012200Y011747D03*
X013400Y011087D03*
X013940Y010007D03*
X014720Y012527D03*
X015740Y014327D03*
X019100Y016907D03*
X021320Y016247D03*
X022820Y016187D03*
X025040Y015047D03*
X024800Y014087D03*
X023900Y013067D03*
X024800Y012587D03*
X026420Y012527D03*
X027440Y012227D03*
X028820Y012167D03*
X030560Y011027D03*
X031040Y009827D03*
X031880Y010727D03*
X031760Y011807D03*
X036860Y011687D03*
X031580Y016727D03*
X031220Y016727D03*
X030860Y016727D03*
X030860Y017747D03*
X031220Y017747D03*
X031580Y017747D03*
X032900Y017387D03*
X028880Y018587D03*
X028820Y019247D03*
X027740Y017507D03*
X025220Y018107D03*
X025220Y021407D03*
X025580Y022127D03*
X022940Y021587D03*
X020660Y024647D03*
X019640Y024587D03*
X018320Y025427D03*
X018020Y025427D03*
X018020Y025787D03*
X018320Y025787D03*
X018320Y026147D03*
X018020Y026147D03*
X018020Y026507D03*
X018320Y026507D03*
X018320Y026867D03*
X018020Y026867D03*
X017639Y026856D03*
X017639Y026502D03*
X017639Y026148D03*
X017284Y026148D03*
X017284Y026502D03*
X016930Y026502D03*
X016930Y026856D03*
X017284Y026856D03*
X016930Y026148D03*
X016930Y025793D03*
X016930Y025439D03*
X017284Y025439D03*
X017284Y025793D03*
X017639Y025793D03*
X017639Y025439D03*
X016400Y024587D03*
X016580Y024107D03*
X016160Y024047D03*
X015620Y023987D03*
X015200Y024107D03*
X014540Y023987D03*
X014060Y023987D03*
X013640Y024047D03*
X013220Y024107D03*
X013220Y024827D03*
X014120Y024947D03*
X015620Y024887D03*
X015320Y022667D03*
X014720Y021347D03*
X014720Y021047D03*
X014480Y020627D03*
X014420Y020207D03*
X014000Y020147D03*
X013580Y020447D03*
X013280Y020147D03*
X012560Y020867D03*
X011420Y021347D03*
X010700Y020687D03*
X010340Y021347D03*
X009560Y021347D03*
X009080Y022667D03*
X008360Y022667D03*
X008060Y022667D03*
X008360Y023987D03*
X009560Y024227D03*
X010160Y024227D03*
X011360Y024827D03*
X011840Y023927D03*
X011600Y022607D03*
X010580Y022667D03*
X009860Y022727D03*
X007640Y021347D03*
X008600Y019847D03*
X011480Y019667D03*
X011900Y018887D03*
X011840Y018587D03*
X013040Y019067D03*
X014480Y019487D03*
X015860Y018827D03*
X016700Y019007D03*
X016640Y019307D03*
X016640Y019667D03*
X017120Y019007D03*
X017720Y018587D03*
X015860Y020747D03*
X017720Y021587D03*
X018680Y022367D03*
X018920Y021347D03*
X016880Y022667D03*
X012980Y022667D03*
X012680Y022667D03*
X008060Y025187D03*
X009260Y027647D03*
X009920Y028007D03*
X007640Y028607D03*
X008360Y030527D03*
X012320Y028247D03*
X012980Y027527D03*
X013280Y027527D03*
X015740Y028247D03*
X015920Y028847D03*
X017060Y029627D03*
X017120Y028427D03*
X018140Y029087D03*
X019460Y030527D03*
X018980Y027287D03*
X022340Y026147D03*
X024140Y026327D03*
X024860Y028847D03*
X026720Y028847D03*
X032360Y030527D03*
X032540Y029627D03*
X037640Y028787D03*
X039920Y028007D03*
X038000Y026627D03*
X026720Y013727D03*
X022880Y012407D03*
X021920Y012287D03*
X020900Y012407D03*
X018020Y009827D03*
X017960Y008987D03*
X017900Y008387D03*
X019220Y006947D03*
X016940Y006107D03*
X016400Y006647D03*
X015800Y006227D03*
X012860Y005687D03*
X011720Y007007D03*
X011240Y004907D03*
X020180Y009527D03*
X022760Y007787D03*
X023120Y006827D03*
X025460Y009107D03*
X025220Y010727D03*
X030080Y007127D03*
X011900Y016367D03*
X012140Y016907D03*
X011120Y016547D03*
X014420Y030527D03*
D11*
X022340Y026927D03*
X024143Y027115D03*
X012920Y018227D03*
X008900Y020687D03*
X014900Y014327D03*
X013580Y012827D03*
X015020Y011867D03*
X018404Y012464D03*
X021380Y008987D03*
X022580Y008987D03*
X027140Y008447D03*
X028520Y008507D03*
X027440Y016847D03*
D12*
X018404Y014464D03*
X024143Y025115D03*
D13*
X036160Y007282D03*
D14*
X038050Y006160D03*
X036160Y004821D03*
D15*
X028368Y023335D03*
X031760Y026727D03*
D16*
X031760Y025327D03*
X026968Y023335D03*
D17*
X018375Y007882D03*
X018375Y007094D03*
X018375Y006307D03*
X018375Y005520D03*
D18*
X017253Y005323D03*
X019497Y005323D03*
X019497Y008079D03*
X017253Y008079D03*
X008840Y005447D03*
D19*
X031220Y017207D03*
D20*
X031220Y017207D03*
D21*
X022280Y022907D03*
X011240Y009707D03*
X039740Y004907D03*
X039920Y028907D03*
D22*
X015580Y026727D03*
X014580Y026727D03*
X013580Y026727D03*
X012580Y026727D03*
X011580Y026727D03*
X010580Y026727D03*
X009580Y026727D03*
X008580Y026727D03*
X008580Y025727D03*
X009580Y025727D03*
X010580Y025727D03*
X011580Y025727D03*
X012580Y025727D03*
X013580Y025727D03*
X014580Y025727D03*
X015580Y025727D03*
X012580Y014727D03*
X011580Y014727D03*
X010580Y014727D03*
X010580Y013727D03*
X011580Y013727D03*
X012580Y013727D03*
X009580Y013727D03*
X008580Y013727D03*
X008580Y014727D03*
X009580Y014727D03*
D23*
X009920Y029007D02*
X009920Y029607D01*
X008920Y029607D02*
X008920Y029007D01*
X007920Y029007D02*
X007920Y029607D01*
X010920Y029607D02*
X010920Y029007D01*
X036750Y029647D02*
X036750Y030247D01*
X038530Y030247D02*
X038530Y029647D01*
X038530Y027687D02*
X038530Y027087D01*
X036750Y027087D02*
X036750Y027687D01*
D24*
X031340Y005888D03*
X030540Y005888D03*
X029741Y005888D03*
X028942Y005888D03*
X029285Y005187D03*
X030084Y005187D03*
X030883Y005187D03*
X031682Y005187D03*
X024722Y005127D03*
X024380Y005828D03*
X023580Y005828D03*
X023923Y005127D03*
X023124Y005127D03*
X022781Y005828D03*
X021982Y005828D03*
X022325Y005127D03*
D25*
X009840Y004447D03*
X007840Y004447D03*
X007840Y006447D03*
X009840Y006447D03*
D26*
X034902Y009176D03*
X034902Y026176D03*
D27*
X034902Y027176D03*
X034902Y028176D03*
X034902Y029176D03*
X034902Y012176D03*
X034902Y011176D03*
X034902Y010176D03*
D28*
X007440Y003833D02*
X007440Y003507D01*
X020179Y003507D01*
X020080Y003606D01*
X019940Y003944D01*
X019940Y004310D01*
X020080Y004648D01*
X020339Y004907D01*
X020677Y005047D01*
X021043Y005047D01*
X021197Y004983D01*
X021180Y005024D01*
X021180Y006471D01*
X021229Y006589D01*
X021319Y006679D01*
X021739Y007099D01*
X021856Y007147D01*
X022874Y007147D01*
X022893Y007167D01*
X023040Y007227D01*
X023140Y007227D01*
X023140Y008445D01*
X023022Y008326D01*
X022735Y008207D01*
X022425Y008207D01*
X022138Y008326D01*
X021980Y008484D01*
X021822Y008326D01*
X021535Y008207D01*
X021225Y008207D01*
X020938Y008326D01*
X020719Y008546D01*
X020708Y008571D01*
X020641Y008599D01*
X020512Y008728D01*
X020442Y008896D01*
X020442Y009079D01*
X020512Y009247D01*
X020641Y009376D01*
X020708Y009404D01*
X020719Y009429D01*
X020938Y009649D01*
X021225Y009767D01*
X021535Y009767D01*
X021822Y009649D01*
X021980Y009490D01*
X022138Y009649D01*
X022264Y009701D01*
X020111Y011854D01*
X019987Y011978D01*
X019920Y012140D01*
X019920Y012583D01*
X019893Y012518D01*
X019769Y012394D01*
X019466Y012091D01*
X019305Y012024D01*
X019066Y012024D01*
X019065Y012023D01*
X018845Y011803D01*
X018559Y011684D01*
X018248Y011684D01*
X017962Y011803D01*
X017742Y012023D01*
X017624Y012309D01*
X017624Y012620D01*
X017742Y012906D01*
X017962Y013126D01*
X018248Y013244D01*
X018559Y013244D01*
X018845Y013126D01*
X019051Y012920D01*
X019080Y012950D01*
X019080Y014066D01*
X018718Y013704D01*
X018404Y013704D01*
X018404Y014464D01*
X018404Y014464D01*
X018404Y013704D01*
X018089Y013704D01*
X017644Y014150D01*
X017644Y014464D01*
X018404Y014464D01*
X018404Y014464D01*
X018404Y014464D01*
X018404Y015224D01*
X018718Y015224D01*
X019080Y014863D01*
X019080Y016507D01*
X019020Y016507D01*
X018873Y016568D01*
X018858Y016583D01*
X018329Y016054D01*
X018168Y015987D01*
X014272Y015987D01*
X014111Y016054D01*
X013987Y016178D01*
X013920Y016340D01*
X013920Y016515D01*
X013950Y016587D01*
X013533Y016587D01*
X012501Y015556D01*
X012384Y015507D01*
X009273Y015507D01*
X008946Y015181D01*
X009080Y015048D01*
X009340Y015307D01*
X009820Y015307D01*
X010080Y015048D01*
X010340Y015307D01*
X010820Y015307D01*
X011080Y015048D01*
X011340Y015307D01*
X011820Y015307D01*
X012080Y015048D01*
X012340Y015307D01*
X012820Y015307D01*
X013160Y014968D01*
X013160Y014487D01*
X012900Y014227D01*
X013160Y013968D01*
X013160Y013498D01*
X013425Y013607D01*
X013735Y013607D01*
X014022Y013489D01*
X014241Y013269D01*
X014360Y012983D01*
X014360Y012704D01*
X014381Y012754D01*
X014493Y012867D01*
X014640Y012927D01*
X014800Y012927D01*
X014947Y012867D01*
X015059Y012754D01*
X015103Y012647D01*
X015175Y012647D01*
X015462Y012529D01*
X015681Y012309D01*
X015800Y012023D01*
X015800Y011712D01*
X015681Y011426D01*
X015462Y011206D01*
X015175Y011087D01*
X014865Y011087D01*
X014578Y011206D01*
X014359Y011426D01*
X014240Y011712D01*
X014240Y012023D01*
X014359Y012309D01*
X014372Y012322D01*
X014320Y012448D01*
X014320Y012576D01*
X014241Y012386D01*
X014022Y012166D01*
X013735Y012047D01*
X013713Y012047D01*
X016881Y008879D01*
X016881Y008879D01*
X016971Y008789D01*
X016987Y008751D01*
X017109Y008802D01*
X017397Y008802D01*
X017662Y008692D01*
X017866Y008488D01*
X017962Y008255D01*
X018013Y008305D01*
X018084Y008357D01*
X018162Y008396D01*
X018245Y008423D01*
X018331Y008437D01*
X018375Y008437D01*
X018375Y007882D01*
X018375Y007882D01*
X018375Y008437D01*
X018418Y008437D01*
X018197Y008658D01*
X018187Y008648D01*
X018040Y008587D01*
X017880Y008587D01*
X017733Y008648D01*
X017621Y008761D01*
X017560Y008908D01*
X017560Y009067D01*
X017621Y009214D01*
X017733Y009327D01*
X017880Y009387D01*
X018007Y009387D01*
X017967Y009427D01*
X017940Y009427D01*
X017793Y009488D01*
X017681Y009601D01*
X017620Y009748D01*
X017620Y009907D01*
X017681Y010054D01*
X017793Y010167D01*
X017940Y010227D01*
X018100Y010227D01*
X018247Y010167D01*
X018359Y010054D01*
X018420Y009907D01*
X018420Y009880D01*
X018453Y009847D01*
X019934Y009847D01*
X019953Y009867D01*
X020100Y009927D01*
X020260Y009927D01*
X020407Y009867D01*
X020519Y009754D01*
X020580Y009607D01*
X020580Y009448D01*
X020519Y009301D01*
X020407Y009188D01*
X020260Y009127D01*
X020100Y009127D01*
X019953Y009188D01*
X019934Y009207D01*
X018553Y009207D01*
X018591Y009169D01*
X018591Y009169D01*
X018921Y008839D01*
X018921Y008839D01*
X019011Y008749D01*
X019050Y008655D01*
X019087Y008692D01*
X019353Y008802D01*
X019641Y008802D01*
X019906Y008692D01*
X020110Y008488D01*
X020220Y008223D01*
X020220Y007935D01*
X020110Y007669D01*
X019906Y007466D01*
X019714Y007386D01*
X019791Y007309D01*
X019840Y007191D01*
X019840Y006584D01*
X019791Y006466D01*
X019371Y006046D01*
X019641Y006046D01*
X019906Y005936D01*
X020110Y005732D01*
X020220Y005467D01*
X020220Y005179D01*
X020110Y004913D01*
X019906Y004710D01*
X019641Y004600D01*
X019353Y004600D01*
X019087Y004710D01*
X018884Y004913D01*
X018796Y005127D01*
X018701Y005032D01*
X018489Y004944D01*
X018260Y004944D01*
X018049Y005032D01*
X017954Y005127D01*
X017866Y004913D01*
X017662Y004710D01*
X017397Y004600D01*
X017109Y004600D01*
X016843Y004710D01*
X016640Y004913D01*
X016530Y005179D01*
X016530Y005467D01*
X016640Y005732D01*
X016655Y005747D01*
X015848Y005747D01*
X015716Y005802D01*
X015670Y005848D01*
X015573Y005888D01*
X015461Y006001D01*
X015400Y006148D01*
X015400Y006307D01*
X015461Y006454D01*
X015573Y006567D01*
X015720Y006627D01*
X015880Y006627D01*
X016027Y006567D01*
X016126Y006467D01*
X016764Y006467D01*
X016860Y006507D01*
X017020Y006507D01*
X017167Y006447D01*
X017279Y006334D01*
X017340Y006187D01*
X017340Y006046D01*
X017397Y006046D01*
X017662Y005936D01*
X017848Y005750D01*
X017887Y005846D01*
X017955Y005913D01*
X017922Y005947D01*
X017899Y005956D01*
X017809Y006046D01*
X016249Y007606D01*
X016200Y007724D01*
X016200Y008435D01*
X015280Y009355D01*
X015280Y005984D01*
X015231Y005866D01*
X015141Y005776D01*
X014781Y005416D01*
X014664Y005367D01*
X013106Y005367D01*
X013087Y005348D01*
X012940Y005287D01*
X012780Y005287D01*
X012633Y005348D01*
X012521Y005461D01*
X012460Y005608D01*
X012460Y005767D01*
X012521Y005914D01*
X012633Y006027D01*
X012780Y006087D01*
X012940Y006087D01*
X013087Y006027D01*
X013106Y006007D01*
X014467Y006007D01*
X014640Y006180D01*
X014640Y009395D01*
X013347Y010687D01*
X013320Y010687D01*
X013173Y010748D01*
X013061Y010861D01*
X013000Y011008D01*
X013000Y011167D01*
X013061Y011314D01*
X013173Y011427D01*
X013198Y011437D01*
X011707Y012927D01*
X010756Y012927D01*
X010639Y012976D01*
X010549Y013066D01*
X010467Y013147D01*
X010340Y013147D01*
X010080Y013407D01*
X009820Y013147D01*
X009340Y013147D01*
X009066Y013421D01*
X008812Y013167D01*
X008580Y013167D01*
X008580Y013727D01*
X008580Y013727D01*
X008580Y013167D01*
X008348Y013167D01*
X008020Y013495D01*
X008020Y013727D01*
X008580Y013727D01*
X008580Y013727D01*
X008020Y013727D01*
X008020Y013959D01*
X008274Y014213D01*
X008000Y014487D01*
X008000Y014968D01*
X008260Y015228D01*
X008260Y015331D01*
X008309Y015449D01*
X008869Y016009D01*
X008959Y016099D01*
X009076Y016147D01*
X012187Y016147D01*
X013129Y017089D01*
X013219Y017179D01*
X013336Y017227D01*
X014424Y017227D01*
X014541Y017179D01*
X014673Y017047D01*
X017767Y017047D01*
X018240Y017520D01*
X018240Y020691D01*
X018289Y020809D01*
X018591Y021111D01*
X018581Y021121D01*
X018520Y021268D01*
X018520Y021427D01*
X018581Y021574D01*
X018660Y021653D01*
X018660Y021927D01*
X018592Y021927D01*
X018431Y021994D01*
X018307Y022118D01*
X018240Y022280D01*
X018240Y024165D01*
X018018Y024387D01*
X017100Y024387D01*
X017140Y024291D01*
X017140Y022973D01*
X017219Y022894D01*
X017280Y022747D01*
X017280Y022588D01*
X017219Y022441D01*
X017107Y022328D01*
X016960Y022268D01*
X016960Y019913D01*
X016979Y019894D01*
X017040Y019747D01*
X017040Y019588D01*
X016998Y019487D01*
X017033Y019404D01*
X017040Y019407D01*
X017200Y019407D01*
X017347Y019347D01*
X017459Y019234D01*
X017460Y019232D01*
X017460Y021282D01*
X017381Y021361D01*
X017320Y021508D01*
X017320Y021667D01*
X017381Y021814D01*
X017493Y021927D01*
X017640Y021987D01*
X017800Y021987D01*
X017947Y021927D01*
X018059Y021814D01*
X018120Y021667D01*
X018120Y021508D01*
X018100Y021460D01*
X018100Y018715D01*
X018120Y018667D01*
X018120Y018508D01*
X018059Y018361D01*
X017947Y018248D01*
X017800Y018187D01*
X017640Y018187D01*
X017493Y018248D01*
X017381Y018361D01*
X017320Y018508D01*
X017320Y018657D01*
X017200Y018607D01*
X017173Y018607D01*
X017151Y018586D01*
X017061Y018496D01*
X016944Y018447D01*
X016456Y018447D01*
X016339Y018496D01*
X016209Y018626D01*
X016199Y018601D01*
X016087Y018488D01*
X015940Y018427D01*
X015780Y018427D01*
X015633Y018488D01*
X015521Y018601D01*
X015460Y018748D01*
X015460Y018907D01*
X015521Y019054D01*
X015540Y019073D01*
X015540Y020502D01*
X015521Y020521D01*
X015460Y020668D01*
X015460Y020827D01*
X015521Y020974D01*
X015633Y021087D01*
X015780Y021147D01*
X015780Y023375D01*
X015727Y023427D01*
X015376Y023427D01*
X015280Y023467D01*
X015280Y023160D01*
X015373Y023067D01*
X015400Y023067D01*
X015547Y023007D01*
X015659Y022894D01*
X015720Y022747D01*
X015720Y022588D01*
X015659Y022441D01*
X015547Y022328D01*
X015400Y022267D01*
X015240Y022267D01*
X015093Y022328D01*
X014981Y022441D01*
X014980Y022443D01*
X014980Y021653D01*
X015059Y021574D01*
X015120Y021427D01*
X015120Y021268D01*
X015091Y021197D01*
X015120Y021127D01*
X015120Y020968D01*
X015059Y020821D01*
X015040Y020802D01*
X015040Y020084D01*
X014991Y019966D01*
X014779Y019754D01*
X014819Y019714D01*
X014880Y019567D01*
X014880Y019408D01*
X014819Y019261D01*
X014707Y019148D01*
X014560Y019087D01*
X014400Y019087D01*
X014253Y019148D01*
X014234Y019167D01*
X012933Y019167D01*
X012820Y019055D01*
X012820Y019007D01*
X013075Y019007D01*
X013362Y018889D01*
X013581Y018669D01*
X013700Y018383D01*
X013700Y018072D01*
X013581Y017786D01*
X013362Y017566D01*
X013075Y017447D01*
X012765Y017447D01*
X012478Y017566D01*
X012460Y017584D01*
X012460Y017153D01*
X012479Y017134D01*
X012540Y016987D01*
X012540Y016828D01*
X012479Y016681D01*
X012367Y016568D01*
X012220Y016507D01*
X012060Y016507D01*
X011913Y016568D01*
X011801Y016681D01*
X011740Y016828D01*
X011740Y016987D01*
X011801Y017134D01*
X011820Y017153D01*
X011820Y018187D01*
X011760Y018187D01*
X011613Y018248D01*
X011501Y018361D01*
X011440Y018508D01*
X011440Y018535D01*
X009907Y020067D01*
X009616Y020067D01*
X009499Y020116D01*
X009465Y020150D01*
X009342Y020026D01*
X009055Y019907D01*
X009000Y019907D01*
X009000Y019768D01*
X008939Y019621D01*
X008827Y019508D01*
X008680Y019447D01*
X008520Y019447D01*
X008373Y019508D01*
X008261Y019621D01*
X008200Y019768D01*
X008200Y019795D01*
X007969Y020026D01*
X007920Y020144D01*
X007920Y021062D01*
X007867Y021008D01*
X007720Y020947D01*
X007560Y020947D01*
X007440Y020997D01*
X007440Y007062D01*
X007515Y007106D01*
X007604Y007142D01*
X007697Y007167D01*
X007792Y007180D01*
X007840Y007180D01*
X007840Y006447D01*
X007840Y005715D01*
X007840Y006447D01*
X007840Y006447D01*
X007840Y006447D01*
X008572Y006447D01*
X008572Y006399D01*
X008560Y006304D01*
X008535Y006211D01*
X008498Y006123D01*
X008472Y006078D01*
X008696Y006170D01*
X008984Y006170D01*
X009208Y006078D01*
X009182Y006123D01*
X009145Y006211D01*
X009120Y006304D01*
X009108Y006399D01*
X009108Y006447D01*
X009840Y006447D01*
X009840Y005715D01*
X009888Y005715D01*
X009983Y005727D01*
X010076Y005752D01*
X010165Y005789D01*
X010248Y005837D01*
X010324Y005896D01*
X010392Y005963D01*
X010450Y006040D01*
X010498Y006123D01*
X010535Y006211D01*
X010560Y006304D01*
X010572Y006399D01*
X010572Y006447D01*
X009840Y006447D01*
X009840Y006447D01*
X009840Y005715D01*
X009792Y005715D01*
X009697Y005727D01*
X009604Y005752D01*
X009515Y005789D01*
X009470Y005815D01*
X009563Y005591D01*
X009563Y005304D01*
X009470Y005080D01*
X009515Y005106D01*
X009604Y005142D01*
X009697Y005167D01*
X009792Y005180D01*
X009840Y005180D01*
X009840Y004447D01*
X009840Y003715D01*
X009888Y003715D01*
X009983Y003727D01*
X010076Y003752D01*
X010165Y003789D01*
X010248Y003837D01*
X010324Y003896D01*
X010392Y003963D01*
X010450Y004040D01*
X010498Y004123D01*
X010535Y004211D01*
X010560Y004304D01*
X010572Y004399D01*
X010572Y004447D01*
X009840Y004447D01*
X009840Y004447D01*
X009840Y003715D01*
X009792Y003715D01*
X009697Y003727D01*
X009604Y003752D01*
X009515Y003789D01*
X009432Y003837D01*
X009356Y003896D01*
X009288Y003963D01*
X009230Y004040D01*
X009182Y004123D01*
X009145Y004211D01*
X009120Y004304D01*
X009108Y004399D01*
X009108Y004447D01*
X009840Y004447D01*
X009840Y004447D01*
X009840Y004447D01*
X010572Y004447D01*
X010572Y004495D01*
X010560Y004591D01*
X010535Y004683D01*
X010498Y004772D01*
X010450Y004855D01*
X010392Y004931D01*
X010324Y004999D01*
X010248Y005058D01*
X010165Y005106D01*
X010076Y005142D01*
X009983Y005167D01*
X009888Y005180D01*
X009840Y005180D01*
X009840Y004447D01*
X009108Y004447D01*
X009108Y004495D01*
X009120Y004591D01*
X009145Y004683D01*
X009182Y004772D01*
X009208Y004817D01*
X008984Y004724D01*
X008696Y004724D01*
X008472Y004817D01*
X008498Y004772D01*
X008535Y004683D01*
X008560Y004591D01*
X008572Y004495D01*
X008572Y004447D01*
X007840Y004447D01*
X007840Y003715D01*
X007888Y003715D01*
X007983Y003727D01*
X008076Y003752D01*
X008165Y003789D01*
X008248Y003837D01*
X008324Y003896D01*
X008392Y003963D01*
X008450Y004040D01*
X008498Y004123D01*
X008535Y004211D01*
X008560Y004304D01*
X008572Y004399D01*
X008572Y004447D01*
X007840Y004447D01*
X007840Y004447D01*
X007840Y003715D01*
X007792Y003715D01*
X007697Y003727D01*
X007604Y003752D01*
X007515Y003789D01*
X007440Y003833D01*
X007440Y003546D02*
X020141Y003546D01*
X019973Y003864D02*
X010283Y003864D01*
X010523Y004183D02*
X019940Y004183D01*
X020019Y004501D02*
X010572Y004501D01*
X010471Y004820D02*
X010843Y004820D01*
X010840Y004828D02*
X010901Y004681D01*
X011013Y004568D01*
X011160Y004507D01*
X011320Y004507D01*
X011467Y004568D01*
X011579Y004681D01*
X011640Y004828D01*
X011640Y004987D01*
X011579Y005134D01*
X011560Y005153D01*
X011560Y006395D01*
X011773Y006607D01*
X011800Y006607D01*
X011947Y006668D01*
X012059Y006781D01*
X012120Y006928D01*
X012120Y007087D01*
X012059Y007234D01*
X011947Y007347D01*
X011800Y007407D01*
X011640Y007407D01*
X011493Y007347D01*
X011381Y007234D01*
X011320Y007087D01*
X011320Y007060D01*
X010969Y006709D01*
X010920Y006591D01*
X010920Y005153D01*
X010901Y005134D01*
X010840Y004987D01*
X010840Y004828D01*
X010905Y005138D02*
X010086Y005138D01*
X009840Y005138D02*
X009840Y005138D01*
X009594Y005138D02*
X009494Y005138D01*
X009563Y005457D02*
X010920Y005457D01*
X010920Y005775D02*
X010132Y005775D01*
X009840Y005775D02*
X009840Y005775D01*
X009548Y005775D02*
X009487Y005775D01*
X009198Y006094D02*
X009168Y006094D01*
X009108Y006412D02*
X008572Y006412D01*
X008572Y006447D02*
X008572Y006495D01*
X008560Y006591D01*
X008535Y006683D01*
X008498Y006772D01*
X008450Y006855D01*
X008392Y006931D01*
X008324Y006999D01*
X008248Y007058D01*
X008165Y007106D01*
X008076Y007142D01*
X007983Y007167D01*
X007888Y007180D01*
X007840Y007180D01*
X007840Y006447D01*
X009840Y006447D01*
X009840Y006447D01*
X009840Y006447D01*
X009108Y006447D01*
X009108Y006495D01*
X009120Y006591D01*
X009145Y006683D01*
X009182Y006772D01*
X009230Y006855D01*
X009288Y006931D01*
X009356Y006999D01*
X009432Y007058D01*
X009515Y007106D01*
X009604Y007142D01*
X009697Y007167D01*
X009792Y007180D01*
X009840Y007180D01*
X009840Y006447D01*
X010572Y006447D01*
X010572Y006495D01*
X010560Y006591D01*
X010535Y006683D01*
X010498Y006772D01*
X010450Y006855D01*
X010392Y006931D01*
X010324Y006999D01*
X010248Y007058D01*
X010165Y007106D01*
X010076Y007142D01*
X009983Y007167D01*
X009888Y007180D01*
X009840Y007180D01*
X009840Y006447D01*
X009840Y006447D01*
X009840Y006412D02*
X009840Y006412D01*
X009840Y006094D02*
X009840Y006094D01*
X010482Y006094D02*
X010920Y006094D01*
X010920Y006412D02*
X010572Y006412D01*
X010515Y006731D02*
X010991Y006731D01*
X011309Y007049D02*
X010259Y007049D01*
X009840Y007049D02*
X009840Y007049D01*
X009840Y006731D02*
X009840Y006731D01*
X009421Y007049D02*
X008259Y007049D01*
X008515Y006731D02*
X009165Y006731D01*
X008572Y006447D02*
X007840Y006447D01*
X007840Y006447D01*
X007840Y006412D02*
X007840Y006412D01*
X007840Y006094D02*
X007840Y006094D01*
X007840Y005775D02*
X007840Y005775D01*
X007840Y005715D02*
X007792Y005715D01*
X007697Y005727D01*
X007604Y005752D01*
X007515Y005789D01*
X007440Y005833D01*
X007440Y005062D01*
X007515Y005106D01*
X007604Y005142D01*
X007697Y005167D01*
X007792Y005180D01*
X007840Y005180D01*
X007840Y004447D01*
X007840Y004447D01*
X007840Y004447D01*
X007840Y005180D01*
X007888Y005180D01*
X007983Y005167D01*
X008076Y005142D01*
X008165Y005106D01*
X008210Y005080D01*
X008117Y005304D01*
X008117Y005591D01*
X008210Y005815D01*
X008165Y005789D01*
X008076Y005752D01*
X007983Y005727D01*
X007888Y005715D01*
X007840Y005715D01*
X008132Y005775D02*
X008193Y005775D01*
X008117Y005457D02*
X007440Y005457D01*
X007440Y005775D02*
X007548Y005775D01*
X007594Y005138D02*
X007440Y005138D01*
X007840Y005138D02*
X007840Y005138D01*
X008086Y005138D02*
X008186Y005138D01*
X007840Y004820D02*
X007840Y004820D01*
X007840Y004501D02*
X007840Y004501D01*
X007840Y004183D02*
X007840Y004183D01*
X007840Y003864D02*
X007840Y003864D01*
X008283Y003864D02*
X009397Y003864D01*
X009157Y004183D02*
X008523Y004183D01*
X008572Y004501D02*
X009108Y004501D01*
X009840Y004501D02*
X009840Y004501D01*
X009840Y004447D02*
X009840Y004447D01*
X009840Y004183D02*
X009840Y004183D01*
X009840Y003864D02*
X009840Y003864D01*
X009840Y004820D02*
X009840Y004820D01*
X011575Y005138D02*
X016547Y005138D01*
X016530Y005457D02*
X014822Y005457D01*
X015141Y005775D02*
X015781Y005775D01*
X015422Y006094D02*
X015280Y006094D01*
X015280Y006412D02*
X015444Y006412D01*
X015280Y006731D02*
X017124Y006731D01*
X017201Y006412D02*
X017442Y006412D01*
X017340Y006094D02*
X017761Y006094D01*
X017823Y005775D02*
X017858Y005775D01*
X017772Y004820D02*
X018977Y004820D01*
X020016Y004820D02*
X020252Y004820D01*
X020203Y005138D02*
X021180Y005138D01*
X021180Y005457D02*
X020220Y005457D01*
X020067Y005775D02*
X021180Y005775D01*
X021180Y006094D02*
X019419Y006094D01*
X019738Y006412D02*
X021180Y006412D01*
X021371Y006731D02*
X019840Y006731D01*
X019840Y007049D02*
X021689Y007049D01*
X023140Y007368D02*
X019732Y007368D01*
X020117Y007686D02*
X023140Y007686D01*
X023140Y008005D02*
X020220Y008005D01*
X020178Y008323D02*
X020945Y008323D01*
X020598Y008642D02*
X019956Y008642D01*
X020442Y008960D02*
X018800Y008960D01*
X018213Y008642D02*
X018171Y008642D01*
X018038Y008323D02*
X017934Y008323D01*
X017749Y008642D02*
X017712Y008642D01*
X017560Y008960D02*
X016800Y008960D01*
X016481Y009279D02*
X017686Y009279D01*
X017684Y009597D02*
X016163Y009597D01*
X015844Y009916D02*
X017624Y009916D01*
X018416Y009916D02*
X020073Y009916D01*
X020287Y009916D02*
X022049Y009916D01*
X022087Y009597D02*
X021873Y009597D01*
X021731Y010234D02*
X015526Y010234D01*
X015207Y010553D02*
X021412Y010553D01*
X021094Y010871D02*
X014889Y010871D01*
X014617Y011190D02*
X014570Y011190D01*
X014324Y011508D02*
X014252Y011508D01*
X014240Y011827D02*
X013933Y011827D01*
X013972Y012145D02*
X014291Y012145D01*
X014274Y012464D02*
X014320Y012464D01*
X014360Y012782D02*
X014409Y012782D01*
X014311Y013101D02*
X017937Y013101D01*
X017691Y012782D02*
X015031Y012782D01*
X015527Y012464D02*
X017624Y012464D01*
X017691Y012145D02*
X015749Y012145D01*
X015800Y011827D02*
X017938Y011827D01*
X018404Y012464D02*
X019217Y012464D01*
X019520Y012767D01*
X019520Y020207D01*
X020360Y021047D01*
X026780Y021047D01*
X027860Y022127D01*
X036080Y022127D01*
X036469Y022337D02*
X040914Y022337D01*
X040914Y022019D02*
X036511Y022019D01*
X036520Y022040D02*
X036520Y022215D01*
X036453Y022377D01*
X036329Y022500D01*
X036168Y022567D01*
X027772Y022567D01*
X027611Y022500D01*
X027487Y022377D01*
X026598Y021487D01*
X025620Y021487D01*
X025600Y021535D01*
X025600Y021687D01*
X025668Y021687D01*
X025829Y021754D01*
X025953Y021878D01*
X026020Y022040D01*
X026020Y024885D01*
X027422Y026287D01*
X031359Y026287D01*
X031423Y026223D01*
X031642Y026132D01*
X031878Y026132D01*
X032097Y026223D01*
X032264Y026390D01*
X032355Y026609D01*
X032355Y026700D01*
X032391Y026736D01*
X034739Y026736D01*
X034809Y026707D01*
X034996Y026707D01*
X035168Y026778D01*
X035300Y026910D01*
X035371Y027083D01*
X035371Y027269D01*
X035342Y027339D01*
X035342Y028013D01*
X035371Y028083D01*
X035371Y028269D01*
X035300Y028442D01*
X035168Y028574D01*
X034996Y028645D01*
X034809Y028645D01*
X034637Y028574D01*
X034505Y028442D01*
X034433Y028269D01*
X034433Y028083D01*
X034462Y028013D01*
X034462Y027616D01*
X032121Y027616D01*
X031959Y027549D01*
X031733Y027322D01*
X031642Y027322D01*
X031423Y027232D01*
X031359Y027167D01*
X027152Y027167D01*
X027040Y027121D01*
X027040Y028602D01*
X027059Y028621D01*
X027120Y028768D01*
X027120Y028927D01*
X027059Y029074D01*
X026947Y029187D01*
X026800Y029247D01*
X026640Y029247D01*
X026493Y029187D01*
X026381Y029074D01*
X026362Y029029D01*
X026191Y029029D01*
X025994Y028947D01*
X025844Y028797D01*
X025806Y028705D01*
X025768Y028797D01*
X025617Y028947D01*
X025420Y029029D01*
X025218Y029029D01*
X025199Y029074D01*
X025087Y029187D01*
X024940Y029247D01*
X024780Y029247D01*
X024633Y029187D01*
X024521Y029074D01*
X024460Y028927D01*
X024460Y028768D01*
X024521Y028621D01*
X024540Y028602D01*
X024540Y027824D01*
X024555Y027789D01*
X024299Y027895D01*
X023988Y027895D01*
X023986Y027894D01*
X023620Y028260D01*
X023458Y028327D01*
X020929Y028327D01*
X020954Y028386D01*
X020954Y028600D01*
X020872Y028797D01*
X020722Y028947D01*
X020525Y029029D01*
X020311Y029029D01*
X020114Y028947D01*
X019964Y028797D01*
X019926Y028705D01*
X019888Y028797D01*
X019737Y028947D01*
X019540Y029029D01*
X019327Y029029D01*
X019130Y028947D01*
X018979Y028797D01*
X018898Y028600D01*
X018898Y028386D01*
X018922Y028327D01*
X016140Y028327D01*
X016079Y028474D01*
X016075Y028478D01*
X016147Y028508D01*
X016259Y028621D01*
X016320Y028768D01*
X016320Y028927D01*
X016259Y029074D01*
X016147Y029187D01*
X016000Y029247D01*
X015973Y029247D01*
X014806Y030414D01*
X014820Y030448D01*
X014820Y030506D01*
X018987Y030506D01*
X017959Y029479D01*
X017869Y029389D01*
X017864Y029377D01*
X017801Y029314D01*
X017740Y029167D01*
X017740Y029008D01*
X017801Y028861D01*
X017913Y028748D01*
X018060Y028687D01*
X018220Y028687D01*
X018367Y028748D01*
X018479Y028861D01*
X018540Y029008D01*
X018540Y029155D01*
X019513Y030127D01*
X019540Y030127D01*
X019687Y030188D01*
X019799Y030301D01*
X019860Y030448D01*
X019860Y030506D01*
X031960Y030506D01*
X031960Y030448D01*
X032021Y030301D01*
X032040Y030282D01*
X032040Y029744D01*
X032089Y029626D01*
X032140Y029575D01*
X032140Y029548D01*
X032201Y029401D01*
X032313Y029288D01*
X032460Y029227D01*
X032620Y029227D01*
X032767Y029288D01*
X032879Y029401D01*
X032940Y029548D01*
X032940Y029707D01*
X032879Y029854D01*
X032767Y029967D01*
X032680Y030002D01*
X032680Y030282D01*
X032699Y030301D01*
X032760Y030448D01*
X032760Y030506D01*
X036230Y030506D01*
X036170Y030363D01*
X036170Y029532D01*
X036258Y029319D01*
X036421Y029156D01*
X036635Y029067D01*
X036865Y029067D01*
X037079Y029156D01*
X037242Y029319D01*
X037330Y029532D01*
X037330Y030363D01*
X037270Y030506D01*
X038010Y030506D01*
X037950Y030363D01*
X037950Y029532D01*
X038038Y029319D01*
X038201Y029156D01*
X038220Y029148D01*
X038220Y028560D01*
X037819Y028159D01*
X037729Y028069D01*
X037680Y027951D01*
X037680Y026873D01*
X037661Y026854D01*
X037600Y026707D01*
X037600Y026548D01*
X037661Y026401D01*
X037773Y026288D01*
X037920Y026227D01*
X038080Y026227D01*
X038227Y026288D01*
X038339Y026401D01*
X038388Y026518D01*
X038415Y026507D01*
X038426Y026507D01*
X038355Y026241D01*
X038355Y025883D01*
X038448Y025536D01*
X038627Y025225D01*
X038881Y024972D01*
X039192Y024792D01*
X039538Y024699D01*
X039897Y024699D01*
X040244Y024792D01*
X040554Y024972D01*
X040808Y025225D01*
X040914Y025409D01*
X040914Y005727D01*
X040900Y005479D01*
X040790Y004994D01*
X040574Y004546D01*
X040264Y004158D01*
X039875Y003848D01*
X039427Y003632D01*
X038943Y003521D01*
X038694Y003507D01*
X033441Y003507D01*
X033600Y003666D01*
X033740Y004004D01*
X033740Y004370D01*
X033600Y004708D01*
X033341Y004967D01*
X033003Y005107D01*
X032660Y005107D01*
X032660Y008339D01*
X032605Y008471D01*
X031407Y009669D01*
X031440Y009748D01*
X031440Y009907D01*
X031379Y010054D01*
X031267Y010167D01*
X031120Y010227D01*
X030960Y010227D01*
X030813Y010167D01*
X030701Y010054D01*
X030640Y009907D01*
X030640Y009887D01*
X030620Y009839D01*
X030620Y009557D01*
X027819Y012357D01*
X027779Y012454D01*
X027667Y012567D01*
X027520Y012627D01*
X027360Y012627D01*
X027213Y012567D01*
X027101Y012454D01*
X027072Y012384D01*
X026799Y012657D01*
X026759Y012754D01*
X026647Y012867D01*
X026500Y012927D01*
X026340Y012927D01*
X026260Y012894D01*
X026260Y017595D01*
X026193Y017757D01*
X025469Y018480D01*
X025308Y018547D01*
X025132Y018547D01*
X024971Y018480D01*
X024940Y018450D01*
X024940Y019485D01*
X025222Y019767D01*
X039858Y019767D01*
X040020Y019605D01*
X040020Y010940D01*
X040087Y010778D01*
X040211Y010654D01*
X040372Y010587D01*
X040548Y010587D01*
X040709Y010654D01*
X040833Y010778D01*
X040900Y010940D01*
X040900Y019875D01*
X040833Y020037D01*
X040709Y020160D01*
X040413Y020457D01*
X040289Y020580D01*
X040128Y020647D01*
X026964Y020647D01*
X027029Y020674D01*
X028042Y021687D01*
X036168Y021687D01*
X036329Y021754D01*
X036453Y021878D01*
X036520Y022040D01*
X036199Y021700D02*
X040914Y021700D01*
X040914Y021382D02*
X027737Y021382D01*
X027418Y021063D02*
X040914Y021063D01*
X040914Y020745D02*
X027100Y020745D01*
X026811Y021700D02*
X025699Y021700D01*
X025580Y022127D02*
X025580Y025067D01*
X027240Y026727D01*
X031760Y026727D01*
X032209Y027176D01*
X034902Y027176D01*
X034902Y028176D01*
X034483Y028389D02*
X032774Y028389D01*
X032774Y028386D02*
X032692Y028190D01*
X032542Y028039D01*
X032345Y027957D01*
X032131Y027957D01*
X031934Y028039D01*
X031784Y028190D01*
X031746Y028281D01*
X031708Y028190D01*
X031557Y028039D01*
X031360Y027957D01*
X031147Y027957D01*
X030950Y028039D01*
X030799Y028190D01*
X030718Y028386D01*
X030718Y028600D01*
X030799Y028797D01*
X030950Y028947D01*
X031147Y029029D01*
X031360Y029029D01*
X031557Y028947D01*
X031708Y028797D01*
X031746Y028705D01*
X031784Y028797D01*
X031934Y028947D01*
X032131Y029029D01*
X032345Y029029D01*
X032542Y028947D01*
X032692Y028797D01*
X032774Y028600D01*
X032774Y028386D01*
X032729Y028707D02*
X038220Y028707D01*
X038220Y029026D02*
X035326Y029026D01*
X035318Y029004D02*
X035340Y029071D01*
X035351Y029141D01*
X035351Y029176D01*
X034902Y029176D01*
X034453Y029176D01*
X034453Y029141D01*
X034464Y029071D01*
X034486Y029004D01*
X034518Y028941D01*
X034560Y028884D01*
X034610Y028834D01*
X034667Y028792D01*
X034730Y028760D01*
X034797Y028738D01*
X034867Y028727D01*
X034902Y028727D01*
X034902Y029176D01*
X034902Y029176D01*
X034453Y029176D01*
X034453Y029211D01*
X034464Y029281D01*
X034486Y029348D01*
X034518Y029411D01*
X034560Y029469D01*
X034610Y029519D01*
X034667Y029560D01*
X034730Y029592D01*
X034797Y029614D01*
X034867Y029625D01*
X034902Y029625D01*
X034902Y029176D01*
X034902Y029176D01*
X034902Y029176D01*
X035271Y029176D01*
X035600Y028847D01*
X035600Y026874D01*
X034902Y026176D01*
X034453Y026176D01*
X034453Y025961D01*
X034463Y025911D01*
X034483Y025864D01*
X034511Y025821D01*
X034548Y025785D01*
X034590Y025757D01*
X034638Y025737D01*
X034688Y025727D01*
X034902Y025727D01*
X034902Y026176D01*
X034902Y026176D01*
X034453Y026176D01*
X034453Y026391D01*
X034463Y026441D01*
X034483Y026488D01*
X034511Y026531D01*
X034548Y026567D01*
X034590Y026595D01*
X034638Y026615D01*
X034688Y026625D01*
X034902Y026625D01*
X034902Y026176D01*
X034902Y026176D01*
X034902Y026176D01*
X034902Y025727D01*
X035117Y025727D01*
X035167Y025737D01*
X035214Y025757D01*
X035257Y025785D01*
X035293Y025821D01*
X035322Y025864D01*
X035341Y025911D01*
X035351Y025961D01*
X035351Y026176D01*
X034902Y026176D01*
X034902Y026625D01*
X035117Y026625D01*
X035167Y026615D01*
X035214Y026595D01*
X035257Y026567D01*
X035293Y026531D01*
X035322Y026488D01*
X035341Y026441D01*
X035351Y026391D01*
X035351Y026176D01*
X034902Y026176D01*
X034902Y026176D01*
X034902Y026159D02*
X034902Y026159D01*
X034902Y025841D02*
X034902Y025841D01*
X034498Y025841D02*
X032060Y025841D01*
X031998Y025902D02*
X032335Y025566D01*
X032335Y025327D01*
X031760Y025327D01*
X031760Y024752D01*
X031760Y025327D01*
X031760Y025327D01*
X031185Y025327D01*
X031185Y025089D01*
X031522Y024752D01*
X031760Y024752D01*
X031998Y024752D01*
X032335Y025089D01*
X032335Y025327D01*
X031760Y025327D01*
X031760Y025327D01*
X031760Y025327D01*
X031185Y025327D01*
X031185Y025566D01*
X031522Y025902D01*
X031760Y025902D01*
X031760Y025327D01*
X031760Y025327D01*
X031760Y025902D01*
X031998Y025902D01*
X031760Y025841D02*
X031760Y025841D01*
X031460Y025841D02*
X026976Y025841D01*
X027294Y026159D02*
X031576Y026159D01*
X031944Y026159D02*
X034453Y026159D01*
X034479Y026478D02*
X032301Y026478D01*
X032335Y025522D02*
X038456Y025522D01*
X038366Y025841D02*
X035306Y025841D01*
X035351Y026159D02*
X038355Y026159D01*
X038371Y026478D02*
X038418Y026478D01*
X037629Y026478D02*
X035326Y026478D01*
X035186Y026796D02*
X036243Y026796D01*
X036258Y026759D02*
X036421Y026596D01*
X036635Y026507D01*
X036865Y026507D01*
X037079Y026596D01*
X037242Y026759D01*
X037330Y026972D01*
X037330Y027803D01*
X037242Y028016D01*
X037079Y028179D01*
X036865Y028267D01*
X036635Y028267D01*
X036421Y028179D01*
X036258Y028016D01*
X036170Y027803D01*
X036170Y026972D01*
X036258Y026759D01*
X036170Y027115D02*
X035371Y027115D01*
X035342Y027433D02*
X036170Y027433D01*
X036170Y027752D02*
X035342Y027752D01*
X035366Y028070D02*
X036313Y028070D01*
X037187Y028070D02*
X037730Y028070D01*
X037680Y027752D02*
X037330Y027752D01*
X037330Y027433D02*
X037680Y027433D01*
X037680Y027115D02*
X037330Y027115D01*
X037257Y026796D02*
X037637Y026796D01*
X039110Y027285D02*
X039110Y027803D01*
X039022Y028016D01*
X038859Y028179D01*
X038778Y028213D01*
X038811Y028246D01*
X038860Y028364D01*
X038860Y029157D01*
X039022Y029319D01*
X039110Y029532D01*
X039110Y030363D01*
X039068Y030464D01*
X039427Y030382D01*
X039875Y030166D01*
X040264Y029856D01*
X040574Y029468D01*
X040790Y029020D01*
X040900Y028535D01*
X040914Y028286D01*
X040914Y026715D01*
X040808Y026899D01*
X040554Y027152D01*
X040244Y027332D01*
X039897Y027425D01*
X039538Y027425D01*
X039192Y027332D01*
X039110Y027285D01*
X039110Y027433D02*
X040914Y027433D01*
X040914Y027115D02*
X040592Y027115D01*
X040867Y026796D02*
X040914Y026796D01*
X040914Y027752D02*
X039110Y027752D01*
X038967Y028070D02*
X040914Y028070D01*
X040908Y028389D02*
X040395Y028389D01*
X040398Y028391D02*
X040412Y028414D01*
X040414Y028415D01*
X040437Y028430D01*
X040456Y028458D01*
X040480Y028482D01*
X040491Y028507D01*
X040492Y028508D01*
X040512Y028527D01*
X040526Y028557D01*
X040546Y028585D01*
X040551Y028612D01*
X040552Y028614D01*
X040569Y028635D01*
X040578Y028668D01*
X040592Y028699D01*
X040593Y028726D01*
X040594Y028728D01*
X040606Y028752D01*
X040609Y028786D01*
X040618Y028819D01*
X040614Y028846D01*
X040615Y028848D01*
X040623Y028874D01*
X040620Y028907D01*
X040623Y028941D01*
X040615Y028967D01*
X040614Y028969D01*
X040618Y028996D01*
X040609Y029029D01*
X040606Y029063D01*
X040594Y029087D01*
X040593Y029089D01*
X040592Y029116D01*
X040578Y029147D01*
X040569Y029180D01*
X040552Y029201D01*
X040551Y029203D01*
X040546Y029229D01*
X040526Y029257D01*
X040512Y029288D01*
X040492Y029307D01*
X040491Y029308D01*
X040480Y029333D01*
X040456Y029357D01*
X040437Y029385D01*
X040414Y029400D01*
X040412Y029401D01*
X040398Y029424D01*
X040370Y029444D01*
X040346Y029468D01*
X040321Y029478D01*
X040319Y029479D01*
X040301Y029499D01*
X040270Y029514D01*
X040242Y029533D01*
X040215Y029539D01*
X040214Y029540D01*
X040192Y029556D01*
X040159Y029565D01*
X040129Y029579D01*
X040101Y029581D01*
X040100Y029581D01*
X040075Y029594D01*
X040042Y029597D01*
X040009Y029605D01*
X039982Y029602D01*
X039980Y029602D01*
X039954Y029610D01*
X039920Y029607D01*
X039886Y029610D01*
X039860Y029602D01*
X039858Y029602D01*
X039831Y029605D01*
X039798Y029597D01*
X039765Y029594D01*
X039740Y029581D01*
X039739Y029581D01*
X039711Y029579D01*
X039681Y029565D01*
X039648Y029556D01*
X039626Y029540D01*
X039625Y029539D01*
X039598Y029533D01*
X039570Y029514D01*
X039539Y029499D01*
X039521Y029479D01*
X039519Y029478D01*
X039494Y029468D01*
X039470Y029444D01*
X039442Y029424D01*
X039428Y029401D01*
X039426Y029400D01*
X039403Y029385D01*
X039384Y029357D01*
X039360Y029333D01*
X039349Y029308D01*
X039348Y029307D01*
X039328Y029288D01*
X039314Y029257D01*
X039294Y029229D01*
X039289Y029203D01*
X039288Y029201D01*
X039271Y029180D01*
X039262Y029147D01*
X039248Y029116D01*
X039247Y029089D01*
X039246Y029087D01*
X039234Y029063D01*
X039231Y029029D01*
X039222Y028996D01*
X039226Y028969D01*
X039225Y028967D01*
X039217Y028941D01*
X039220Y028907D01*
X039217Y028874D01*
X039225Y028848D01*
X039226Y028846D01*
X039222Y028819D01*
X039231Y028786D01*
X039234Y028752D01*
X039246Y028728D01*
X039247Y028726D01*
X039248Y028699D01*
X039262Y028668D01*
X039271Y028635D01*
X039288Y028614D01*
X039289Y028612D01*
X039294Y028585D01*
X039314Y028557D01*
X039328Y028527D01*
X039348Y028508D01*
X039349Y028507D01*
X039360Y028482D01*
X039384Y028458D01*
X039403Y028430D01*
X039426Y028415D01*
X039428Y028414D01*
X039442Y028391D01*
X039470Y028371D01*
X039494Y028347D01*
X039519Y028337D01*
X039521Y028336D01*
X039539Y028316D01*
X039570Y028301D01*
X039598Y028282D01*
X039625Y028276D01*
X039626Y028275D01*
X039648Y028259D01*
X039681Y028250D01*
X039711Y028235D01*
X039739Y028234D01*
X039740Y028234D01*
X039765Y028221D01*
X039798Y028218D01*
X039831Y028209D01*
X039858Y028213D01*
X039860Y028213D01*
X039886Y028205D01*
X039920Y028208D01*
X039954Y028205D01*
X039980Y028213D01*
X039982Y028213D01*
X040009Y028209D01*
X040042Y028218D01*
X040075Y028221D01*
X040100Y028234D01*
X040101Y028234D01*
X040129Y028235D01*
X040159Y028250D01*
X040192Y028259D01*
X040214Y028275D01*
X040215Y028276D01*
X040242Y028282D01*
X040270Y028301D01*
X040301Y028316D01*
X040319Y028336D01*
X040321Y028337D01*
X040346Y028347D01*
X040370Y028371D01*
X040398Y028391D01*
X040592Y028707D02*
X040861Y028707D01*
X040787Y029026D02*
X040610Y029026D01*
X040633Y029344D02*
X040469Y029344D01*
X040418Y029663D02*
X039110Y029663D01*
X039110Y029981D02*
X040107Y029981D01*
X039598Y030300D02*
X039110Y030300D01*
X039032Y029344D02*
X039371Y029344D01*
X039230Y029026D02*
X038860Y029026D01*
X038860Y028707D02*
X039248Y028707D01*
X039445Y028389D02*
X038860Y028389D01*
X038049Y028389D02*
X035322Y028389D01*
X035138Y028792D02*
X035195Y028834D01*
X035245Y028884D01*
X035286Y028941D01*
X035318Y029004D01*
X035351Y029176D02*
X035351Y029211D01*
X035340Y029281D01*
X035318Y029348D01*
X035286Y029411D01*
X035245Y029469D01*
X035195Y029519D01*
X035138Y029560D01*
X035075Y029592D01*
X035007Y029614D01*
X034938Y029625D01*
X034902Y029625D01*
X034902Y029176D01*
X034902Y028727D01*
X034938Y028727D01*
X035007Y028738D01*
X035075Y028760D01*
X035138Y028792D01*
X034902Y029026D02*
X034902Y029026D01*
X034902Y029176D02*
X034902Y029176D01*
X035351Y029176D01*
X035320Y029344D02*
X036248Y029344D01*
X036170Y029663D02*
X032940Y029663D01*
X032823Y029344D02*
X034485Y029344D01*
X034479Y029026D02*
X032352Y029026D01*
X032124Y029026D02*
X031368Y029026D01*
X031140Y029026D02*
X027079Y029026D01*
X027095Y028707D02*
X030762Y028707D01*
X030718Y028389D02*
X027040Y028389D01*
X027040Y028070D02*
X030918Y028070D01*
X031589Y028070D02*
X031903Y028070D01*
X031844Y027433D02*
X027040Y027433D01*
X027040Y027752D02*
X034462Y027752D01*
X034439Y028070D02*
X032573Y028070D01*
X031747Y028707D02*
X031745Y028707D01*
X032257Y029344D02*
X018730Y029344D01*
X018540Y029026D02*
X019320Y029026D01*
X019548Y029026D02*
X020304Y029026D01*
X020532Y029026D02*
X024501Y029026D01*
X024485Y028707D02*
X020909Y028707D01*
X020954Y028389D02*
X024540Y028389D01*
X024540Y028070D02*
X023810Y028070D01*
X023371Y027887D02*
X024143Y027115D01*
X023363Y027115D02*
X023107Y027115D01*
X023120Y027083D02*
X023001Y027369D01*
X022923Y027447D01*
X023188Y027447D01*
X023364Y027272D01*
X023363Y027270D01*
X023363Y026959D01*
X023482Y026673D01*
X023702Y026453D01*
X023988Y026335D01*
X024299Y026335D01*
X024585Y026453D01*
X024780Y026648D01*
X024780Y025553D01*
X024458Y025875D01*
X024143Y025875D01*
X023829Y025875D01*
X023383Y025429D01*
X023383Y025115D01*
X024143Y025115D01*
X024143Y025115D01*
X024143Y025875D01*
X024143Y025115D01*
X024143Y025115D01*
X023383Y025115D01*
X023383Y024800D01*
X023829Y024355D01*
X024143Y024355D01*
X024143Y025115D01*
X024143Y025115D01*
X024143Y024355D01*
X024458Y024355D01*
X024780Y024676D01*
X024780Y023220D01*
X023307Y021747D01*
X023279Y021814D01*
X023167Y021927D01*
X023020Y021987D01*
X022860Y021987D01*
X022713Y021927D01*
X022601Y021814D01*
X022540Y021667D01*
X022540Y021508D01*
X022548Y021487D01*
X020773Y021487D01*
X020871Y021586D01*
X020920Y021704D01*
X020920Y024035D01*
X021231Y024346D01*
X021280Y024464D01*
X021280Y024635D01*
X022393Y025747D01*
X022420Y025747D01*
X022567Y025808D01*
X022679Y025921D01*
X022740Y026068D01*
X022740Y026227D01*
X022732Y026246D01*
X022782Y026266D01*
X023001Y026486D01*
X023120Y026772D01*
X023120Y027083D01*
X023120Y026796D02*
X023431Y026796D01*
X023677Y026478D02*
X022994Y026478D01*
X022740Y026159D02*
X024780Y026159D01*
X024780Y025841D02*
X024492Y025841D01*
X024143Y025841D02*
X024143Y025841D01*
X024143Y025522D02*
X024143Y025522D01*
X024143Y025204D02*
X024143Y025204D01*
X024143Y024885D02*
X024143Y024885D01*
X024143Y024567D02*
X024143Y024567D01*
X024671Y024567D02*
X024780Y024567D01*
X024780Y024248D02*
X021134Y024248D01*
X021280Y024567D02*
X023616Y024567D01*
X023383Y024885D02*
X021531Y024885D01*
X021849Y025204D02*
X023383Y025204D01*
X023476Y025522D02*
X022168Y025522D01*
X022599Y025841D02*
X023795Y025841D01*
X024610Y026478D02*
X024780Y026478D01*
X023202Y027433D02*
X022937Y027433D01*
X023371Y027887D02*
X022340Y027887D01*
X015560Y027887D01*
X016340Y027107D01*
X016340Y026087D01*
X015980Y025727D01*
X015980Y025547D01*
X016700Y024827D01*
X018200Y024827D01*
X018680Y024347D01*
X018680Y022367D01*
X018240Y022337D02*
X017116Y022337D01*
X016960Y022019D02*
X018406Y022019D01*
X018660Y021700D02*
X018106Y021700D01*
X018100Y021382D02*
X018520Y021382D01*
X018543Y021063D02*
X018100Y021063D01*
X018100Y020745D02*
X018262Y020745D01*
X018240Y020426D02*
X018100Y020426D01*
X018100Y020108D02*
X018240Y020108D01*
X018240Y019789D02*
X018100Y019789D01*
X018100Y019471D02*
X018240Y019471D01*
X018240Y019152D02*
X018100Y019152D01*
X018100Y018834D02*
X018240Y018834D01*
X018240Y018515D02*
X018120Y018515D01*
X018080Y018467D02*
X018080Y024227D01*
X018020Y024287D01*
X018157Y024248D02*
X017140Y024248D01*
X017140Y023930D02*
X018240Y023930D01*
X018240Y023611D02*
X017140Y023611D01*
X017140Y023293D02*
X018240Y023293D01*
X018240Y022974D02*
X017140Y022974D01*
X017280Y022656D02*
X018240Y022656D01*
X017334Y021700D02*
X016960Y021700D01*
X016960Y021382D02*
X017372Y021382D01*
X017460Y021063D02*
X016960Y021063D01*
X016960Y020745D02*
X017460Y020745D01*
X017460Y020426D02*
X016960Y020426D01*
X016960Y020108D02*
X017460Y020108D01*
X017460Y019789D02*
X017022Y019789D01*
X017005Y019471D02*
X017460Y019471D01*
X017320Y018515D02*
X017081Y018515D01*
X016319Y018515D02*
X016114Y018515D01*
X015606Y018515D02*
X013645Y018515D01*
X013700Y018197D02*
X017617Y018197D01*
X017823Y018197D02*
X018240Y018197D01*
X018240Y017878D02*
X013620Y017878D01*
X013347Y017560D02*
X018240Y017560D01*
X017961Y017241D02*
X012460Y017241D01*
X012460Y017560D02*
X012493Y017560D01*
X012540Y016923D02*
X012963Y016923D01*
X012644Y016604D02*
X012403Y016604D01*
X012326Y016286D02*
X007440Y016286D01*
X007440Y016604D02*
X011877Y016604D01*
X011740Y016923D02*
X007440Y016923D01*
X007440Y017241D02*
X011820Y017241D01*
X011820Y017560D02*
X007440Y017560D01*
X007440Y017878D02*
X011820Y017878D01*
X011737Y018197D02*
X007440Y018197D01*
X007440Y018515D02*
X011440Y018515D01*
X011141Y018834D02*
X007440Y018834D01*
X007440Y019152D02*
X010822Y019152D01*
X010504Y019471D02*
X008736Y019471D01*
X008464Y019471D02*
X007440Y019471D01*
X007440Y019789D02*
X008200Y019789D01*
X007935Y020108D02*
X007440Y020108D01*
X007440Y020426D02*
X007920Y020426D01*
X007920Y020745D02*
X007440Y020745D01*
X009000Y019789D02*
X010185Y019789D01*
X009519Y020108D02*
X009424Y020108D01*
X010375Y020745D02*
X011340Y020745D01*
X011340Y020948D02*
X011340Y019844D01*
X011385Y019735D01*
X010120Y021000D01*
X010120Y021006D01*
X010260Y020947D01*
X010420Y020947D01*
X010516Y020987D01*
X010952Y020987D01*
X011084Y021042D01*
X011122Y021080D01*
X011193Y021008D01*
X011340Y020948D01*
X011138Y021063D02*
X011105Y021063D01*
X011340Y020426D02*
X010694Y020426D01*
X011012Y020108D02*
X011340Y020108D01*
X011331Y019789D02*
X011363Y019789D01*
X012340Y020160D02*
X012340Y022443D01*
X012341Y022441D01*
X012453Y022328D01*
X012600Y022267D01*
X012760Y022267D01*
X012830Y022297D01*
X012900Y022267D01*
X013060Y022267D01*
X013207Y022328D01*
X013319Y022441D01*
X013380Y022588D01*
X013380Y022747D01*
X013319Y022894D01*
X013300Y022913D01*
X013300Y023575D01*
X013380Y023495D01*
X013380Y021000D01*
X013309Y020929D01*
X013260Y020811D01*
X013260Y020693D01*
X013241Y020674D01*
X013180Y020527D01*
X013180Y020368D01*
X013241Y020221D01*
X013353Y020108D01*
X013500Y020047D01*
X013608Y020047D01*
X013633Y019987D01*
X012513Y019987D01*
X012340Y020160D01*
X012392Y020108D02*
X013354Y020108D01*
X013180Y020426D02*
X012340Y020426D01*
X012340Y020745D02*
X013260Y020745D01*
X013380Y021063D02*
X012340Y021063D01*
X012340Y021382D02*
X013380Y021382D01*
X013380Y021700D02*
X012340Y021700D01*
X012340Y022019D02*
X013380Y022019D01*
X013380Y022337D02*
X013216Y022337D01*
X013380Y022656D02*
X013380Y022656D01*
X013380Y022974D02*
X013300Y022974D01*
X013300Y023293D02*
X013380Y023293D01*
X013899Y024354D02*
X013867Y024387D01*
X013720Y024447D01*
X013653Y024447D01*
X013761Y024556D01*
X013851Y024646D01*
X013900Y024764D01*
X013900Y025227D01*
X013974Y025301D01*
X013999Y025276D01*
X014460Y024815D01*
X014460Y024387D01*
X014313Y024327D01*
X014300Y024313D01*
X014287Y024327D01*
X014140Y024387D01*
X013980Y024387D01*
X013899Y024354D01*
X013772Y024567D02*
X014460Y024567D01*
X014389Y024885D02*
X013900Y024885D01*
X013900Y025204D02*
X014071Y025204D01*
X015280Y025204D02*
X015283Y025204D01*
X015280Y025207D02*
X015340Y025147D01*
X015758Y025147D01*
X016076Y024829D01*
X016061Y024814D01*
X016000Y024667D01*
X016000Y024508D01*
X016033Y024428D01*
X015933Y024387D01*
X015860Y024313D01*
X015847Y024327D01*
X015700Y024387D01*
X015540Y024387D01*
X015502Y024371D01*
X015427Y024447D01*
X015280Y024507D01*
X015280Y025207D01*
X015280Y024885D02*
X016020Y024885D01*
X016000Y024567D02*
X015280Y024567D01*
X015580Y025727D02*
X015980Y025727D01*
X016930Y026994D02*
X016930Y027236D01*
X016930Y026994D01*
X016930Y026994D01*
X016930Y027115D02*
X016930Y027115D01*
X016930Y027236D02*
X016892Y027236D01*
X016819Y027222D01*
X016776Y027204D01*
X016713Y027357D01*
X016622Y027447D01*
X018613Y027447D01*
X018580Y027367D01*
X018580Y027208D01*
X018641Y027061D01*
X018660Y027042D01*
X018660Y024990D01*
X018573Y025077D01*
X018449Y025200D01*
X018288Y025267D01*
X017979Y025267D01*
X018004Y025328D01*
X018019Y025401D01*
X018019Y025439D01*
X018019Y025476D01*
X018004Y025550D01*
X017977Y025616D01*
X018004Y025682D01*
X018019Y025756D01*
X018019Y025793D01*
X017776Y025793D01*
X017776Y025793D01*
X017776Y025793D01*
X018019Y025793D01*
X018019Y025831D01*
X018004Y025904D01*
X017977Y025970D01*
X018004Y026037D01*
X018019Y026110D01*
X018019Y026148D01*
X018019Y026185D01*
X018004Y026258D01*
X017977Y026325D01*
X018004Y026391D01*
X018019Y026464D01*
X018019Y026502D01*
X018019Y026539D01*
X018004Y026613D01*
X017977Y026679D01*
X018004Y026745D01*
X018019Y026819D01*
X018019Y026856D01*
X017776Y026856D01*
X018019Y026856D01*
X018019Y026894D01*
X018004Y026967D01*
X017975Y027036D01*
X017934Y027098D01*
X017881Y027151D01*
X017819Y027193D01*
X017749Y027222D01*
X017676Y027236D01*
X017639Y027236D01*
X017639Y026994D01*
X017639Y027236D01*
X017601Y027236D01*
X017528Y027222D01*
X017461Y027194D01*
X017395Y027222D01*
X017322Y027236D01*
X017284Y027236D01*
X017247Y027236D01*
X017173Y027222D01*
X017107Y027194D01*
X017041Y027222D01*
X016967Y027236D01*
X016930Y027236D01*
X016636Y027433D02*
X018608Y027433D01*
X018618Y027115D02*
X017917Y027115D01*
X017639Y027115D02*
X017639Y027115D01*
X017639Y026994D02*
X017639Y026994D01*
X017776Y026856D02*
X017776Y026856D01*
X018014Y026796D02*
X018660Y026796D01*
X018660Y026478D02*
X018019Y026478D01*
X018019Y026502D02*
X017776Y026502D01*
X017776Y026502D01*
X017776Y026502D01*
X018019Y026502D01*
X018019Y026159D02*
X018660Y026159D01*
X018660Y025841D02*
X018017Y025841D01*
X018019Y026148D02*
X017776Y026148D01*
X018019Y026148D01*
X017776Y026148D02*
X017776Y026148D01*
X017776Y026148D01*
X018009Y025522D02*
X018660Y025522D01*
X018660Y025204D02*
X018441Y025204D01*
X018573Y025077D02*
X018573Y025077D01*
X018019Y025439D02*
X017776Y025439D01*
X017776Y025439D01*
X018019Y025439D01*
X017284Y026994D02*
X017284Y026994D01*
X017284Y027236D01*
X017284Y026994D01*
X017284Y026994D01*
X017284Y027115D02*
X017284Y027115D01*
X016114Y028389D02*
X018898Y028389D01*
X018942Y028707D02*
X018268Y028707D01*
X018012Y028707D02*
X016295Y028707D01*
X016279Y029026D02*
X017740Y029026D01*
X017831Y029344D02*
X015876Y029344D01*
X015557Y029663D02*
X018143Y029663D01*
X017959Y029479D02*
X017959Y029479D01*
X018461Y029981D02*
X015239Y029981D01*
X014920Y030300D02*
X018780Y030300D01*
X019048Y029663D02*
X032073Y029663D01*
X032040Y029981D02*
X019367Y029981D01*
X019798Y030300D02*
X032022Y030300D01*
X032698Y030300D02*
X036170Y030300D01*
X036170Y029981D02*
X032731Y029981D01*
X034902Y029344D02*
X034902Y029344D01*
X037252Y029344D02*
X038028Y029344D01*
X037950Y029663D02*
X037330Y029663D01*
X037330Y029981D02*
X037950Y029981D01*
X037950Y030300D02*
X037330Y030300D01*
X034902Y026478D02*
X034902Y026478D01*
X032335Y025204D02*
X038649Y025204D01*
X039030Y024885D02*
X032131Y024885D01*
X031760Y024885D02*
X031760Y024885D01*
X031760Y025204D02*
X031760Y025204D01*
X031760Y025522D02*
X031760Y025522D01*
X031185Y025522D02*
X026657Y025522D01*
X026339Y025204D02*
X031185Y025204D01*
X031389Y024885D02*
X026020Y024885D01*
X026020Y024567D02*
X040914Y024567D01*
X040914Y024885D02*
X040405Y024885D01*
X040787Y025204D02*
X040914Y025204D01*
X040914Y024248D02*
X026020Y024248D01*
X026020Y023930D02*
X028248Y023930D01*
X028249Y023930D02*
X028031Y023840D01*
X027863Y023672D01*
X027773Y023454D01*
X027773Y023217D01*
X027863Y022998D01*
X028031Y022831D01*
X028249Y022740D01*
X028486Y022740D01*
X028705Y022831D01*
X028872Y022998D01*
X028963Y023217D01*
X028963Y023454D01*
X028872Y023672D01*
X028705Y023840D01*
X028486Y023930D01*
X028249Y023930D01*
X028487Y023930D02*
X040914Y023930D01*
X040914Y023611D02*
X028897Y023611D01*
X028963Y023293D02*
X040914Y023293D01*
X040914Y022974D02*
X028848Y022974D01*
X027887Y022974D02*
X027420Y022974D01*
X027543Y023097D02*
X027543Y023335D01*
X026968Y023335D01*
X026968Y022760D01*
X027206Y022760D01*
X027543Y023097D01*
X027543Y023293D02*
X027773Y023293D01*
X027543Y023335D02*
X027543Y023574D01*
X027206Y023910D01*
X026968Y023910D01*
X026968Y023335D01*
X026968Y023335D01*
X026968Y023335D01*
X026968Y022760D01*
X026730Y022760D01*
X026393Y023097D01*
X026393Y023335D01*
X026968Y023335D01*
X027543Y023335D01*
X027505Y023611D02*
X027838Y023611D01*
X026968Y023611D02*
X026968Y023611D01*
X026968Y023335D02*
X026968Y023910D01*
X026730Y023910D01*
X026393Y023574D01*
X026393Y023335D01*
X026968Y023335D01*
X026968Y023335D01*
X026968Y023335D01*
X026968Y023293D02*
X026968Y023293D01*
X026968Y022974D02*
X026968Y022974D01*
X026516Y022974D02*
X026020Y022974D01*
X026020Y022656D02*
X040914Y022656D01*
X040914Y020426D02*
X040443Y020426D01*
X040413Y020457D02*
X040413Y020457D01*
X040709Y020160D02*
X040709Y020160D01*
X040762Y020108D02*
X040914Y020108D01*
X040900Y019789D02*
X040914Y019789D01*
X040900Y019471D02*
X040914Y019471D01*
X040900Y019152D02*
X040914Y019152D01*
X040900Y018834D02*
X040914Y018834D01*
X040900Y018515D02*
X040914Y018515D01*
X040900Y018197D02*
X040914Y018197D01*
X040900Y017878D02*
X040914Y017878D01*
X040900Y017560D02*
X040914Y017560D01*
X040900Y017241D02*
X040914Y017241D01*
X040900Y016923D02*
X040914Y016923D01*
X040900Y016604D02*
X040914Y016604D01*
X040900Y016286D02*
X040914Y016286D01*
X040900Y015967D02*
X040914Y015967D01*
X040900Y015649D02*
X040914Y015649D01*
X040900Y015330D02*
X040914Y015330D01*
X040900Y015012D02*
X040914Y015012D01*
X040900Y014693D02*
X040914Y014693D01*
X040900Y014375D02*
X040914Y014375D01*
X040900Y014056D02*
X040914Y014056D01*
X040900Y013738D02*
X040914Y013738D01*
X040900Y013419D02*
X040914Y013419D01*
X040900Y013101D02*
X040914Y013101D01*
X040900Y012782D02*
X040914Y012782D01*
X040900Y012464D02*
X040914Y012464D01*
X040900Y012145D02*
X040914Y012145D01*
X040900Y011827D02*
X040914Y011827D01*
X040900Y011508D02*
X040914Y011508D01*
X040900Y011190D02*
X040914Y011190D01*
X040914Y010871D02*
X040872Y010871D01*
X040914Y010553D02*
X035189Y010553D01*
X035168Y010574D02*
X034996Y010645D01*
X034809Y010645D01*
X034637Y010574D01*
X034505Y010442D01*
X034433Y010269D01*
X034433Y010083D01*
X034505Y009910D01*
X034637Y009778D01*
X034809Y009707D01*
X034996Y009707D01*
X035168Y009778D01*
X035300Y009910D01*
X035371Y010083D01*
X035371Y010269D01*
X035300Y010442D01*
X035168Y010574D01*
X035168Y010778D02*
X035300Y010910D01*
X035371Y011083D01*
X035371Y011269D01*
X035300Y011442D01*
X035168Y011574D01*
X034996Y011645D01*
X034809Y011645D01*
X034637Y011574D01*
X034505Y011442D01*
X034433Y011269D01*
X034433Y011083D01*
X034505Y010910D01*
X034637Y010778D01*
X034809Y010707D01*
X034996Y010707D01*
X035168Y010778D01*
X035261Y010871D02*
X040048Y010871D01*
X040020Y011190D02*
X035371Y011190D01*
X035233Y011508D02*
X040020Y011508D01*
X040020Y011827D02*
X035216Y011827D01*
X035168Y011778D02*
X035300Y011910D01*
X035371Y012083D01*
X035371Y012269D01*
X035300Y012442D01*
X035168Y012574D01*
X034996Y012645D01*
X034809Y012645D01*
X034739Y012616D01*
X030854Y012616D01*
X029493Y013977D01*
X029369Y014100D01*
X029208Y014167D01*
X026632Y014167D01*
X026471Y014100D01*
X026347Y013977D01*
X026280Y013815D01*
X026280Y013640D01*
X026347Y013478D01*
X026471Y013354D01*
X026632Y013287D01*
X028938Y013287D01*
X030422Y011803D01*
X030584Y011736D01*
X031360Y011736D01*
X031360Y011728D01*
X031392Y011652D01*
X031387Y011647D01*
X030376Y011647D01*
X030259Y011599D01*
X030169Y011509D01*
X030169Y011509D01*
X030079Y011419D01*
X030079Y011419D01*
X029989Y011329D01*
X029940Y011211D01*
X029940Y010784D01*
X029989Y010666D01*
X030079Y010576D01*
X030109Y010546D01*
X030199Y010456D01*
X030316Y010407D01*
X031634Y010407D01*
X031653Y010388D01*
X031800Y010327D01*
X031960Y010327D01*
X032107Y010388D01*
X032219Y010501D01*
X032280Y010648D01*
X032280Y010807D01*
X032219Y010954D01*
X032107Y011067D01*
X031960Y011127D01*
X031800Y011127D01*
X031753Y011108D01*
X031941Y011296D01*
X032031Y011386D01*
X032080Y011504D01*
X032080Y011562D01*
X032099Y011581D01*
X032160Y011728D01*
X032160Y011736D01*
X034739Y011736D01*
X034809Y011707D01*
X034996Y011707D01*
X035168Y011778D01*
X035371Y012145D02*
X040020Y012145D01*
X040020Y012464D02*
X035278Y012464D01*
X034902Y012176D02*
X030671Y012176D01*
X029120Y013727D01*
X026720Y013727D01*
X026406Y013419D02*
X026260Y013419D01*
X026260Y013101D02*
X029124Y013101D01*
X029443Y012782D02*
X026731Y012782D01*
X026993Y012464D02*
X027111Y012464D01*
X027769Y012464D02*
X029761Y012464D01*
X030080Y012145D02*
X028031Y012145D01*
X028350Y011827D02*
X030398Y011827D01*
X030168Y011508D02*
X028668Y011508D01*
X028987Y011190D02*
X029940Y011190D01*
X029940Y010871D02*
X029305Y010871D01*
X029624Y010553D02*
X030102Y010553D01*
X030109Y010546D02*
X030109Y010546D01*
X030079Y010576D02*
X030079Y010576D01*
X029942Y010234D02*
X034433Y010234D01*
X034503Y009916D02*
X031436Y009916D01*
X031479Y009597D02*
X034550Y009597D01*
X034555Y009602D02*
X034476Y009524D01*
X034433Y009421D01*
X034433Y008931D01*
X034476Y008828D01*
X034555Y008750D01*
X034658Y008707D01*
X035147Y008707D01*
X035250Y008750D01*
X035329Y008828D01*
X035371Y008931D01*
X035371Y009421D01*
X035329Y009524D01*
X035250Y009602D01*
X035147Y009645D01*
X034658Y009645D01*
X034555Y009602D01*
X034433Y009279D02*
X031798Y009279D01*
X032116Y008960D02*
X034433Y008960D01*
X035371Y008960D02*
X039209Y008960D01*
X039126Y008926D02*
X038881Y008681D01*
X038749Y008361D01*
X038749Y008015D01*
X038881Y007695D01*
X039126Y007450D01*
X039446Y007317D01*
X039793Y007317D01*
X040112Y007450D01*
X040357Y007695D01*
X040490Y008015D01*
X040490Y008361D01*
X040357Y008681D01*
X040112Y008926D01*
X039793Y009059D01*
X039446Y009059D01*
X039126Y008926D01*
X038865Y008642D02*
X032435Y008642D01*
X032660Y008323D02*
X035759Y008323D01*
X035732Y008316D02*
X035478Y008170D01*
X035272Y007963D01*
X035126Y007710D01*
X035050Y007428D01*
X035050Y007136D01*
X035126Y006853D01*
X035272Y006600D01*
X035478Y006394D01*
X035732Y006247D01*
X036014Y006172D01*
X036306Y006172D01*
X036588Y006247D01*
X036842Y006394D01*
X037048Y006600D01*
X037194Y006853D01*
X037270Y007136D01*
X037270Y007428D01*
X037194Y007710D01*
X037048Y007963D01*
X036842Y008170D01*
X036588Y008316D01*
X036306Y008392D01*
X036014Y008392D01*
X035732Y008316D01*
X035314Y008005D02*
X032660Y008005D01*
X032660Y007686D02*
X035119Y007686D01*
X035050Y007368D02*
X032660Y007368D01*
X032660Y007049D02*
X035073Y007049D01*
X035196Y006731D02*
X032660Y006731D01*
X032660Y006412D02*
X035460Y006412D01*
X035772Y005757D02*
X035670Y005708D01*
X035574Y005647D01*
X035485Y005576D01*
X035405Y005496D01*
X035334Y005407D01*
X035274Y005311D01*
X035224Y005209D01*
X035187Y005101D01*
X035162Y004991D01*
X035155Y004937D01*
X036044Y004937D01*
X036044Y004706D01*
X035155Y004706D01*
X035162Y004651D01*
X035187Y004541D01*
X035224Y004434D01*
X035274Y004331D01*
X035334Y004235D01*
X035405Y004146D01*
X035485Y004066D01*
X035574Y003995D01*
X035670Y003935D01*
X035772Y003885D01*
X035880Y003848D01*
X035990Y003823D01*
X036044Y003817D01*
X036044Y004706D01*
X036276Y004706D01*
X036276Y004937D01*
X037165Y004937D01*
X037158Y004991D01*
X037133Y005101D01*
X037096Y005209D01*
X037046Y005311D01*
X036986Y005407D01*
X036915Y005496D01*
X036835Y005576D01*
X036746Y005647D01*
X036650Y005708D01*
X036548Y005757D01*
X036440Y005794D01*
X036330Y005820D01*
X036276Y005826D01*
X036276Y004937D01*
X036044Y004937D01*
X036044Y005826D01*
X035990Y005820D01*
X035880Y005794D01*
X035772Y005757D01*
X035826Y005775D02*
X032660Y005775D01*
X032660Y005457D02*
X035374Y005457D01*
X035200Y005138D02*
X032660Y005138D01*
X033488Y004820D02*
X036044Y004820D01*
X036276Y004820D02*
X039042Y004820D01*
X039042Y004819D02*
X039051Y004786D01*
X039054Y004752D01*
X039066Y004728D01*
X039067Y004726D01*
X039068Y004699D01*
X039082Y004668D01*
X039091Y004635D01*
X039108Y004614D01*
X039109Y004612D01*
X039114Y004585D01*
X039134Y004557D01*
X039148Y004527D01*
X039168Y004508D01*
X039169Y004507D01*
X039180Y004482D01*
X039204Y004458D01*
X039223Y004430D01*
X039246Y004415D01*
X039248Y004414D01*
X039262Y004391D01*
X039290Y004371D01*
X039314Y004347D01*
X039339Y004337D01*
X039341Y004336D01*
X039359Y004316D01*
X039390Y004301D01*
X039418Y004282D01*
X039445Y004276D01*
X039446Y004275D01*
X039468Y004259D01*
X039501Y004250D01*
X039531Y004235D01*
X039559Y004234D01*
X039560Y004234D01*
X039585Y004221D01*
X039618Y004218D01*
X039651Y004209D01*
X039678Y004213D01*
X039680Y004213D01*
X039706Y004205D01*
X039740Y004208D01*
X039774Y004205D01*
X039800Y004213D01*
X039802Y004213D01*
X039829Y004209D01*
X039862Y004218D01*
X039895Y004221D01*
X039920Y004234D01*
X039921Y004234D01*
X039949Y004235D01*
X039979Y004250D01*
X040012Y004259D01*
X040034Y004275D01*
X040035Y004276D01*
X040062Y004282D01*
X040090Y004301D01*
X040121Y004316D01*
X040139Y004336D01*
X040141Y004337D01*
X040166Y004347D01*
X040190Y004371D01*
X040218Y004391D01*
X040232Y004414D01*
X040234Y004415D01*
X040257Y004430D01*
X040276Y004458D01*
X040300Y004482D01*
X040311Y004507D01*
X040312Y004508D01*
X040332Y004527D01*
X040346Y004557D01*
X040366Y004585D01*
X040371Y004612D01*
X040372Y004614D01*
X040389Y004635D01*
X040398Y004668D01*
X040412Y004699D01*
X040413Y004726D01*
X040414Y004728D01*
X040426Y004752D01*
X040429Y004786D01*
X040438Y004819D01*
X040434Y004846D01*
X040435Y004848D01*
X040443Y004874D01*
X040440Y004907D01*
X040443Y004941D01*
X040435Y004967D01*
X040434Y004969D01*
X040438Y004996D01*
X040429Y005029D01*
X040426Y005063D01*
X040414Y005087D01*
X040413Y005089D01*
X040412Y005116D01*
X040398Y005147D01*
X040389Y005180D01*
X040372Y005201D01*
X040371Y005203D01*
X040366Y005229D01*
X040346Y005257D01*
X040332Y005288D01*
X040312Y005307D01*
X040311Y005308D01*
X040300Y005333D01*
X040276Y005357D01*
X040257Y005385D01*
X040234Y005400D01*
X040232Y005401D01*
X040218Y005424D01*
X040190Y005444D01*
X040166Y005468D01*
X040141Y005478D01*
X040139Y005479D01*
X040121Y005499D01*
X040090Y005514D01*
X040062Y005533D01*
X040035Y005539D01*
X040034Y005540D01*
X040012Y005556D01*
X039979Y005565D01*
X039949Y005579D01*
X039921Y005581D01*
X039920Y005581D01*
X039895Y005594D01*
X039862Y005597D01*
X039829Y005605D01*
X039802Y005602D01*
X039800Y005602D01*
X039774Y005610D01*
X039740Y005607D01*
X039706Y005610D01*
X039680Y005602D01*
X039678Y005602D01*
X039651Y005605D01*
X039618Y005597D01*
X039585Y005594D01*
X039560Y005581D01*
X039559Y005581D01*
X039531Y005579D01*
X039501Y005565D01*
X039468Y005556D01*
X039446Y005540D01*
X039445Y005539D01*
X039418Y005533D01*
X039390Y005514D01*
X039359Y005499D01*
X039341Y005479D01*
X039339Y005478D01*
X039314Y005468D01*
X039290Y005444D01*
X039262Y005424D01*
X039248Y005401D01*
X039246Y005400D01*
X039223Y005385D01*
X039204Y005357D01*
X039180Y005333D01*
X039169Y005308D01*
X039168Y005307D01*
X039148Y005288D01*
X039134Y005257D01*
X039114Y005229D01*
X039109Y005203D01*
X039108Y005201D01*
X039091Y005180D01*
X039082Y005147D01*
X039068Y005116D01*
X039067Y005089D01*
X039066Y005087D01*
X039054Y005063D01*
X039051Y005029D01*
X039042Y004996D01*
X039046Y004969D01*
X039045Y004967D01*
X039037Y004941D01*
X039040Y004907D01*
X039037Y004874D01*
X039045Y004848D01*
X039046Y004846D01*
X039042Y004819D01*
X039078Y005138D02*
X037120Y005138D01*
X036946Y005457D02*
X037323Y005457D01*
X037295Y005485D02*
X037375Y005405D01*
X037464Y005334D01*
X037560Y005273D01*
X037662Y005224D01*
X037769Y005186D01*
X037880Y005161D01*
X037934Y005155D01*
X037934Y006044D01*
X037045Y006044D01*
X037051Y005990D01*
X037077Y005879D01*
X037114Y005772D01*
X037163Y005670D01*
X037224Y005574D01*
X037295Y005485D01*
X037113Y005775D02*
X036494Y005775D01*
X036276Y005775D02*
X036044Y005775D01*
X036044Y005457D02*
X036276Y005457D01*
X036276Y005138D02*
X036044Y005138D01*
X036276Y004706D02*
X037165Y004706D01*
X037158Y004651D01*
X037133Y004541D01*
X037096Y004434D01*
X037046Y004331D01*
X036986Y004235D01*
X036915Y004146D01*
X036835Y004066D01*
X036746Y003995D01*
X036650Y003935D01*
X036548Y003885D01*
X036440Y003848D01*
X036330Y003823D01*
X036276Y003817D01*
X036276Y004706D01*
X036276Y004501D02*
X036044Y004501D01*
X036044Y004183D02*
X036276Y004183D01*
X036276Y003864D02*
X036044Y003864D01*
X035832Y003864D02*
X033682Y003864D01*
X033740Y004183D02*
X035376Y004183D01*
X035201Y004501D02*
X033685Y004501D01*
X033479Y003546D02*
X039050Y003546D01*
X039896Y003864D02*
X036488Y003864D01*
X036944Y004183D02*
X040284Y004183D01*
X040308Y004501D02*
X040538Y004501D01*
X040438Y004820D02*
X040706Y004820D01*
X040823Y005138D02*
X040402Y005138D01*
X040176Y005457D02*
X040895Y005457D01*
X040914Y005775D02*
X038987Y005775D01*
X038985Y005772D02*
X039023Y005879D01*
X039048Y005990D01*
X039054Y006044D01*
X038165Y006044D01*
X038165Y005155D01*
X038219Y005161D01*
X038330Y005186D01*
X038437Y005224D01*
X038540Y005273D01*
X038636Y005334D01*
X038725Y005405D01*
X038805Y005485D01*
X038876Y005574D01*
X038936Y005670D01*
X038985Y005772D01*
X038777Y005457D02*
X039304Y005457D01*
X038165Y005457D02*
X037934Y005457D01*
X037934Y005775D02*
X038165Y005775D01*
X038165Y006044D02*
X037934Y006044D01*
X037934Y006275D01*
X037045Y006275D01*
X037051Y006329D01*
X037077Y006440D01*
X037114Y006547D01*
X037163Y006650D01*
X037224Y006746D01*
X037295Y006835D01*
X037375Y006915D01*
X037464Y006986D01*
X037560Y007046D01*
X037662Y007095D01*
X037769Y007133D01*
X037880Y007158D01*
X037934Y007164D01*
X037934Y006275D01*
X038165Y006275D01*
X038165Y007164D01*
X038219Y007158D01*
X038330Y007133D01*
X038437Y007095D01*
X038540Y007046D01*
X038636Y006986D01*
X038725Y006915D01*
X038805Y006835D01*
X038876Y006746D01*
X038936Y006650D01*
X038985Y006547D01*
X039023Y006440D01*
X039048Y006329D01*
X039054Y006275D01*
X038165Y006275D01*
X038165Y006044D01*
X038165Y006094D02*
X040914Y006094D01*
X040914Y006412D02*
X039029Y006412D01*
X038885Y006731D02*
X040914Y006731D01*
X040914Y007049D02*
X038533Y007049D01*
X038165Y007049D02*
X037934Y007049D01*
X037934Y006731D02*
X038165Y006731D01*
X038165Y006412D02*
X037934Y006412D01*
X037934Y006094D02*
X032660Y006094D01*
X030540Y005888D02*
X030540Y007747D01*
X029630Y008657D01*
X025820Y012467D01*
X025820Y017507D01*
X025220Y018107D01*
X025055Y018515D02*
X024940Y018515D01*
X024940Y018834D02*
X028812Y018834D01*
X028780Y018847D02*
X028876Y018807D01*
X032287Y018807D01*
X032580Y018515D01*
X032580Y017633D01*
X032561Y017614D01*
X032500Y017467D01*
X032500Y017308D01*
X032561Y017161D01*
X032673Y017048D01*
X032820Y016987D01*
X032980Y016987D01*
X033127Y017048D01*
X033239Y017161D01*
X033300Y017308D01*
X033300Y017467D01*
X033239Y017614D01*
X033220Y017633D01*
X033220Y018711D01*
X033171Y018829D01*
X032691Y019309D01*
X032601Y019399D01*
X032484Y019447D01*
X029170Y019447D01*
X029159Y019474D01*
X029047Y019587D01*
X028900Y019647D01*
X028740Y019647D01*
X028593Y019587D01*
X028481Y019474D01*
X028420Y019327D01*
X028420Y019168D01*
X028481Y019021D01*
X028593Y018908D01*
X028740Y018847D01*
X028780Y018847D01*
X028426Y019152D02*
X024940Y019152D01*
X024940Y019471D02*
X028480Y019471D01*
X029160Y019471D02*
X040020Y019471D01*
X040020Y019152D02*
X032848Y019152D01*
X033166Y018834D02*
X040020Y018834D01*
X040020Y018515D02*
X033220Y018515D01*
X033220Y018197D02*
X040020Y018197D01*
X040020Y017878D02*
X033220Y017878D01*
X033261Y017560D02*
X040020Y017560D01*
X040020Y017241D02*
X033272Y017241D01*
X032528Y017241D02*
X032031Y017241D01*
X032031Y016923D02*
X040020Y016923D01*
X040020Y016604D02*
X032031Y016604D01*
X032031Y016423D02*
X032031Y017991D01*
X031989Y018094D01*
X031910Y018173D01*
X031807Y018216D01*
X030633Y018216D01*
X030530Y018173D01*
X030451Y018094D01*
X030409Y017991D01*
X030409Y016423D01*
X030451Y016320D01*
X030530Y016242D01*
X030633Y016199D01*
X031807Y016199D01*
X031910Y016242D01*
X031989Y016320D01*
X032031Y016423D01*
X031954Y016286D02*
X040020Y016286D01*
X040020Y015967D02*
X026260Y015967D01*
X026260Y015649D02*
X040020Y015649D01*
X040020Y015330D02*
X026260Y015330D01*
X026260Y015012D02*
X040020Y015012D01*
X040020Y014693D02*
X026260Y014693D01*
X026260Y014375D02*
X040020Y014375D01*
X040020Y014056D02*
X029413Y014056D01*
X029732Y013738D02*
X040020Y013738D01*
X040020Y013419D02*
X030050Y013419D01*
X030369Y013101D02*
X040020Y013101D01*
X040020Y012782D02*
X030687Y012782D01*
X032080Y011508D02*
X034571Y011508D01*
X034433Y011190D02*
X031835Y011190D01*
X031640Y011027D02*
X032300Y011687D01*
X036860Y011687D01*
X035371Y010234D02*
X040914Y010234D01*
X040914Y009916D02*
X035302Y009916D01*
X035255Y009597D02*
X040914Y009597D01*
X040914Y009279D02*
X035371Y009279D01*
X036561Y008323D02*
X038749Y008323D01*
X038753Y008005D02*
X037006Y008005D01*
X037201Y007686D02*
X038890Y007686D01*
X039324Y007368D02*
X037270Y007368D01*
X037247Y007049D02*
X037567Y007049D01*
X037214Y006731D02*
X037124Y006731D01*
X037070Y006412D02*
X036860Y006412D01*
X037119Y004501D02*
X039172Y004501D01*
X039914Y007368D02*
X040914Y007368D01*
X040914Y007686D02*
X040349Y007686D01*
X040486Y008005D02*
X040914Y008005D01*
X040914Y008323D02*
X040490Y008323D01*
X040374Y008642D02*
X040914Y008642D01*
X040914Y008960D02*
X040030Y008960D01*
X040460Y011027D02*
X040460Y019787D01*
X040040Y020207D01*
X025040Y020207D01*
X024500Y019667D01*
X024500Y016787D01*
X024740Y016547D01*
X024680Y016127D02*
X024320Y016127D01*
X023960Y016487D01*
X023960Y019547D01*
X023300Y020207D01*
X024127Y019917D02*
X024060Y019755D01*
X024060Y016700D01*
X024127Y016538D01*
X024367Y016298D01*
X024491Y016174D01*
X024652Y016107D01*
X024828Y016107D01*
X024989Y016174D01*
X025113Y016298D01*
X025180Y016460D01*
X025180Y016635D01*
X025113Y016797D01*
X024989Y016920D01*
X024940Y016970D01*
X024940Y017765D01*
X025380Y017325D01*
X025380Y012380D01*
X025447Y012218D01*
X025571Y012094D01*
X028378Y009287D01*
X028365Y009287D01*
X028078Y009169D01*
X027859Y008949D01*
X027804Y008817D01*
X027773Y008871D01*
X027713Y008950D01*
X027642Y009020D01*
X027563Y009081D01*
X027477Y009130D01*
X027385Y009169D01*
X027289Y009194D01*
X027230Y009202D01*
X027230Y008537D01*
X027050Y008537D01*
X027050Y008357D01*
X027230Y008357D01*
X027230Y007693D01*
X027289Y007700D01*
X027385Y007726D01*
X027477Y007764D01*
X027563Y007814D01*
X027642Y007875D01*
X027713Y007945D01*
X027773Y008024D01*
X027823Y008111D01*
X027832Y008131D01*
X027859Y008066D01*
X028078Y007846D01*
X028365Y007727D01*
X028675Y007727D01*
X028962Y007846D01*
X029181Y008066D01*
X029232Y008187D01*
X029478Y008187D01*
X030100Y007565D01*
X030100Y007527D01*
X030000Y007527D01*
X029853Y007467D01*
X029741Y007354D01*
X029680Y007207D01*
X029680Y007127D01*
X028628Y007127D01*
X028496Y007073D01*
X028196Y006773D01*
X028095Y006671D01*
X028040Y006539D01*
X028040Y005092D01*
X028003Y005107D01*
X027637Y005107D01*
X027299Y004967D01*
X027040Y004708D01*
X026900Y004370D01*
X026900Y004004D01*
X027040Y003666D01*
X027199Y003507D01*
X026541Y003507D01*
X026640Y003606D01*
X026780Y003944D01*
X026780Y004310D01*
X026640Y004648D01*
X026381Y004907D01*
X026043Y005047D01*
X025677Y005047D01*
X025600Y005015D01*
X025600Y008732D01*
X025687Y008768D01*
X025799Y008881D01*
X025860Y009028D01*
X025860Y009187D01*
X025799Y009334D01*
X025687Y009447D01*
X025540Y009507D01*
X025380Y009507D01*
X025259Y009457D01*
X022299Y012417D01*
X022259Y012514D01*
X022147Y012627D01*
X022000Y012687D01*
X021840Y012687D01*
X021693Y012627D01*
X021581Y012514D01*
X021520Y012367D01*
X021520Y012297D01*
X021279Y012537D01*
X021239Y012634D01*
X021127Y012747D01*
X021124Y012747D01*
X023598Y012747D01*
X023651Y012694D01*
X023812Y012627D01*
X023988Y012627D01*
X024149Y012694D01*
X024273Y012818D01*
X024340Y012980D01*
X024340Y013155D01*
X024273Y013317D01*
X024029Y013560D01*
X023868Y013627D01*
X020692Y013627D01*
X020531Y013560D01*
X020407Y013437D01*
X019987Y013017D01*
X019960Y012951D01*
X019960Y020025D01*
X020542Y020607D01*
X024856Y020607D01*
X024791Y020580D01*
X024251Y020040D01*
X024127Y019917D01*
X024074Y019789D02*
X019960Y019789D01*
X019960Y019471D02*
X024060Y019471D01*
X024060Y019152D02*
X019960Y019152D01*
X019960Y018834D02*
X024060Y018834D01*
X024060Y018515D02*
X019960Y018515D01*
X019960Y018197D02*
X024060Y018197D01*
X024060Y017878D02*
X019960Y017878D01*
X019960Y017560D02*
X024060Y017560D01*
X024060Y017241D02*
X019960Y017241D01*
X019960Y016923D02*
X024060Y016923D01*
X024100Y016604D02*
X019960Y016604D01*
X019960Y016286D02*
X024379Y016286D01*
X024680Y016127D02*
X025340Y015467D01*
X025340Y011507D01*
X025120Y011508D02*
X026157Y011508D01*
X026475Y011190D02*
X025120Y011190D01*
X025140Y011127D02*
X025120Y011119D01*
X025120Y012342D01*
X025139Y012361D01*
X025200Y012508D01*
X025200Y012667D01*
X025139Y012814D01*
X025120Y012833D01*
X025120Y013842D01*
X025139Y013861D01*
X025200Y014008D01*
X025200Y014167D01*
X025139Y014314D01*
X025027Y014427D01*
X024880Y014487D01*
X024720Y014487D01*
X024573Y014427D01*
X024461Y014314D01*
X024400Y014167D01*
X024400Y014008D01*
X024461Y013861D01*
X024480Y013842D01*
X024480Y012833D01*
X024461Y012814D01*
X024400Y012667D01*
X024400Y012508D01*
X024461Y012361D01*
X024480Y012342D01*
X024480Y010724D01*
X024529Y010606D01*
X024649Y010486D01*
X024739Y010396D01*
X024856Y010347D01*
X025092Y010347D01*
X025140Y010327D01*
X025300Y010327D01*
X025447Y010388D01*
X025559Y010501D01*
X025620Y010648D01*
X025620Y010807D01*
X025559Y010954D01*
X025447Y011067D01*
X025300Y011127D01*
X025140Y011127D01*
X025593Y010871D02*
X026794Y010871D01*
X027112Y010553D02*
X025581Y010553D01*
X024582Y010553D02*
X024164Y010553D01*
X024480Y010871D02*
X023845Y010871D01*
X023527Y011190D02*
X024480Y011190D01*
X024480Y011508D02*
X023208Y011508D01*
X022890Y011827D02*
X024480Y011827D01*
X024480Y012145D02*
X022571Y012145D01*
X022280Y012464D02*
X024418Y012464D01*
X024448Y012782D02*
X024237Y012782D01*
X024340Y013101D02*
X024480Y013101D01*
X024480Y013419D02*
X024170Y013419D01*
X023900Y013067D02*
X023780Y013187D01*
X020780Y013187D01*
X020360Y012767D01*
X020360Y012227D01*
X023450Y009137D01*
X023580Y009007D01*
X023580Y005828D01*
X023540Y005788D01*
X023540Y005627D01*
X023124Y005211D01*
X023124Y005127D01*
X023580Y005828D02*
X023580Y006148D01*
X025600Y006094D02*
X028040Y006094D01*
X028040Y006412D02*
X025600Y006412D01*
X025600Y006731D02*
X028154Y006731D01*
X028473Y007049D02*
X025600Y007049D01*
X025600Y007368D02*
X029755Y007368D01*
X029979Y007686D02*
X025600Y007686D01*
X025600Y008005D02*
X026522Y008005D01*
X026507Y008024D02*
X026567Y007945D01*
X026638Y007875D01*
X026717Y007814D01*
X026803Y007764D01*
X026895Y007726D01*
X026991Y007700D01*
X027050Y007693D01*
X027050Y008357D01*
X026385Y008357D01*
X026393Y008299D01*
X026419Y008203D01*
X026457Y008111D01*
X026507Y008024D01*
X026390Y008323D02*
X025600Y008323D01*
X025600Y008642D02*
X026405Y008642D01*
X026393Y008596D02*
X026385Y008537D01*
X027050Y008537D01*
X027050Y009202D01*
X026991Y009194D01*
X026895Y009169D01*
X026803Y009130D01*
X026717Y009081D01*
X026638Y009020D01*
X026567Y008950D01*
X026507Y008871D01*
X026457Y008784D01*
X026419Y008692D01*
X026393Y008596D01*
X026578Y008960D02*
X025832Y008960D01*
X025822Y009279D02*
X028344Y009279D01*
X028068Y009597D02*
X025119Y009597D01*
X024801Y009916D02*
X027749Y009916D01*
X027431Y010234D02*
X024482Y010234D01*
X025120Y011827D02*
X025838Y011827D01*
X025520Y012145D02*
X025120Y012145D01*
X025182Y012464D02*
X025380Y012464D01*
X025380Y012782D02*
X025152Y012782D01*
X025120Y013101D02*
X025380Y013101D01*
X025380Y013419D02*
X025120Y013419D01*
X025120Y013738D02*
X025380Y013738D01*
X025380Y014056D02*
X025200Y014056D01*
X025078Y014375D02*
X025380Y014375D01*
X025380Y014693D02*
X019960Y014693D01*
X019960Y014375D02*
X024522Y014375D01*
X024400Y014056D02*
X019960Y014056D01*
X019960Y013738D02*
X024480Y013738D01*
X025380Y015012D02*
X019960Y015012D01*
X019960Y015330D02*
X025380Y015330D01*
X025380Y015649D02*
X019960Y015649D01*
X019960Y015967D02*
X025380Y015967D01*
X025380Y016286D02*
X025101Y016286D01*
X025180Y016604D02*
X025380Y016604D01*
X025380Y016923D02*
X024987Y016923D01*
X024940Y017241D02*
X025380Y017241D01*
X025145Y017560D02*
X024940Y017560D01*
X025753Y018197D02*
X030587Y018197D01*
X030409Y017878D02*
X027890Y017878D01*
X027820Y017907D02*
X027660Y017907D01*
X027513Y017847D01*
X027401Y017734D01*
X027357Y017627D01*
X027285Y017627D01*
X026998Y017509D01*
X026779Y017289D01*
X026660Y017003D01*
X026660Y016692D01*
X026779Y016406D01*
X026998Y016186D01*
X027285Y016067D01*
X027595Y016067D01*
X027882Y016186D01*
X028101Y016406D01*
X028220Y016692D01*
X028220Y017003D01*
X028101Y017289D01*
X028088Y017302D01*
X028140Y017428D01*
X028140Y017587D01*
X028079Y017734D01*
X027967Y017847D01*
X027820Y017907D01*
X027590Y017878D02*
X026071Y017878D01*
X026260Y017560D02*
X027122Y017560D01*
X026759Y017241D02*
X026260Y017241D01*
X026260Y016923D02*
X026660Y016923D01*
X026696Y016604D02*
X026260Y016604D01*
X026260Y016286D02*
X026898Y016286D01*
X027982Y016286D02*
X030486Y016286D01*
X030409Y016604D02*
X028184Y016604D01*
X028220Y016923D02*
X030409Y016923D01*
X030409Y017241D02*
X028121Y017241D01*
X028140Y017560D02*
X030409Y017560D01*
X031853Y018197D02*
X032580Y018197D01*
X032579Y018515D02*
X025385Y018515D01*
X024251Y020040D02*
X024251Y020040D01*
X024318Y020108D02*
X020043Y020108D01*
X020361Y020426D02*
X024637Y020426D01*
X023579Y022019D02*
X020920Y022019D01*
X020920Y022337D02*
X021878Y022337D01*
X021879Y022337D02*
X021881Y022336D01*
X021899Y022316D01*
X021930Y022301D01*
X021958Y022282D01*
X021985Y022276D01*
X021986Y022275D01*
X022008Y022259D01*
X022041Y022250D01*
X022071Y022235D01*
X022099Y022234D01*
X022100Y022234D01*
X022125Y022221D01*
X022158Y022218D01*
X022191Y022209D01*
X022218Y022213D01*
X022220Y022213D01*
X022246Y022205D01*
X022280Y022208D01*
X022314Y022205D01*
X022340Y022213D01*
X022342Y022213D01*
X022369Y022209D01*
X022402Y022218D01*
X022435Y022221D01*
X022460Y022234D01*
X022461Y022234D01*
X022489Y022235D01*
X022519Y022250D01*
X022552Y022259D01*
X022574Y022275D01*
X022575Y022276D01*
X022602Y022282D01*
X022630Y022301D01*
X022661Y022316D01*
X022679Y022336D01*
X022681Y022337D01*
X022706Y022347D01*
X022730Y022371D01*
X022758Y022391D01*
X022772Y022414D01*
X022774Y022415D01*
X022797Y022430D01*
X022816Y022458D01*
X022840Y022482D01*
X022851Y022507D01*
X022852Y022508D01*
X022872Y022527D01*
X022886Y022557D01*
X022906Y022585D01*
X022911Y022612D01*
X022912Y022614D01*
X022929Y022635D01*
X022938Y022668D01*
X022952Y022699D01*
X022953Y022726D01*
X022954Y022728D01*
X022966Y022752D01*
X022969Y022786D01*
X022978Y022819D01*
X022974Y022846D01*
X022975Y022848D01*
X022983Y022874D01*
X022980Y022907D01*
X022983Y022941D01*
X022975Y022967D01*
X022974Y022969D01*
X022978Y022996D01*
X022969Y023029D01*
X022966Y023063D01*
X022954Y023087D01*
X022953Y023089D01*
X022952Y023116D01*
X022938Y023147D01*
X022929Y023180D01*
X022912Y023201D01*
X022911Y023203D01*
X022906Y023229D01*
X022886Y023257D01*
X022872Y023288D01*
X022852Y023307D01*
X022851Y023308D01*
X022840Y023333D01*
X022816Y023357D01*
X022797Y023385D01*
X022774Y023400D01*
X022772Y023401D01*
X022758Y023424D01*
X022730Y023444D01*
X022706Y023468D01*
X022681Y023478D01*
X022679Y023479D01*
X022661Y023499D01*
X022630Y023514D01*
X022602Y023533D01*
X022575Y023539D01*
X022574Y023540D01*
X022552Y023556D01*
X022519Y023565D01*
X022489Y023579D01*
X022461Y023581D01*
X022460Y023581D01*
X022435Y023594D01*
X022402Y023597D01*
X022369Y023605D01*
X022342Y023602D01*
X022340Y023602D01*
X022314Y023610D01*
X022280Y023607D01*
X022246Y023610D01*
X022220Y023602D01*
X022218Y023602D01*
X022191Y023605D01*
X022158Y023597D01*
X022125Y023594D01*
X022100Y023581D01*
X022099Y023581D01*
X022071Y023579D01*
X022041Y023565D01*
X022008Y023556D01*
X021986Y023540D01*
X021985Y023539D01*
X021958Y023533D01*
X021930Y023514D01*
X021899Y023499D01*
X021881Y023479D01*
X021879Y023478D01*
X021854Y023468D01*
X021830Y023444D01*
X021802Y023424D01*
X021788Y023401D01*
X021786Y023400D01*
X021763Y023385D01*
X021744Y023357D01*
X021720Y023333D01*
X021709Y023308D01*
X021708Y023307D01*
X021688Y023288D01*
X021674Y023257D01*
X021654Y023229D01*
X021649Y023203D01*
X021648Y023201D01*
X021631Y023180D01*
X021622Y023147D01*
X021608Y023116D01*
X021607Y023089D01*
X021606Y023087D01*
X021594Y023063D01*
X021591Y023029D01*
X021582Y022996D01*
X021586Y022969D01*
X021585Y022967D01*
X021577Y022941D01*
X021580Y022907D01*
X021577Y022874D01*
X021585Y022848D01*
X021586Y022846D01*
X021582Y022819D01*
X021591Y022786D01*
X021594Y022752D01*
X021606Y022728D01*
X021607Y022726D01*
X021608Y022699D01*
X021622Y022668D01*
X021631Y022635D01*
X021648Y022614D01*
X021649Y022612D01*
X021654Y022585D01*
X021674Y022557D01*
X021688Y022527D01*
X021708Y022508D01*
X021709Y022507D01*
X021720Y022482D01*
X021744Y022458D01*
X021763Y022430D01*
X021786Y022415D01*
X021788Y022414D01*
X021802Y022391D01*
X021830Y022371D01*
X021854Y022347D01*
X021879Y022337D01*
X021626Y022656D02*
X020920Y022656D01*
X020920Y022974D02*
X021585Y022974D01*
X021693Y023293D02*
X020920Y023293D01*
X020920Y023611D02*
X024780Y023611D01*
X024780Y023293D02*
X022867Y023293D01*
X022975Y022974D02*
X024534Y022974D01*
X024216Y022656D02*
X022934Y022656D01*
X022682Y022337D02*
X023897Y022337D01*
X022554Y021700D02*
X020919Y021700D01*
X020300Y021887D02*
X020300Y024287D01*
X020660Y024647D01*
X020920Y023930D02*
X024780Y023930D01*
X026020Y023611D02*
X026431Y023611D01*
X026393Y023293D02*
X026020Y023293D01*
X026020Y022337D02*
X027448Y022337D01*
X027129Y022019D02*
X026011Y022019D01*
X020300Y021887D02*
X018920Y020507D01*
X018920Y017267D01*
X018080Y016427D01*
X014360Y016427D01*
X013942Y016286D02*
X013231Y016286D01*
X012913Y015967D02*
X019080Y015967D01*
X019080Y015649D02*
X012594Y015649D01*
X013116Y015012D02*
X014514Y015012D01*
X014458Y014989D02*
X014745Y015107D01*
X015055Y015107D01*
X015342Y014989D01*
X015561Y014769D01*
X015591Y014698D01*
X015660Y014727D01*
X015820Y014727D01*
X015967Y014667D01*
X016079Y014554D01*
X016140Y014407D01*
X016140Y014248D01*
X016079Y014101D01*
X015967Y013988D01*
X015820Y013927D01*
X015660Y013927D01*
X015591Y013956D01*
X015561Y013886D01*
X015342Y013666D01*
X015055Y013547D01*
X014745Y013547D01*
X014458Y013666D01*
X014239Y013886D01*
X014120Y014172D01*
X014120Y014483D01*
X014239Y014769D01*
X014458Y014989D01*
X014207Y014693D02*
X013160Y014693D01*
X013048Y014375D02*
X014120Y014375D01*
X014168Y014056D02*
X013071Y014056D01*
X013160Y013738D02*
X014386Y013738D01*
X014091Y013419D02*
X019080Y013419D01*
X019080Y013101D02*
X018870Y013101D01*
X018752Y013738D02*
X019080Y013738D01*
X019070Y014056D02*
X019080Y014056D01*
X018404Y014056D02*
X018404Y014056D01*
X018404Y013738D02*
X018404Y013738D01*
X018055Y013738D02*
X015414Y013738D01*
X016035Y014056D02*
X017737Y014056D01*
X017644Y014375D02*
X016140Y014375D01*
X015902Y014693D02*
X017644Y014693D01*
X017644Y014779D02*
X017644Y014464D01*
X018404Y014464D01*
X018404Y015224D01*
X018089Y015224D01*
X017644Y014779D01*
X017876Y015012D02*
X015286Y015012D01*
X018404Y015012D02*
X018404Y015012D01*
X018404Y014693D02*
X018404Y014693D01*
X018404Y014375D02*
X018404Y014375D01*
X018931Y015012D02*
X019080Y015012D01*
X019080Y015330D02*
X009096Y015330D01*
X008509Y015649D02*
X007440Y015649D01*
X007440Y015967D02*
X008827Y015967D01*
X008260Y015330D02*
X007440Y015330D01*
X007440Y015012D02*
X008044Y015012D01*
X008000Y014693D02*
X007440Y014693D01*
X007440Y014375D02*
X008112Y014375D01*
X008117Y014056D02*
X007440Y014056D01*
X007440Y013738D02*
X008020Y013738D01*
X008096Y013419D02*
X007440Y013419D01*
X007440Y013101D02*
X010514Y013101D01*
X009068Y013419D02*
X009064Y013419D01*
X008580Y013419D02*
X008580Y013419D01*
X007440Y012782D02*
X011852Y012782D01*
X012171Y012464D02*
X007440Y012464D01*
X007440Y012145D02*
X012489Y012145D01*
X012808Y011827D02*
X007440Y011827D01*
X007440Y011508D02*
X013126Y011508D01*
X013010Y011190D02*
X007440Y011190D01*
X007440Y010871D02*
X013057Y010871D01*
X013482Y010553D02*
X007440Y010553D01*
X007440Y010234D02*
X010777Y010234D01*
X010790Y010244D02*
X010762Y010224D01*
X010748Y010201D01*
X010746Y010200D01*
X010723Y010185D01*
X010704Y010157D01*
X010680Y010133D01*
X010669Y010108D01*
X010668Y010107D01*
X010648Y010088D01*
X010634Y010057D01*
X010614Y010029D01*
X010609Y010003D01*
X010608Y010001D01*
X010591Y009980D01*
X010582Y009947D01*
X010568Y009916D01*
X010567Y009889D01*
X010566Y009887D01*
X010554Y009863D01*
X010551Y009829D01*
X010542Y009796D01*
X010546Y009769D01*
X010545Y009767D01*
X010537Y009741D01*
X010540Y009707D01*
X010537Y009674D01*
X010545Y009648D01*
X010546Y009646D01*
X010542Y009619D01*
X010551Y009586D01*
X010554Y009552D01*
X010566Y009528D01*
X010567Y009526D01*
X010568Y009499D01*
X010582Y009468D01*
X010591Y009435D01*
X010608Y009414D01*
X010609Y009412D01*
X010614Y009385D01*
X010634Y009357D01*
X010648Y009327D01*
X010668Y009308D01*
X010669Y009307D01*
X010680Y009282D01*
X010704Y009258D01*
X010723Y009230D01*
X010746Y009215D01*
X010748Y009214D01*
X010762Y009191D01*
X010790Y009171D01*
X010814Y009147D01*
X010839Y009137D01*
X010841Y009136D01*
X010859Y009116D01*
X010890Y009101D01*
X010918Y009082D01*
X010945Y009076D01*
X010946Y009075D01*
X010968Y009059D01*
X011001Y009050D01*
X011031Y009035D01*
X011059Y009034D01*
X011060Y009034D01*
X011085Y009021D01*
X011118Y009018D01*
X011151Y009009D01*
X011178Y009013D01*
X011180Y009013D01*
X011206Y009005D01*
X011240Y009008D01*
X011274Y009005D01*
X011300Y009013D01*
X011302Y009013D01*
X011329Y009009D01*
X011362Y009018D01*
X011395Y009021D01*
X011420Y009034D01*
X011421Y009034D01*
X011449Y009035D01*
X011479Y009050D01*
X011512Y009059D01*
X011534Y009075D01*
X011535Y009076D01*
X011562Y009082D01*
X011590Y009101D01*
X011621Y009116D01*
X011639Y009136D01*
X011641Y009137D01*
X011666Y009147D01*
X011690Y009171D01*
X011718Y009191D01*
X011732Y009214D01*
X011734Y009215D01*
X011757Y009230D01*
X011776Y009258D01*
X011800Y009282D01*
X011811Y009307D01*
X011812Y009308D01*
X011832Y009327D01*
X011846Y009357D01*
X011866Y009385D01*
X011871Y009412D01*
X011872Y009414D01*
X011889Y009435D01*
X011898Y009468D01*
X011912Y009499D01*
X011913Y009526D01*
X011914Y009528D01*
X011926Y009552D01*
X011929Y009586D01*
X011938Y009619D01*
X011934Y009646D01*
X011935Y009648D01*
X011943Y009674D01*
X011940Y009707D01*
X011943Y009741D01*
X011935Y009767D01*
X011934Y009769D01*
X011938Y009796D01*
X011929Y009829D01*
X011926Y009863D01*
X011914Y009887D01*
X011913Y009889D01*
X011912Y009916D01*
X011898Y009947D01*
X011889Y009980D01*
X011872Y010001D01*
X011871Y010003D01*
X011866Y010029D01*
X011846Y010057D01*
X011832Y010088D01*
X011812Y010107D01*
X011811Y010108D01*
X011800Y010133D01*
X011776Y010157D01*
X011757Y010185D01*
X011734Y010200D01*
X011732Y010201D01*
X011718Y010224D01*
X011690Y010244D01*
X011666Y010268D01*
X011641Y010278D01*
X011639Y010279D01*
X011621Y010299D01*
X011590Y010314D01*
X011562Y010333D01*
X011535Y010339D01*
X011534Y010340D01*
X011512Y010356D01*
X011479Y010365D01*
X011449Y010379D01*
X011421Y010381D01*
X011420Y010381D01*
X011395Y010394D01*
X011362Y010397D01*
X011329Y010405D01*
X011302Y010402D01*
X011300Y010402D01*
X011274Y010410D01*
X011240Y010407D01*
X011206Y010410D01*
X011180Y010402D01*
X011178Y010402D01*
X011151Y010405D01*
X011118Y010397D01*
X011085Y010394D01*
X011060Y010381D01*
X011059Y010381D01*
X011031Y010379D01*
X011001Y010365D01*
X010968Y010356D01*
X010946Y010340D01*
X010945Y010339D01*
X010918Y010333D01*
X010890Y010314D01*
X010859Y010299D01*
X010841Y010279D01*
X010839Y010278D01*
X010814Y010268D01*
X010790Y010244D01*
X010568Y009916D02*
X007440Y009916D01*
X007440Y009597D02*
X010548Y009597D01*
X010683Y009279D02*
X007440Y009279D01*
X007440Y008960D02*
X014640Y008960D01*
X014640Y008642D02*
X007440Y008642D01*
X007440Y008323D02*
X014640Y008323D01*
X014640Y008005D02*
X007440Y008005D01*
X007440Y007686D02*
X014640Y007686D01*
X014640Y007368D02*
X011895Y007368D01*
X011545Y007368D02*
X007440Y007368D01*
X007840Y007049D02*
X007840Y007049D01*
X007840Y006731D02*
X007840Y006731D01*
X008482Y006094D02*
X008512Y006094D01*
X011560Y006094D02*
X014554Y006094D01*
X014640Y006412D02*
X011578Y006412D01*
X012009Y006731D02*
X014640Y006731D01*
X014640Y007049D02*
X012120Y007049D01*
X012463Y005775D02*
X011560Y005775D01*
X011560Y005457D02*
X012525Y005457D01*
X011637Y004820D02*
X016733Y004820D01*
X016805Y007049D02*
X015280Y007049D01*
X015280Y007368D02*
X016487Y007368D01*
X016215Y007686D02*
X015280Y007686D01*
X015280Y008005D02*
X016200Y008005D01*
X016200Y008323D02*
X015280Y008323D01*
X015280Y008642D02*
X015993Y008642D01*
X015674Y008960D02*
X015280Y008960D01*
X015280Y009279D02*
X015356Y009279D01*
X014640Y009279D02*
X011797Y009279D01*
X011932Y009597D02*
X014437Y009597D01*
X014119Y009916D02*
X011912Y009916D01*
X011703Y010234D02*
X013800Y010234D01*
X015423Y011190D02*
X020775Y011190D01*
X020457Y011508D02*
X015716Y011508D01*
X018869Y011827D02*
X020138Y011827D01*
X019920Y012145D02*
X019520Y012145D01*
X019839Y012464D02*
X019920Y012464D01*
X019960Y013101D02*
X020071Y013101D01*
X019960Y013419D02*
X020390Y013419D01*
X021353Y012464D02*
X021560Y012464D01*
X020887Y009597D02*
X020580Y009597D01*
X020544Y009279D02*
X020497Y009279D01*
X021815Y008323D02*
X022145Y008323D01*
X023015Y008323D02*
X023140Y008323D01*
X025600Y005775D02*
X028040Y005775D01*
X028040Y005457D02*
X025600Y005457D01*
X025600Y005138D02*
X028040Y005138D01*
X027152Y004820D02*
X026468Y004820D01*
X026701Y004501D02*
X026955Y004501D01*
X026900Y004183D02*
X026780Y004183D01*
X026747Y003864D02*
X026958Y003864D01*
X027161Y003546D02*
X026579Y003546D01*
X030084Y005187D02*
X030084Y005271D01*
X030500Y005687D01*
X030500Y005848D01*
X030540Y005888D01*
X029660Y008005D02*
X029121Y008005D01*
X027919Y008005D02*
X027758Y008005D01*
X027230Y008005D02*
X027050Y008005D01*
X027050Y008323D02*
X027230Y008323D01*
X027230Y008642D02*
X027050Y008642D01*
X027050Y008960D02*
X027230Y008960D01*
X027702Y008960D02*
X027870Y008960D01*
X030261Y009916D02*
X030644Y009916D01*
X030620Y009597D02*
X030579Y009597D01*
X030560Y011027D02*
X031640Y011027D01*
X032253Y010871D02*
X034544Y010871D01*
X034616Y010553D02*
X032241Y010553D01*
X034940Y014147D02*
X034940Y016367D01*
X034880Y017027D02*
X036920Y017027D01*
X032539Y017560D02*
X032031Y017560D01*
X032031Y017878D02*
X032580Y017878D01*
X026427Y014056D02*
X026260Y014056D01*
X026260Y013738D02*
X026280Y013738D01*
X019080Y016286D02*
X018561Y016286D01*
X015460Y018834D02*
X013417Y018834D01*
X012918Y019152D02*
X014249Y019152D01*
X014711Y019152D02*
X015540Y019152D01*
X015540Y019471D02*
X014880Y019471D01*
X014815Y019789D02*
X015540Y019789D01*
X015540Y020108D02*
X015040Y020108D01*
X015040Y020426D02*
X015540Y020426D01*
X015460Y020745D02*
X015040Y020745D01*
X015120Y021063D02*
X015610Y021063D01*
X015780Y021382D02*
X015120Y021382D01*
X014980Y021700D02*
X015780Y021700D01*
X015780Y022019D02*
X014980Y022019D01*
X014980Y022337D02*
X015084Y022337D01*
X015556Y022337D02*
X015780Y022337D01*
X015780Y022656D02*
X015720Y022656D01*
X015780Y022974D02*
X015579Y022974D01*
X015780Y023293D02*
X015280Y023293D01*
X012444Y022337D02*
X012340Y022337D01*
X010760Y027307D02*
X010340Y027307D01*
X010080Y027048D01*
X009820Y027307D01*
X009340Y027307D01*
X009080Y027048D01*
X008920Y027208D01*
X008920Y027291D01*
X008871Y027409D01*
X008781Y027499D01*
X008753Y027527D01*
X009081Y027856D01*
X009171Y027946D01*
X009220Y028064D01*
X009220Y028504D01*
X009249Y028516D01*
X009412Y028679D01*
X009420Y028699D01*
X009428Y028679D01*
X009591Y028516D01*
X009600Y028512D01*
X009600Y028253D01*
X009581Y028234D01*
X009520Y028087D01*
X009520Y027928D01*
X009581Y027781D01*
X009693Y027668D01*
X009840Y027607D01*
X010000Y027607D01*
X010147Y027668D01*
X010259Y027781D01*
X010320Y027928D01*
X010320Y028087D01*
X010259Y028234D01*
X010240Y028253D01*
X010240Y028512D01*
X010249Y028516D01*
X010412Y028679D01*
X010420Y028699D01*
X010428Y028679D01*
X010480Y028627D01*
X010480Y028480D01*
X010547Y028318D01*
X010897Y027968D01*
X010901Y027964D01*
X010909Y027946D01*
X010939Y027916D01*
X010916Y027893D01*
X010815Y027791D01*
X010760Y027659D01*
X010760Y027307D01*
X010760Y027433D02*
X008847Y027433D01*
X008977Y027752D02*
X009610Y027752D01*
X009520Y028070D02*
X009220Y028070D01*
X009220Y028389D02*
X009600Y028389D01*
X010240Y028389D02*
X010518Y028389D01*
X010320Y028070D02*
X010795Y028070D01*
X010798Y027752D02*
X010230Y027752D01*
X010147Y027115D02*
X010013Y027115D01*
X009147Y027115D02*
X009013Y027115D01*
X010920Y028567D02*
X011270Y028217D01*
X011600Y027887D01*
X015560Y027887D01*
X019925Y028707D02*
X019927Y028707D01*
X025428Y029026D02*
X026184Y029026D01*
X025807Y028707D02*
X025805Y028707D01*
X010920Y028567D02*
X010920Y029307D01*
X007920Y029307D02*
X007920Y029307D01*
X007920Y030167D01*
X007876Y030167D01*
X007789Y030154D01*
X007705Y030126D01*
X007626Y030086D01*
X007555Y030035D01*
X007493Y029972D01*
X007441Y029901D01*
X007440Y029899D01*
X007440Y030506D01*
X007960Y030506D01*
X007960Y030448D01*
X008021Y030301D01*
X008040Y030282D01*
X008040Y030155D01*
X007964Y030167D01*
X007920Y030167D01*
X007920Y029307D01*
X007920Y029344D02*
X007920Y029344D01*
X007920Y029663D02*
X007920Y029663D01*
X007920Y029981D02*
X007920Y029981D01*
X008022Y030300D02*
X007440Y030300D01*
X007440Y029981D02*
X007502Y029981D01*
X018375Y008323D02*
X018375Y008323D01*
X018375Y008005D02*
X018375Y008005D01*
D29*
X025340Y011507D03*
X024740Y016547D03*
X023300Y020207D03*
X018080Y018467D03*
X014360Y016427D03*
X008900Y021107D03*
X018020Y024287D03*
X034880Y017027D03*
X034940Y016367D03*
X036920Y017027D03*
X034940Y014147D03*
X040460Y011027D03*
X036080Y022127D03*
D30*
X032900Y018647D02*
X032420Y019127D01*
X028940Y019127D01*
X028820Y019247D01*
X027740Y017507D02*
X027740Y016847D01*
X027440Y016847D01*
X024800Y014087D02*
X024800Y012587D01*
X024800Y010787D01*
X024920Y010667D01*
X025160Y010667D01*
X025220Y010727D01*
X025700Y011207D02*
X025460Y011447D01*
X025340Y011507D01*
X025700Y011207D02*
X025700Y008567D01*
X025820Y008447D01*
X027140Y008447D01*
X025460Y009107D02*
X025280Y008927D01*
X025280Y004847D01*
X025040Y004607D01*
X021980Y004607D01*
X021500Y005087D01*
X021500Y006407D01*
X021920Y006827D01*
X023120Y006827D01*
X023360Y008987D02*
X022580Y008987D01*
X023360Y008987D02*
X023360Y009047D01*
X023450Y009137D01*
X021380Y008987D02*
X020900Y008987D01*
X020180Y009527D02*
X018320Y009527D01*
X018020Y009827D01*
X017960Y008987D02*
X018320Y008987D01*
X018740Y008567D01*
X018740Y008207D01*
X018800Y008147D01*
X018800Y007847D01*
X019520Y007127D01*
X019520Y006647D01*
X019160Y006287D01*
X018394Y006287D01*
X018375Y006307D01*
X018295Y006227D01*
X018080Y006227D01*
X016520Y007787D01*
X016520Y008567D01*
X011840Y013247D01*
X010820Y013247D01*
X010580Y013487D01*
X010580Y013727D01*
X011580Y013727D02*
X016700Y008607D01*
X016700Y007847D01*
X017660Y006887D01*
X018168Y006887D01*
X018375Y007094D01*
X019073Y007094D01*
X019220Y006947D01*
X014960Y006047D02*
X014960Y009527D01*
X013400Y011087D01*
X014720Y011867D02*
X014720Y012527D01*
X014720Y011867D02*
X015020Y011867D01*
X013580Y012827D02*
X012680Y012827D01*
X012560Y012947D01*
X012560Y013727D01*
X012580Y013727D01*
X014900Y014327D02*
X015740Y014327D01*
X013400Y016907D02*
X012320Y015827D01*
X009140Y015827D01*
X008580Y015267D01*
X008580Y014727D01*
X012140Y016907D02*
X012140Y019427D01*
X011660Y019907D01*
X011660Y022547D01*
X011600Y022607D01*
X010580Y022667D02*
X010520Y022607D01*
X010520Y022427D01*
X010400Y022307D01*
X009440Y022307D01*
X009320Y022427D01*
X009320Y024347D01*
X009560Y024587D01*
X009560Y025727D01*
X009580Y025727D01*
X009980Y025967D02*
X009560Y026387D01*
X009560Y026687D01*
X009580Y026727D01*
X010400Y026207D02*
X010580Y026387D01*
X010580Y026727D01*
X010400Y026207D02*
X010400Y026147D01*
X010160Y025907D01*
X010160Y024227D01*
X009980Y024407D02*
X009980Y025967D01*
X010460Y025607D02*
X010580Y025727D01*
X010460Y025607D02*
X010460Y023987D01*
X010280Y023807D01*
X010280Y022727D01*
X010040Y022487D01*
X009680Y022487D01*
X009500Y022667D01*
X009500Y024227D01*
X009560Y024227D01*
X009920Y024347D02*
X009980Y024407D01*
X009920Y024347D02*
X009920Y022787D01*
X009860Y022727D01*
X009080Y022667D02*
X009080Y022307D01*
X009800Y021587D01*
X009800Y020867D01*
X011780Y018887D01*
X011900Y018887D01*
X011840Y018587D02*
X010040Y020387D01*
X009680Y020387D01*
X009560Y020507D01*
X009560Y021347D01*
X008900Y021107D02*
X008900Y020687D01*
X008240Y020207D02*
X008600Y019847D01*
X008240Y020207D02*
X008240Y021767D01*
X008660Y022187D01*
X008660Y025307D01*
X008600Y025367D01*
X008600Y025727D01*
X008580Y025727D01*
X008180Y025487D02*
X008420Y025247D01*
X008420Y023987D01*
X008360Y023987D01*
X008060Y025187D02*
X008000Y025187D01*
X008000Y022727D01*
X008060Y022667D01*
X007940Y022427D02*
X008240Y022427D01*
X008360Y022547D01*
X008360Y022667D01*
X007940Y022427D02*
X007820Y022547D01*
X007820Y028307D01*
X008360Y028847D01*
X008360Y030527D01*
X008920Y029307D02*
X008900Y029267D01*
X008900Y028127D01*
X008000Y027227D01*
X008000Y025187D01*
X008180Y025487D02*
X008180Y027167D01*
X008360Y027347D01*
X008480Y027347D01*
X008600Y027227D01*
X008600Y026747D01*
X008580Y026727D01*
X009920Y028007D02*
X009920Y029307D01*
X011180Y028127D02*
X011270Y028217D01*
X012320Y028247D02*
X012320Y028847D01*
X012440Y028967D01*
X014660Y028967D01*
X014960Y028667D01*
X014960Y028367D01*
X015080Y028247D01*
X015740Y028247D01*
X015920Y028847D02*
X014420Y030347D01*
X014420Y030527D01*
X013280Y027527D02*
X013220Y027467D01*
X013220Y026987D01*
X013160Y026927D01*
X013160Y024887D01*
X013220Y024827D01*
X013580Y024827D02*
X013580Y025727D01*
X014180Y025547D02*
X014180Y026027D01*
X013580Y026627D01*
X013580Y026727D01*
X012580Y026727D02*
X012560Y026687D01*
X012560Y026327D01*
X012140Y025907D01*
X012140Y023867D01*
X012020Y023747D01*
X012020Y020027D01*
X012380Y019667D01*
X014240Y019667D01*
X014720Y020147D01*
X014720Y021047D01*
X014720Y021347D02*
X014660Y021347D01*
X014660Y023747D01*
X014780Y023867D01*
X014780Y024947D01*
X014180Y025547D01*
X014960Y025487D02*
X015020Y025547D01*
X015020Y025907D01*
X014600Y026327D01*
X014600Y026687D01*
X014580Y026727D01*
X014960Y025487D02*
X014960Y023027D01*
X015320Y022667D01*
X015440Y023747D02*
X015200Y023987D01*
X015200Y024107D01*
X015440Y023747D02*
X015860Y023747D01*
X016100Y023507D01*
X016100Y020207D01*
X016040Y020147D01*
X016040Y019247D01*
X016520Y018767D01*
X016880Y018767D01*
X017120Y019007D01*
X016700Y019007D02*
X016520Y019007D01*
X016220Y019307D01*
X016220Y020027D01*
X016280Y020087D01*
X016280Y023567D01*
X015860Y023987D01*
X015620Y023987D01*
X016160Y024047D02*
X016280Y024047D01*
X016460Y023867D01*
X016460Y020027D01*
X016400Y019967D01*
X016400Y019547D01*
X016640Y019307D01*
X016640Y019667D02*
X016640Y024047D01*
X016580Y024107D01*
X016820Y024227D02*
X016460Y024587D01*
X016400Y024587D01*
X016820Y024227D02*
X016820Y022667D01*
X016880Y022667D01*
X017720Y021587D02*
X017780Y021587D01*
X017780Y018647D01*
X017720Y018587D01*
X018560Y017387D02*
X018560Y020627D01*
X019940Y022007D01*
X019940Y024287D01*
X019640Y024587D01*
X020600Y024167D02*
X020600Y021767D01*
X019220Y020387D01*
X019220Y017027D01*
X019100Y016907D01*
X018560Y017387D02*
X017900Y016727D01*
X014540Y016727D01*
X014360Y016907D01*
X013400Y016907D01*
X012500Y018767D02*
X012500Y019187D01*
X012800Y019487D01*
X014480Y019487D01*
X014000Y020147D02*
X014000Y020207D01*
X013880Y020327D01*
X013880Y023807D01*
X013640Y024047D01*
X013700Y023627D02*
X013220Y024107D01*
X012980Y024227D02*
X013580Y024827D01*
X012980Y024467D02*
X012800Y024287D01*
X012800Y022847D01*
X012680Y022727D01*
X012680Y022667D01*
X012980Y022667D02*
X012980Y024227D01*
X012980Y024467D02*
X012980Y027527D01*
X011360Y024827D02*
X011300Y024827D01*
X011300Y021467D01*
X011420Y021347D01*
X010700Y020687D02*
X011060Y020327D01*
X011060Y020087D01*
X011480Y019667D01*
X011840Y019967D02*
X012320Y019487D01*
X012800Y019487D01*
X011840Y019967D02*
X011840Y023927D01*
X013700Y023627D02*
X013700Y020867D01*
X013580Y020747D01*
X013580Y020447D01*
X014120Y020447D02*
X014120Y023927D01*
X014060Y023987D01*
X014480Y023927D02*
X014540Y023987D01*
X014480Y023927D02*
X014480Y020627D01*
X014120Y020447D02*
X014360Y020207D01*
X014420Y020207D01*
X015860Y020747D02*
X015860Y018827D01*
X018920Y021347D02*
X018980Y021407D01*
X018980Y027287D01*
X018140Y029087D02*
X018140Y029207D01*
X019460Y030527D01*
X022340Y027887D02*
X022340Y026927D01*
X022340Y026147D02*
X020960Y024767D01*
X020960Y024527D01*
X020600Y024167D01*
X022940Y021587D02*
X022940Y021467D01*
X023060Y021347D01*
X023360Y021347D01*
X025100Y023087D01*
X025100Y027647D01*
X024860Y027887D01*
X024860Y028847D01*
X026720Y028847D02*
X026720Y026627D01*
X025280Y025187D01*
X025280Y021467D01*
X025220Y021407D01*
X024143Y025115D02*
X024140Y025127D01*
X024140Y026327D01*
X032360Y029807D02*
X032360Y030527D01*
X032360Y029807D02*
X032540Y029627D01*
X038000Y027887D02*
X038000Y026627D01*
X038000Y027887D02*
X038540Y028427D01*
X038540Y029927D01*
X038530Y029947D01*
X032900Y018647D02*
X032900Y017387D01*
X031760Y011807D02*
X031760Y011567D01*
X031520Y011327D01*
X030440Y011327D01*
X030260Y011147D01*
X030260Y010847D01*
X030380Y010727D01*
X031880Y010727D01*
X029630Y008657D02*
X029540Y008567D01*
X029540Y008507D01*
X028520Y008507D01*
X014960Y006047D02*
X014600Y005687D01*
X012860Y005687D01*
X011720Y007007D02*
X011240Y006527D01*
X011240Y004907D01*
X007640Y021347D02*
X007640Y028607D01*
D31*
X011120Y027587D02*
X011120Y025127D01*
X011000Y025007D01*
X011000Y023327D01*
X011060Y023267D01*
X011060Y021527D01*
X010880Y021347D01*
X010340Y021347D01*
X012500Y018767D02*
X012920Y018347D01*
X012920Y018227D01*
X020900Y012407D02*
X024380Y008928D01*
X024380Y005828D01*
X024840Y005487D02*
X024980Y005627D01*
X024980Y009227D01*
X021920Y012287D01*
X026420Y012527D02*
X031340Y007608D01*
X031340Y005888D01*
X031740Y005547D02*
X031880Y005687D01*
X031880Y007787D01*
X027440Y012227D01*
X030980Y009767D02*
X031040Y009827D01*
X030980Y009767D02*
X030980Y009587D01*
X032300Y008267D01*
X032300Y004967D01*
X032000Y004667D01*
X028880Y004667D01*
X028400Y005147D01*
X028400Y006467D01*
X028700Y006767D01*
X029960Y006767D01*
X030080Y006887D01*
X030080Y007127D01*
X031740Y005547D02*
X031682Y005187D01*
X024840Y005487D02*
X024722Y005127D01*
X016940Y006107D02*
X015920Y006107D01*
X015800Y006227D01*
X011120Y027587D02*
X011420Y027887D01*
X011600Y027887D01*
D32*
X020900Y008987D03*
M02*
