G75*
%MOIN*%
%OFA0B0*%
%FSLAX24Y24*%
%IPPOS*%
%LPD*%
%AMOC8*
5,1,8,0,0,1.08239X$1,22.5*
%
%ADD10C,0.0000*%
%ADD11R,0.0433X0.0394*%
%ADD12R,0.0709X0.0157*%
%ADD13R,0.0709X0.1500*%
%ADD14C,0.0240*%
%ADD15R,0.0394X0.0433*%
%ADD16R,0.0138X0.0551*%
%ADD17R,0.0709X0.0748*%
%ADD18R,0.0748X0.0748*%
%ADD19C,0.1000*%
%ADD20OC8,0.1000*%
%ADD21R,0.0256X0.0833*%
%ADD22C,0.1660*%
%ADD23C,0.1502*%
%ADD24C,0.0630*%
%ADD25OC8,0.0630*%
%ADD26R,0.0579X0.0500*%
%ADD27R,0.0500X0.0579*%
%ADD28R,0.0748X0.0669*%
%ADD29C,0.0591*%
%ADD30C,0.0886*%
%ADD31C,0.0039*%
%ADD32C,0.0157*%
%ADD33R,0.0157X0.0354*%
%ADD34C,0.0165*%
%ADD35R,0.1063X0.1457*%
%ADD36C,0.0472*%
%ADD37R,0.2362X0.0984*%
%ADD38C,0.0394*%
%ADD39OC8,0.0600*%
%ADD40C,0.0600*%
%ADD41R,0.1200X0.0800*%
%ADD42R,0.1500X0.0800*%
%ADD43R,0.0250X0.0750*%
%ADD44C,0.0555*%
%ADD45R,0.0157X0.0236*%
%ADD46C,0.0945*%
%ADD47R,0.0378X0.0378*%
%ADD48C,0.0378*%
%ADD49R,0.0413X0.0866*%
%ADD50R,0.0433X0.0433*%
%ADD51C,0.0320*%
%ADD52C,0.0080*%
%ADD53C,0.0160*%
%ADD54C,0.0320*%
%ADD55C,0.0356*%
%ADD56C,0.0240*%
D10*
X007080Y003227D02*
X038694Y003227D01*
X038792Y003229D01*
X038890Y003235D01*
X038988Y003244D01*
X039085Y003258D01*
X039182Y003275D01*
X039278Y003296D01*
X039373Y003321D01*
X039467Y003349D01*
X039559Y003382D01*
X039651Y003417D01*
X039741Y003457D01*
X039829Y003499D01*
X039916Y003546D01*
X040000Y003595D01*
X040083Y003648D01*
X040163Y003704D01*
X040242Y003764D01*
X040318Y003826D01*
X040391Y003891D01*
X040462Y003959D01*
X040530Y004030D01*
X040595Y004103D01*
X040657Y004179D01*
X040717Y004258D01*
X040773Y004338D01*
X040826Y004421D01*
X040875Y004505D01*
X040922Y004592D01*
X040964Y004680D01*
X041004Y004770D01*
X041039Y004862D01*
X041072Y004954D01*
X041100Y005048D01*
X041125Y005143D01*
X041146Y005239D01*
X041163Y005336D01*
X041177Y005433D01*
X041186Y005531D01*
X041192Y005629D01*
X041194Y005727D01*
X041194Y028286D01*
X041192Y028384D01*
X041186Y028482D01*
X041177Y028580D01*
X041163Y028677D01*
X041146Y028774D01*
X041125Y028870D01*
X041100Y028965D01*
X041072Y029059D01*
X041039Y029151D01*
X041004Y029243D01*
X040964Y029333D01*
X040922Y029421D01*
X040875Y029508D01*
X040826Y029592D01*
X040773Y029675D01*
X040717Y029755D01*
X040657Y029834D01*
X040595Y029910D01*
X040530Y029983D01*
X040462Y030054D01*
X040391Y030122D01*
X040318Y030187D01*
X040242Y030249D01*
X040163Y030309D01*
X040083Y030365D01*
X040000Y030418D01*
X039916Y030467D01*
X039829Y030514D01*
X039741Y030556D01*
X039651Y030596D01*
X039559Y030631D01*
X039467Y030664D01*
X039373Y030692D01*
X039278Y030717D01*
X039182Y030738D01*
X039085Y030755D01*
X038988Y030769D01*
X038890Y030778D01*
X038792Y030784D01*
X038694Y030786D01*
X007080Y030786D01*
X006982Y030784D01*
X006884Y030778D01*
X006786Y030769D01*
X006689Y030755D01*
X006592Y030738D01*
X006496Y030717D01*
X006401Y030692D01*
X006307Y030664D01*
X006215Y030631D01*
X006123Y030596D01*
X006033Y030556D01*
X005945Y030514D01*
X005858Y030467D01*
X005774Y030418D01*
X005691Y030365D01*
X005611Y030309D01*
X005532Y030249D01*
X005456Y030187D01*
X005383Y030122D01*
X005312Y030054D01*
X005244Y029983D01*
X005179Y029910D01*
X005117Y029834D01*
X005057Y029755D01*
X005001Y029675D01*
X004948Y029592D01*
X004899Y029508D01*
X004852Y029421D01*
X004810Y029333D01*
X004770Y029243D01*
X004735Y029151D01*
X004702Y029059D01*
X004674Y028965D01*
X004649Y028870D01*
X004628Y028774D01*
X004611Y028677D01*
X004597Y028580D01*
X004588Y028482D01*
X004582Y028384D01*
X004580Y028286D01*
X004580Y005727D01*
X004582Y005629D01*
X004588Y005531D01*
X004597Y005433D01*
X004611Y005336D01*
X004628Y005239D01*
X004649Y005143D01*
X004674Y005048D01*
X004702Y004954D01*
X004735Y004862D01*
X004770Y004770D01*
X004810Y004680D01*
X004852Y004592D01*
X004899Y004505D01*
X004948Y004421D01*
X005001Y004338D01*
X005057Y004258D01*
X005117Y004179D01*
X005179Y004103D01*
X005244Y004030D01*
X005312Y003959D01*
X005383Y003891D01*
X005456Y003826D01*
X005532Y003764D01*
X005611Y003704D01*
X005691Y003648D01*
X005774Y003595D01*
X005858Y003546D01*
X005945Y003499D01*
X006033Y003457D01*
X006123Y003417D01*
X006215Y003382D01*
X006307Y003349D01*
X006401Y003321D01*
X006496Y003296D01*
X006592Y003275D01*
X006689Y003258D01*
X006786Y003244D01*
X006884Y003235D01*
X006982Y003229D01*
X007080Y003227D01*
X005564Y008188D02*
X005566Y008236D01*
X005572Y008284D01*
X005582Y008331D01*
X005595Y008377D01*
X005613Y008422D01*
X005633Y008466D01*
X005658Y008508D01*
X005686Y008547D01*
X005716Y008584D01*
X005750Y008618D01*
X005787Y008650D01*
X005825Y008679D01*
X005866Y008704D01*
X005909Y008726D01*
X005954Y008744D01*
X006000Y008758D01*
X006047Y008769D01*
X006095Y008776D01*
X006143Y008779D01*
X006191Y008778D01*
X006239Y008773D01*
X006287Y008764D01*
X006333Y008752D01*
X006378Y008735D01*
X006422Y008715D01*
X006464Y008692D01*
X006504Y008665D01*
X006542Y008635D01*
X006577Y008602D01*
X006609Y008566D01*
X006639Y008528D01*
X006665Y008487D01*
X006687Y008444D01*
X006707Y008400D01*
X006722Y008355D01*
X006734Y008308D01*
X006742Y008260D01*
X006746Y008212D01*
X006746Y008164D01*
X006742Y008116D01*
X006734Y008068D01*
X006722Y008021D01*
X006707Y007976D01*
X006687Y007932D01*
X006665Y007889D01*
X006639Y007848D01*
X006609Y007810D01*
X006577Y007774D01*
X006542Y007741D01*
X006504Y007711D01*
X006464Y007684D01*
X006422Y007661D01*
X006378Y007641D01*
X006333Y007624D01*
X006287Y007612D01*
X006239Y007603D01*
X006191Y007598D01*
X006143Y007597D01*
X006095Y007600D01*
X006047Y007607D01*
X006000Y007618D01*
X005954Y007632D01*
X005909Y007650D01*
X005866Y007672D01*
X005825Y007697D01*
X005787Y007726D01*
X005750Y007758D01*
X005716Y007792D01*
X005686Y007829D01*
X005658Y007868D01*
X005633Y007910D01*
X005613Y007954D01*
X005595Y007999D01*
X005582Y008045D01*
X005572Y008092D01*
X005566Y008140D01*
X005564Y008188D01*
X020220Y004127D02*
X020222Y004177D01*
X020228Y004227D01*
X020238Y004276D01*
X020251Y004325D01*
X020269Y004372D01*
X020290Y004418D01*
X020314Y004461D01*
X020342Y004503D01*
X020373Y004543D01*
X020407Y004580D01*
X020444Y004614D01*
X020484Y004645D01*
X020526Y004673D01*
X020569Y004697D01*
X020615Y004718D01*
X020662Y004736D01*
X020711Y004749D01*
X020760Y004759D01*
X020810Y004765D01*
X020860Y004767D01*
X020910Y004765D01*
X020960Y004759D01*
X021009Y004749D01*
X021058Y004736D01*
X021105Y004718D01*
X021151Y004697D01*
X021194Y004673D01*
X021236Y004645D01*
X021276Y004614D01*
X021313Y004580D01*
X021347Y004543D01*
X021378Y004503D01*
X021406Y004461D01*
X021430Y004418D01*
X021451Y004372D01*
X021469Y004325D01*
X021482Y004276D01*
X021492Y004227D01*
X021498Y004177D01*
X021500Y004127D01*
X021498Y004077D01*
X021492Y004027D01*
X021482Y003978D01*
X021469Y003929D01*
X021451Y003882D01*
X021430Y003836D01*
X021406Y003793D01*
X021378Y003751D01*
X021347Y003711D01*
X021313Y003674D01*
X021276Y003640D01*
X021236Y003609D01*
X021194Y003581D01*
X021151Y003557D01*
X021105Y003536D01*
X021058Y003518D01*
X021009Y003505D01*
X020960Y003495D01*
X020910Y003489D01*
X020860Y003487D01*
X020810Y003489D01*
X020760Y003495D01*
X020711Y003505D01*
X020662Y003518D01*
X020615Y003536D01*
X020569Y003557D01*
X020526Y003581D01*
X020484Y003609D01*
X020444Y003640D01*
X020407Y003674D01*
X020373Y003711D01*
X020342Y003751D01*
X020314Y003793D01*
X020290Y003836D01*
X020269Y003882D01*
X020251Y003929D01*
X020238Y003978D01*
X020228Y004027D01*
X020222Y004077D01*
X020220Y004127D01*
X025220Y004127D02*
X025222Y004177D01*
X025228Y004227D01*
X025238Y004276D01*
X025251Y004325D01*
X025269Y004372D01*
X025290Y004418D01*
X025314Y004461D01*
X025342Y004503D01*
X025373Y004543D01*
X025407Y004580D01*
X025444Y004614D01*
X025484Y004645D01*
X025526Y004673D01*
X025569Y004697D01*
X025615Y004718D01*
X025662Y004736D01*
X025711Y004749D01*
X025760Y004759D01*
X025810Y004765D01*
X025860Y004767D01*
X025910Y004765D01*
X025960Y004759D01*
X026009Y004749D01*
X026058Y004736D01*
X026105Y004718D01*
X026151Y004697D01*
X026194Y004673D01*
X026236Y004645D01*
X026276Y004614D01*
X026313Y004580D01*
X026347Y004543D01*
X026378Y004503D01*
X026406Y004461D01*
X026430Y004418D01*
X026451Y004372D01*
X026469Y004325D01*
X026482Y004276D01*
X026492Y004227D01*
X026498Y004177D01*
X026500Y004127D01*
X026498Y004077D01*
X026492Y004027D01*
X026482Y003978D01*
X026469Y003929D01*
X026451Y003882D01*
X026430Y003836D01*
X026406Y003793D01*
X026378Y003751D01*
X026347Y003711D01*
X026313Y003674D01*
X026276Y003640D01*
X026236Y003609D01*
X026194Y003581D01*
X026151Y003557D01*
X026105Y003536D01*
X026058Y003518D01*
X026009Y003505D01*
X025960Y003495D01*
X025910Y003489D01*
X025860Y003487D01*
X025810Y003489D01*
X025760Y003495D01*
X025711Y003505D01*
X025662Y003518D01*
X025615Y003536D01*
X025569Y003557D01*
X025526Y003581D01*
X025484Y003609D01*
X025444Y003640D01*
X025407Y003674D01*
X025373Y003711D01*
X025342Y003751D01*
X025314Y003793D01*
X025290Y003836D01*
X025269Y003882D01*
X025251Y003929D01*
X025238Y003978D01*
X025228Y004027D01*
X025222Y004077D01*
X025220Y004127D01*
X027180Y004187D02*
X027182Y004237D01*
X027188Y004287D01*
X027198Y004336D01*
X027211Y004385D01*
X027229Y004432D01*
X027250Y004478D01*
X027274Y004521D01*
X027302Y004563D01*
X027333Y004603D01*
X027367Y004640D01*
X027404Y004674D01*
X027444Y004705D01*
X027486Y004733D01*
X027529Y004757D01*
X027575Y004778D01*
X027622Y004796D01*
X027671Y004809D01*
X027720Y004819D01*
X027770Y004825D01*
X027820Y004827D01*
X027870Y004825D01*
X027920Y004819D01*
X027969Y004809D01*
X028018Y004796D01*
X028065Y004778D01*
X028111Y004757D01*
X028154Y004733D01*
X028196Y004705D01*
X028236Y004674D01*
X028273Y004640D01*
X028307Y004603D01*
X028338Y004563D01*
X028366Y004521D01*
X028390Y004478D01*
X028411Y004432D01*
X028429Y004385D01*
X028442Y004336D01*
X028452Y004287D01*
X028458Y004237D01*
X028460Y004187D01*
X028458Y004137D01*
X028452Y004087D01*
X028442Y004038D01*
X028429Y003989D01*
X028411Y003942D01*
X028390Y003896D01*
X028366Y003853D01*
X028338Y003811D01*
X028307Y003771D01*
X028273Y003734D01*
X028236Y003700D01*
X028196Y003669D01*
X028154Y003641D01*
X028111Y003617D01*
X028065Y003596D01*
X028018Y003578D01*
X027969Y003565D01*
X027920Y003555D01*
X027870Y003549D01*
X027820Y003547D01*
X027770Y003549D01*
X027720Y003555D01*
X027671Y003565D01*
X027622Y003578D01*
X027575Y003596D01*
X027529Y003617D01*
X027486Y003641D01*
X027444Y003669D01*
X027404Y003700D01*
X027367Y003734D01*
X027333Y003771D01*
X027302Y003811D01*
X027274Y003853D01*
X027250Y003896D01*
X027229Y003942D01*
X027211Y003989D01*
X027198Y004038D01*
X027188Y004087D01*
X027182Y004137D01*
X027180Y004187D01*
X032180Y004187D02*
X032182Y004237D01*
X032188Y004287D01*
X032198Y004336D01*
X032211Y004385D01*
X032229Y004432D01*
X032250Y004478D01*
X032274Y004521D01*
X032302Y004563D01*
X032333Y004603D01*
X032367Y004640D01*
X032404Y004674D01*
X032444Y004705D01*
X032486Y004733D01*
X032529Y004757D01*
X032575Y004778D01*
X032622Y004796D01*
X032671Y004809D01*
X032720Y004819D01*
X032770Y004825D01*
X032820Y004827D01*
X032870Y004825D01*
X032920Y004819D01*
X032969Y004809D01*
X033018Y004796D01*
X033065Y004778D01*
X033111Y004757D01*
X033154Y004733D01*
X033196Y004705D01*
X033236Y004674D01*
X033273Y004640D01*
X033307Y004603D01*
X033338Y004563D01*
X033366Y004521D01*
X033390Y004478D01*
X033411Y004432D01*
X033429Y004385D01*
X033442Y004336D01*
X033452Y004287D01*
X033458Y004237D01*
X033460Y004187D01*
X033458Y004137D01*
X033452Y004087D01*
X033442Y004038D01*
X033429Y003989D01*
X033411Y003942D01*
X033390Y003896D01*
X033366Y003853D01*
X033338Y003811D01*
X033307Y003771D01*
X033273Y003734D01*
X033236Y003700D01*
X033196Y003669D01*
X033154Y003641D01*
X033111Y003617D01*
X033065Y003596D01*
X033018Y003578D01*
X032969Y003565D01*
X032920Y003555D01*
X032870Y003549D01*
X032820Y003547D01*
X032770Y003549D01*
X032720Y003555D01*
X032671Y003565D01*
X032622Y003578D01*
X032575Y003596D01*
X032529Y003617D01*
X032486Y003641D01*
X032444Y003669D01*
X032404Y003700D01*
X032367Y003734D01*
X032333Y003771D01*
X032302Y003811D01*
X032274Y003853D01*
X032250Y003896D01*
X032229Y003942D01*
X032211Y003989D01*
X032198Y004038D01*
X032188Y004087D01*
X032182Y004137D01*
X032180Y004187D01*
X039028Y008188D02*
X039030Y008236D01*
X039036Y008284D01*
X039046Y008331D01*
X039059Y008377D01*
X039077Y008422D01*
X039097Y008466D01*
X039122Y008508D01*
X039150Y008547D01*
X039180Y008584D01*
X039214Y008618D01*
X039251Y008650D01*
X039289Y008679D01*
X039330Y008704D01*
X039373Y008726D01*
X039418Y008744D01*
X039464Y008758D01*
X039511Y008769D01*
X039559Y008776D01*
X039607Y008779D01*
X039655Y008778D01*
X039703Y008773D01*
X039751Y008764D01*
X039797Y008752D01*
X039842Y008735D01*
X039886Y008715D01*
X039928Y008692D01*
X039968Y008665D01*
X040006Y008635D01*
X040041Y008602D01*
X040073Y008566D01*
X040103Y008528D01*
X040129Y008487D01*
X040151Y008444D01*
X040171Y008400D01*
X040186Y008355D01*
X040198Y008308D01*
X040206Y008260D01*
X040210Y008212D01*
X040210Y008164D01*
X040206Y008116D01*
X040198Y008068D01*
X040186Y008021D01*
X040171Y007976D01*
X040151Y007932D01*
X040129Y007889D01*
X040103Y007848D01*
X040073Y007810D01*
X040041Y007774D01*
X040006Y007741D01*
X039968Y007711D01*
X039928Y007684D01*
X039886Y007661D01*
X039842Y007641D01*
X039797Y007624D01*
X039751Y007612D01*
X039703Y007603D01*
X039655Y007598D01*
X039607Y007597D01*
X039559Y007600D01*
X039511Y007607D01*
X039464Y007618D01*
X039418Y007632D01*
X039373Y007650D01*
X039330Y007672D01*
X039289Y007697D01*
X039251Y007726D01*
X039214Y007758D01*
X039180Y007792D01*
X039150Y007829D01*
X039122Y007868D01*
X039097Y007910D01*
X039077Y007954D01*
X039059Y007999D01*
X039046Y008045D01*
X039036Y008092D01*
X039030Y008140D01*
X039028Y008188D01*
X038635Y026062D02*
X038637Y026127D01*
X038643Y026193D01*
X038653Y026257D01*
X038666Y026321D01*
X038684Y026384D01*
X038705Y026446D01*
X038730Y026506D01*
X038759Y026565D01*
X038791Y026622D01*
X038827Y026677D01*
X038865Y026730D01*
X038907Y026780D01*
X038952Y026828D01*
X039000Y026873D01*
X039050Y026915D01*
X039103Y026953D01*
X039158Y026989D01*
X039215Y027021D01*
X039274Y027050D01*
X039334Y027075D01*
X039396Y027096D01*
X039459Y027114D01*
X039523Y027127D01*
X039587Y027137D01*
X039653Y027143D01*
X039718Y027145D01*
X039783Y027143D01*
X039849Y027137D01*
X039913Y027127D01*
X039977Y027114D01*
X040040Y027096D01*
X040102Y027075D01*
X040162Y027050D01*
X040221Y027021D01*
X040278Y026989D01*
X040333Y026953D01*
X040386Y026915D01*
X040436Y026873D01*
X040484Y026828D01*
X040529Y026780D01*
X040571Y026730D01*
X040609Y026677D01*
X040645Y026622D01*
X040677Y026565D01*
X040706Y026506D01*
X040731Y026446D01*
X040752Y026384D01*
X040770Y026321D01*
X040783Y026257D01*
X040793Y026193D01*
X040799Y026127D01*
X040801Y026062D01*
X040799Y025997D01*
X040793Y025931D01*
X040783Y025867D01*
X040770Y025803D01*
X040752Y025740D01*
X040731Y025678D01*
X040706Y025618D01*
X040677Y025559D01*
X040645Y025502D01*
X040609Y025447D01*
X040571Y025394D01*
X040529Y025344D01*
X040484Y025296D01*
X040436Y025251D01*
X040386Y025209D01*
X040333Y025171D01*
X040278Y025135D01*
X040221Y025103D01*
X040162Y025074D01*
X040102Y025049D01*
X040040Y025028D01*
X039977Y025010D01*
X039913Y024997D01*
X039849Y024987D01*
X039783Y024981D01*
X039718Y024979D01*
X039653Y024981D01*
X039587Y024987D01*
X039523Y024997D01*
X039459Y025010D01*
X039396Y025028D01*
X039334Y025049D01*
X039274Y025074D01*
X039215Y025103D01*
X039158Y025135D01*
X039103Y025171D01*
X039050Y025209D01*
X039000Y025251D01*
X038952Y025296D01*
X038907Y025344D01*
X038865Y025394D01*
X038827Y025447D01*
X038791Y025502D01*
X038759Y025559D01*
X038730Y025618D01*
X038705Y025678D01*
X038684Y025740D01*
X038666Y025803D01*
X038653Y025867D01*
X038643Y025931D01*
X038637Y025997D01*
X038635Y026062D01*
X031982Y028493D02*
X031984Y028524D01*
X031990Y028555D01*
X031999Y028585D01*
X032012Y028614D01*
X032029Y028641D01*
X032049Y028665D01*
X032071Y028687D01*
X032097Y028706D01*
X032124Y028722D01*
X032153Y028734D01*
X032183Y028743D01*
X032214Y028748D01*
X032246Y028749D01*
X032277Y028746D01*
X032308Y028739D01*
X032338Y028729D01*
X032366Y028715D01*
X032392Y028697D01*
X032416Y028677D01*
X032437Y028653D01*
X032456Y028628D01*
X032471Y028600D01*
X032482Y028571D01*
X032490Y028540D01*
X032494Y028509D01*
X032494Y028477D01*
X032490Y028446D01*
X032482Y028415D01*
X032471Y028386D01*
X032456Y028358D01*
X032437Y028333D01*
X032416Y028309D01*
X032392Y028289D01*
X032366Y028271D01*
X032338Y028257D01*
X032308Y028247D01*
X032277Y028240D01*
X032246Y028237D01*
X032214Y028238D01*
X032183Y028243D01*
X032153Y028252D01*
X032124Y028264D01*
X032097Y028280D01*
X032071Y028299D01*
X032049Y028321D01*
X032029Y028345D01*
X032012Y028372D01*
X031999Y028401D01*
X031990Y028431D01*
X031984Y028462D01*
X031982Y028493D01*
X030998Y028493D02*
X031000Y028524D01*
X031006Y028555D01*
X031015Y028585D01*
X031028Y028614D01*
X031045Y028641D01*
X031065Y028665D01*
X031087Y028687D01*
X031113Y028706D01*
X031140Y028722D01*
X031169Y028734D01*
X031199Y028743D01*
X031230Y028748D01*
X031262Y028749D01*
X031293Y028746D01*
X031324Y028739D01*
X031354Y028729D01*
X031382Y028715D01*
X031408Y028697D01*
X031432Y028677D01*
X031453Y028653D01*
X031472Y028628D01*
X031487Y028600D01*
X031498Y028571D01*
X031506Y028540D01*
X031510Y028509D01*
X031510Y028477D01*
X031506Y028446D01*
X031498Y028415D01*
X031487Y028386D01*
X031472Y028358D01*
X031453Y028333D01*
X031432Y028309D01*
X031408Y028289D01*
X031382Y028271D01*
X031354Y028257D01*
X031324Y028247D01*
X031293Y028240D01*
X031262Y028237D01*
X031230Y028238D01*
X031199Y028243D01*
X031169Y028252D01*
X031140Y028264D01*
X031113Y028280D01*
X031087Y028299D01*
X031065Y028321D01*
X031045Y028345D01*
X031028Y028372D01*
X031015Y028401D01*
X031006Y028431D01*
X031000Y028462D01*
X030998Y028493D01*
X026042Y028493D02*
X026044Y028524D01*
X026050Y028555D01*
X026059Y028585D01*
X026072Y028614D01*
X026089Y028641D01*
X026109Y028665D01*
X026131Y028687D01*
X026157Y028706D01*
X026184Y028722D01*
X026213Y028734D01*
X026243Y028743D01*
X026274Y028748D01*
X026306Y028749D01*
X026337Y028746D01*
X026368Y028739D01*
X026398Y028729D01*
X026426Y028715D01*
X026452Y028697D01*
X026476Y028677D01*
X026497Y028653D01*
X026516Y028628D01*
X026531Y028600D01*
X026542Y028571D01*
X026550Y028540D01*
X026554Y028509D01*
X026554Y028477D01*
X026550Y028446D01*
X026542Y028415D01*
X026531Y028386D01*
X026516Y028358D01*
X026497Y028333D01*
X026476Y028309D01*
X026452Y028289D01*
X026426Y028271D01*
X026398Y028257D01*
X026368Y028247D01*
X026337Y028240D01*
X026306Y028237D01*
X026274Y028238D01*
X026243Y028243D01*
X026213Y028252D01*
X026184Y028264D01*
X026157Y028280D01*
X026131Y028299D01*
X026109Y028321D01*
X026089Y028345D01*
X026072Y028372D01*
X026059Y028401D01*
X026050Y028431D01*
X026044Y028462D01*
X026042Y028493D01*
X025058Y028493D02*
X025060Y028524D01*
X025066Y028555D01*
X025075Y028585D01*
X025088Y028614D01*
X025105Y028641D01*
X025125Y028665D01*
X025147Y028687D01*
X025173Y028706D01*
X025200Y028722D01*
X025229Y028734D01*
X025259Y028743D01*
X025290Y028748D01*
X025322Y028749D01*
X025353Y028746D01*
X025384Y028739D01*
X025414Y028729D01*
X025442Y028715D01*
X025468Y028697D01*
X025492Y028677D01*
X025513Y028653D01*
X025532Y028628D01*
X025547Y028600D01*
X025558Y028571D01*
X025566Y028540D01*
X025570Y028509D01*
X025570Y028477D01*
X025566Y028446D01*
X025558Y028415D01*
X025547Y028386D01*
X025532Y028358D01*
X025513Y028333D01*
X025492Y028309D01*
X025468Y028289D01*
X025442Y028271D01*
X025414Y028257D01*
X025384Y028247D01*
X025353Y028240D01*
X025322Y028237D01*
X025290Y028238D01*
X025259Y028243D01*
X025229Y028252D01*
X025200Y028264D01*
X025173Y028280D01*
X025147Y028299D01*
X025125Y028321D01*
X025105Y028345D01*
X025088Y028372D01*
X025075Y028401D01*
X025066Y028431D01*
X025060Y028462D01*
X025058Y028493D01*
X020162Y028493D02*
X020164Y028524D01*
X020170Y028555D01*
X020179Y028585D01*
X020192Y028614D01*
X020209Y028641D01*
X020229Y028665D01*
X020251Y028687D01*
X020277Y028706D01*
X020304Y028722D01*
X020333Y028734D01*
X020363Y028743D01*
X020394Y028748D01*
X020426Y028749D01*
X020457Y028746D01*
X020488Y028739D01*
X020518Y028729D01*
X020546Y028715D01*
X020572Y028697D01*
X020596Y028677D01*
X020617Y028653D01*
X020636Y028628D01*
X020651Y028600D01*
X020662Y028571D01*
X020670Y028540D01*
X020674Y028509D01*
X020674Y028477D01*
X020670Y028446D01*
X020662Y028415D01*
X020651Y028386D01*
X020636Y028358D01*
X020617Y028333D01*
X020596Y028309D01*
X020572Y028289D01*
X020546Y028271D01*
X020518Y028257D01*
X020488Y028247D01*
X020457Y028240D01*
X020426Y028237D01*
X020394Y028238D01*
X020363Y028243D01*
X020333Y028252D01*
X020304Y028264D01*
X020277Y028280D01*
X020251Y028299D01*
X020229Y028321D01*
X020209Y028345D01*
X020192Y028372D01*
X020179Y028401D01*
X020170Y028431D01*
X020164Y028462D01*
X020162Y028493D01*
X019178Y028493D02*
X019180Y028524D01*
X019186Y028555D01*
X019195Y028585D01*
X019208Y028614D01*
X019225Y028641D01*
X019245Y028665D01*
X019267Y028687D01*
X019293Y028706D01*
X019320Y028722D01*
X019349Y028734D01*
X019379Y028743D01*
X019410Y028748D01*
X019442Y028749D01*
X019473Y028746D01*
X019504Y028739D01*
X019534Y028729D01*
X019562Y028715D01*
X019588Y028697D01*
X019612Y028677D01*
X019633Y028653D01*
X019652Y028628D01*
X019667Y028600D01*
X019678Y028571D01*
X019686Y028540D01*
X019690Y028509D01*
X019690Y028477D01*
X019686Y028446D01*
X019678Y028415D01*
X019667Y028386D01*
X019652Y028358D01*
X019633Y028333D01*
X019612Y028309D01*
X019588Y028289D01*
X019562Y028271D01*
X019534Y028257D01*
X019504Y028247D01*
X019473Y028240D01*
X019442Y028237D01*
X019410Y028238D01*
X019379Y028243D01*
X019349Y028252D01*
X019320Y028264D01*
X019293Y028280D01*
X019267Y028299D01*
X019245Y028321D01*
X019225Y028345D01*
X019208Y028372D01*
X019195Y028401D01*
X019186Y028431D01*
X019180Y028462D01*
X019178Y028493D01*
X014251Y028514D02*
X014253Y028545D01*
X014259Y028576D01*
X014268Y028606D01*
X014281Y028635D01*
X014298Y028662D01*
X014318Y028686D01*
X014340Y028708D01*
X014366Y028727D01*
X014393Y028743D01*
X014422Y028755D01*
X014452Y028764D01*
X014483Y028769D01*
X014515Y028770D01*
X014546Y028767D01*
X014577Y028760D01*
X014607Y028750D01*
X014635Y028736D01*
X014661Y028718D01*
X014685Y028698D01*
X014706Y028674D01*
X014725Y028649D01*
X014740Y028621D01*
X014751Y028592D01*
X014759Y028561D01*
X014763Y028530D01*
X014763Y028498D01*
X014759Y028467D01*
X014751Y028436D01*
X014740Y028407D01*
X014725Y028379D01*
X014706Y028354D01*
X014685Y028330D01*
X014661Y028310D01*
X014635Y028292D01*
X014607Y028278D01*
X014577Y028268D01*
X014546Y028261D01*
X014515Y028258D01*
X014483Y028259D01*
X014452Y028264D01*
X014422Y028273D01*
X014393Y028285D01*
X014366Y028301D01*
X014340Y028320D01*
X014318Y028342D01*
X014298Y028366D01*
X014281Y028393D01*
X014268Y028422D01*
X014259Y028452D01*
X014253Y028483D01*
X014251Y028514D01*
X013267Y028514D02*
X013269Y028545D01*
X013275Y028576D01*
X013284Y028606D01*
X013297Y028635D01*
X013314Y028662D01*
X013334Y028686D01*
X013356Y028708D01*
X013382Y028727D01*
X013409Y028743D01*
X013438Y028755D01*
X013468Y028764D01*
X013499Y028769D01*
X013531Y028770D01*
X013562Y028767D01*
X013593Y028760D01*
X013623Y028750D01*
X013651Y028736D01*
X013677Y028718D01*
X013701Y028698D01*
X013722Y028674D01*
X013741Y028649D01*
X013756Y028621D01*
X013767Y028592D01*
X013775Y028561D01*
X013779Y028530D01*
X013779Y028498D01*
X013775Y028467D01*
X013767Y028436D01*
X013756Y028407D01*
X013741Y028379D01*
X013722Y028354D01*
X013701Y028330D01*
X013677Y028310D01*
X013651Y028292D01*
X013623Y028278D01*
X013593Y028268D01*
X013562Y028261D01*
X013531Y028258D01*
X013499Y028259D01*
X013468Y028264D01*
X013438Y028273D01*
X013409Y028285D01*
X013382Y028301D01*
X013356Y028320D01*
X013334Y028342D01*
X013314Y028366D01*
X013297Y028393D01*
X013284Y028422D01*
X013275Y028452D01*
X013269Y028483D01*
X013267Y028514D01*
X004973Y026062D02*
X004975Y026127D01*
X004981Y026193D01*
X004991Y026257D01*
X005004Y026321D01*
X005022Y026384D01*
X005043Y026446D01*
X005068Y026506D01*
X005097Y026565D01*
X005129Y026622D01*
X005165Y026677D01*
X005203Y026730D01*
X005245Y026780D01*
X005290Y026828D01*
X005338Y026873D01*
X005388Y026915D01*
X005441Y026953D01*
X005496Y026989D01*
X005553Y027021D01*
X005612Y027050D01*
X005672Y027075D01*
X005734Y027096D01*
X005797Y027114D01*
X005861Y027127D01*
X005925Y027137D01*
X005991Y027143D01*
X006056Y027145D01*
X006121Y027143D01*
X006187Y027137D01*
X006251Y027127D01*
X006315Y027114D01*
X006378Y027096D01*
X006440Y027075D01*
X006500Y027050D01*
X006559Y027021D01*
X006616Y026989D01*
X006671Y026953D01*
X006724Y026915D01*
X006774Y026873D01*
X006822Y026828D01*
X006867Y026780D01*
X006909Y026730D01*
X006947Y026677D01*
X006983Y026622D01*
X007015Y026565D01*
X007044Y026506D01*
X007069Y026446D01*
X007090Y026384D01*
X007108Y026321D01*
X007121Y026257D01*
X007131Y026193D01*
X007137Y026127D01*
X007139Y026062D01*
X007137Y025997D01*
X007131Y025931D01*
X007121Y025867D01*
X007108Y025803D01*
X007090Y025740D01*
X007069Y025678D01*
X007044Y025618D01*
X007015Y025559D01*
X006983Y025502D01*
X006947Y025447D01*
X006909Y025394D01*
X006867Y025344D01*
X006822Y025296D01*
X006774Y025251D01*
X006724Y025209D01*
X006671Y025171D01*
X006616Y025135D01*
X006559Y025103D01*
X006500Y025074D01*
X006440Y025049D01*
X006378Y025028D01*
X006315Y025010D01*
X006251Y024997D01*
X006187Y024987D01*
X006121Y024981D01*
X006056Y024979D01*
X005991Y024981D01*
X005925Y024987D01*
X005861Y024997D01*
X005797Y025010D01*
X005734Y025028D01*
X005672Y025049D01*
X005612Y025074D01*
X005553Y025103D01*
X005496Y025135D01*
X005441Y025171D01*
X005388Y025209D01*
X005338Y025251D01*
X005290Y025296D01*
X005245Y025344D01*
X005203Y025394D01*
X005165Y025447D01*
X005129Y025502D01*
X005097Y025559D01*
X005068Y025618D01*
X005043Y025678D01*
X005022Y025740D01*
X005004Y025803D01*
X004991Y025867D01*
X004981Y025931D01*
X004975Y025997D01*
X004973Y026062D01*
D11*
X010011Y020964D03*
X010011Y020294D03*
X014950Y015482D03*
X014950Y014813D03*
X010580Y012802D03*
X010580Y012133D03*
X009560Y012133D03*
X009560Y012802D03*
X016378Y008173D03*
X016378Y007504D03*
X018019Y010726D03*
X018688Y010726D03*
X021560Y010282D03*
X021560Y009613D03*
X022700Y009613D03*
X022700Y010282D03*
X023900Y010282D03*
X023900Y009613D03*
X025220Y009613D03*
X025220Y010282D03*
X026540Y010342D03*
X026540Y009673D03*
X027680Y009673D03*
X027680Y010342D03*
X029420Y010402D03*
X029420Y009733D03*
X030560Y009733D03*
X030560Y010402D03*
X031820Y012673D03*
X031820Y013342D03*
X032900Y013342D03*
X032900Y012673D03*
X034040Y012673D03*
X034040Y013342D03*
X033980Y017593D03*
X033980Y018262D03*
X029960Y020113D03*
X029960Y020782D03*
X028820Y020782D03*
X028820Y020113D03*
X017846Y022450D03*
X017846Y023120D03*
X018560Y028873D03*
X018560Y029542D03*
X021380Y029542D03*
X021380Y028873D03*
X024260Y028873D03*
X024260Y029542D03*
X027380Y029542D03*
X027380Y028873D03*
X030140Y028873D03*
X030140Y029542D03*
X033200Y029602D03*
X033200Y028933D03*
X033920Y028933D03*
X033920Y029602D03*
X015500Y029482D03*
X015500Y028813D03*
X012560Y028873D03*
X012560Y029542D03*
X012398Y006319D03*
X012398Y005650D03*
X011240Y005593D03*
X011240Y006262D03*
D12*
X019646Y025148D03*
X019646Y025648D03*
X019646Y026148D03*
X019646Y026648D03*
X019646Y027148D03*
D13*
X017284Y026148D03*
D14*
X017284Y026148D03*
X017284Y026502D03*
X016930Y026502D03*
X016930Y026856D03*
X017284Y026856D03*
X017639Y026856D03*
X017639Y026502D03*
X017639Y026148D03*
X017639Y025793D03*
X017639Y025439D03*
X017284Y025439D03*
X016930Y025439D03*
X016930Y025793D03*
X017284Y025793D03*
X016930Y026148D03*
X018020Y026147D03*
X018320Y026147D03*
X018320Y025787D03*
X018020Y025787D03*
X018020Y025427D03*
X018320Y025427D03*
X018320Y026507D03*
X018020Y026507D03*
X018020Y026867D03*
X018320Y026867D03*
X018980Y027287D03*
X017120Y028427D03*
X018140Y029087D03*
X017060Y029627D03*
X015920Y028847D03*
X015740Y028247D03*
X013280Y027527D03*
X012980Y027527D03*
X012320Y028247D03*
X009920Y028007D03*
X009260Y027647D03*
X007640Y028607D03*
X008360Y030527D03*
X014420Y030527D03*
X019460Y030527D03*
X024860Y028847D03*
X026720Y028847D03*
X024140Y026327D03*
X022340Y026147D03*
X020660Y024647D03*
X019640Y024587D03*
X016880Y022667D03*
X017720Y021587D03*
X018680Y022367D03*
X018920Y021347D03*
X016640Y019667D03*
X016640Y019307D03*
X016700Y019007D03*
X017120Y019007D03*
X017720Y018587D03*
X015860Y018827D03*
X014480Y019487D03*
X014000Y020147D03*
X014420Y020207D03*
X014480Y020627D03*
X014720Y021047D03*
X014720Y021347D03*
X015860Y020747D03*
X015320Y022667D03*
X015620Y023987D03*
X015200Y024107D03*
X014540Y023987D03*
X014060Y023987D03*
X013640Y024047D03*
X013220Y024107D03*
X013220Y024827D03*
X014120Y024947D03*
X015620Y024887D03*
X016400Y024587D03*
X016580Y024107D03*
X016160Y024047D03*
X012980Y022667D03*
X012680Y022667D03*
X011600Y022607D03*
X010580Y022667D03*
X009860Y022727D03*
X009080Y022667D03*
X008360Y022667D03*
X008060Y022667D03*
X008360Y023987D03*
X009560Y024227D03*
X010160Y024227D03*
X011360Y024827D03*
X011840Y023927D03*
X011420Y021347D03*
X010700Y020687D03*
X010340Y021347D03*
X009560Y021347D03*
X007640Y021347D03*
X008600Y019847D03*
X011480Y019667D03*
X011900Y018887D03*
X011840Y018587D03*
X013040Y019067D03*
X013280Y020147D03*
X013580Y020447D03*
X012560Y020867D03*
X012140Y016907D03*
X011900Y016367D03*
X011120Y016547D03*
X015740Y014327D03*
X014720Y012527D03*
X013400Y011087D03*
X012200Y011747D03*
X013940Y010007D03*
X010280Y009587D03*
X010280Y008687D03*
X010280Y007727D03*
X011720Y007007D03*
X012860Y005687D03*
X011240Y004907D03*
X007940Y007607D03*
X008120Y009527D03*
X008120Y011987D03*
X015800Y006227D03*
X016400Y006647D03*
X016940Y006107D03*
X019220Y006947D03*
X017900Y008387D03*
X017960Y008987D03*
X018020Y009827D03*
X020180Y009527D03*
X022760Y007787D03*
X023120Y006827D03*
X025460Y009107D03*
X025220Y010727D03*
X027440Y012227D03*
X026420Y012527D03*
X026720Y013727D03*
X024800Y014087D03*
X025040Y015047D03*
X022820Y016187D03*
X021320Y016247D03*
X019100Y016907D03*
X023900Y013067D03*
X024800Y012587D03*
X022880Y012407D03*
X021920Y012287D03*
X020900Y012407D03*
X027740Y017507D03*
X028880Y018587D03*
X028820Y019247D03*
X030860Y017747D03*
X031220Y017747D03*
X031580Y017747D03*
X031580Y016727D03*
X031220Y016727D03*
X030860Y016727D03*
X032900Y017387D03*
X028820Y012167D03*
X030560Y011027D03*
X031040Y009827D03*
X031880Y010727D03*
X031760Y011807D03*
X036860Y011687D03*
X030080Y007127D03*
X025220Y018107D03*
X025220Y021407D03*
X025580Y022127D03*
X022940Y021587D03*
X032540Y029627D03*
X032360Y030527D03*
X037640Y028787D03*
X039920Y028007D03*
X038000Y026627D03*
X008060Y025187D03*
D15*
X020765Y025307D03*
X021435Y025307D03*
X021435Y026245D03*
X020765Y026245D03*
X020753Y027290D03*
X021422Y027290D03*
X033225Y019487D03*
X033895Y019487D03*
X033895Y016787D03*
X033225Y016787D03*
X033225Y015167D03*
X033895Y015167D03*
X033895Y014087D03*
X033225Y014087D03*
X032925Y011807D03*
X033595Y011807D03*
X033595Y010607D03*
X032925Y010607D03*
X029310Y016409D03*
X028641Y016409D03*
X014257Y013563D03*
X013588Y013563D03*
D16*
X013600Y004911D03*
X013856Y004911D03*
X014112Y004911D03*
X013344Y004911D03*
X013088Y004911D03*
D17*
X012025Y003867D03*
X015175Y003867D03*
D18*
X014100Y003867D03*
X013100Y003867D03*
D19*
X018404Y012464D03*
X025040Y019367D03*
X022400Y024467D03*
X024143Y027115D03*
X026540Y027167D03*
X027800Y027167D03*
D20*
X024143Y025115D03*
X018404Y014464D03*
D21*
X017078Y021988D03*
X016578Y021988D03*
X016078Y021988D03*
X015578Y021988D03*
X015078Y021988D03*
X014578Y021988D03*
X014078Y021988D03*
X013578Y021988D03*
X013078Y021988D03*
X012578Y021988D03*
X012078Y021988D03*
X011578Y021988D03*
X011078Y021988D03*
X010578Y021988D03*
X010078Y021988D03*
X009578Y021988D03*
X009078Y021988D03*
X008578Y021988D03*
X008078Y021988D03*
X007578Y021988D03*
X007578Y023321D03*
X008078Y023321D03*
X008578Y023321D03*
X009078Y023321D03*
X009578Y023321D03*
X010078Y023321D03*
X010578Y023321D03*
X011078Y023321D03*
X011578Y023321D03*
X012078Y023321D03*
X012578Y023321D03*
X013078Y023321D03*
X013578Y023321D03*
X014078Y023321D03*
X014578Y023321D03*
X015078Y023321D03*
X015578Y023321D03*
X016078Y023321D03*
X016578Y023321D03*
X017078Y023321D03*
D22*
X036160Y007282D03*
D23*
X038050Y006160D03*
X036160Y004821D03*
D24*
X028368Y023335D03*
X031760Y026727D03*
D25*
X031760Y025327D03*
X026968Y023335D03*
D26*
X031005Y023247D03*
X031005Y021554D03*
D27*
X027737Y019697D03*
X026045Y019697D03*
X026045Y018122D03*
X027737Y018122D03*
X027737Y016547D03*
X026045Y016547D03*
D28*
X036962Y012387D03*
X036962Y010379D03*
X040506Y010379D03*
X040506Y012387D03*
D29*
X018375Y007882D03*
X018375Y007094D03*
X018375Y006307D03*
X018375Y005520D03*
D30*
X017253Y005323D03*
X019497Y005323D03*
X019497Y008079D03*
X017253Y008079D03*
X008840Y005447D03*
D31*
X016346Y008621D02*
X016346Y008779D01*
X016386Y008779D01*
X016386Y008621D01*
X016346Y008621D01*
X016346Y008659D02*
X016386Y008659D01*
X016386Y008697D02*
X016346Y008697D01*
X016346Y008735D02*
X016386Y008735D01*
X016386Y008773D02*
X016346Y008773D01*
X016543Y008779D02*
X016543Y008621D01*
X016543Y008779D02*
X016583Y008779D01*
X016583Y008621D01*
X016543Y008621D01*
X016543Y008659D02*
X016583Y008659D01*
X016583Y008697D02*
X016543Y008697D01*
X016543Y008735D02*
X016583Y008735D01*
X016583Y008773D02*
X016543Y008773D01*
X016740Y008779D02*
X016740Y008621D01*
X016740Y008779D02*
X016780Y008779D01*
X016780Y008621D01*
X016740Y008621D01*
X016740Y008659D02*
X016780Y008659D01*
X016780Y008697D02*
X016740Y008697D01*
X016740Y008735D02*
X016780Y008735D01*
X016780Y008773D02*
X016740Y008773D01*
X016740Y009211D02*
X016740Y009369D01*
X016780Y009369D01*
X016780Y009211D01*
X016740Y009211D01*
X016740Y009249D02*
X016780Y009249D01*
X016780Y009287D02*
X016740Y009287D01*
X016740Y009325D02*
X016780Y009325D01*
X016780Y009363D02*
X016740Y009363D01*
X016543Y009369D02*
X016543Y009211D01*
X016543Y009369D02*
X016583Y009369D01*
X016583Y009211D01*
X016543Y009211D01*
X016543Y009249D02*
X016583Y009249D01*
X016583Y009287D02*
X016543Y009287D01*
X016543Y009325D02*
X016583Y009325D01*
X016583Y009363D02*
X016543Y009363D01*
X016346Y009369D02*
X016346Y009211D01*
X016346Y009369D02*
X016386Y009369D01*
X016386Y009211D01*
X016346Y009211D01*
X016346Y009249D02*
X016386Y009249D01*
X016386Y009287D02*
X016346Y009287D01*
X016346Y009325D02*
X016386Y009325D01*
X016386Y009363D02*
X016346Y009363D01*
D32*
X016425Y008995D02*
X016425Y008995D01*
X016701Y008995D01*
X016701Y008995D01*
X016425Y008995D01*
D33*
X014198Y029084D03*
X013860Y029084D03*
X013860Y029733D03*
X014198Y029733D03*
X019765Y029733D03*
X020104Y029733D03*
X020104Y029084D03*
X019765Y029084D03*
X025671Y029084D03*
X026009Y029084D03*
X026009Y029733D03*
X025671Y029733D03*
X031576Y029733D03*
X031915Y029733D03*
X031915Y029084D03*
X031576Y029084D03*
D34*
X032214Y017907D02*
X032550Y017907D01*
X032214Y017907D02*
X032214Y017907D01*
X032550Y017907D01*
X032550Y017907D01*
X032550Y017407D02*
X032214Y017407D01*
X032214Y017407D01*
X032550Y017407D01*
X032550Y017407D01*
X032550Y016907D02*
X032214Y016907D01*
X032214Y016907D01*
X032550Y016907D01*
X032550Y016907D01*
X032550Y016407D02*
X032214Y016407D01*
X032214Y016407D01*
X032550Y016407D01*
X032550Y016407D01*
X030188Y016407D02*
X029852Y016407D01*
X029852Y016407D01*
X030188Y016407D01*
X030188Y016407D01*
X030188Y016907D02*
X029852Y016907D01*
X029852Y016907D01*
X030188Y016907D01*
X030188Y016907D01*
X030188Y017407D02*
X029852Y017407D01*
X029852Y017407D01*
X030188Y017407D01*
X030188Y017407D01*
X030188Y017907D02*
X029852Y017907D01*
X029852Y017907D01*
X030188Y017907D01*
X030188Y017907D01*
D35*
X031220Y017207D03*
D36*
X031220Y017207D03*
D37*
X033029Y020611D03*
X033029Y022304D03*
D38*
X039920Y028907D03*
X022280Y022907D03*
X011240Y009707D03*
X039740Y004907D03*
D39*
X012580Y013727D03*
X011580Y013727D03*
X010580Y013727D03*
X009580Y013727D03*
X008580Y013727D03*
X008580Y014727D03*
X009580Y014727D03*
X010580Y014727D03*
X011580Y014727D03*
X012580Y014727D03*
X012580Y025727D03*
X011580Y025727D03*
X010580Y025727D03*
X009580Y025727D03*
X008580Y025727D03*
X008580Y026727D03*
X009580Y026727D03*
X010580Y026727D03*
X011580Y026727D03*
X012580Y026727D03*
X013580Y026727D03*
X014580Y026727D03*
X015580Y026727D03*
X015580Y025727D03*
X014580Y025727D03*
X013580Y025727D03*
D40*
X010920Y029007D02*
X010920Y029607D01*
X009920Y029607D02*
X009920Y029007D01*
X008920Y029007D02*
X008920Y029607D01*
X007920Y029607D02*
X007920Y029007D01*
X036750Y029647D02*
X036750Y030247D01*
X038530Y030247D02*
X038530Y029647D01*
X038530Y027687D02*
X038530Y027087D01*
X036750Y027087D02*
X036750Y027687D01*
D41*
X014466Y007127D03*
X012694Y007127D03*
D42*
X012200Y008117D03*
X014960Y008117D03*
D43*
X020940Y011367D03*
X021440Y011367D03*
X021940Y011367D03*
X022440Y011367D03*
X022940Y011367D03*
X023440Y011367D03*
X023940Y011367D03*
X024440Y011367D03*
X026460Y011367D03*
X026960Y011367D03*
X027460Y011367D03*
X027960Y011367D03*
X028460Y011367D03*
X028960Y011367D03*
X029460Y011367D03*
X029960Y011367D03*
X029960Y014817D03*
X029460Y014817D03*
X028960Y014817D03*
X028460Y014817D03*
X027960Y014817D03*
X027460Y014817D03*
X026960Y014817D03*
X026460Y014817D03*
X024440Y014817D03*
X023940Y014817D03*
X023440Y014817D03*
X022940Y014817D03*
X022440Y014817D03*
X021940Y014817D03*
X021440Y014817D03*
X020940Y014817D03*
D44*
X028942Y005888D03*
X029741Y005888D03*
X030540Y005888D03*
X031340Y005888D03*
X031682Y005187D03*
X030883Y005187D03*
X030084Y005187D03*
X029285Y005187D03*
X024722Y005127D03*
X024380Y005828D03*
X023580Y005828D03*
X023923Y005127D03*
X023124Y005127D03*
X022781Y005828D03*
X021982Y005828D03*
X022325Y005127D03*
D45*
X015764Y012834D03*
X015508Y012834D03*
X015252Y012834D03*
X014996Y012834D03*
X014996Y013700D03*
X015252Y013700D03*
X015508Y013700D03*
X015764Y013700D03*
D46*
X009840Y006447D03*
X007840Y006447D03*
X007840Y004447D03*
X009840Y004447D03*
D47*
X034902Y009176D03*
X034902Y026176D03*
D48*
X034902Y027176D03*
X034902Y028176D03*
X034902Y029176D03*
X034902Y012176D03*
X034902Y011176D03*
X034902Y010176D03*
D49*
X009481Y010707D03*
X008319Y010707D03*
D50*
X008900Y010107D03*
D51*
X008840Y010047D01*
X008840Y005447D01*
X009563Y005457D02*
X010743Y005457D01*
X010743Y005340D02*
X010786Y005237D01*
X010865Y005159D01*
X010908Y005141D01*
X010901Y005134D01*
X010840Y004987D01*
X010840Y004828D01*
X010901Y004681D01*
X011013Y004568D01*
X011160Y004507D01*
X011320Y004507D01*
X011467Y004568D01*
X011579Y004681D01*
X011640Y004828D01*
X011640Y004987D01*
X011579Y005134D01*
X011572Y005141D01*
X011615Y005159D01*
X011694Y005237D01*
X011737Y005340D01*
X011737Y005845D01*
X011694Y005948D01*
X011691Y005951D01*
X011707Y005989D01*
X011717Y006040D01*
X011717Y006262D01*
X011240Y006262D01*
X011240Y006262D01*
X010763Y006262D01*
X010763Y006040D01*
X010773Y005989D01*
X010789Y005951D01*
X010786Y005948D01*
X010743Y005845D01*
X010743Y005340D01*
X010905Y005138D02*
X010086Y005138D01*
X010076Y005142D02*
X010165Y005106D01*
X010248Y005058D01*
X010324Y004999D01*
X010392Y004931D01*
X010450Y004855D01*
X010498Y004772D01*
X010535Y004683D01*
X010560Y004591D01*
X010572Y004495D01*
X010572Y004447D01*
X009840Y004447D01*
X009840Y003715D01*
X009888Y003715D01*
X009983Y003727D01*
X010076Y003752D01*
X010165Y003789D01*
X010248Y003837D01*
X010324Y003896D01*
X010392Y003963D01*
X010450Y004040D01*
X010498Y004123D01*
X010535Y004211D01*
X010560Y004304D01*
X010572Y004399D01*
X010572Y004447D01*
X009840Y004447D01*
X009840Y004447D01*
X009840Y003715D01*
X009792Y003715D01*
X009697Y003727D01*
X009604Y003752D01*
X009515Y003789D01*
X009432Y003837D01*
X009356Y003896D01*
X009288Y003963D01*
X009230Y004040D01*
X009182Y004123D01*
X009145Y004211D01*
X009120Y004304D01*
X009108Y004399D01*
X009108Y004447D01*
X009840Y004447D01*
X009840Y004447D01*
X009840Y004447D01*
X007840Y004447D01*
X007840Y003715D01*
X007888Y003715D01*
X007983Y003727D01*
X008076Y003752D01*
X008165Y003789D01*
X008248Y003837D01*
X008324Y003896D01*
X008392Y003963D01*
X008450Y004040D01*
X008498Y004123D01*
X008535Y004211D01*
X008560Y004304D01*
X008572Y004399D01*
X008572Y004447D01*
X007840Y004447D01*
X007840Y004447D01*
X007840Y003715D01*
X007792Y003715D01*
X007697Y003727D01*
X007604Y003752D01*
X007515Y003789D01*
X007440Y003833D01*
X007440Y003507D01*
X011411Y003507D01*
X011411Y003850D01*
X012008Y003850D01*
X012008Y003885D01*
X012008Y004501D01*
X012042Y004501D01*
X012042Y003885D01*
X012008Y003885D01*
X011411Y003885D01*
X011411Y004267D01*
X011421Y004317D01*
X011440Y004365D01*
X011469Y004407D01*
X011505Y004443D01*
X011548Y004472D01*
X011595Y004491D01*
X011645Y004501D01*
X010572Y004501D01*
X010523Y004183D02*
X011411Y004183D01*
X011645Y004501D02*
X012008Y004501D01*
X012042Y004501D02*
X012405Y004501D01*
X012455Y004491D01*
X012503Y004472D01*
X012537Y004449D01*
X012567Y004479D01*
X012670Y004521D01*
X012763Y004521D01*
X012739Y004579D01*
X012739Y005202D01*
X012671Y005173D01*
X012126Y005173D01*
X012023Y005216D01*
X011945Y005295D01*
X011902Y005398D01*
X011902Y005903D01*
X011945Y006006D01*
X011948Y006009D01*
X011932Y006047D01*
X011922Y006097D01*
X011922Y006319D01*
X012398Y006319D01*
X012398Y006319D01*
X011922Y006319D01*
X011922Y006504D01*
X011857Y006569D01*
X011835Y006622D01*
X011800Y006607D01*
X011670Y006607D01*
X011687Y006582D01*
X011707Y006535D01*
X011717Y006485D01*
X011717Y006262D01*
X011240Y006262D01*
X011240Y006262D01*
X011055Y006447D01*
X009840Y006447D01*
X009840Y005715D01*
X009888Y005715D01*
X009983Y005727D01*
X010076Y005752D01*
X010165Y005789D01*
X010248Y005837D01*
X010324Y005896D01*
X010392Y005963D01*
X010450Y006040D01*
X010498Y006123D01*
X010535Y006211D01*
X010560Y006304D01*
X010572Y006399D01*
X010572Y006447D01*
X009840Y006447D01*
X009840Y006447D01*
X009840Y005715D01*
X009792Y005715D01*
X009697Y005727D01*
X009604Y005752D01*
X009515Y005789D01*
X009470Y005815D01*
X009563Y005591D01*
X009563Y005304D01*
X009470Y005080D01*
X009515Y005106D01*
X009604Y005142D01*
X009697Y005167D01*
X009792Y005180D01*
X009840Y005180D01*
X009840Y004447D01*
X009840Y006447D01*
X009840Y006447D01*
X009481Y006807D01*
X009481Y010707D01*
X009481Y010014D01*
X009713Y010014D01*
X009763Y010024D01*
X009811Y010044D01*
X009853Y010072D01*
X009889Y010109D01*
X009918Y010151D01*
X009937Y010198D01*
X009947Y010249D01*
X009947Y010707D01*
X009481Y010707D01*
X009481Y010707D01*
X009481Y010707D01*
X009481Y010014D01*
X009397Y010014D01*
X009397Y009835D01*
X009354Y009732D01*
X009280Y009658D01*
X009280Y006921D01*
X009288Y006931D01*
X009356Y006999D01*
X009432Y007058D01*
X009515Y007106D01*
X009604Y007142D01*
X009697Y007167D01*
X009792Y007180D01*
X009840Y007180D01*
X009840Y006447D01*
X010572Y006447D01*
X010572Y006495D01*
X010560Y006591D01*
X010535Y006683D01*
X010498Y006772D01*
X010450Y006855D01*
X010392Y006931D01*
X010324Y006999D01*
X010248Y007058D01*
X010165Y007106D01*
X010076Y007142D01*
X009983Y007167D01*
X009888Y007180D01*
X009840Y007180D01*
X009840Y006447D01*
X009840Y006447D01*
X009840Y006412D02*
X009840Y006412D01*
X009840Y006094D02*
X009840Y006094D01*
X009840Y005775D02*
X009840Y005775D01*
X010132Y005775D02*
X010743Y005775D01*
X010763Y006094D02*
X010482Y006094D01*
X010763Y006262D02*
X011240Y006262D01*
X011240Y006719D01*
X010998Y006719D01*
X010948Y006709D01*
X010900Y006689D01*
X010858Y006661D01*
X010822Y006625D01*
X010793Y006582D01*
X010773Y006535D01*
X010763Y006485D01*
X010763Y006262D01*
X010763Y006412D02*
X010572Y006412D01*
X010515Y006731D02*
X011431Y006731D01*
X011443Y006719D02*
X011240Y006719D01*
X011240Y006262D01*
X011240Y006262D01*
X011240Y006412D02*
X011240Y006412D01*
X011443Y006719D02*
X011381Y006781D01*
X011320Y006928D01*
X011320Y007087D01*
X011381Y007234D01*
X011493Y007347D01*
X011640Y007407D01*
X011680Y007407D01*
X011752Y007437D01*
X011394Y007437D01*
X011291Y007480D01*
X011213Y007559D01*
X011170Y007662D01*
X011170Y008573D01*
X011213Y008676D01*
X011291Y008755D01*
X011394Y008797D01*
X013006Y008797D01*
X013109Y008755D01*
X013187Y008676D01*
X013230Y008573D01*
X013230Y007807D01*
X013230Y007807D01*
X013230Y009065D01*
X010987Y011307D01*
X010002Y011307D01*
X009884Y011356D01*
X009584Y011656D01*
X009288Y011656D01*
X009185Y011699D01*
X009106Y011777D01*
X009063Y011880D01*
X009063Y012385D01*
X009097Y012467D01*
X009063Y012550D01*
X009063Y013055D01*
X009106Y013158D01*
X009185Y013236D01*
X009232Y013256D01*
X009066Y013421D01*
X008812Y013167D01*
X008580Y013167D01*
X008580Y013727D01*
X008580Y013727D01*
X008580Y013167D01*
X008348Y013167D01*
X008020Y013495D01*
X008020Y013727D01*
X008580Y013727D01*
X008580Y013727D01*
X008540Y013687D01*
X008540Y012287D01*
X008319Y012067D01*
X008319Y010707D01*
X008319Y010707D01*
X008319Y010014D01*
X008087Y010014D01*
X008037Y010024D01*
X007989Y010044D01*
X007947Y010072D01*
X007911Y010109D01*
X007882Y010151D01*
X007863Y010198D01*
X007853Y010249D01*
X007853Y010707D01*
X008319Y010707D01*
X008319Y010707D01*
X008319Y010014D01*
X008400Y010014D01*
X008400Y006921D01*
X008392Y006931D01*
X008324Y006999D01*
X008248Y007058D01*
X008165Y007106D01*
X008076Y007142D01*
X007983Y007167D01*
X007888Y007180D01*
X007840Y007180D01*
X007792Y007180D01*
X007697Y007167D01*
X007604Y007142D01*
X007515Y007106D01*
X007440Y007062D01*
X007440Y020997D01*
X007560Y020947D01*
X007720Y020947D01*
X007867Y021008D01*
X007886Y021027D01*
X008460Y021027D01*
X008460Y021020D01*
X008527Y020858D01*
X008651Y020734D01*
X008812Y020667D01*
X008887Y020667D01*
X009019Y020536D01*
X009136Y020487D01*
X009534Y020487D01*
X009534Y020294D01*
X009534Y020167D01*
X008846Y020167D01*
X008827Y020187D01*
X008680Y020247D01*
X008520Y020247D01*
X008373Y020187D01*
X008261Y020074D01*
X008200Y019927D01*
X008200Y019768D01*
X008261Y019621D01*
X008373Y019508D01*
X008520Y019447D01*
X008680Y019447D01*
X008827Y019508D01*
X008846Y019527D01*
X010807Y019527D01*
X010860Y019475D01*
X010860Y019200D01*
X010129Y018469D01*
X010080Y018351D01*
X010080Y015600D01*
X009829Y015349D01*
X009812Y015307D01*
X009340Y015307D01*
X009080Y015048D01*
X008820Y015307D01*
X008340Y015307D01*
X008000Y014968D01*
X008000Y014487D01*
X008274Y014213D01*
X008020Y013959D01*
X008020Y013727D01*
X008580Y013727D01*
X008580Y013419D02*
X008580Y013419D01*
X009064Y013419D02*
X009068Y013419D01*
X009083Y013101D02*
X007440Y013101D01*
X007440Y013419D02*
X008096Y013419D01*
X008020Y013738D02*
X007440Y013738D01*
X007440Y014056D02*
X008117Y014056D01*
X008112Y014375D02*
X007440Y014375D01*
X007440Y014693D02*
X008000Y014693D01*
X008044Y015012D02*
X007440Y015012D01*
X007440Y015330D02*
X009821Y015330D01*
X010080Y015649D02*
X007440Y015649D01*
X007440Y015967D02*
X010080Y015967D01*
X010080Y016286D02*
X007440Y016286D01*
X007440Y016604D02*
X010080Y016604D01*
X010080Y016923D02*
X007440Y016923D01*
X007440Y017241D02*
X010080Y017241D01*
X010080Y017560D02*
X007440Y017560D01*
X007440Y017878D02*
X010080Y017878D01*
X010080Y018197D02*
X007440Y018197D01*
X007440Y018515D02*
X010175Y018515D01*
X010494Y018834D02*
X007440Y018834D01*
X007440Y019152D02*
X010812Y019152D01*
X010860Y019471D02*
X008736Y019471D01*
X008464Y019471D02*
X007440Y019471D01*
X007440Y019789D02*
X008200Y019789D01*
X008295Y020108D02*
X007440Y020108D01*
X007440Y020426D02*
X009534Y020426D01*
X009534Y020294D02*
X010011Y020294D01*
X010011Y020294D01*
X010487Y020294D01*
X010487Y020167D01*
X010860Y020167D01*
X010860Y021306D01*
X010802Y021330D01*
X010782Y021322D01*
X010780Y021321D01*
X010780Y021200D01*
X010713Y021038D01*
X010589Y020914D01*
X010507Y020880D01*
X010507Y020711D01*
X010465Y020608D01*
X010462Y020605D01*
X010477Y020567D01*
X010487Y020517D01*
X010487Y020294D01*
X010011Y020294D01*
X009534Y020294D01*
X010011Y020294D02*
X010011Y020294D01*
X010487Y020426D02*
X010860Y020426D01*
X010860Y020745D02*
X010507Y020745D01*
X010723Y021063D02*
X010860Y021063D01*
X010340Y021287D02*
X010078Y021549D01*
X010078Y021988D01*
X010011Y021921D01*
X010011Y020964D01*
X010011Y021018D01*
X010340Y021347D01*
X011500Y020948D02*
X011647Y021008D01*
X011666Y021027D01*
X012504Y021027D01*
X012621Y021076D01*
X012711Y021166D01*
X012780Y021235D01*
X012780Y021224D01*
X012829Y021106D01*
X012919Y021016D01*
X012928Y021007D01*
X011500Y019579D01*
X011500Y020948D01*
X011500Y020745D02*
X012666Y020745D01*
X012591Y021063D02*
X012871Y021063D01*
X012347Y020426D02*
X011500Y020426D01*
X011500Y020108D02*
X012029Y020108D01*
X011710Y019789D02*
X011500Y019789D01*
X012189Y019164D02*
X013243Y020219D01*
X013353Y020108D01*
X013380Y020097D01*
X013380Y020024D01*
X013429Y019906D01*
X013519Y019816D01*
X013819Y019516D01*
X013936Y019467D01*
X014080Y019467D01*
X014080Y019408D01*
X014141Y019261D01*
X014253Y019148D01*
X014400Y019087D01*
X014560Y019087D01*
X014707Y019148D01*
X014819Y019261D01*
X014857Y019352D01*
X014931Y019426D01*
X014973Y019467D01*
X016080Y019467D01*
X016080Y019169D01*
X015940Y019227D01*
X015780Y019227D01*
X015633Y019167D01*
X015554Y019087D01*
X012250Y019087D01*
X012239Y019114D01*
X012189Y019164D01*
X012201Y019152D02*
X014249Y019152D01*
X013928Y019471D02*
X012495Y019471D01*
X012814Y019789D02*
X013545Y019789D01*
X013354Y020108D02*
X013132Y020108D01*
X014711Y019152D02*
X015619Y019152D01*
X014931Y019426D02*
X014931Y019426D01*
X017474Y018267D02*
X017493Y018248D01*
X017640Y018187D01*
X017800Y018187D01*
X017947Y018248D01*
X018059Y018361D01*
X018120Y018508D01*
X018120Y018667D01*
X018087Y018747D01*
X019747Y018747D01*
X020400Y018095D01*
X020400Y015660D01*
X020329Y015589D01*
X020280Y015471D01*
X020280Y014324D01*
X020329Y014206D01*
X020419Y014116D01*
X020599Y013936D01*
X020647Y013916D01*
X020171Y013440D01*
X020047Y013317D01*
X019980Y013155D01*
X019980Y010880D01*
X020047Y010718D01*
X020460Y010305D01*
X020460Y009813D01*
X020407Y009867D01*
X020260Y009927D01*
X020100Y009927D01*
X019953Y009867D01*
X019876Y009790D01*
X019879Y010028D01*
X019880Y010030D01*
X019880Y010100D01*
X019881Y010169D01*
X019880Y010171D01*
X019880Y010559D01*
X019825Y010691D01*
X019724Y010793D01*
X019485Y011031D01*
X019353Y011086D01*
X019138Y011086D01*
X019063Y011160D01*
X018961Y011203D01*
X018416Y011203D01*
X018328Y011166D01*
X018311Y011173D01*
X018261Y011183D01*
X018019Y011183D01*
X017777Y011183D01*
X017727Y011173D01*
X017679Y011153D01*
X017637Y011125D01*
X017601Y011088D01*
X017572Y011046D01*
X017553Y010999D01*
X017543Y010948D01*
X017543Y010726D01*
X018019Y010726D01*
X018019Y011183D01*
X018019Y010726D01*
X018019Y010726D01*
X018019Y010726D01*
X017543Y010726D01*
X017543Y010503D01*
X017553Y010453D01*
X017572Y010406D01*
X017601Y010363D01*
X017637Y010327D01*
X017679Y010299D01*
X017727Y010279D01*
X017777Y010269D01*
X018019Y010269D01*
X018019Y010726D01*
X018019Y010726D01*
X018019Y010269D01*
X018261Y010269D01*
X018311Y010279D01*
X018328Y010286D01*
X018416Y010249D01*
X018961Y010249D01*
X019063Y010292D01*
X019135Y010363D01*
X019160Y010338D01*
X019160Y010104D01*
X019144Y008715D01*
X019087Y008692D01*
X018884Y008488D01*
X018787Y008255D01*
X018737Y008305D01*
X018666Y008357D01*
X018588Y008396D01*
X018505Y008423D01*
X018419Y008437D01*
X018375Y008437D01*
X018375Y007882D01*
X018375Y007882D01*
X018375Y008437D01*
X018331Y008437D01*
X018245Y008423D01*
X018162Y008396D01*
X018084Y008357D01*
X018013Y008305D01*
X017962Y008255D01*
X017866Y008488D01*
X017662Y008692D01*
X017397Y008802D01*
X017109Y008802D01*
X017107Y008801D01*
X017065Y008903D01*
X017043Y008926D01*
X017035Y008943D01*
X017039Y008961D01*
X017039Y008970D01*
X017525Y008970D01*
X017560Y008935D01*
X017560Y008908D01*
X017621Y008761D01*
X017733Y008648D01*
X017880Y008587D01*
X018040Y008587D01*
X018187Y008648D01*
X018299Y008761D01*
X018360Y008908D01*
X018360Y009067D01*
X018299Y009214D01*
X018250Y009263D01*
X018291Y009304D01*
X018340Y009422D01*
X018340Y009582D01*
X018359Y009601D01*
X018420Y009748D01*
X018420Y009907D01*
X018359Y010054D01*
X018247Y010167D01*
X018100Y010227D01*
X017940Y010227D01*
X017793Y010167D01*
X017681Y010054D01*
X017620Y009907D01*
X017620Y009787D01*
X017013Y009787D01*
X017001Y009799D01*
X016884Y009847D01*
X016576Y009847D01*
X016459Y009799D01*
X016400Y009740D01*
X016400Y010079D01*
X016345Y010211D01*
X016244Y010313D01*
X015464Y011093D01*
X015332Y011147D01*
X013800Y011147D01*
X013800Y011167D01*
X013739Y011314D01*
X013720Y011333D01*
X013720Y012447D01*
X014320Y012447D01*
X014381Y012301D01*
X014493Y012188D01*
X014640Y012127D01*
X014800Y012127D01*
X014848Y012147D01*
X015264Y012147D01*
X015381Y012196D01*
X015392Y012207D01*
X015488Y012167D01*
X015752Y012167D01*
X015884Y012222D01*
X015944Y012282D01*
X016045Y012383D01*
X016100Y012516D01*
X016100Y012606D01*
X016123Y012661D01*
X016123Y012760D01*
X016124Y012763D01*
X016124Y012906D01*
X016123Y012909D01*
X016123Y013008D01*
X016080Y013111D01*
X016001Y013190D01*
X015898Y013232D01*
X015846Y013232D01*
X015817Y013302D01*
X015898Y013302D01*
X016001Y013345D01*
X016080Y013424D01*
X016123Y013527D01*
X016123Y013711D01*
X016132Y013707D01*
X016538Y013707D01*
X017624Y012621D01*
X017624Y012620D01*
X017624Y012309D01*
X017742Y012023D01*
X017962Y011803D01*
X018248Y011684D01*
X018559Y011684D01*
X018845Y011803D01*
X019065Y012023D01*
X019184Y012309D01*
X019184Y012620D01*
X019065Y012906D01*
X018845Y013126D01*
X018559Y013244D01*
X018248Y013244D01*
X018247Y013244D01*
X016970Y014520D01*
X016808Y014587D01*
X016132Y014587D01*
X016084Y014567D01*
X016084Y014667D01*
X016035Y014785D01*
X015831Y014989D01*
X015741Y015079D01*
X015624Y015127D01*
X015421Y015127D01*
X015404Y015168D01*
X015401Y015171D01*
X015417Y015209D01*
X015427Y015260D01*
X015427Y015482D01*
X014950Y015482D01*
X014474Y015482D01*
X014474Y015260D01*
X014484Y015209D01*
X014499Y015171D01*
X014496Y015168D01*
X014454Y015065D01*
X014454Y014560D01*
X014496Y014457D01*
X014575Y014379D01*
X014678Y014336D01*
X014996Y014336D01*
X014929Y014269D01*
X014725Y014065D01*
X014695Y013992D01*
X014680Y013977D01*
X014663Y013935D01*
X014656Y013946D01*
X014620Y013982D01*
X014577Y014010D01*
X014530Y014030D01*
X014479Y014040D01*
X014257Y014040D01*
X014035Y014040D01*
X013984Y014030D01*
X013946Y014014D01*
X013943Y014017D01*
X013840Y014060D01*
X013335Y014060D01*
X013305Y014047D01*
X013080Y014047D01*
X012900Y014227D01*
X013160Y014487D01*
X013160Y014968D01*
X013020Y015108D01*
X013020Y015365D01*
X013790Y016135D01*
X013871Y016054D01*
X014032Y015987D01*
X014448Y015987D01*
X014609Y016054D01*
X014733Y016178D01*
X014800Y016340D01*
X014800Y016515D01*
X014770Y016587D01*
X018854Y016587D01*
X018873Y016568D01*
X019020Y016507D01*
X019180Y016507D01*
X019327Y016568D01*
X019439Y016681D01*
X019500Y016828D01*
X019500Y016987D01*
X019439Y017134D01*
X019327Y017247D01*
X019180Y017307D01*
X019020Y017307D01*
X018873Y017247D01*
X018854Y017227D01*
X012386Y017227D01*
X012367Y017247D01*
X012220Y017307D01*
X012060Y017307D01*
X011913Y017247D01*
X011900Y017233D01*
X011900Y018187D01*
X011920Y018187D01*
X012067Y018248D01*
X012086Y018267D01*
X017474Y018267D01*
X017617Y018197D02*
X011943Y018197D01*
X011900Y017878D02*
X020400Y017878D01*
X020400Y017560D02*
X011900Y017560D01*
X011900Y017241D02*
X011908Y017241D01*
X012372Y017241D02*
X018868Y017241D01*
X019332Y017241D02*
X020400Y017241D01*
X020400Y016923D02*
X019500Y016923D01*
X019520Y017027D02*
X018080Y018467D01*
X018120Y018515D02*
X019979Y018515D01*
X020298Y018197D02*
X017823Y018197D01*
X019520Y017027D02*
X019520Y014027D01*
X019220Y013727D01*
X019040Y013727D01*
X018752Y013738D02*
X020468Y013738D01*
X020478Y014056D02*
X019070Y014056D01*
X019164Y014150D02*
X019164Y014464D01*
X018404Y014464D01*
X018404Y014464D01*
X018404Y013704D01*
X018718Y013704D01*
X019164Y014150D01*
X019164Y014375D02*
X020280Y014375D01*
X020280Y014693D02*
X019164Y014693D01*
X019164Y014779D02*
X018718Y015224D01*
X018404Y015224D01*
X018404Y014464D01*
X018404Y014464D01*
X019164Y014464D01*
X019164Y014779D01*
X018931Y015012D02*
X020280Y015012D01*
X020280Y015330D02*
X015427Y015330D01*
X015427Y015482D02*
X015427Y015705D01*
X015417Y015755D01*
X015397Y015802D01*
X015369Y015845D01*
X015333Y015881D01*
X015290Y015909D01*
X015243Y015929D01*
X015192Y015939D01*
X014950Y015939D01*
X014708Y015939D01*
X014658Y015929D01*
X014611Y015909D01*
X014568Y015881D01*
X014532Y015845D01*
X014503Y015802D01*
X014484Y015755D01*
X014474Y015705D01*
X014474Y015482D01*
X014950Y015482D01*
X014950Y015482D01*
X014950Y015939D01*
X014950Y015482D01*
X014950Y015482D01*
X014950Y015482D01*
X015427Y015482D01*
X015427Y015649D02*
X020389Y015649D01*
X020400Y015967D02*
X013622Y015967D01*
X013304Y015649D02*
X014474Y015649D01*
X014474Y015330D02*
X013020Y015330D01*
X013116Y015012D02*
X014454Y015012D01*
X014454Y014693D02*
X013160Y014693D01*
X013048Y014375D02*
X014584Y014375D01*
X014721Y014056D02*
X013849Y014056D01*
X014257Y014040D02*
X014257Y013563D01*
X014257Y013563D01*
X014257Y014040D01*
X014257Y013738D02*
X014257Y013738D01*
X013588Y013563D02*
X013544Y013607D01*
X012860Y013607D01*
X012740Y013727D01*
X012580Y013727D01*
X013071Y014056D02*
X013327Y014056D01*
X012580Y014727D02*
X012580Y015547D01*
X013640Y016607D01*
X013940Y016607D01*
X014120Y016427D01*
X014360Y016427D01*
X014778Y016286D02*
X020400Y016286D01*
X020400Y016604D02*
X019363Y016604D01*
X018404Y015224D02*
X018089Y015224D01*
X017644Y014779D01*
X017644Y014464D01*
X017644Y014150D01*
X018089Y013704D01*
X018404Y013704D01*
X018404Y014464D01*
X017644Y014464D01*
X018404Y014464D01*
X018404Y014464D01*
X018404Y014464D01*
X018404Y015224D01*
X018404Y015012D02*
X018404Y015012D01*
X018404Y014693D02*
X018404Y014693D01*
X018404Y014375D02*
X018404Y014375D01*
X018404Y014056D02*
X018404Y014056D01*
X018404Y013738D02*
X018404Y013738D01*
X018055Y013738D02*
X017752Y013738D01*
X017737Y014056D02*
X017434Y014056D01*
X017644Y014375D02*
X017115Y014375D01*
X016721Y014147D02*
X018404Y012464D01*
X017624Y012464D02*
X016079Y012464D01*
X016124Y012782D02*
X017463Y012782D01*
X017145Y013101D02*
X016084Y013101D01*
X016076Y013419D02*
X016826Y013419D01*
X016721Y014147D02*
X016220Y014147D01*
X016073Y014693D02*
X017644Y014693D01*
X017876Y015012D02*
X015808Y015012D01*
X014950Y015649D02*
X014950Y015649D01*
X012998Y016587D02*
X012207Y015797D01*
X012140Y015635D01*
X012140Y015108D01*
X012080Y015048D01*
X011900Y015228D01*
X011900Y016582D01*
X011913Y016568D01*
X012060Y016507D01*
X012220Y016507D01*
X012367Y016568D01*
X012386Y016587D01*
X012998Y016587D01*
X012696Y016286D02*
X011900Y016286D01*
X011900Y015967D02*
X012378Y015967D01*
X012146Y015649D02*
X011900Y015649D01*
X011900Y015330D02*
X012140Y015330D01*
X011260Y015330D02*
X010900Y015330D01*
X010900Y015228D02*
X010900Y018074D01*
X011260Y018434D01*
X011260Y015228D01*
X011080Y015048D01*
X010900Y015228D01*
X010900Y015649D02*
X011260Y015649D01*
X011260Y015967D02*
X010900Y015967D01*
X010900Y016286D02*
X011260Y016286D01*
X011260Y016604D02*
X010900Y016604D01*
X010900Y016923D02*
X011260Y016923D01*
X011260Y017241D02*
X010900Y017241D01*
X010900Y017560D02*
X011260Y017560D01*
X011260Y017878D02*
X010900Y017878D01*
X011023Y018197D02*
X011260Y018197D01*
X008640Y020745D02*
X007440Y020745D01*
X007578Y021988D02*
X007578Y023321D01*
X007578Y023997D01*
X007440Y023997D01*
X007440Y028257D01*
X007560Y028207D01*
X007720Y028207D01*
X007867Y028268D01*
X007886Y028287D01*
X009634Y028287D01*
X009581Y028234D01*
X009520Y028087D01*
X009520Y027928D01*
X009581Y027781D01*
X009600Y027762D01*
X009600Y027704D01*
X009649Y027586D01*
X009720Y027515D01*
X009720Y027307D01*
X009340Y027307D01*
X009080Y027048D01*
X008820Y027307D01*
X008340Y027307D01*
X008000Y026968D01*
X008000Y026487D01*
X008260Y026227D01*
X008000Y025968D01*
X008000Y025587D01*
X007980Y025587D01*
X007833Y025527D01*
X007721Y025414D01*
X007660Y025267D01*
X007660Y025108D01*
X007721Y024961D01*
X007833Y024848D01*
X007980Y024787D01*
X008067Y024787D01*
X008119Y024736D01*
X008236Y024687D01*
X010944Y024687D01*
X010979Y024702D01*
X011021Y024601D01*
X011133Y024488D01*
X011280Y024427D01*
X011440Y024427D01*
X011587Y024488D01*
X011606Y024507D01*
X012974Y024507D01*
X012993Y024488D01*
X013044Y024467D01*
X012993Y024447D01*
X012881Y024334D01*
X012843Y024243D01*
X012769Y024169D01*
X012720Y024051D01*
X012720Y023997D01*
X012578Y023997D01*
X012425Y023997D01*
X012377Y023988D01*
X012351Y024049D01*
X012261Y024139D01*
X012201Y024199D01*
X012087Y024246D01*
X012067Y024267D01*
X011920Y024327D01*
X011760Y024327D01*
X011613Y024267D01*
X011501Y024154D01*
X011444Y024017D01*
X011394Y024017D01*
X011302Y023979D01*
X011282Y023987D01*
X011232Y023997D01*
X011078Y023997D01*
X010925Y023997D01*
X010900Y023992D01*
X010900Y024171D01*
X010851Y024289D01*
X010761Y024379D01*
X010641Y024499D01*
X010524Y024547D01*
X010406Y024547D01*
X010387Y024567D01*
X010240Y024627D01*
X010080Y024627D01*
X009933Y024567D01*
X009860Y024493D01*
X009787Y024567D01*
X009640Y024627D01*
X009480Y024627D01*
X009432Y024607D01*
X008116Y024607D01*
X007999Y024559D01*
X007879Y024439D01*
X007789Y024349D01*
X007740Y024231D01*
X007740Y023996D01*
X007732Y023997D01*
X007578Y023997D01*
X007578Y023321D01*
X007578Y023321D01*
X007578Y023321D01*
X007578Y022645D01*
X007578Y021988D01*
X007578Y021988D01*
X007578Y022019D02*
X007578Y022019D01*
X007578Y022337D02*
X007578Y022337D01*
X007578Y022656D02*
X007578Y022656D01*
X007578Y022974D02*
X007578Y022974D01*
X007578Y023293D02*
X007578Y023293D01*
X007578Y023611D02*
X007578Y023611D01*
X007578Y023930D02*
X007578Y023930D01*
X007440Y024248D02*
X007747Y024248D01*
X008019Y024567D02*
X007440Y024567D01*
X007440Y024885D02*
X007796Y024885D01*
X007660Y025204D02*
X007440Y025204D01*
X007440Y025522D02*
X007829Y025522D01*
X008000Y025841D02*
X007440Y025841D01*
X007440Y026159D02*
X008192Y026159D01*
X008009Y026478D02*
X007440Y026478D01*
X007440Y026796D02*
X008000Y026796D01*
X008147Y027115D02*
X007440Y027115D01*
X007440Y027433D02*
X009720Y027433D01*
X009600Y027752D02*
X007440Y027752D01*
X007440Y028070D02*
X009520Y028070D01*
X009147Y027115D02*
X009013Y027115D01*
X007920Y029307D02*
X007920Y029607D01*
X008540Y030227D01*
X013365Y030227D01*
X013860Y029733D01*
X014198Y029733D01*
X014198Y029766D01*
X014780Y030347D01*
X019151Y030347D01*
X019765Y029733D01*
X020104Y029733D01*
X020104Y030091D01*
X020300Y030287D01*
X025116Y030287D01*
X025671Y029733D01*
X026009Y029733D01*
X026009Y029733D01*
X026009Y029733D01*
X026348Y029733D01*
X026348Y029531D01*
X026347Y029527D01*
X026509Y029689D01*
X026599Y029779D01*
X026716Y029827D01*
X026897Y029827D01*
X026926Y029898D01*
X027005Y029976D01*
X027108Y030019D01*
X027652Y030019D01*
X027755Y029976D01*
X027834Y029898D01*
X027877Y029795D01*
X027877Y029290D01*
X027843Y029207D01*
X027877Y029125D01*
X027877Y028956D01*
X028039Y029119D01*
X028156Y029167D01*
X029661Y029167D01*
X029677Y029207D01*
X029643Y029290D01*
X029643Y029795D01*
X029686Y029898D01*
X029765Y029976D01*
X029868Y030019D01*
X030412Y030019D01*
X030515Y029976D01*
X030594Y029898D01*
X030598Y029887D01*
X030804Y029887D01*
X030921Y029839D01*
X031011Y029749D01*
X031239Y029521D01*
X031237Y029531D01*
X031237Y029733D01*
X031576Y029733D01*
X031576Y029733D01*
X031915Y029733D01*
X032151Y029733D01*
X032151Y029733D01*
X031915Y029733D01*
X031915Y029733D01*
X032106Y029733D01*
X032720Y030347D01*
X033560Y030347D01*
X033920Y029987D01*
X033920Y029602D01*
X033920Y029602D01*
X034397Y029602D01*
X034397Y029380D01*
X034387Y029329D01*
X034371Y029291D01*
X034374Y029288D01*
X034389Y029253D01*
X034460Y029253D01*
X034464Y029281D01*
X034486Y029348D01*
X034518Y029411D01*
X034560Y029469D01*
X034610Y029519D01*
X034667Y029560D01*
X034730Y029592D01*
X034797Y029614D01*
X034867Y029625D01*
X034902Y029625D01*
X034902Y029176D01*
X034902Y029176D01*
X034476Y029602D01*
X033920Y029602D01*
X034397Y029602D01*
X034397Y029825D01*
X034387Y029875D01*
X034367Y029922D01*
X034338Y029965D01*
X034302Y030001D01*
X034260Y030029D01*
X034212Y030049D01*
X034162Y030059D01*
X033920Y030059D01*
X033678Y030059D01*
X033628Y030049D01*
X033582Y030030D01*
X033575Y030036D01*
X033472Y030079D01*
X032928Y030079D01*
X032825Y030036D01*
X032758Y029970D01*
X032620Y030027D01*
X032460Y030027D01*
X032313Y029967D01*
X032253Y029906D01*
X032253Y029936D01*
X032243Y029986D01*
X032224Y030034D01*
X032195Y030076D01*
X032159Y030112D01*
X032117Y030141D01*
X032069Y030160D01*
X032019Y030170D01*
X031915Y030170D01*
X031915Y029937D01*
X031915Y030170D01*
X031810Y030170D01*
X031760Y030160D01*
X031745Y030154D01*
X031731Y030160D01*
X031680Y030170D01*
X031576Y030170D01*
X031472Y030170D01*
X031421Y030160D01*
X031374Y030141D01*
X031332Y030112D01*
X031295Y030076D01*
X031267Y030034D01*
X031247Y029986D01*
X031237Y029936D01*
X031237Y029733D01*
X031576Y029733D01*
X031576Y029733D01*
X031082Y030227D01*
X026300Y030227D01*
X025806Y029733D01*
X025671Y029733D01*
X025671Y029733D01*
X026009Y029733D01*
X025671Y029733D01*
X025332Y029733D01*
X025332Y029531D01*
X025342Y029480D01*
X025343Y029477D01*
X025131Y029689D01*
X025041Y029779D01*
X024924Y029827D01*
X024743Y029827D01*
X024714Y029898D01*
X024635Y029976D01*
X024532Y030019D01*
X023988Y030019D01*
X023885Y029976D01*
X023806Y029898D01*
X023763Y029795D01*
X023763Y029290D01*
X023797Y029207D01*
X023763Y029125D01*
X023763Y028620D01*
X023806Y028517D01*
X023885Y028439D01*
X023988Y028396D01*
X024532Y028396D01*
X024635Y028439D01*
X024684Y028487D01*
X024778Y028448D01*
X024778Y028387D01*
X020954Y028387D01*
X020954Y028490D01*
X021005Y028439D01*
X021108Y028396D01*
X021652Y028396D01*
X021755Y028439D01*
X021834Y028517D01*
X021877Y028620D01*
X021877Y028951D01*
X022041Y029116D01*
X022041Y029116D01*
X022131Y029206D01*
X022180Y029324D01*
X022180Y029931D01*
X022131Y030049D01*
X022041Y030139D01*
X021921Y030259D01*
X021900Y030267D01*
X032054Y030267D01*
X032133Y030188D01*
X032280Y030127D01*
X032440Y030127D01*
X032587Y030188D01*
X032699Y030301D01*
X032760Y030448D01*
X032760Y030506D01*
X036230Y030506D01*
X036170Y030363D01*
X036170Y030307D01*
X035716Y030307D01*
X035599Y030259D01*
X035509Y030169D01*
X035149Y029809D01*
X035100Y029691D01*
X035100Y029579D01*
X035075Y029592D01*
X035007Y029614D01*
X034938Y029625D01*
X034902Y029625D01*
X034902Y029176D01*
X034902Y029344D02*
X034902Y029344D01*
X035100Y029663D02*
X034397Y029663D01*
X034390Y029344D02*
X034485Y029344D01*
X033920Y029602D02*
X033920Y029602D01*
X033920Y030059D01*
X033920Y029602D01*
X033920Y029663D02*
X033920Y029663D01*
X033920Y029981D02*
X033920Y029981D01*
X034322Y029981D02*
X035321Y029981D01*
X035698Y030300D02*
X032698Y030300D01*
X032731Y029981D02*
X032770Y029981D01*
X032349Y029981D02*
X032244Y029981D01*
X031915Y029981D02*
X031915Y029981D01*
X031915Y029937D02*
X031915Y029937D01*
X031915Y029733D02*
X031915Y029733D01*
X031576Y029733D01*
X031915Y029733D01*
X031576Y029937D02*
X031576Y030170D01*
X031576Y029937D01*
X031576Y029937D01*
X031576Y029981D02*
X031576Y029981D01*
X031246Y029981D02*
X030503Y029981D01*
X031097Y029663D02*
X031237Y029663D01*
X030616Y029239D02*
X030929Y028926D01*
X030799Y028797D01*
X030718Y028600D01*
X030718Y028386D01*
X030799Y028190D01*
X030950Y028039D01*
X031147Y027957D01*
X031360Y027957D01*
X031557Y028039D01*
X031708Y028190D01*
X031746Y028281D01*
X031784Y028190D01*
X031934Y028039D01*
X032131Y027957D01*
X032345Y027957D01*
X032542Y028039D01*
X032692Y028190D01*
X032774Y028386D01*
X032774Y028550D01*
X032825Y028499D01*
X032928Y028456D01*
X033472Y028456D01*
X033560Y028492D01*
X033648Y028456D01*
X034192Y028456D01*
X034295Y028499D01*
X034374Y028577D01*
X034389Y028613D01*
X034482Y028613D01*
X034489Y028606D01*
X034579Y028516D01*
X034505Y028442D01*
X034433Y028269D01*
X034433Y028083D01*
X034505Y027910D01*
X034637Y027778D01*
X034809Y027707D01*
X034996Y027707D01*
X035168Y027778D01*
X035300Y027910D01*
X035371Y028083D01*
X035371Y028269D01*
X035300Y028442D01*
X035248Y028494D01*
X035301Y028516D01*
X035601Y028816D01*
X035691Y028906D01*
X035740Y029024D01*
X035740Y029495D01*
X035913Y029667D01*
X036170Y029667D01*
X036170Y029532D01*
X036258Y029319D01*
X036421Y029156D01*
X036635Y029067D01*
X036865Y029067D01*
X037079Y029156D01*
X037242Y029319D01*
X037330Y029532D01*
X037330Y030363D01*
X037270Y030506D01*
X038010Y030506D01*
X037950Y030363D01*
X037950Y029532D01*
X038038Y029319D01*
X038201Y029156D01*
X038415Y029067D01*
X038645Y029067D01*
X038859Y029156D01*
X039022Y029319D01*
X039110Y029532D01*
X039110Y030363D01*
X039068Y030464D01*
X039427Y030382D01*
X039875Y030166D01*
X040264Y029856D01*
X040574Y029468D01*
X040790Y029020D01*
X040900Y028535D01*
X040914Y028286D01*
X040914Y026715D01*
X040808Y026899D01*
X040554Y027152D01*
X040244Y027332D01*
X039897Y027425D01*
X039538Y027425D01*
X039192Y027332D01*
X039110Y027285D01*
X039110Y027803D01*
X039022Y028016D01*
X038859Y028179D01*
X038645Y028267D01*
X038415Y028267D01*
X038201Y028179D01*
X038038Y028016D01*
X037950Y027803D01*
X037950Y027027D01*
X037920Y027027D01*
X037773Y026967D01*
X037754Y026947D01*
X037320Y026947D01*
X037330Y026972D01*
X037330Y027803D01*
X037242Y028016D01*
X037079Y028179D01*
X036865Y028267D01*
X036635Y028267D01*
X036421Y028179D01*
X036258Y028016D01*
X036170Y027803D01*
X036170Y026972D01*
X036180Y026947D01*
X035315Y026947D01*
X035371Y027083D01*
X035371Y027269D01*
X035300Y027442D01*
X035168Y027574D01*
X034996Y027645D01*
X034809Y027645D01*
X034637Y027574D01*
X034505Y027442D01*
X034433Y027269D01*
X034433Y027083D01*
X034489Y026947D01*
X032656Y026947D01*
X032539Y026899D01*
X032355Y026715D01*
X032355Y026846D01*
X032264Y027064D01*
X032097Y027232D01*
X031878Y027322D01*
X031642Y027322D01*
X031423Y027232D01*
X031256Y027064D01*
X031165Y026846D01*
X031165Y026609D01*
X031249Y026407D01*
X026743Y026407D01*
X026982Y026506D01*
X027190Y026714D01*
X027227Y026665D01*
X027298Y026595D01*
X027377Y026534D01*
X027463Y026484D01*
X027555Y026446D01*
X027651Y026420D01*
X027710Y026413D01*
X027710Y027077D01*
X027890Y027077D01*
X027890Y026413D01*
X027949Y026420D01*
X028045Y026446D01*
X028137Y026484D01*
X028223Y026534D01*
X028302Y026595D01*
X028373Y026665D01*
X028433Y026744D01*
X028483Y026831D01*
X028521Y026923D01*
X028547Y027019D01*
X028555Y027077D01*
X027890Y027077D01*
X027890Y027257D01*
X028555Y027257D01*
X028547Y027316D01*
X028521Y027412D01*
X028483Y027504D01*
X028433Y027591D01*
X028373Y027670D01*
X028302Y027740D01*
X028223Y027801D01*
X028137Y027850D01*
X028045Y027889D01*
X027949Y027914D01*
X027890Y027922D01*
X027890Y027257D01*
X027710Y027257D01*
X027710Y027885D01*
X027711Y027886D01*
X028353Y028527D01*
X029682Y028527D01*
X029686Y028517D01*
X029765Y028439D01*
X029868Y028396D01*
X030412Y028396D01*
X030515Y028439D01*
X030594Y028517D01*
X030637Y028620D01*
X030637Y029125D01*
X030603Y029207D01*
X030616Y029239D01*
X030637Y029026D02*
X030829Y029026D01*
X030762Y028707D02*
X030637Y028707D01*
X030718Y028389D02*
X028214Y028389D01*
X027896Y028070D02*
X030918Y028070D01*
X031589Y028070D02*
X031903Y028070D01*
X032573Y028070D02*
X034439Y028070D01*
X034483Y028389D02*
X032774Y028389D01*
X032214Y027115D02*
X034433Y027115D01*
X034501Y027433D02*
X028512Y027433D01*
X028287Y027752D02*
X034701Y027752D01*
X035104Y027752D02*
X036170Y027752D01*
X036170Y027433D02*
X035303Y027433D01*
X035371Y027115D02*
X036170Y027115D01*
X036313Y028070D02*
X035366Y028070D01*
X035322Y028389D02*
X039445Y028389D01*
X039442Y028391D02*
X039470Y028371D01*
X039494Y028347D01*
X039519Y028337D01*
X039521Y028336D01*
X039539Y028316D01*
X039570Y028301D01*
X039598Y028282D01*
X039625Y028276D01*
X039626Y028275D01*
X039648Y028259D01*
X039681Y028250D01*
X039711Y028235D01*
X039739Y028234D01*
X039740Y028234D01*
X039765Y028221D01*
X039798Y028218D01*
X039831Y028209D01*
X039858Y028213D01*
X039860Y028213D01*
X039886Y028205D01*
X039920Y028208D01*
X039954Y028205D01*
X039980Y028213D01*
X039982Y028213D01*
X040009Y028209D01*
X040042Y028218D01*
X040075Y028221D01*
X040100Y028234D01*
X040101Y028234D01*
X040129Y028235D01*
X040159Y028250D01*
X040192Y028259D01*
X040214Y028275D01*
X040215Y028276D01*
X040242Y028282D01*
X040270Y028301D01*
X040301Y028316D01*
X040319Y028336D01*
X040321Y028337D01*
X040346Y028347D01*
X040370Y028371D01*
X040398Y028391D01*
X040412Y028414D01*
X040414Y028415D01*
X040437Y028430D01*
X040456Y028458D01*
X040480Y028482D01*
X040491Y028507D01*
X040492Y028508D01*
X040512Y028527D01*
X040526Y028557D01*
X040546Y028585D01*
X040551Y028612D01*
X040552Y028614D01*
X040569Y028635D01*
X040578Y028668D01*
X040592Y028699D01*
X040593Y028726D01*
X040594Y028728D01*
X040606Y028752D01*
X040609Y028786D01*
X040618Y028819D01*
X040614Y028846D01*
X040615Y028848D01*
X040623Y028874D01*
X040620Y028907D01*
X040623Y028941D01*
X040615Y028967D01*
X040614Y028969D01*
X040618Y028996D01*
X040609Y029029D01*
X040606Y029063D01*
X040594Y029087D01*
X040593Y029089D01*
X040592Y029116D01*
X040578Y029147D01*
X040569Y029180D01*
X040552Y029201D01*
X040551Y029203D01*
X040546Y029229D01*
X040526Y029257D01*
X040512Y029288D01*
X040492Y029307D01*
X040491Y029308D01*
X040480Y029333D01*
X040456Y029357D01*
X040437Y029385D01*
X040414Y029400D01*
X040412Y029401D01*
X040398Y029424D01*
X040370Y029444D01*
X040346Y029468D01*
X040321Y029478D01*
X040319Y029479D01*
X040301Y029499D01*
X040270Y029514D01*
X040242Y029533D01*
X040215Y029539D01*
X040214Y029540D01*
X040192Y029556D01*
X040159Y029565D01*
X040129Y029579D01*
X040101Y029581D01*
X040100Y029581D01*
X040075Y029594D01*
X040042Y029597D01*
X040009Y029605D01*
X039982Y029602D01*
X039980Y029602D01*
X039954Y029610D01*
X039920Y029607D01*
X039886Y029610D01*
X039860Y029602D01*
X039858Y029602D01*
X039831Y029605D01*
X039798Y029597D01*
X039765Y029594D01*
X039740Y029581D01*
X039739Y029581D01*
X039711Y029579D01*
X039681Y029565D01*
X039648Y029556D01*
X039626Y029540D01*
X039625Y029539D01*
X039598Y029533D01*
X039570Y029514D01*
X039539Y029499D01*
X039521Y029479D01*
X039519Y029478D01*
X039494Y029468D01*
X039470Y029444D01*
X039442Y029424D01*
X039428Y029401D01*
X039426Y029400D01*
X039403Y029385D01*
X039384Y029357D01*
X039360Y029333D01*
X039349Y029308D01*
X039348Y029307D01*
X039328Y029288D01*
X039314Y029257D01*
X039294Y029229D01*
X039289Y029203D01*
X039288Y029201D01*
X039271Y029180D01*
X039262Y029147D01*
X039248Y029116D01*
X039247Y029089D01*
X039246Y029087D01*
X039234Y029063D01*
X039231Y029029D01*
X039222Y028996D01*
X039226Y028969D01*
X039225Y028967D01*
X039217Y028941D01*
X039220Y028907D01*
X039217Y028874D01*
X039225Y028848D01*
X039226Y028846D01*
X039222Y028819D01*
X039231Y028786D01*
X039234Y028752D01*
X039246Y028728D01*
X039247Y028726D01*
X039248Y028699D01*
X039262Y028668D01*
X039271Y028635D01*
X039288Y028614D01*
X039289Y028612D01*
X039294Y028585D01*
X039314Y028557D01*
X039328Y028527D01*
X039348Y028508D01*
X039349Y028507D01*
X039360Y028482D01*
X039384Y028458D01*
X039403Y028430D01*
X039426Y028415D01*
X039428Y028414D01*
X039442Y028391D01*
X039248Y028707D02*
X035493Y028707D01*
X035740Y029026D02*
X039230Y029026D01*
X039371Y029344D02*
X039032Y029344D01*
X039110Y029663D02*
X040418Y029663D01*
X040469Y029344D02*
X040633Y029344D01*
X040610Y029026D02*
X040787Y029026D01*
X040861Y028707D02*
X040592Y028707D01*
X040395Y028389D02*
X040908Y028389D01*
X040914Y028070D02*
X038967Y028070D01*
X039110Y027752D02*
X040914Y027752D01*
X040914Y027433D02*
X039110Y027433D01*
X038426Y026507D02*
X038355Y026241D01*
X038355Y025883D01*
X038448Y025536D01*
X038627Y025225D01*
X038881Y024972D01*
X039192Y024792D01*
X039538Y024699D01*
X039897Y024699D01*
X040244Y024792D01*
X040554Y024972D01*
X040808Y025225D01*
X040914Y025409D01*
X040914Y012980D01*
X040905Y012982D01*
X040513Y012982D01*
X040513Y012394D01*
X040498Y012394D01*
X040498Y012380D01*
X039872Y012380D01*
X039872Y012027D01*
X039882Y011977D01*
X039901Y011929D01*
X039930Y011887D01*
X039966Y011850D01*
X040008Y011822D01*
X040056Y011802D01*
X040106Y011792D01*
X040498Y011792D01*
X040498Y012380D01*
X040513Y012380D01*
X040513Y011792D01*
X040905Y011792D01*
X040914Y011794D01*
X040914Y011145D01*
X040879Y011231D01*
X040833Y011277D01*
X040709Y011400D01*
X040548Y011467D01*
X040372Y011467D01*
X040211Y011400D01*
X040087Y011277D01*
X040020Y011115D01*
X040020Y010971D01*
X039973Y010951D01*
X039894Y010872D01*
X039852Y010770D01*
X039852Y009989D01*
X039894Y009886D01*
X039973Y009807D01*
X040076Y009765D01*
X040914Y009765D01*
X040914Y005727D01*
X040900Y005479D01*
X040790Y004994D01*
X040574Y004546D01*
X040264Y004158D01*
X039875Y003848D01*
X039427Y003632D01*
X038943Y003521D01*
X038694Y003507D01*
X033441Y003507D01*
X033600Y003666D01*
X033740Y004004D01*
X033740Y004370D01*
X033600Y004708D01*
X033341Y004967D01*
X033003Y005107D01*
X032637Y005107D01*
X032299Y004967D01*
X032040Y004708D01*
X031900Y004370D01*
X031900Y004004D01*
X032040Y003666D01*
X032199Y003507D01*
X028441Y003507D01*
X028600Y003666D01*
X028740Y004004D01*
X028740Y004370D01*
X028600Y004708D01*
X028341Y004967D01*
X028003Y005107D01*
X027637Y005107D01*
X027299Y004967D01*
X027040Y004708D01*
X026900Y004370D01*
X026900Y004004D01*
X027040Y003666D01*
X027199Y003507D01*
X026541Y003507D01*
X026640Y003606D01*
X026780Y003944D01*
X026780Y004310D01*
X026640Y004648D01*
X026381Y004907D01*
X026043Y005047D01*
X025677Y005047D01*
X025339Y004907D01*
X025080Y004648D01*
X024940Y004310D01*
X024940Y003944D01*
X025080Y003606D01*
X025179Y003507D01*
X021541Y003507D01*
X021640Y003606D01*
X021780Y003944D01*
X021780Y004310D01*
X021640Y004648D01*
X021381Y004907D01*
X021043Y005047D01*
X020677Y005047D01*
X020339Y004907D01*
X020080Y004648D01*
X019940Y004310D01*
X019940Y003944D01*
X020080Y003606D01*
X020179Y003507D01*
X015789Y003507D01*
X015789Y003850D01*
X015192Y003850D01*
X015192Y003885D01*
X015158Y003885D01*
X015158Y004501D01*
X015192Y004501D01*
X015192Y003885D01*
X015789Y003885D01*
X015789Y004267D01*
X015779Y004317D01*
X015760Y004365D01*
X015731Y004407D01*
X015695Y004443D01*
X015652Y004472D01*
X015605Y004491D01*
X015555Y004501D01*
X020019Y004501D01*
X019906Y004710D02*
X019641Y004600D01*
X019353Y004600D01*
X019087Y004710D01*
X018884Y004913D01*
X018796Y005127D01*
X018701Y005032D01*
X018489Y004944D01*
X018260Y004944D01*
X018049Y005032D01*
X017954Y005127D01*
X017866Y004913D01*
X017662Y004710D01*
X017397Y004600D01*
X017109Y004600D01*
X016843Y004710D01*
X016640Y004913D01*
X016530Y005179D01*
X016530Y005467D01*
X016640Y005732D01*
X016695Y005787D01*
X016601Y005881D01*
X016540Y006028D01*
X016540Y006187D01*
X016601Y006334D01*
X016713Y006447D01*
X016860Y006507D01*
X017020Y006507D01*
X017167Y006447D01*
X017206Y006407D01*
X017732Y006407D01*
X017800Y006379D01*
X017800Y006422D01*
X017887Y006633D01*
X017955Y006701D01*
X017887Y006769D01*
X017800Y006980D01*
X017800Y007209D01*
X017887Y007420D01*
X017969Y007502D01*
X017951Y007520D01*
X017900Y007591D01*
X017862Y007665D01*
X017662Y007466D01*
X017397Y007356D01*
X017109Y007356D01*
X016855Y007461D01*
X016855Y007282D01*
X016845Y007231D01*
X016825Y007184D01*
X016797Y007141D01*
X016760Y007105D01*
X016718Y007077D01*
X016670Y007057D01*
X016620Y007047D01*
X016378Y007047D01*
X016378Y007504D01*
X016378Y007504D01*
X016378Y007047D01*
X016160Y007047D01*
X016160Y006404D01*
X016200Y006307D01*
X016200Y006148D01*
X016139Y006001D01*
X016027Y005888D01*
X015880Y005827D01*
X015720Y005827D01*
X015573Y005888D01*
X015461Y006001D01*
X015400Y006148D01*
X015400Y006307D01*
X015440Y006404D01*
X015440Y007437D01*
X015346Y007437D01*
X015346Y006672D01*
X015303Y006569D01*
X015224Y006490D01*
X015122Y006447D01*
X014010Y006447D01*
X014010Y006095D01*
X013961Y005977D01*
X013920Y005936D01*
X013920Y005466D01*
X013980Y005466D01*
X014029Y005446D01*
X014112Y005446D01*
X014112Y005395D01*
X014112Y005395D01*
X014112Y005446D01*
X014206Y005446D01*
X014257Y005436D01*
X014304Y005417D01*
X014346Y005388D01*
X014383Y005352D01*
X014411Y005309D01*
X014431Y005262D01*
X014441Y005212D01*
X014441Y004911D01*
X014205Y004911D01*
X014205Y004911D01*
X014441Y004911D01*
X014441Y004610D01*
X014431Y004559D01*
X014415Y004521D01*
X014530Y004521D01*
X014633Y004479D01*
X014663Y004449D01*
X014697Y004472D01*
X014745Y004491D01*
X014795Y004501D01*
X015158Y004501D01*
X015192Y004501D02*
X015555Y004501D01*
X015789Y004183D02*
X019940Y004183D01*
X019973Y003864D02*
X015192Y003864D01*
X015192Y004183D02*
X015158Y004183D01*
X014795Y004501D02*
X014578Y004501D01*
X014441Y004820D02*
X016733Y004820D01*
X016547Y005138D02*
X014441Y005138D01*
X014003Y005457D02*
X016530Y005457D01*
X016683Y005775D02*
X013920Y005775D01*
X014010Y006094D02*
X015422Y006094D01*
X015440Y006412D02*
X014010Y006412D01*
X013230Y006412D02*
X012875Y006412D01*
X012875Y006447D02*
X013230Y006447D01*
X013230Y006349D01*
X013073Y006192D01*
X013024Y006074D01*
X013024Y006052D01*
X012940Y006087D01*
X012873Y006087D01*
X012875Y006097D01*
X012875Y006319D01*
X012398Y006319D01*
X012398Y006319D01*
X012875Y006319D01*
X012875Y006447D01*
X012874Y006094D02*
X013032Y006094D01*
X011922Y006094D02*
X011717Y006094D01*
X011717Y006412D02*
X011922Y006412D01*
X011902Y005775D02*
X011737Y005775D01*
X011737Y005457D02*
X011902Y005457D01*
X011575Y005138D02*
X012739Y005138D01*
X012739Y004820D02*
X011637Y004820D01*
X012008Y004183D02*
X012042Y004183D01*
X012008Y003864D02*
X010283Y003864D01*
X009840Y003864D02*
X009840Y003864D01*
X009840Y004183D02*
X009840Y004183D01*
X009840Y004447D02*
X009108Y004447D01*
X009108Y004495D01*
X009120Y004591D01*
X009145Y004683D01*
X009182Y004772D01*
X009208Y004817D01*
X008984Y004724D01*
X008696Y004724D01*
X008472Y004817D01*
X008498Y004772D01*
X008535Y004683D01*
X008560Y004591D01*
X008572Y004495D01*
X008572Y004447D01*
X007840Y004447D01*
X007840Y004447D01*
X007840Y005180D01*
X007792Y005180D01*
X007697Y005167D01*
X007604Y005142D01*
X007515Y005106D01*
X007440Y005062D01*
X007440Y005833D01*
X007515Y005789D01*
X007604Y005752D01*
X007697Y005727D01*
X007792Y005715D01*
X007840Y005715D01*
X007840Y006447D01*
X007840Y006447D01*
X007840Y005715D01*
X007888Y005715D01*
X007983Y005727D01*
X008076Y005752D01*
X008165Y005789D01*
X008210Y005815D01*
X008117Y005591D01*
X008117Y005304D01*
X008210Y005080D01*
X008165Y005106D01*
X008076Y005142D01*
X007983Y005167D01*
X007888Y005180D01*
X007840Y005180D01*
X007840Y004447D01*
X007840Y004447D01*
X007840Y004501D02*
X007840Y004501D01*
X007840Y004183D02*
X007840Y004183D01*
X007840Y003864D02*
X007840Y003864D01*
X008283Y003864D02*
X009397Y003864D01*
X009157Y004183D02*
X008523Y004183D01*
X008572Y004501D02*
X009108Y004501D01*
X009840Y004501D02*
X009840Y004501D01*
X009840Y004447D02*
X009840Y004447D01*
X009840Y005180D01*
X009888Y005180D01*
X009983Y005167D01*
X010076Y005142D01*
X009840Y005138D02*
X009840Y005138D01*
X009594Y005138D02*
X009494Y005138D01*
X009840Y004820D02*
X009840Y004820D01*
X010471Y004820D02*
X010843Y004820D01*
X009548Y005775D02*
X009487Y005775D01*
X009840Y006731D02*
X009840Y006731D01*
X009840Y007049D02*
X009840Y007049D01*
X009421Y007049D02*
X009280Y007049D01*
X009280Y007368D02*
X011545Y007368D01*
X011320Y007049D02*
X010259Y007049D01*
X011170Y007686D02*
X009280Y007686D01*
X009280Y008005D02*
X011170Y008005D01*
X011170Y008323D02*
X009280Y008323D01*
X009280Y008642D02*
X011199Y008642D01*
X011206Y009005D02*
X011240Y009008D01*
X011274Y009005D01*
X011300Y009013D01*
X011302Y009013D01*
X011329Y009009D01*
X011362Y009018D01*
X011395Y009021D01*
X011420Y009034D01*
X011421Y009034D01*
X011449Y009035D01*
X011479Y009050D01*
X011512Y009059D01*
X011534Y009075D01*
X011535Y009076D01*
X011562Y009082D01*
X011590Y009101D01*
X011621Y009116D01*
X011639Y009136D01*
X011641Y009137D01*
X011666Y009147D01*
X011690Y009171D01*
X011718Y009191D01*
X011732Y009214D01*
X011734Y009215D01*
X011757Y009230D01*
X011776Y009258D01*
X011800Y009282D01*
X011811Y009307D01*
X011812Y009308D01*
X011832Y009327D01*
X011846Y009357D01*
X011866Y009385D01*
X011871Y009412D01*
X011872Y009414D01*
X011889Y009435D01*
X011898Y009468D01*
X011912Y009499D01*
X011913Y009526D01*
X011914Y009528D01*
X011926Y009552D01*
X011929Y009586D01*
X011938Y009619D01*
X011934Y009646D01*
X011935Y009648D01*
X011943Y009674D01*
X011940Y009707D01*
X011943Y009741D01*
X011935Y009767D01*
X011934Y009769D01*
X011938Y009796D01*
X011929Y009829D01*
X011926Y009863D01*
X011914Y009887D01*
X011913Y009889D01*
X011912Y009916D01*
X011898Y009947D01*
X011889Y009980D01*
X011872Y010001D01*
X011871Y010003D01*
X011866Y010029D01*
X011846Y010057D01*
X011832Y010088D01*
X011812Y010107D01*
X011811Y010108D01*
X011800Y010133D01*
X011776Y010157D01*
X011757Y010185D01*
X011734Y010200D01*
X011732Y010201D01*
X011718Y010224D01*
X011690Y010244D01*
X011666Y010268D01*
X011641Y010278D01*
X011639Y010279D01*
X011621Y010299D01*
X011590Y010314D01*
X011562Y010333D01*
X011535Y010339D01*
X011534Y010340D01*
X011512Y010356D01*
X011479Y010365D01*
X011449Y010379D01*
X011421Y010381D01*
X011420Y010381D01*
X011395Y010394D01*
X011362Y010397D01*
X011329Y010405D01*
X011302Y010402D01*
X011300Y010402D01*
X011274Y010410D01*
X011240Y010407D01*
X011206Y010410D01*
X011180Y010402D01*
X011178Y010402D01*
X011151Y010405D01*
X011118Y010397D01*
X011085Y010394D01*
X011060Y010381D01*
X011059Y010381D01*
X011031Y010379D01*
X011001Y010365D01*
X010968Y010356D01*
X010946Y010340D01*
X010945Y010339D01*
X010918Y010333D01*
X010890Y010314D01*
X010859Y010299D01*
X010841Y010279D01*
X010839Y010278D01*
X010814Y010268D01*
X010790Y010244D01*
X010762Y010224D01*
X010748Y010201D01*
X010746Y010200D01*
X010723Y010185D01*
X010704Y010157D01*
X010680Y010133D01*
X010669Y010108D01*
X010668Y010107D01*
X010648Y010088D01*
X010634Y010057D01*
X010614Y010029D01*
X010609Y010003D01*
X010608Y010001D01*
X010591Y009980D01*
X010582Y009947D01*
X010568Y009916D01*
X010567Y009889D01*
X010566Y009887D01*
X010554Y009863D01*
X010551Y009829D01*
X010542Y009796D01*
X010546Y009769D01*
X010545Y009767D01*
X010537Y009741D01*
X010540Y009707D01*
X010537Y009674D01*
X010545Y009648D01*
X010546Y009646D01*
X010542Y009619D01*
X010551Y009586D01*
X010554Y009552D01*
X010566Y009528D01*
X010567Y009526D01*
X010568Y009499D01*
X010582Y009468D01*
X010591Y009435D01*
X010608Y009414D01*
X010609Y009412D01*
X010614Y009385D01*
X010634Y009357D01*
X010648Y009327D01*
X010668Y009308D01*
X010669Y009307D01*
X010680Y009282D01*
X010704Y009258D01*
X010723Y009230D01*
X010746Y009215D01*
X010748Y009214D01*
X010762Y009191D01*
X010790Y009171D01*
X010814Y009147D01*
X010839Y009137D01*
X010841Y009136D01*
X010859Y009116D01*
X010890Y009101D01*
X010918Y009082D01*
X010945Y009076D01*
X010946Y009075D01*
X010968Y009059D01*
X011001Y009050D01*
X011031Y009035D01*
X011059Y009034D01*
X011060Y009034D01*
X011085Y009021D01*
X011118Y009018D01*
X011151Y009009D01*
X011178Y009013D01*
X011180Y009013D01*
X011206Y009005D01*
X010683Y009279D02*
X009280Y009279D01*
X009280Y009597D02*
X010548Y009597D01*
X010568Y009916D02*
X009397Y009916D01*
X009481Y010234D02*
X009481Y010234D01*
X009481Y010553D02*
X009481Y010553D01*
X009481Y010707D02*
X009014Y010707D01*
X009014Y010604D01*
X008786Y010604D01*
X008786Y010707D01*
X008319Y010707D01*
X007853Y010707D01*
X007853Y011166D01*
X007863Y011216D01*
X007882Y011264D01*
X007911Y011306D01*
X007947Y011342D01*
X007989Y011371D01*
X008037Y011390D01*
X008087Y011400D01*
X008319Y011400D01*
X008319Y010707D01*
X008319Y011287D01*
X008540Y011507D01*
X009200Y011507D01*
X009440Y011267D01*
X009440Y010748D01*
X009481Y010707D01*
X009947Y010707D01*
X009947Y011166D01*
X009937Y011216D01*
X009918Y011264D01*
X009889Y011306D01*
X009853Y011342D01*
X009811Y011371D01*
X009763Y011390D01*
X009713Y011400D01*
X009481Y011400D01*
X009481Y010707D01*
X009481Y010707D01*
X009481Y010707D01*
X009014Y010707D01*
X009014Y011166D01*
X009024Y011216D01*
X009044Y011264D01*
X009072Y011306D01*
X009108Y011342D01*
X009151Y011371D01*
X009198Y011390D01*
X009248Y011400D01*
X009481Y011400D01*
X009481Y010707D01*
X009481Y010871D02*
X009481Y010871D01*
X009481Y011190D02*
X009481Y011190D01*
X009732Y011508D02*
X007440Y011508D01*
X007440Y011190D02*
X007857Y011190D01*
X007853Y010871D02*
X007440Y010871D01*
X007440Y010553D02*
X007853Y010553D01*
X007855Y010234D02*
X007440Y010234D01*
X007440Y009916D02*
X008400Y009916D01*
X008400Y009597D02*
X007440Y009597D01*
X007440Y009279D02*
X008400Y009279D01*
X008400Y008960D02*
X007440Y008960D01*
X007440Y008642D02*
X008400Y008642D01*
X008400Y008323D02*
X007440Y008323D01*
X007440Y008005D02*
X008400Y008005D01*
X008400Y007686D02*
X007440Y007686D01*
X007440Y007368D02*
X008400Y007368D01*
X008400Y007049D02*
X008259Y007049D01*
X007840Y007049D02*
X007840Y007049D01*
X007840Y007180D02*
X007840Y006447D01*
X007840Y006447D01*
X007840Y007180D01*
X007840Y006731D02*
X007840Y006731D01*
X007840Y006412D02*
X007840Y006412D01*
X007840Y006094D02*
X007840Y006094D01*
X007840Y005775D02*
X007840Y005775D01*
X008132Y005775D02*
X008193Y005775D01*
X008117Y005457D02*
X007440Y005457D01*
X007440Y005775D02*
X007548Y005775D01*
X007594Y005138D02*
X007440Y005138D01*
X007840Y005138D02*
X007840Y005138D01*
X008086Y005138D02*
X008186Y005138D01*
X007840Y004820D02*
X007840Y004820D01*
X007440Y003546D02*
X011411Y003546D01*
X012405Y004501D02*
X012622Y004501D01*
X015346Y006731D02*
X015440Y006731D01*
X015440Y007049D02*
X015346Y007049D01*
X015346Y007368D02*
X015440Y007368D01*
X016378Y007368D02*
X016378Y007368D01*
X016378Y007049D02*
X016378Y007049D01*
X016631Y007049D02*
X017800Y007049D01*
X017865Y007368D02*
X017426Y007368D01*
X017080Y007368D02*
X016855Y007368D01*
X016160Y006731D02*
X017925Y006731D01*
X017800Y006412D02*
X017201Y006412D01*
X016679Y006412D02*
X016160Y006412D01*
X016178Y006094D02*
X016540Y006094D01*
X017772Y004820D02*
X018977Y004820D01*
X019906Y004710D02*
X020110Y004913D01*
X020220Y005179D01*
X020220Y005467D01*
X020110Y005732D01*
X019906Y005936D01*
X019641Y006046D01*
X019353Y006046D01*
X019087Y005936D01*
X018902Y005750D01*
X018862Y005846D01*
X018795Y005913D01*
X018862Y005981D01*
X018950Y006193D01*
X018950Y006422D01*
X018862Y006633D01*
X018795Y006701D01*
X018862Y006768D01*
X018881Y006721D01*
X018993Y006608D01*
X019140Y006547D01*
X019300Y006547D01*
X019447Y006608D01*
X019466Y006627D01*
X020064Y006627D01*
X020181Y006676D01*
X020361Y006856D01*
X020451Y006946D01*
X020500Y007064D01*
X020500Y008756D01*
X020512Y008728D01*
X020641Y008599D01*
X020684Y008581D01*
X021540Y007725D01*
X021540Y006276D01*
X021540Y006275D01*
X021540Y006189D01*
X021540Y006175D01*
X021509Y006144D01*
X021424Y005939D01*
X021424Y005717D01*
X021509Y005512D01*
X021542Y005480D01*
X021542Y005382D01*
X021609Y005221D01*
X021767Y005063D01*
X021767Y005016D01*
X021852Y004812D01*
X022009Y004655D01*
X022214Y004570D01*
X022435Y004570D01*
X022640Y004655D01*
X022724Y004739D01*
X022808Y004655D01*
X023013Y004570D01*
X023235Y004570D01*
X023440Y004655D01*
X023523Y004739D01*
X023607Y004655D01*
X023812Y004570D01*
X024034Y004570D01*
X024239Y004655D01*
X024323Y004739D01*
X024406Y004655D01*
X024611Y004570D01*
X024833Y004570D01*
X025038Y004655D01*
X025195Y004812D01*
X025280Y005016D01*
X025280Y005238D01*
X025195Y005443D01*
X025038Y005600D01*
X024911Y005653D01*
X024937Y005717D01*
X024937Y005939D01*
X024852Y006144D01*
X024696Y006301D01*
X024491Y006386D01*
X024339Y006386D01*
X024380Y006486D01*
X024380Y006618D01*
X024745Y006983D01*
X024800Y007116D01*
X024800Y009223D01*
X024845Y009179D01*
X024948Y009136D01*
X025060Y009136D01*
X025060Y009028D01*
X025121Y008881D01*
X025233Y008768D01*
X025380Y008707D01*
X025540Y008707D01*
X025687Y008768D01*
X025799Y008881D01*
X025860Y009028D01*
X025860Y009187D01*
X025799Y009334D01*
X025780Y009353D01*
X025780Y009651D01*
X025731Y009769D01*
X025717Y009783D01*
X025717Y009865D01*
X025683Y009947D01*
X025717Y010030D01*
X025717Y010535D01*
X025674Y010638D01*
X025620Y010691D01*
X025620Y010807D01*
X025559Y010954D01*
X025447Y011067D01*
X025300Y011127D01*
X025140Y011127D01*
X024993Y011067D01*
X024881Y010954D01*
X024820Y010807D01*
X024820Y010691D01*
X024800Y010671D01*
X024800Y010831D01*
X024802Y010834D01*
X024845Y010937D01*
X024845Y011798D01*
X024802Y011901D01*
X024724Y011980D01*
X024621Y012022D01*
X024280Y012022D01*
X024280Y012087D01*
X024487Y012087D01*
X024499Y012076D01*
X024616Y012027D01*
X025344Y012027D01*
X025461Y012076D01*
X025551Y012166D01*
X025731Y012346D01*
X025773Y012447D01*
X026020Y012447D01*
X026060Y012351D01*
X026060Y011810D01*
X026055Y011798D01*
X026055Y010937D01*
X026098Y010834D01*
X026176Y010755D01*
X026178Y010754D01*
X026158Y010741D01*
X026122Y010705D01*
X026093Y010662D01*
X026073Y010615D01*
X026063Y010565D01*
X026063Y010342D01*
X026063Y010120D01*
X026073Y010069D01*
X026089Y010031D01*
X026086Y010028D01*
X026043Y009925D01*
X026043Y009420D01*
X026086Y009317D01*
X026165Y009239D01*
X026268Y009196D01*
X026812Y009196D01*
X026915Y009239D01*
X026994Y009317D01*
X027009Y009353D01*
X027211Y009353D01*
X027226Y009317D01*
X027305Y009239D01*
X027408Y009196D01*
X027952Y009196D01*
X028055Y009239D01*
X028134Y009317D01*
X028177Y009420D01*
X028177Y009925D01*
X028143Y010007D01*
X028177Y010090D01*
X028177Y010595D01*
X028134Y010698D01*
X028119Y010712D01*
X028141Y010712D01*
X028210Y010741D01*
X028279Y010712D01*
X028580Y010712D01*
X028580Y008316D01*
X028635Y008183D01*
X028736Y008082D01*
X029381Y007437D01*
X029381Y006317D01*
X029328Y006263D01*
X029292Y006298D01*
X029224Y006348D01*
X029148Y006386D01*
X029068Y006413D01*
X028984Y006426D01*
X028942Y006426D01*
X028900Y006426D01*
X028816Y006413D01*
X028736Y006386D01*
X028660Y006348D01*
X028592Y006298D01*
X028532Y006238D01*
X028482Y006170D01*
X028444Y006095D01*
X028418Y006014D01*
X028404Y005930D01*
X028404Y005888D01*
X028404Y005846D01*
X028418Y005762D01*
X028444Y005682D01*
X028482Y005606D01*
X028532Y005538D01*
X028592Y005478D01*
X028660Y005428D01*
X028736Y005390D01*
X028780Y005375D01*
X028760Y005313D01*
X028747Y005230D01*
X028747Y005187D01*
X028747Y005145D01*
X028760Y005062D01*
X028786Y004981D01*
X028825Y004906D01*
X028875Y004837D01*
X028934Y004777D01*
X029003Y004728D01*
X029078Y004689D01*
X029159Y004663D01*
X029242Y004650D01*
X029285Y004650D01*
X029327Y004650D01*
X029410Y004663D01*
X029491Y004689D01*
X029566Y004728D01*
X029635Y004777D01*
X029670Y004813D01*
X029768Y004715D01*
X029973Y004630D01*
X030195Y004630D01*
X030400Y004715D01*
X030483Y004799D01*
X030567Y004715D01*
X030772Y004630D01*
X030994Y004630D01*
X031199Y004715D01*
X031283Y004799D01*
X031366Y004715D01*
X031571Y004630D01*
X031793Y004630D01*
X031998Y004715D01*
X032155Y004872D01*
X032240Y005076D01*
X032240Y005298D01*
X032155Y005503D01*
X031998Y005660D01*
X031871Y005713D01*
X031897Y005777D01*
X031897Y005999D01*
X031812Y006204D01*
X031656Y006361D01*
X031451Y006446D01*
X031282Y006446D01*
X031290Y006466D01*
X031290Y006609D01*
X031280Y006633D01*
X031280Y007859D01*
X031225Y007991D01*
X031124Y008093D01*
X030320Y008897D01*
X030320Y009256D01*
X030832Y009256D01*
X030935Y009299D01*
X031014Y009377D01*
X031035Y009427D01*
X031120Y009427D01*
X031267Y009488D01*
X031379Y009601D01*
X031389Y009626D01*
X031579Y009436D01*
X031696Y009387D01*
X034027Y009387D01*
X034433Y008981D01*
X034433Y008931D01*
X034476Y008828D01*
X034555Y008750D01*
X034658Y008707D01*
X035147Y008707D01*
X035250Y008750D01*
X035329Y008828D01*
X035371Y008931D01*
X035371Y009421D01*
X035329Y009524D01*
X035250Y009602D01*
X035147Y009645D01*
X034824Y009645D01*
X034886Y009707D01*
X034996Y009707D01*
X035168Y009778D01*
X035300Y009910D01*
X035371Y010083D01*
X035371Y010269D01*
X035300Y010442D01*
X035168Y010574D01*
X034996Y010645D01*
X034809Y010645D01*
X034637Y010574D01*
X034505Y010442D01*
X034433Y010269D01*
X034433Y010207D01*
X034004Y010207D01*
X034029Y010232D01*
X034071Y010335D01*
X034071Y010767D01*
X034663Y010767D01*
X034809Y010707D01*
X034996Y010707D01*
X035168Y010778D01*
X035300Y010910D01*
X035371Y011083D01*
X035371Y011269D01*
X035300Y011442D01*
X035168Y011574D01*
X034996Y011645D01*
X034964Y011645D01*
X034959Y011647D01*
X034071Y011647D01*
X034071Y012080D01*
X034029Y012183D01*
X034016Y012196D01*
X034064Y012196D01*
X034355Y011905D01*
X034473Y011856D01*
X034559Y011856D01*
X034637Y011778D01*
X034809Y011707D01*
X034996Y011707D01*
X035168Y011778D01*
X035300Y011910D01*
X035371Y012083D01*
X035371Y012269D01*
X035300Y012442D01*
X035168Y012574D01*
X034996Y012645D01*
X034809Y012645D01*
X034637Y012574D01*
X034614Y012551D01*
X034537Y012629D01*
X034537Y012925D01*
X034503Y013007D01*
X034537Y013090D01*
X034537Y013595D01*
X034494Y013698D01*
X034415Y013776D01*
X034344Y013806D01*
X034351Y013845D01*
X034351Y014087D01*
X033895Y014087D01*
X033895Y014087D01*
X033895Y013819D01*
X033895Y013819D01*
X033895Y014087D01*
X033895Y014087D01*
X034351Y014087D01*
X034351Y014330D01*
X034342Y014380D01*
X034322Y014427D01*
X034293Y014470D01*
X034257Y014506D01*
X034215Y014534D01*
X034167Y014554D01*
X034117Y014564D01*
X033895Y014564D01*
X033895Y014087D01*
X033955Y014147D01*
X034940Y014147D01*
X035000Y014087D01*
X036620Y014087D01*
X039260Y014087D01*
X039380Y014207D01*
X040160Y014207D01*
X040506Y013862D01*
X040506Y012387D01*
X040498Y012394D02*
X039872Y012394D01*
X039872Y012747D01*
X039882Y012798D01*
X039901Y012845D01*
X039930Y012887D01*
X039966Y012924D01*
X040008Y012952D01*
X040056Y012972D01*
X040106Y012982D01*
X040498Y012982D01*
X040498Y012394D01*
X040498Y012464D02*
X040513Y012464D01*
X040498Y012782D02*
X040513Y012782D01*
X040914Y013101D02*
X034537Y013101D01*
X034537Y013419D02*
X040914Y013419D01*
X040914Y013738D02*
X034454Y013738D01*
X034351Y014056D02*
X040914Y014056D01*
X040914Y014375D02*
X034342Y014375D01*
X034202Y014693D02*
X040914Y014693D01*
X040914Y015012D02*
X036187Y015012D01*
X036329Y015154D02*
X036453Y015278D01*
X036520Y015440D01*
X036520Y022215D01*
X036453Y022377D01*
X036329Y022500D01*
X035613Y023217D01*
X035489Y023340D01*
X035328Y023407D01*
X033605Y023407D01*
X033443Y023340D01*
X033179Y023076D01*
X031792Y023076D01*
X031689Y023034D01*
X031610Y022955D01*
X031568Y022852D01*
X031568Y021875D01*
X031532Y021963D01*
X031453Y022042D01*
X031350Y022084D01*
X030660Y022084D01*
X030557Y022042D01*
X030510Y021994D01*
X030139Y021994D01*
X029978Y021927D01*
X029771Y021720D01*
X029647Y021597D01*
X029580Y021435D01*
X029580Y021211D01*
X029506Y021138D01*
X029484Y021084D01*
X029449Y021049D01*
X029329Y020929D01*
X029317Y020899D01*
X029317Y021035D01*
X029274Y021138D01*
X029260Y021151D01*
X029260Y021495D01*
X029193Y021657D01*
X029069Y021780D01*
X028808Y022042D01*
X028808Y022934D01*
X028872Y022998D01*
X028963Y023217D01*
X028963Y023454D01*
X028872Y023672D01*
X028705Y023840D01*
X028486Y023930D01*
X028249Y023930D01*
X028031Y023840D01*
X027863Y023672D01*
X027773Y023454D01*
X027773Y023217D01*
X027863Y022998D01*
X027928Y022934D01*
X027928Y021772D01*
X027995Y021610D01*
X028380Y021225D01*
X028380Y021187D01*
X027952Y021187D01*
X027791Y021120D01*
X027667Y020997D01*
X027364Y020694D01*
X027297Y020532D01*
X027297Y020192D01*
X027250Y020145D01*
X027207Y020042D01*
X027207Y019352D01*
X027250Y019249D01*
X027329Y019170D01*
X027432Y019127D01*
X027540Y019127D01*
X027540Y018691D01*
X027432Y018691D01*
X027329Y018649D01*
X027250Y018570D01*
X027207Y018467D01*
X027207Y017777D01*
X027250Y017674D01*
X027329Y017595D01*
X027341Y017590D01*
X027340Y017587D01*
X027340Y017428D01*
X027401Y017281D01*
X027513Y017168D01*
X027540Y017157D01*
X027540Y017117D01*
X027432Y017117D01*
X027329Y017074D01*
X027250Y016995D01*
X027207Y016892D01*
X027207Y016447D01*
X026575Y016447D01*
X026575Y016892D01*
X026532Y016995D01*
X026453Y017074D01*
X026350Y017117D01*
X025739Y017117D01*
X025636Y017074D01*
X025557Y016995D01*
X025554Y016987D01*
X024652Y016987D01*
X024491Y016920D01*
X024445Y016875D01*
X021733Y019587D01*
X023784Y019587D01*
X023901Y019636D01*
X023991Y019726D01*
X025140Y020875D01*
X025140Y020147D01*
X024885Y020147D01*
X024598Y020029D01*
X024379Y019809D01*
X024260Y019523D01*
X024260Y019212D01*
X024379Y018926D01*
X024598Y018706D01*
X024885Y018587D01*
X025195Y018587D01*
X025482Y018706D01*
X025701Y018926D01*
X025752Y019047D01*
X026064Y019047D01*
X026181Y019096D01*
X026213Y019127D01*
X026350Y019127D01*
X026453Y019170D01*
X026532Y019249D01*
X026575Y019352D01*
X026575Y020042D01*
X026532Y020145D01*
X026453Y020224D01*
X026350Y020266D01*
X026020Y020266D01*
X026020Y022215D01*
X025953Y022377D01*
X025829Y022500D01*
X025668Y022567D01*
X025492Y022567D01*
X025331Y022500D01*
X025207Y022377D01*
X025140Y022215D01*
X025140Y021807D01*
X024993Y021747D01*
X024881Y021634D01*
X024820Y021487D01*
X024820Y021460D01*
X023587Y020227D01*
X021333Y020227D01*
X020691Y020869D01*
X020601Y020959D01*
X020484Y021007D01*
X019144Y021007D01*
X019147Y021008D01*
X019259Y021121D01*
X019320Y021267D01*
X022694Y021267D01*
X022713Y021248D01*
X022860Y021187D01*
X023020Y021187D01*
X023167Y021248D01*
X023279Y021361D01*
X023340Y021508D01*
X023340Y021667D01*
X023279Y021814D01*
X023167Y021927D01*
X023020Y021987D01*
X022860Y021987D01*
X022713Y021927D01*
X022694Y021907D01*
X017966Y021907D01*
X017947Y021927D01*
X017944Y021927D01*
X018768Y021927D01*
X018929Y021994D01*
X019053Y022118D01*
X019120Y022280D01*
X019120Y022455D01*
X019053Y022617D01*
X018929Y022740D01*
X018768Y022807D01*
X018298Y022807D01*
X018297Y022809D01*
X018312Y022847D01*
X018322Y022897D01*
X018322Y023120D01*
X018322Y023342D01*
X018312Y023392D01*
X018293Y023440D01*
X018264Y023482D01*
X018228Y023518D01*
X018186Y023547D01*
X018138Y023567D01*
X018088Y023577D01*
X017846Y023577D01*
X017846Y023120D01*
X017846Y023120D01*
X018322Y023120D01*
X017846Y023120D01*
X017846Y023120D01*
X017846Y023577D01*
X017604Y023577D01*
X017553Y023567D01*
X017506Y023547D01*
X017466Y023520D01*
X017466Y023763D01*
X017456Y023813D01*
X017436Y023860D01*
X017408Y023903D01*
X017372Y023939D01*
X017329Y023968D01*
X017282Y023987D01*
X017232Y023997D01*
X017078Y023997D01*
X016967Y023997D01*
X016980Y024028D01*
X016980Y024187D01*
X016919Y024334D01*
X016807Y024447D01*
X016779Y024458D01*
X016800Y024508D01*
X016800Y024667D01*
X016739Y024814D01*
X016627Y024927D01*
X016480Y024987D01*
X016320Y024987D01*
X016173Y024927D01*
X016094Y024847D01*
X014013Y024847D01*
X013713Y025147D01*
X013820Y025147D01*
X014080Y025407D01*
X014340Y025147D01*
X014820Y025147D01*
X015080Y025407D01*
X015340Y025147D01*
X015820Y025147D01*
X016160Y025487D01*
X016160Y025968D01*
X015900Y026227D01*
X016160Y026487D01*
X016160Y026967D01*
X016565Y026967D01*
X016550Y026894D01*
X016550Y026856D01*
X016550Y026819D01*
X016565Y026745D01*
X016592Y026679D01*
X016565Y026613D01*
X016550Y026539D01*
X016550Y026502D01*
X016670Y026502D01*
X016670Y026502D01*
X016550Y026502D01*
X016550Y026464D01*
X016565Y026391D01*
X016592Y026325D01*
X016565Y026258D01*
X016550Y026185D01*
X016550Y026148D01*
X016792Y026148D01*
X016792Y026148D01*
X016550Y026148D01*
X016550Y026110D01*
X016565Y026037D01*
X016592Y025970D01*
X016565Y025904D01*
X016550Y025831D01*
X016550Y025793D01*
X016550Y025756D01*
X016565Y025682D01*
X016592Y025616D01*
X016565Y025550D01*
X016550Y025476D01*
X016550Y025439D01*
X016670Y025439D01*
X016670Y025439D01*
X016550Y025439D01*
X016550Y025401D01*
X016565Y025328D01*
X016593Y025259D01*
X016635Y025197D01*
X016688Y025144D01*
X016750Y025102D01*
X016819Y025074D01*
X016892Y025059D01*
X016930Y025059D01*
X016967Y025059D01*
X017041Y025074D01*
X017107Y025101D01*
X017173Y025074D01*
X017247Y025059D01*
X017284Y025059D01*
X017284Y025301D01*
X017284Y025301D01*
X017284Y025059D01*
X017322Y025059D01*
X017395Y025074D01*
X017461Y025101D01*
X017528Y025074D01*
X017601Y025059D01*
X017639Y025059D01*
X017676Y025059D01*
X017749Y025074D01*
X017819Y025102D01*
X017881Y025144D01*
X017934Y025197D01*
X017975Y025259D01*
X018004Y025328D01*
X018019Y025401D01*
X018019Y025439D01*
X018019Y025476D01*
X018004Y025550D01*
X017977Y025616D01*
X018004Y025682D01*
X018019Y025756D01*
X018019Y025793D01*
X017899Y025793D01*
X017899Y025793D01*
X018019Y025793D01*
X018019Y025831D01*
X018004Y025904D01*
X017977Y025970D01*
X018004Y026037D01*
X018019Y026110D01*
X018019Y026148D01*
X018019Y026185D01*
X018004Y026258D01*
X017977Y026325D01*
X018004Y026391D01*
X018019Y026464D01*
X018019Y026502D01*
X018019Y026539D01*
X018004Y026613D01*
X017977Y026679D01*
X018004Y026745D01*
X018019Y026819D01*
X018019Y026856D01*
X017899Y026856D01*
X017899Y026856D01*
X018019Y026856D01*
X018019Y026894D01*
X018004Y026967D01*
X018004Y026967D01*
X018734Y026967D01*
X018753Y026948D01*
X018900Y026887D01*
X019057Y026887D01*
X019055Y026885D01*
X019012Y026782D01*
X019012Y026513D01*
X019055Y026410D01*
X019083Y026382D01*
X019062Y026349D01*
X019042Y026302D01*
X019032Y026252D01*
X019032Y026148D01*
X019646Y026148D01*
X019646Y026148D01*
X019032Y026148D01*
X019032Y026043D01*
X019042Y025993D01*
X019062Y025946D01*
X019083Y025913D01*
X019055Y025885D01*
X019012Y025782D01*
X019012Y025513D01*
X019048Y025427D01*
X018979Y025399D01*
X018889Y025309D01*
X018769Y025189D01*
X018720Y025071D01*
X018720Y024704D01*
X018769Y024586D01*
X018859Y024496D01*
X019039Y024316D01*
X019156Y024267D01*
X019394Y024267D01*
X019413Y024248D01*
X016955Y024248D01*
X017078Y024347D02*
X017078Y025291D01*
X017120Y025291D01*
X017600Y024811D01*
X017600Y024767D01*
X018020Y024347D01*
X018020Y024287D01*
X018788Y024567D02*
X016800Y024567D01*
X016668Y024885D02*
X018720Y024885D01*
X018784Y025204D02*
X017939Y025204D01*
X017899Y025439D02*
X017899Y025439D01*
X018019Y025439D01*
X017899Y025439D01*
X018009Y025522D02*
X019012Y025522D01*
X019037Y025841D02*
X018017Y025841D01*
X018019Y026148D02*
X017776Y026148D01*
X018019Y026148D01*
X018019Y026159D02*
X019032Y026159D01*
X019027Y026478D02*
X018019Y026478D01*
X018019Y026502D02*
X017899Y026502D01*
X018019Y026502D01*
X017899Y026502D02*
X017899Y026502D01*
X017639Y026502D02*
X017639Y026148D01*
X017639Y025793D01*
X017639Y025439D01*
X017490Y025291D01*
X017432Y025291D01*
X017284Y025439D01*
X017360Y025515D01*
X017360Y025727D01*
X017294Y025793D01*
X017284Y025793D01*
X016930Y025793D02*
X016930Y025439D01*
X017078Y025291D01*
X017120Y025291D02*
X017432Y025291D01*
X017284Y025301D02*
X017284Y025301D01*
X017284Y025204D02*
X017284Y025204D01*
X016930Y025138D02*
X016930Y025059D01*
X016930Y025138D01*
X016930Y025138D01*
X016630Y025204D02*
X015877Y025204D01*
X016132Y024885D02*
X013975Y024885D01*
X013877Y025204D02*
X014283Y025204D01*
X014877Y025204D02*
X015283Y025204D01*
X016160Y025522D02*
X016559Y025522D01*
X016550Y025793D02*
X016670Y025793D01*
X016670Y025793D01*
X016550Y025793D01*
X016552Y025841D02*
X016160Y025841D01*
X015968Y026159D02*
X016550Y026159D01*
X016792Y026148D02*
X016792Y026148D01*
X016930Y026148D02*
X016930Y026502D01*
X016930Y026856D01*
X017284Y026856D01*
X017284Y026502D01*
X017284Y026148D01*
X016930Y026148D02*
X016930Y025793D01*
X016550Y026478D02*
X016151Y026478D01*
X016160Y026796D02*
X016554Y026796D01*
X016550Y026856D02*
X016670Y026856D01*
X016670Y026856D01*
X016550Y026856D01*
X016565Y026967D02*
X016565Y026967D01*
X017639Y026856D02*
X017639Y026502D01*
X017776Y026148D02*
X017776Y026148D01*
X017776Y026148D01*
X018014Y026796D02*
X019018Y026796D01*
X019646Y026648D02*
X020260Y026648D01*
X020360Y026747D01*
X021680Y026747D01*
X021920Y026507D01*
X021920Y026267D01*
X022160Y026507D01*
X022160Y026867D01*
X021737Y027290D01*
X021422Y027290D01*
X023968Y027290D01*
X024143Y027115D01*
X023721Y025767D02*
X022468Y025767D01*
X022420Y025747D01*
X022260Y025747D01*
X022113Y025808D01*
X022094Y025828D01*
X021948Y025767D01*
X021775Y025767D01*
X021790Y025761D01*
X021869Y025683D01*
X021911Y025580D01*
X021911Y025051D01*
X021977Y025101D01*
X022063Y025150D01*
X022155Y025189D01*
X022251Y025214D01*
X022310Y025222D01*
X022310Y024557D01*
X022490Y024557D01*
X023155Y024557D01*
X023147Y024616D01*
X023121Y024712D01*
X023083Y024804D01*
X023033Y024891D01*
X022973Y024970D01*
X022902Y025040D01*
X022823Y025101D01*
X022737Y025150D01*
X022645Y025189D01*
X022549Y025214D01*
X022490Y025222D01*
X022490Y024557D01*
X022490Y024377D01*
X022490Y023713D01*
X022549Y023720D01*
X022645Y023746D01*
X022737Y023784D01*
X022823Y023834D01*
X022902Y023895D01*
X022973Y023965D01*
X023033Y024044D01*
X023083Y024131D01*
X023121Y024223D01*
X023147Y024319D01*
X023155Y024377D01*
X022490Y024377D01*
X022310Y024377D01*
X022310Y023713D01*
X022251Y023720D01*
X022155Y023746D01*
X022063Y023784D01*
X021977Y023834D01*
X021898Y023895D01*
X021827Y023965D01*
X021767Y024044D01*
X021723Y024121D01*
X021704Y024102D01*
X021524Y023922D01*
X021392Y023867D01*
X020528Y023867D01*
X020396Y023922D01*
X020295Y024023D01*
X020295Y024023D01*
X019968Y024350D01*
X019867Y024248D01*
X020070Y024248D01*
X019867Y024248D02*
X019720Y024187D01*
X019560Y024187D01*
X019413Y024248D01*
X020388Y023930D02*
X017381Y023930D01*
X017078Y023930D02*
X017078Y023930D01*
X017078Y023997D02*
X017078Y023321D01*
X017078Y023321D01*
X017078Y023997D01*
X017078Y024347D02*
X017078Y023321D01*
X017078Y023611D02*
X017078Y023611D01*
X017466Y023611D02*
X026431Y023611D01*
X026393Y023574D02*
X026393Y023335D01*
X026393Y023097D01*
X026730Y022760D01*
X026968Y022760D01*
X027206Y022760D01*
X027543Y023097D01*
X027543Y023335D01*
X026968Y023335D01*
X026968Y022760D01*
X026968Y023335D01*
X026968Y023335D01*
X026968Y023335D01*
X027543Y023335D01*
X027543Y023574D01*
X027206Y023910D01*
X026968Y023910D01*
X026968Y023335D01*
X026968Y024760D01*
X026660Y025067D01*
X024191Y025067D01*
X024143Y025115D01*
X024143Y025115D01*
X023383Y025115D01*
X023383Y025429D01*
X023721Y025767D01*
X023471Y025787D02*
X024143Y025115D01*
X023383Y025115D01*
X023383Y024800D01*
X023829Y024355D01*
X024143Y024355D01*
X024143Y025115D01*
X023300Y024271D01*
X023300Y020207D01*
X023786Y020426D02*
X021134Y020426D01*
X020815Y020745D02*
X024105Y020745D01*
X024423Y021063D02*
X019202Y021063D01*
X018954Y022019D02*
X025140Y022019D01*
X025191Y022337D02*
X022682Y022337D01*
X022681Y022337D02*
X022706Y022347D01*
X022730Y022371D01*
X022758Y022391D01*
X022772Y022414D01*
X022774Y022415D01*
X022797Y022430D01*
X022816Y022458D01*
X022840Y022482D01*
X022851Y022507D01*
X022852Y022508D01*
X022872Y022527D01*
X022886Y022557D01*
X022906Y022585D01*
X022911Y022612D01*
X022912Y022614D01*
X022929Y022635D01*
X022938Y022668D01*
X022952Y022699D01*
X022953Y022726D01*
X022954Y022728D01*
X022966Y022752D01*
X022969Y022786D01*
X022978Y022819D01*
X022974Y022846D01*
X022975Y022848D01*
X022983Y022874D01*
X022980Y022907D01*
X022983Y022941D01*
X022975Y022967D01*
X022974Y022969D01*
X022978Y022996D01*
X022969Y023029D01*
X022966Y023063D01*
X022954Y023087D01*
X022953Y023089D01*
X022952Y023116D01*
X022938Y023147D01*
X022929Y023180D01*
X022912Y023201D01*
X022911Y023203D01*
X022906Y023229D01*
X022886Y023257D01*
X022872Y023288D01*
X022852Y023307D01*
X022851Y023308D01*
X022840Y023333D01*
X022816Y023357D01*
X022797Y023385D01*
X022774Y023400D01*
X022772Y023401D01*
X022758Y023424D01*
X022730Y023444D01*
X022706Y023468D01*
X022681Y023478D01*
X022679Y023479D01*
X022661Y023499D01*
X022630Y023514D01*
X022602Y023533D01*
X022575Y023539D01*
X022574Y023540D01*
X022552Y023556D01*
X022519Y023565D01*
X022489Y023579D01*
X022461Y023581D01*
X022460Y023581D01*
X022435Y023594D01*
X022402Y023597D01*
X022369Y023605D01*
X022342Y023602D01*
X022340Y023602D01*
X022314Y023610D01*
X022280Y023607D01*
X022246Y023610D01*
X022220Y023602D01*
X022218Y023602D01*
X022191Y023605D01*
X022158Y023597D01*
X022125Y023594D01*
X022100Y023581D01*
X022099Y023581D01*
X022071Y023579D01*
X022041Y023565D01*
X022008Y023556D01*
X021986Y023540D01*
X021985Y023539D01*
X021958Y023533D01*
X021930Y023514D01*
X021899Y023499D01*
X021881Y023479D01*
X021879Y023478D01*
X021854Y023468D01*
X021830Y023444D01*
X021802Y023424D01*
X021788Y023401D01*
X021786Y023400D01*
X021763Y023385D01*
X021744Y023357D01*
X021720Y023333D01*
X021709Y023308D01*
X021708Y023307D01*
X021688Y023288D01*
X021674Y023257D01*
X021654Y023229D01*
X021649Y023203D01*
X021648Y023201D01*
X021631Y023180D01*
X021622Y023147D01*
X021608Y023116D01*
X021607Y023089D01*
X021606Y023087D01*
X021594Y023063D01*
X021591Y023029D01*
X021582Y022996D01*
X021586Y022969D01*
X021585Y022967D01*
X021577Y022941D01*
X021580Y022907D01*
X021577Y022874D01*
X021585Y022848D01*
X021586Y022846D01*
X021582Y022819D01*
X021591Y022786D01*
X021594Y022752D01*
X021606Y022728D01*
X021607Y022726D01*
X021608Y022699D01*
X021622Y022668D01*
X021631Y022635D01*
X021648Y022614D01*
X021649Y022612D01*
X021654Y022585D01*
X021674Y022557D01*
X021688Y022527D01*
X021708Y022508D01*
X021709Y022507D01*
X021720Y022482D01*
X021744Y022458D01*
X021763Y022430D01*
X021786Y022415D01*
X021788Y022414D01*
X021802Y022391D01*
X021830Y022371D01*
X021854Y022347D01*
X021879Y022337D01*
X021881Y022336D01*
X021899Y022316D01*
X021930Y022301D01*
X021958Y022282D01*
X021985Y022276D01*
X021986Y022275D01*
X022008Y022259D01*
X022041Y022250D01*
X022071Y022235D01*
X022099Y022234D01*
X022100Y022234D01*
X022125Y022221D01*
X022158Y022218D01*
X022191Y022209D01*
X022218Y022213D01*
X022220Y022213D01*
X022246Y022205D01*
X022280Y022208D01*
X022314Y022205D01*
X022340Y022213D01*
X022342Y022213D01*
X022369Y022209D01*
X022402Y022218D01*
X022435Y022221D01*
X022460Y022234D01*
X022461Y022234D01*
X022489Y022235D01*
X022519Y022250D01*
X022552Y022259D01*
X022574Y022275D01*
X022575Y022276D01*
X022602Y022282D01*
X022630Y022301D01*
X022661Y022316D01*
X022679Y022336D01*
X022681Y022337D01*
X022934Y022656D02*
X027928Y022656D01*
X027928Y022337D02*
X025969Y022337D01*
X026020Y022019D02*
X027928Y022019D01*
X027957Y021700D02*
X026020Y021700D01*
X026020Y021382D02*
X028223Y021382D01*
X028368Y021860D02*
X028820Y021407D01*
X028820Y020782D01*
X028785Y020747D01*
X028040Y020747D01*
X027737Y020445D01*
X027737Y019697D01*
X027980Y019454D01*
X027980Y018407D01*
X027737Y018165D01*
X027737Y018122D01*
X027980Y017880D01*
X027980Y016787D01*
X027740Y016547D01*
X027737Y016547D01*
X027876Y016409D01*
X028641Y016409D01*
X028641Y017568D01*
X029060Y017987D01*
X029940Y017987D01*
X030020Y017907D01*
X029518Y017547D02*
X029490Y017480D01*
X029490Y017335D01*
X029545Y017202D01*
X029590Y017157D01*
X029545Y017113D01*
X029490Y016980D01*
X029490Y016885D01*
X029310Y016885D01*
X029310Y016409D01*
X029310Y016409D01*
X029310Y016885D01*
X029087Y016885D01*
X029081Y016884D01*
X029081Y017386D01*
X029242Y017547D01*
X029518Y017547D01*
X029529Y017241D02*
X029081Y017241D01*
X029081Y016923D02*
X029490Y016923D01*
X029310Y016604D02*
X029310Y016604D01*
X029310Y016409D02*
X030019Y016409D01*
X030020Y016407D01*
X030020Y016065D01*
X030221Y016065D01*
X030287Y016078D01*
X030350Y016104D01*
X030406Y016141D01*
X030453Y016189D01*
X030491Y016245D01*
X030510Y016290D01*
X030523Y016277D01*
X030565Y016249D01*
X030613Y016229D01*
X030663Y016219D01*
X031114Y016219D01*
X031114Y016367D01*
X031326Y016367D01*
X031326Y016219D01*
X031777Y016219D01*
X031827Y016229D01*
X031875Y016249D01*
X031885Y016256D01*
X031907Y016202D01*
X032009Y016100D01*
X032062Y016078D01*
X032062Y015442D01*
X032111Y015324D01*
X032449Y014986D01*
X032539Y014896D01*
X032656Y014847D01*
X032768Y014847D01*
X032791Y014792D01*
X032870Y014713D01*
X032905Y014699D01*
X032905Y014556D01*
X032870Y014541D01*
X032791Y014463D01*
X032749Y014360D01*
X032749Y013819D01*
X032628Y013819D01*
X032525Y013776D01*
X032446Y013698D01*
X032403Y013595D01*
X032403Y013090D01*
X032437Y013007D01*
X032431Y012993D01*
X032289Y012993D01*
X032274Y013028D01*
X032271Y013031D01*
X032287Y013069D01*
X032297Y013120D01*
X032297Y013342D01*
X031820Y013342D01*
X031820Y013342D01*
X031343Y013342D01*
X031343Y013120D01*
X031353Y013069D01*
X031369Y013031D01*
X031366Y013028D01*
X031323Y012925D01*
X031323Y012907D01*
X031053Y012907D01*
X030081Y013879D01*
X029964Y013927D01*
X029460Y013927D01*
X029481Y013936D01*
X029661Y014116D01*
X029729Y014183D01*
X029779Y014162D01*
X030141Y014162D01*
X030244Y014205D01*
X030322Y014284D01*
X030365Y014387D01*
X030365Y015248D01*
X030322Y015351D01*
X030280Y015393D01*
X030280Y015711D01*
X030231Y015829D01*
X029995Y016065D01*
X030020Y016065D01*
X030020Y016407D01*
X030020Y016407D01*
X030780Y016407D01*
X031220Y016847D01*
X031220Y017207D01*
X031326Y017207D02*
X031716Y017207D01*
X031326Y017207D01*
X031326Y017207D01*
X031220Y017313D02*
X031220Y017313D01*
X031220Y017704D01*
X031181Y017704D01*
X031114Y017693D01*
X031114Y018196D01*
X030760Y018196D01*
X030760Y018531D01*
X030711Y018649D01*
X030613Y018747D01*
X032238Y018747D01*
X032340Y018645D01*
X032340Y018347D01*
X032295Y018347D01*
X032133Y018280D01*
X032108Y018256D01*
X032009Y018215D01*
X031925Y018130D01*
X031917Y018138D01*
X031875Y018166D01*
X031827Y018186D01*
X031777Y018196D01*
X031326Y018196D01*
X031326Y017693D01*
X031259Y017704D01*
X031220Y017704D01*
X031220Y017313D01*
X031114Y017207D02*
X031114Y017207D01*
X030724Y017207D01*
X030724Y017168D01*
X030733Y017108D01*
X030718Y017102D01*
X030499Y017102D01*
X030495Y017113D01*
X030466Y017141D01*
X030621Y017296D01*
X030638Y017313D01*
X030734Y017313D01*
X030724Y017246D01*
X030724Y017207D01*
X031114Y017207D01*
X031220Y017560D02*
X031220Y017560D01*
X031114Y017878D02*
X031326Y017878D01*
X030760Y018197D02*
X031991Y018197D01*
X032340Y018515D02*
X030760Y018515D01*
X030027Y018427D02*
X029419Y019036D01*
X029329Y019126D01*
X029280Y019244D01*
X029280Y019772D01*
X029274Y019757D01*
X029195Y019679D01*
X029140Y019656D01*
X029140Y019493D01*
X029159Y019474D01*
X029220Y019327D01*
X029220Y019168D01*
X029159Y019021D01*
X029047Y018908D01*
X028900Y018847D01*
X028740Y018847D01*
X028593Y018908D01*
X028481Y019021D01*
X028420Y019168D01*
X028420Y019327D01*
X028481Y019474D01*
X028500Y019493D01*
X028500Y019656D01*
X028445Y019679D01*
X028366Y019757D01*
X028323Y019860D01*
X028323Y020307D01*
X028222Y020307D01*
X028177Y020263D01*
X028177Y020192D01*
X028225Y020145D01*
X028267Y020042D01*
X028267Y019789D01*
X028353Y019704D01*
X028420Y019542D01*
X028420Y018320D01*
X028353Y018158D01*
X028338Y018143D01*
X028353Y018129D01*
X028419Y017969D01*
X028687Y018237D01*
X028811Y018360D01*
X028972Y018427D01*
X030027Y018427D01*
X029939Y018515D02*
X028420Y018515D01*
X028420Y018834D02*
X029621Y018834D01*
X029318Y019152D02*
X029214Y019152D01*
X029160Y019471D02*
X029280Y019471D01*
X029960Y019547D02*
X029960Y020113D01*
X029960Y019547D02*
X030320Y019187D01*
X032420Y019187D01*
X032780Y018827D01*
X032780Y018047D01*
X032640Y017907D01*
X032382Y017907D01*
X031861Y017313D02*
X031706Y017313D01*
X031716Y017246D01*
X031716Y017207D01*
X031716Y017168D01*
X031707Y017108D01*
X031722Y017102D01*
X031903Y017102D01*
X031907Y017113D01*
X031952Y017157D01*
X031907Y017202D01*
X031861Y017313D01*
X031891Y017241D02*
X031716Y017241D01*
X030724Y017241D02*
X030567Y017241D01*
X030508Y016286D02*
X030514Y016286D01*
X030020Y016286D02*
X030020Y016286D01*
X030093Y015967D02*
X032062Y015967D01*
X032062Y015649D02*
X030280Y015649D01*
X030331Y015330D02*
X032108Y015330D01*
X032423Y015012D02*
X030365Y015012D01*
X030365Y014693D02*
X032905Y014693D01*
X032755Y014375D02*
X030360Y014375D01*
X030222Y013738D02*
X031435Y013738D01*
X031438Y013741D02*
X031402Y013705D01*
X031373Y013662D01*
X031353Y013615D01*
X031343Y013565D01*
X031343Y013342D01*
X031820Y013342D01*
X031820Y013342D01*
X032297Y013342D01*
X032297Y013565D01*
X032287Y013615D01*
X032267Y013662D01*
X032238Y013705D01*
X032202Y013741D01*
X032160Y013769D01*
X032112Y013789D01*
X032062Y013799D01*
X031820Y013799D01*
X031578Y013799D01*
X031528Y013789D01*
X031480Y013769D01*
X031438Y013741D01*
X031343Y013419D02*
X030541Y013419D01*
X030859Y013101D02*
X031347Y013101D01*
X031820Y013342D02*
X031820Y013799D01*
X031820Y013342D01*
X031820Y013342D01*
X031820Y013419D02*
X031820Y013419D01*
X031820Y013738D02*
X031820Y013738D01*
X032205Y013738D02*
X032486Y013738D01*
X032403Y013419D02*
X032297Y013419D01*
X032293Y013101D02*
X032403Y013101D01*
X032749Y014056D02*
X029602Y014056D01*
X029780Y013247D02*
X031820Y011207D01*
X034040Y011207D01*
X034871Y011207D01*
X034902Y011176D01*
X035233Y011508D02*
X040914Y011508D01*
X040896Y011190D02*
X040914Y011190D01*
X040506Y010982D02*
X040460Y011027D01*
X040506Y010982D02*
X040506Y010379D01*
X039852Y010234D02*
X037616Y010234D01*
X037616Y009989D02*
X037616Y010770D01*
X037574Y010872D01*
X037495Y010951D01*
X037392Y010994D01*
X036533Y010994D01*
X036430Y010951D01*
X036351Y010872D01*
X036308Y010770D01*
X036308Y010347D01*
X035846Y009886D01*
X035841Y009883D01*
X035785Y009824D01*
X035727Y009766D01*
X035725Y009760D01*
X035720Y009756D01*
X035691Y009680D01*
X035660Y009604D01*
X035660Y009598D01*
X035658Y009593D01*
X035660Y009511D01*
X035660Y009429D01*
X035662Y009424D01*
X035693Y008294D01*
X035478Y008170D01*
X035272Y007963D01*
X035126Y007710D01*
X035050Y007428D01*
X035050Y007136D01*
X035126Y006853D01*
X035272Y006600D01*
X035478Y006394D01*
X035732Y006247D01*
X036014Y006172D01*
X036306Y006172D01*
X036588Y006247D01*
X036842Y006394D01*
X037048Y006600D01*
X037194Y006853D01*
X037270Y007136D01*
X037270Y007428D01*
X037194Y007710D01*
X037048Y007963D01*
X036842Y008170D01*
X036588Y008316D01*
X036572Y008320D01*
X036545Y009340D01*
X036970Y009765D01*
X037392Y009765D01*
X037495Y009807D01*
X037574Y009886D01*
X037616Y009989D01*
X037586Y009916D02*
X039882Y009916D01*
X039852Y010553D02*
X037616Y010553D01*
X037574Y010871D02*
X039894Y010871D01*
X040051Y011190D02*
X035371Y011190D01*
X035261Y010871D02*
X036351Y010871D01*
X036308Y010553D02*
X035189Y010553D01*
X035371Y010234D02*
X036195Y010234D01*
X035877Y009916D02*
X035302Y009916D01*
X035255Y009597D02*
X035660Y009597D01*
X035666Y009279D02*
X035371Y009279D01*
X035371Y008960D02*
X035675Y008960D01*
X035683Y008642D02*
X030575Y008642D01*
X030320Y008960D02*
X034433Y008960D01*
X034136Y009279D02*
X030888Y009279D01*
X031376Y009597D02*
X031417Y009597D01*
X031140Y010219D02*
X031120Y010227D01*
X031037Y010227D01*
X031037Y010402D01*
X030560Y010402D01*
X030560Y010402D01*
X030560Y011027D01*
X030560Y010859D02*
X030333Y010859D01*
X030365Y010937D01*
X030365Y011490D01*
X031140Y010715D01*
X031140Y010219D01*
X031140Y010234D02*
X031037Y010234D01*
X031037Y010402D02*
X031037Y010625D01*
X031027Y010675D01*
X031007Y010722D01*
X030978Y010765D01*
X030942Y010801D01*
X030900Y010829D01*
X030852Y010849D01*
X030802Y010859D01*
X030560Y010859D01*
X030560Y010402D01*
X031037Y010402D01*
X031037Y010553D02*
X031140Y010553D01*
X030983Y010871D02*
X030338Y010871D01*
X030560Y010859D02*
X030560Y010402D01*
X030560Y010402D01*
X030560Y010553D02*
X030560Y010553D01*
X030665Y011190D02*
X030365Y011190D01*
X029832Y012022D02*
X029779Y012022D01*
X029710Y011994D01*
X029641Y012022D01*
X029279Y012022D01*
X029210Y011994D01*
X029141Y012022D01*
X028779Y012022D01*
X028710Y011994D01*
X028641Y012022D01*
X028279Y012022D01*
X028210Y011994D01*
X028141Y012022D01*
X027800Y012022D01*
X027800Y012051D01*
X027840Y012148D01*
X027840Y012307D01*
X027782Y012447D01*
X029407Y012447D01*
X029832Y012022D01*
X029709Y012145D02*
X027839Y012145D01*
X026060Y012145D02*
X025531Y012145D01*
X025551Y012166D02*
X025551Y012166D01*
X026060Y011827D02*
X024833Y011827D01*
X024845Y011508D02*
X026055Y011508D01*
X026055Y011190D02*
X024845Y011190D01*
X024847Y010871D02*
X024818Y010871D01*
X025593Y010871D02*
X026082Y010871D01*
X026063Y010553D02*
X025709Y010553D01*
X025717Y010234D02*
X026063Y010234D01*
X026063Y010342D02*
X026540Y010342D01*
X026540Y010342D01*
X026505Y010342D01*
X025340Y011507D01*
X026063Y010342D02*
X026540Y010342D01*
X026043Y009916D02*
X025696Y009916D01*
X026000Y009802D02*
X026000Y007967D01*
X027980Y005987D01*
X028843Y005987D01*
X028942Y005888D01*
X028404Y005888D01*
X028942Y005888D01*
X028942Y005888D01*
X028942Y005205D01*
X029000Y005147D01*
X029245Y005147D01*
X029285Y005187D01*
X029285Y004650D01*
X029285Y005187D01*
X029285Y005187D01*
X028747Y005187D01*
X029285Y005187D01*
X029285Y005187D01*
X029285Y005138D02*
X029285Y005138D01*
X029285Y004820D02*
X029285Y004820D01*
X028892Y004820D02*
X028488Y004820D01*
X028685Y004501D02*
X031955Y004501D01*
X031900Y004183D02*
X028740Y004183D01*
X028682Y003864D02*
X031958Y003864D01*
X032161Y003546D02*
X028479Y003546D01*
X027161Y003546D02*
X026579Y003546D01*
X026747Y003864D02*
X026958Y003864D01*
X026900Y004183D02*
X026780Y004183D01*
X026701Y004501D02*
X026955Y004501D01*
X027152Y004820D02*
X026468Y004820D01*
X025252Y004820D02*
X025198Y004820D01*
X025280Y005138D02*
X028748Y005138D01*
X028621Y005457D02*
X025181Y005457D01*
X024937Y005775D02*
X028416Y005775D01*
X028444Y006094D02*
X024873Y006094D01*
X024350Y006412D02*
X028816Y006412D01*
X028942Y006412D02*
X028942Y006412D01*
X028942Y006426D02*
X028942Y005888D01*
X028942Y005888D01*
X028942Y006426D01*
X029068Y006412D02*
X029381Y006412D01*
X029381Y006731D02*
X024493Y006731D01*
X024773Y007049D02*
X029381Y007049D01*
X029381Y007368D02*
X024800Y007368D01*
X024800Y007686D02*
X029132Y007686D01*
X028813Y008005D02*
X024800Y008005D01*
X024800Y008323D02*
X028580Y008323D01*
X028580Y008642D02*
X024800Y008642D01*
X024800Y008960D02*
X025088Y008960D01*
X025832Y008960D02*
X028580Y008960D01*
X028580Y009279D02*
X028096Y009279D01*
X028177Y009597D02*
X028580Y009597D01*
X028580Y009916D02*
X028177Y009916D01*
X028177Y010234D02*
X028580Y010234D01*
X028580Y010553D02*
X028177Y010553D01*
X027264Y009279D02*
X026956Y009279D01*
X026124Y009279D02*
X025822Y009279D01*
X025780Y009597D02*
X026043Y009597D01*
X023080Y009183D02*
X023080Y007897D01*
X022556Y007373D01*
X022455Y007271D01*
X022420Y007187D01*
X022420Y007995D01*
X022353Y008157D01*
X022229Y008280D01*
X021374Y009136D01*
X021832Y009136D01*
X021935Y009179D01*
X022014Y009257D01*
X022029Y009293D01*
X022231Y009293D01*
X022246Y009257D01*
X022325Y009179D01*
X022428Y009136D01*
X022972Y009136D01*
X023075Y009179D01*
X023080Y009183D01*
X023080Y008960D02*
X021549Y008960D01*
X021868Y008642D02*
X023080Y008642D01*
X023080Y008323D02*
X022186Y008323D01*
X022416Y008005D02*
X023080Y008005D01*
X022870Y007686D02*
X022420Y007686D01*
X022420Y007368D02*
X022551Y007368D01*
X021980Y007907D02*
X021980Y006190D01*
X021982Y005828D01*
X021982Y005470D01*
X022325Y005127D01*
X021848Y004820D02*
X021468Y004820D01*
X021691Y005138D02*
X020203Y005138D01*
X020220Y005457D02*
X021542Y005457D01*
X021424Y005775D02*
X020067Y005775D01*
X018927Y005775D02*
X018892Y005775D01*
X018909Y006094D02*
X021489Y006094D01*
X021540Y006412D02*
X018950Y006412D01*
X018877Y006731D02*
X018825Y006731D01*
X018375Y008005D02*
X018375Y008005D01*
X018375Y008323D02*
X018375Y008323D01*
X018712Y008323D02*
X018816Y008323D01*
X019038Y008642D02*
X018171Y008642D01*
X018038Y008323D02*
X017934Y008323D01*
X017749Y008642D02*
X017712Y008642D01*
X017534Y008960D02*
X017039Y008960D01*
X017624Y009916D02*
X016400Y009916D01*
X016322Y010234D02*
X019160Y010234D01*
X019158Y009916D02*
X018416Y009916D01*
X018356Y009597D02*
X019154Y009597D01*
X019151Y009279D02*
X018266Y009279D01*
X018360Y008960D02*
X019147Y008960D01*
X019878Y009916D02*
X020073Y009916D01*
X020287Y009916D02*
X020460Y009916D01*
X020460Y010234D02*
X019880Y010234D01*
X019880Y010553D02*
X020212Y010553D01*
X019984Y010871D02*
X019645Y010871D01*
X019980Y011190D02*
X018991Y011190D01*
X018385Y011190D02*
X013790Y011190D01*
X013720Y011508D02*
X019980Y011508D01*
X019980Y011827D02*
X018869Y011827D01*
X019116Y012145D02*
X019980Y012145D01*
X019980Y012464D02*
X019184Y012464D01*
X019116Y012782D02*
X019980Y012782D01*
X019980Y013101D02*
X018870Y013101D01*
X018071Y013419D02*
X020150Y013419D01*
X020420Y013067D02*
X020420Y010967D01*
X020900Y010487D01*
X020900Y008987D01*
X021980Y007907D01*
X021540Y007686D02*
X020500Y007686D01*
X020500Y007368D02*
X021540Y007368D01*
X021540Y007049D02*
X020494Y007049D01*
X020236Y006731D02*
X021540Y006731D01*
X022760Y006209D02*
X022760Y005849D01*
X022781Y005828D01*
X021982Y005828D02*
X021982Y005830D01*
X021701Y004501D02*
X025019Y004501D01*
X024940Y004183D02*
X021780Y004183D01*
X021747Y003864D02*
X024973Y003864D01*
X025141Y003546D02*
X021579Y003546D01*
X020141Y003546D02*
X015789Y003546D01*
X020016Y004820D02*
X020252Y004820D01*
X020500Y008005D02*
X021260Y008005D01*
X020942Y008323D02*
X020500Y008323D01*
X020500Y008642D02*
X020598Y008642D01*
X022023Y009279D02*
X022237Y009279D01*
X022280Y012022D02*
X022280Y012111D01*
X022320Y012208D01*
X022320Y012367D01*
X022259Y012514D01*
X022147Y012627D01*
X022000Y012687D01*
X022000Y012695D01*
X022173Y012867D01*
X022927Y012867D01*
X023389Y012406D01*
X023479Y012316D01*
X023596Y012267D01*
X023640Y012267D01*
X023640Y012014D01*
X023621Y012022D01*
X023259Y012022D01*
X023190Y011994D01*
X023121Y012022D01*
X022759Y012022D01*
X022690Y011994D01*
X022621Y012022D01*
X022280Y012022D01*
X022294Y012145D02*
X023640Y012145D01*
X023331Y012464D02*
X022280Y012464D01*
X022088Y012782D02*
X023012Y012782D01*
X023900Y013067D02*
X024140Y013067D01*
X024320Y013247D01*
X029780Y013247D01*
X026720Y013727D02*
X021080Y013727D01*
X020420Y013067D01*
X017938Y011827D02*
X013720Y011827D01*
X013720Y012145D02*
X014597Y012145D01*
X014843Y012145D02*
X017691Y012145D01*
X017543Y010871D02*
X015685Y010871D01*
X016004Y010553D02*
X017543Y010553D01*
X018019Y010553D02*
X018019Y010553D01*
X018019Y010871D02*
X018019Y010871D01*
X015680Y009858D02*
X015680Y008797D01*
X014200Y008797D01*
X014200Y009591D01*
X014151Y009709D01*
X013433Y010427D01*
X015111Y010427D01*
X015680Y009858D01*
X015622Y009916D02*
X013944Y009916D01*
X014197Y009597D02*
X015680Y009597D01*
X015680Y009279D02*
X014200Y009279D01*
X014200Y008960D02*
X015680Y008960D01*
X015304Y010234D02*
X013626Y010234D01*
X012697Y009597D02*
X011932Y009597D01*
X011912Y009916D02*
X012379Y009916D01*
X012060Y010234D02*
X011703Y010234D01*
X011742Y010553D02*
X009947Y010553D01*
X009947Y010871D02*
X011423Y010871D01*
X011105Y011190D02*
X009943Y011190D01*
X009019Y011190D02*
X008781Y011190D01*
X008786Y011166D02*
X008776Y011216D01*
X008756Y011264D01*
X008728Y011306D01*
X008692Y011342D01*
X008649Y011371D01*
X008602Y011390D01*
X008552Y011400D01*
X008319Y011400D01*
X008319Y010707D01*
X008319Y010707D01*
X008319Y010707D01*
X008786Y010707D01*
X008786Y011166D01*
X008786Y010871D02*
X009014Y010871D01*
X008319Y010871D02*
X008319Y010871D01*
X008319Y010553D02*
X008319Y010553D01*
X008319Y010234D02*
X008319Y010234D01*
X008319Y011190D02*
X008319Y011190D01*
X009086Y011827D02*
X007440Y011827D01*
X007440Y012145D02*
X009063Y012145D01*
X009096Y012464D02*
X007440Y012464D01*
X007440Y012782D02*
X009063Y012782D01*
X011440Y012782D02*
X011720Y012782D01*
X011720Y012516D02*
X011775Y012383D01*
X012740Y011418D01*
X012740Y011120D01*
X011440Y012420D01*
X011440Y013147D01*
X011720Y013147D01*
X011720Y012516D01*
X011741Y012464D02*
X011440Y012464D01*
X011715Y012145D02*
X012013Y012145D01*
X012033Y011827D02*
X012331Y011827D01*
X012352Y011508D02*
X012650Y011508D01*
X012670Y011190D02*
X012740Y011190D01*
X010777Y010234D02*
X009945Y010234D01*
X009280Y008960D02*
X013230Y008960D01*
X013230Y008642D02*
X013201Y008642D01*
X013230Y008323D02*
X013230Y008323D01*
X013230Y008005D02*
X013230Y008005D01*
X013016Y009279D02*
X011797Y009279D01*
X011720Y013101D02*
X011440Y013101D01*
X021260Y015472D02*
X021260Y017715D01*
X021620Y017355D01*
X021620Y015472D01*
X021260Y015472D01*
X021260Y015649D02*
X021620Y015649D01*
X021620Y015967D02*
X021260Y015967D01*
X021260Y016286D02*
X021620Y016286D01*
X021620Y016604D02*
X021260Y016604D01*
X021260Y016923D02*
X021620Y016923D01*
X021620Y017241D02*
X021260Y017241D01*
X021260Y017560D02*
X021415Y017560D01*
X022260Y016955D02*
X023120Y016095D01*
X023120Y015472D01*
X022759Y015472D01*
X022690Y015444D01*
X022621Y015472D01*
X022260Y015472D01*
X022260Y016955D01*
X022260Y016923D02*
X022292Y016923D01*
X022260Y016604D02*
X022610Y016604D01*
X022929Y016286D02*
X022260Y016286D01*
X022260Y015967D02*
X023120Y015967D01*
X023120Y015649D02*
X022260Y015649D01*
X024079Y017241D02*
X027440Y017241D01*
X027340Y017560D02*
X026368Y017560D01*
X026350Y017553D02*
X026453Y017595D01*
X026532Y017674D01*
X026575Y017777D01*
X026575Y018467D01*
X026532Y018570D01*
X026453Y018649D01*
X026350Y018691D01*
X025739Y018691D01*
X025636Y018649D01*
X025557Y018570D01*
X025548Y018547D01*
X025132Y018547D01*
X024971Y018480D01*
X024847Y018357D01*
X024780Y018195D01*
X024780Y018020D01*
X024847Y017858D01*
X024971Y017734D01*
X025132Y017667D01*
X025564Y017667D01*
X025636Y017595D01*
X025739Y017553D01*
X026350Y017553D01*
X026575Y017878D02*
X027207Y017878D01*
X027207Y018197D02*
X026575Y018197D01*
X026555Y018515D02*
X027227Y018515D01*
X027540Y018834D02*
X025610Y018834D01*
X025055Y018515D02*
X022805Y018515D01*
X023123Y018197D02*
X024781Y018197D01*
X024839Y017878D02*
X023442Y017878D01*
X023760Y017560D02*
X025721Y017560D01*
X026030Y018107D02*
X025220Y018107D01*
X026030Y018107D02*
X026045Y018122D01*
X026410Y019152D02*
X027372Y019152D01*
X027207Y019471D02*
X026575Y019471D01*
X026575Y019789D02*
X027207Y019789D01*
X027235Y020108D02*
X026547Y020108D01*
X026020Y020426D02*
X027297Y020426D01*
X027415Y020745D02*
X026020Y020745D01*
X026020Y021063D02*
X027734Y021063D01*
X028368Y021860D02*
X028368Y023335D01*
X027773Y023293D02*
X027543Y023293D01*
X027505Y023611D02*
X027838Y023611D01*
X028248Y023930D02*
X022937Y023930D01*
X023128Y024248D02*
X040914Y024248D01*
X040914Y023930D02*
X028487Y023930D01*
X028897Y023611D02*
X030481Y023611D01*
X030485Y023620D02*
X030466Y023573D01*
X030456Y023523D01*
X030456Y023247D01*
X030456Y022971D01*
X030466Y022921D01*
X030485Y022874D01*
X030514Y022831D01*
X030550Y022795D01*
X030592Y022767D01*
X030640Y022747D01*
X030690Y022737D01*
X031005Y022737D01*
X031320Y022737D01*
X031370Y022747D01*
X031417Y022767D01*
X031460Y022795D01*
X031496Y022831D01*
X031525Y022874D01*
X031544Y022921D01*
X031554Y022971D01*
X031554Y023247D01*
X031005Y023247D01*
X031005Y023247D01*
X031005Y022737D01*
X031005Y023247D01*
X031005Y023247D01*
X031554Y023247D01*
X031554Y023523D01*
X031544Y023573D01*
X031525Y023620D01*
X031496Y023663D01*
X031460Y023699D01*
X031417Y023727D01*
X031370Y023747D01*
X031320Y023757D01*
X031005Y023757D01*
X031005Y023247D01*
X031100Y023342D01*
X031100Y024167D01*
X031760Y024827D01*
X031760Y025327D01*
X031760Y024752D01*
X031760Y025327D01*
X031760Y025327D01*
X031760Y025327D01*
X032335Y025327D01*
X032335Y025089D01*
X031998Y024752D01*
X031760Y024752D01*
X031522Y024752D01*
X031185Y025089D01*
X031185Y025327D01*
X031760Y025327D01*
X031760Y025327D01*
X032335Y025327D01*
X032335Y025566D01*
X032133Y025767D01*
X032244Y025767D01*
X032361Y025816D01*
X032451Y025906D01*
X032853Y026307D01*
X034453Y026307D01*
X034453Y026176D01*
X034453Y025961D01*
X034463Y025911D01*
X034483Y025864D01*
X034511Y025821D01*
X034548Y025785D01*
X034590Y025757D01*
X034638Y025737D01*
X034688Y025727D01*
X034902Y025727D01*
X034902Y026176D01*
X034453Y026176D01*
X034902Y026176D01*
X034902Y026176D01*
X034902Y026176D01*
X034902Y024925D01*
X036980Y022847D01*
X036980Y022247D01*
X036920Y022187D01*
X036920Y017027D01*
X036520Y016923D02*
X040914Y016923D01*
X040914Y017241D02*
X036520Y017241D01*
X036520Y017560D02*
X040914Y017560D01*
X040914Y017878D02*
X036520Y017878D01*
X036520Y018197D02*
X040914Y018197D01*
X040914Y018515D02*
X036520Y018515D01*
X036520Y018834D02*
X040914Y018834D01*
X040914Y019152D02*
X036520Y019152D01*
X036520Y019471D02*
X040914Y019471D01*
X040914Y019789D02*
X036520Y019789D01*
X036520Y020108D02*
X040914Y020108D01*
X040914Y020426D02*
X036520Y020426D01*
X036520Y020745D02*
X040914Y020745D01*
X040914Y021063D02*
X036520Y021063D01*
X036520Y021382D02*
X040914Y021382D01*
X040914Y021700D02*
X036520Y021700D01*
X036520Y022019D02*
X040914Y022019D01*
X040914Y022337D02*
X036469Y022337D01*
X036174Y022656D02*
X040914Y022656D01*
X040914Y022974D02*
X035855Y022974D01*
X035537Y023293D02*
X040914Y023293D01*
X040914Y023611D02*
X031528Y023611D01*
X031580Y023567D02*
X031260Y023247D01*
X031005Y023247D01*
X031005Y023247D01*
X030456Y023247D01*
X031005Y023247D01*
X031005Y023247D01*
X031005Y023757D01*
X030690Y023757D01*
X030640Y023747D01*
X030592Y023727D01*
X030550Y023699D01*
X030514Y023663D01*
X030485Y023620D01*
X030456Y023293D02*
X028963Y023293D01*
X028848Y022974D02*
X030456Y022974D01*
X031005Y022974D02*
X031005Y022974D01*
X031005Y023293D02*
X031005Y023293D01*
X031005Y023611D02*
X031005Y023611D01*
X031554Y023293D02*
X033396Y023293D01*
X033692Y022967D02*
X033029Y022304D01*
X033692Y022967D02*
X035240Y022967D01*
X036080Y022127D01*
X036080Y015527D01*
X035720Y015167D01*
X033895Y015167D01*
X033642Y014671D02*
X034147Y014671D01*
X034250Y014713D01*
X034264Y014727D01*
X035808Y014727D01*
X035969Y014794D01*
X036329Y015154D01*
X036475Y015330D02*
X040914Y015330D01*
X040914Y015649D02*
X036520Y015649D01*
X036520Y015967D02*
X040914Y015967D01*
X040914Y016286D02*
X036520Y016286D01*
X036520Y016604D02*
X040914Y016604D01*
X036962Y013745D02*
X036620Y014087D01*
X036962Y013745D02*
X036962Y012387D01*
X036860Y012285D01*
X036860Y011687D01*
X036955Y011792D02*
X036563Y011792D01*
X036513Y011802D01*
X036465Y011822D01*
X036423Y011850D01*
X036386Y011887D01*
X036358Y011929D01*
X036338Y011977D01*
X036328Y012027D01*
X036328Y012380D01*
X036955Y012380D01*
X036955Y012394D01*
X036328Y012394D01*
X036328Y012747D01*
X036338Y012798D01*
X036358Y012845D01*
X036386Y012887D01*
X036423Y012924D01*
X036465Y012952D01*
X036513Y012972D01*
X036563Y012982D01*
X036955Y012982D01*
X036955Y012394D01*
X036970Y012394D01*
X037596Y012394D01*
X037596Y012747D01*
X037586Y012798D01*
X037567Y012845D01*
X037538Y012887D01*
X037502Y012924D01*
X037460Y012952D01*
X037412Y012972D01*
X037362Y012982D01*
X036970Y012982D01*
X036970Y012394D01*
X036970Y012380D01*
X037596Y012380D01*
X037596Y012027D01*
X037586Y011977D01*
X037567Y011929D01*
X037538Y011887D01*
X037502Y011850D01*
X037460Y011822D01*
X037412Y011802D01*
X037362Y011792D01*
X036970Y011792D01*
X036970Y012380D01*
X036955Y012380D01*
X036955Y011792D01*
X036955Y011827D02*
X036970Y011827D01*
X036955Y012145D02*
X036970Y012145D01*
X036962Y012387D02*
X037360Y012387D01*
X038060Y011687D01*
X038060Y007127D01*
X038180Y007247D01*
X039200Y007247D01*
X039560Y006887D01*
X039560Y005687D01*
X038840Y004967D01*
X036306Y004967D01*
X036160Y004821D01*
X036276Y004820D02*
X039042Y004820D01*
X039042Y004819D02*
X039051Y004786D01*
X039054Y004752D01*
X039066Y004728D01*
X039067Y004726D01*
X039068Y004699D01*
X039082Y004668D01*
X039091Y004635D01*
X039108Y004614D01*
X039109Y004612D01*
X039114Y004585D01*
X039134Y004557D01*
X039148Y004527D01*
X039168Y004508D01*
X039169Y004507D01*
X039180Y004482D01*
X039204Y004458D01*
X039223Y004430D01*
X039246Y004415D01*
X039248Y004414D01*
X039262Y004391D01*
X039290Y004371D01*
X039314Y004347D01*
X039339Y004337D01*
X039341Y004336D01*
X039359Y004316D01*
X039390Y004301D01*
X039418Y004282D01*
X039445Y004276D01*
X039446Y004275D01*
X039468Y004259D01*
X039501Y004250D01*
X039531Y004235D01*
X039559Y004234D01*
X039560Y004234D01*
X039585Y004221D01*
X039618Y004218D01*
X039651Y004209D01*
X039678Y004213D01*
X039680Y004213D01*
X039706Y004205D01*
X039740Y004208D01*
X039774Y004205D01*
X039800Y004213D01*
X039802Y004213D01*
X039829Y004209D01*
X039862Y004218D01*
X039895Y004221D01*
X039920Y004234D01*
X039921Y004234D01*
X039949Y004235D01*
X039979Y004250D01*
X040012Y004259D01*
X040034Y004275D01*
X040035Y004276D01*
X040062Y004282D01*
X040090Y004301D01*
X040121Y004316D01*
X040139Y004336D01*
X040141Y004337D01*
X040166Y004347D01*
X040190Y004371D01*
X040218Y004391D01*
X040232Y004414D01*
X040234Y004415D01*
X040257Y004430D01*
X040276Y004458D01*
X040300Y004482D01*
X040311Y004507D01*
X040312Y004508D01*
X040332Y004527D01*
X040346Y004557D01*
X040366Y004585D01*
X040371Y004612D01*
X040372Y004614D01*
X040389Y004635D01*
X040398Y004668D01*
X040412Y004699D01*
X040413Y004726D01*
X040414Y004728D01*
X040426Y004752D01*
X040429Y004786D01*
X040438Y004819D01*
X040434Y004846D01*
X040435Y004848D01*
X040443Y004874D01*
X040440Y004907D01*
X040443Y004941D01*
X040435Y004967D01*
X040434Y004969D01*
X040438Y004996D01*
X040429Y005029D01*
X040426Y005063D01*
X040414Y005087D01*
X040413Y005089D01*
X040412Y005116D01*
X040398Y005147D01*
X040389Y005180D01*
X040372Y005201D01*
X040371Y005203D01*
X040366Y005229D01*
X040346Y005257D01*
X040332Y005288D01*
X040312Y005307D01*
X040311Y005308D01*
X040300Y005333D01*
X040276Y005357D01*
X040257Y005385D01*
X040234Y005400D01*
X040232Y005401D01*
X040218Y005424D01*
X040190Y005444D01*
X040166Y005468D01*
X040141Y005478D01*
X040139Y005479D01*
X040121Y005499D01*
X040090Y005514D01*
X040062Y005533D01*
X040035Y005539D01*
X040034Y005540D01*
X040012Y005556D01*
X039979Y005565D01*
X039949Y005579D01*
X039921Y005581D01*
X039920Y005581D01*
X039895Y005594D01*
X039862Y005597D01*
X039829Y005605D01*
X039802Y005602D01*
X039800Y005602D01*
X039774Y005610D01*
X039740Y005607D01*
X039706Y005610D01*
X039680Y005602D01*
X039678Y005602D01*
X039651Y005605D01*
X039618Y005597D01*
X039585Y005594D01*
X039560Y005581D01*
X039559Y005581D01*
X039531Y005579D01*
X039501Y005565D01*
X039468Y005556D01*
X039446Y005540D01*
X039445Y005539D01*
X039418Y005533D01*
X039390Y005514D01*
X039359Y005499D01*
X039341Y005479D01*
X039339Y005478D01*
X039314Y005468D01*
X039290Y005444D01*
X039262Y005424D01*
X039248Y005401D01*
X039246Y005400D01*
X039223Y005385D01*
X039204Y005357D01*
X039180Y005333D01*
X039169Y005308D01*
X039168Y005307D01*
X039148Y005288D01*
X039134Y005257D01*
X039114Y005229D01*
X039109Y005203D01*
X039108Y005201D01*
X039091Y005180D01*
X039082Y005147D01*
X039068Y005116D01*
X039067Y005089D01*
X039066Y005087D01*
X039054Y005063D01*
X039051Y005029D01*
X039042Y004996D01*
X039046Y004969D01*
X039045Y004967D01*
X039037Y004941D01*
X039040Y004907D01*
X039037Y004874D01*
X039045Y004848D01*
X039046Y004846D01*
X039042Y004819D01*
X039078Y005138D02*
X037120Y005138D01*
X037133Y005101D02*
X037096Y005209D01*
X037046Y005311D01*
X036986Y005407D01*
X036915Y005496D01*
X036835Y005576D01*
X036746Y005647D01*
X036650Y005708D01*
X036548Y005757D01*
X036440Y005794D01*
X036330Y005820D01*
X036276Y005826D01*
X036276Y004937D01*
X037165Y004937D01*
X037158Y004991D01*
X037133Y005101D01*
X037375Y005405D02*
X037464Y005334D01*
X037560Y005273D01*
X037662Y005224D01*
X037769Y005186D01*
X037880Y005161D01*
X037934Y005155D01*
X037934Y006044D01*
X037045Y006044D01*
X037051Y005990D01*
X037077Y005879D01*
X037114Y005772D01*
X037163Y005670D01*
X037224Y005574D01*
X037295Y005485D01*
X037375Y005405D01*
X037323Y005457D02*
X036946Y005457D01*
X037113Y005775D02*
X036494Y005775D01*
X036276Y005775D02*
X036044Y005775D01*
X036044Y005826D02*
X035990Y005820D01*
X035880Y005794D01*
X035772Y005757D01*
X035670Y005708D01*
X035574Y005647D01*
X035485Y005576D01*
X035405Y005496D01*
X035334Y005407D01*
X035274Y005311D01*
X035224Y005209D01*
X035187Y005101D01*
X035162Y004991D01*
X035155Y004937D01*
X036044Y004937D01*
X036044Y004706D01*
X035155Y004706D01*
X035162Y004651D01*
X035187Y004541D01*
X035224Y004434D01*
X035274Y004331D01*
X035334Y004235D01*
X035405Y004146D01*
X035485Y004066D01*
X035574Y003995D01*
X035670Y003935D01*
X035772Y003885D01*
X035880Y003848D01*
X035990Y003823D01*
X036044Y003817D01*
X036044Y004706D01*
X036276Y004706D01*
X036276Y004937D01*
X036044Y004937D01*
X036044Y005826D01*
X035826Y005775D02*
X031896Y005775D01*
X031858Y006094D02*
X037934Y006094D01*
X037934Y006044D02*
X037934Y006275D01*
X037045Y006275D01*
X037051Y006329D01*
X037077Y006440D01*
X037114Y006547D01*
X037163Y006650D01*
X037224Y006746D01*
X037295Y006835D01*
X037375Y006915D01*
X037464Y006986D01*
X037560Y007046D01*
X037662Y007095D01*
X037769Y007133D01*
X037880Y007158D01*
X037934Y007164D01*
X037934Y006275D01*
X038165Y006275D01*
X038165Y007164D01*
X038219Y007158D01*
X038330Y007133D01*
X038437Y007095D01*
X038540Y007046D01*
X038636Y006986D01*
X038725Y006915D01*
X038805Y006835D01*
X038876Y006746D01*
X038936Y006650D01*
X038985Y006547D01*
X039023Y006440D01*
X039048Y006329D01*
X039054Y006275D01*
X038165Y006275D01*
X038165Y006044D01*
X038165Y005155D01*
X038219Y005161D01*
X038330Y005186D01*
X038437Y005224D01*
X038540Y005273D01*
X038636Y005334D01*
X038725Y005405D01*
X038805Y005485D01*
X038876Y005574D01*
X038936Y005670D01*
X038985Y005772D01*
X039023Y005879D01*
X039048Y005990D01*
X039054Y006044D01*
X038165Y006044D01*
X037934Y006044D01*
X038050Y006160D02*
X038060Y006830D01*
X038060Y007127D01*
X038165Y007049D02*
X037934Y007049D01*
X037934Y006731D02*
X038165Y006731D01*
X038165Y006412D02*
X037934Y006412D01*
X038165Y006094D02*
X040914Y006094D01*
X040914Y006412D02*
X039029Y006412D01*
X038885Y006731D02*
X040914Y006731D01*
X040914Y007049D02*
X038533Y007049D01*
X039126Y007450D02*
X038881Y007695D01*
X038749Y008015D01*
X038749Y008361D01*
X038881Y008681D01*
X039126Y008926D01*
X039446Y009059D01*
X039793Y009059D01*
X040112Y008926D01*
X040357Y008681D01*
X040490Y008361D01*
X040490Y008015D01*
X040357Y007695D01*
X040112Y007450D01*
X039793Y007317D01*
X039446Y007317D01*
X039126Y007450D01*
X039324Y007368D02*
X037270Y007368D01*
X037247Y007049D02*
X037567Y007049D01*
X037214Y006731D02*
X037124Y006731D01*
X037070Y006412D02*
X036860Y006412D01*
X037934Y005775D02*
X038165Y005775D01*
X038165Y005457D02*
X037934Y005457D01*
X038777Y005457D02*
X039304Y005457D01*
X038987Y005775D02*
X040914Y005775D01*
X040895Y005457D02*
X040176Y005457D01*
X040402Y005138D02*
X040823Y005138D01*
X040706Y004820D02*
X040438Y004820D01*
X040538Y004501D02*
X040308Y004501D01*
X040284Y004183D02*
X036944Y004183D01*
X036915Y004146D02*
X036986Y004235D01*
X037046Y004331D01*
X037096Y004434D01*
X037133Y004541D01*
X037158Y004651D01*
X037165Y004706D01*
X036276Y004706D01*
X036276Y003817D01*
X036330Y003823D01*
X036440Y003848D01*
X036548Y003885D01*
X036650Y003935D01*
X036746Y003995D01*
X036835Y004066D01*
X036915Y004146D01*
X037119Y004501D02*
X039172Y004501D01*
X039896Y003864D02*
X036488Y003864D01*
X036276Y003864D02*
X036044Y003864D01*
X035832Y003864D02*
X033682Y003864D01*
X033740Y004183D02*
X035376Y004183D01*
X035201Y004501D02*
X033685Y004501D01*
X033488Y004820D02*
X036044Y004820D01*
X036044Y005138D02*
X036276Y005138D01*
X036276Y005457D02*
X036044Y005457D01*
X035374Y005457D02*
X032174Y005457D01*
X032240Y005138D02*
X035200Y005138D01*
X036044Y004501D02*
X036276Y004501D01*
X036276Y004183D02*
X036044Y004183D01*
X033479Y003546D02*
X039050Y003546D01*
X035460Y006412D02*
X031531Y006412D01*
X031280Y006731D02*
X035196Y006731D01*
X035073Y007049D02*
X031280Y007049D01*
X031280Y007368D02*
X035050Y007368D01*
X035119Y007686D02*
X031280Y007686D01*
X031212Y008005D02*
X035314Y008005D01*
X035692Y008323D02*
X030893Y008323D01*
X028942Y006094D02*
X028942Y006094D01*
X032103Y004820D02*
X032152Y004820D01*
X036160Y007282D02*
X036100Y009517D01*
X036962Y010379D01*
X036803Y009597D02*
X040914Y009597D01*
X040914Y009279D02*
X036547Y009279D01*
X036555Y008960D02*
X039209Y008960D01*
X038865Y008642D02*
X036564Y008642D01*
X036572Y008323D02*
X038749Y008323D01*
X038753Y008005D02*
X037006Y008005D01*
X037201Y007686D02*
X038890Y007686D01*
X039914Y007368D02*
X040914Y007368D01*
X040914Y007686D02*
X040349Y007686D01*
X040486Y008005D02*
X040914Y008005D01*
X040914Y008323D02*
X040490Y008323D01*
X040374Y008642D02*
X040914Y008642D01*
X040914Y008960D02*
X040030Y008960D01*
X040001Y011827D02*
X037467Y011827D01*
X037596Y012145D02*
X039872Y012145D01*
X039872Y012464D02*
X037596Y012464D01*
X037589Y012782D02*
X039879Y012782D01*
X040498Y012145D02*
X040513Y012145D01*
X040498Y011827D02*
X040513Y011827D01*
X036970Y012464D02*
X036955Y012464D01*
X036955Y012782D02*
X036970Y012782D01*
X036335Y012782D02*
X034537Y012782D01*
X034115Y012145D02*
X034044Y012145D01*
X034071Y011827D02*
X034588Y011827D01*
X035216Y011827D02*
X036458Y011827D01*
X036328Y012145D02*
X035371Y012145D01*
X035278Y012464D02*
X036328Y012464D01*
X033895Y014056D02*
X033895Y014056D01*
X033895Y014087D02*
X033895Y014564D01*
X033672Y014564D01*
X033622Y014554D01*
X033584Y014538D01*
X033581Y014541D01*
X033545Y014556D01*
X033545Y014699D01*
X033560Y014705D01*
X033642Y014671D01*
X033588Y014693D02*
X033545Y014693D01*
X033895Y014375D02*
X033895Y014375D01*
X033895Y014087D02*
X033895Y014087D01*
X034264Y015607D02*
X034250Y015621D01*
X034147Y015664D01*
X033642Y015664D01*
X033560Y015630D01*
X033478Y015664D01*
X032973Y015664D01*
X032870Y015621D01*
X032794Y015546D01*
X032702Y015638D01*
X032702Y016078D01*
X032755Y016100D01*
X032857Y016202D01*
X032905Y016319D01*
X032973Y016291D01*
X033478Y016291D01*
X033581Y016333D01*
X033584Y016337D01*
X033622Y016321D01*
X033672Y016311D01*
X033895Y016311D01*
X034117Y016311D01*
X034167Y016321D01*
X034215Y016340D01*
X034257Y016369D01*
X034293Y016405D01*
X034322Y016448D01*
X034342Y016495D01*
X034351Y016545D01*
X034351Y016787D01*
X033895Y016787D01*
X033895Y016787D01*
X033895Y016311D01*
X033895Y016787D01*
X033895Y016787D01*
X034351Y016787D01*
X034351Y017030D01*
X034342Y017080D01*
X034322Y017127D01*
X034301Y017158D01*
X034320Y017165D01*
X034362Y017194D01*
X034398Y017230D01*
X034427Y017273D01*
X034447Y017320D01*
X034457Y017370D01*
X034457Y017593D01*
X034457Y017815D01*
X034447Y017865D01*
X034431Y017903D01*
X034434Y017907D01*
X034477Y018010D01*
X034477Y018515D01*
X034434Y018618D01*
X034355Y018696D01*
X034252Y018739D01*
X034215Y018739D01*
X034215Y019019D01*
X034250Y019033D01*
X034329Y019112D01*
X034371Y019215D01*
X034371Y019760D01*
X034329Y019863D01*
X034327Y019864D01*
X034369Y019882D01*
X034447Y019960D01*
X034490Y020063D01*
X034490Y021159D01*
X034447Y021262D01*
X034369Y021341D01*
X034266Y021383D01*
X031792Y021383D01*
X031689Y021341D01*
X031610Y021262D01*
X031594Y021222D01*
X031563Y021222D01*
X031574Y021248D01*
X031574Y021741D01*
X031610Y021653D01*
X031689Y021575D01*
X031792Y021532D01*
X034266Y021532D01*
X034369Y021575D01*
X034447Y021653D01*
X034490Y021756D01*
X034490Y022527D01*
X035058Y022527D01*
X035640Y021945D01*
X035640Y015710D01*
X035538Y015607D01*
X034264Y015607D01*
X034183Y015649D02*
X035579Y015649D01*
X035640Y015967D02*
X032702Y015967D01*
X032702Y015649D02*
X032937Y015649D01*
X033514Y015649D02*
X033606Y015649D01*
X032892Y016286D02*
X035640Y016286D01*
X035640Y016604D02*
X034351Y016604D01*
X034351Y016923D02*
X035640Y016923D01*
X035640Y017241D02*
X034406Y017241D01*
X034457Y017560D02*
X035640Y017560D01*
X035640Y017878D02*
X034441Y017878D01*
X034457Y017593D02*
X033980Y017593D01*
X033980Y017593D01*
X034457Y017593D01*
X034040Y017027D02*
X033980Y016967D01*
X034040Y017027D02*
X034880Y017027D01*
X034940Y016367D02*
X033860Y016367D01*
X033895Y016604D02*
X033895Y016604D01*
X034477Y018197D02*
X035640Y018197D01*
X035640Y018515D02*
X034476Y018515D01*
X034215Y018834D02*
X035640Y018834D01*
X035640Y019152D02*
X034345Y019152D01*
X034371Y019471D02*
X035640Y019471D01*
X035640Y019789D02*
X034359Y019789D01*
X034490Y020108D02*
X035640Y020108D01*
X035640Y020426D02*
X034490Y020426D01*
X034490Y020745D02*
X035640Y020745D01*
X035640Y021063D02*
X034490Y021063D01*
X034269Y021382D02*
X035640Y021382D01*
X035640Y021700D02*
X034467Y021700D01*
X034490Y022019D02*
X035566Y022019D01*
X035248Y022337D02*
X034490Y022337D01*
X035540Y023567D02*
X036920Y022187D01*
X035540Y023567D02*
X031580Y023567D01*
X031554Y022974D02*
X031630Y022974D01*
X031568Y022656D02*
X028808Y022656D01*
X028808Y022337D02*
X031568Y022337D01*
X031568Y022019D02*
X031475Y022019D01*
X031574Y021700D02*
X031591Y021700D01*
X031574Y021382D02*
X031789Y021382D01*
X031005Y021554D02*
X030227Y021554D01*
X030020Y021347D01*
X030020Y020842D01*
X029960Y020782D01*
X032858Y020782D01*
X033029Y020611D01*
X030534Y022019D02*
X028831Y022019D01*
X029149Y021700D02*
X029751Y021700D01*
X029771Y021720D02*
X029771Y021720D01*
X029580Y021382D02*
X029260Y021382D01*
X029305Y021063D02*
X029463Y021063D01*
X028323Y020108D02*
X028240Y020108D01*
X028267Y019789D02*
X028353Y019789D01*
X028420Y019471D02*
X028480Y019471D01*
X028426Y019152D02*
X028420Y019152D01*
X028369Y018197D02*
X028647Y018197D01*
X027220Y016923D02*
X026562Y016923D01*
X026575Y016604D02*
X027207Y016604D01*
X026045Y016547D02*
X026044Y016547D01*
X024740Y016547D01*
X024497Y016923D02*
X024397Y016923D01*
X024766Y015387D02*
X024907Y015387D01*
X024979Y015316D01*
X025096Y015267D01*
X026063Y015267D01*
X026055Y015248D01*
X026055Y014587D01*
X025113Y014587D01*
X025101Y014599D01*
X024984Y014647D01*
X024845Y014647D01*
X024845Y015248D01*
X024802Y015351D01*
X024766Y015387D01*
X024811Y015330D02*
X024964Y015330D01*
X024845Y015012D02*
X026055Y015012D01*
X026055Y014693D02*
X024845Y014693D01*
X024470Y018834D02*
X022486Y018834D01*
X022168Y019152D02*
X024285Y019152D01*
X024260Y019471D02*
X021849Y019471D01*
X024055Y019789D02*
X024371Y019789D01*
X024373Y020108D02*
X024790Y020108D01*
X024692Y020426D02*
X025140Y020426D01*
X025140Y020745D02*
X025010Y020745D01*
X024742Y021382D02*
X023288Y021382D01*
X023326Y021700D02*
X024947Y021700D01*
X025580Y022127D02*
X025580Y019907D01*
X025820Y019667D01*
X026015Y019667D01*
X026045Y019697D01*
X026516Y022974D02*
X022975Y022974D01*
X022867Y023293D02*
X026393Y023293D01*
X026393Y023335D02*
X026968Y023335D01*
X026968Y023335D01*
X026968Y023335D01*
X026393Y023335D01*
X026393Y023574D02*
X026730Y023910D01*
X026968Y023910D01*
X026968Y023335D01*
X026968Y023293D02*
X026968Y023293D01*
X026968Y023611D02*
X026968Y023611D01*
X026968Y022974D02*
X026968Y022974D01*
X027420Y022974D02*
X027887Y022974D01*
X024903Y024800D02*
X024903Y025115D01*
X024903Y025429D01*
X024566Y025767D01*
X031387Y025767D01*
X031185Y025566D01*
X031185Y025327D01*
X031760Y025327D01*
X031760Y025204D02*
X031760Y025204D01*
X031760Y024885D02*
X031760Y024885D01*
X032131Y024885D02*
X039030Y024885D01*
X038649Y025204D02*
X032335Y025204D01*
X032335Y025522D02*
X038456Y025522D01*
X038366Y025841D02*
X035306Y025841D01*
X035293Y025821D02*
X035322Y025864D01*
X035341Y025911D01*
X035351Y025961D01*
X035351Y026176D01*
X034902Y026176D01*
X034902Y025727D01*
X035117Y025727D01*
X035167Y025737D01*
X035214Y025757D01*
X035257Y025785D01*
X035293Y025821D01*
X035351Y026159D02*
X038355Y026159D01*
X038227Y026288D02*
X038339Y026401D01*
X038388Y026518D01*
X038415Y026507D01*
X038426Y026507D01*
X038418Y026478D02*
X038371Y026478D01*
X038227Y026288D02*
X038080Y026227D01*
X037920Y026227D01*
X037773Y026288D01*
X037754Y026307D01*
X035351Y026307D01*
X035351Y026176D01*
X034902Y026176D01*
X034902Y026176D01*
X034902Y026159D02*
X034902Y026159D01*
X034902Y025841D02*
X034902Y025841D01*
X034498Y025841D02*
X032386Y025841D01*
X032705Y026159D02*
X034453Y026159D01*
X032436Y026796D02*
X032355Y026796D01*
X031306Y027115D02*
X027890Y027115D01*
X027890Y027433D02*
X027710Y027433D01*
X027710Y027752D02*
X027890Y027752D01*
X027890Y026796D02*
X027710Y026796D01*
X027710Y026478D02*
X027890Y026478D01*
X028121Y026478D02*
X031219Y026478D01*
X031165Y026796D02*
X028463Y026796D01*
X027479Y026478D02*
X026914Y026478D01*
X024810Y025522D02*
X031185Y025522D01*
X031185Y025204D02*
X024903Y025204D01*
X024903Y025115D02*
X024143Y025115D01*
X024143Y025115D01*
X024143Y025115D01*
X024143Y024355D01*
X024458Y024355D01*
X024903Y024800D01*
X024903Y024885D02*
X031389Y024885D01*
X034579Y028516D02*
X034579Y028516D01*
X035740Y029344D02*
X036248Y029344D01*
X036170Y029663D02*
X035908Y029663D01*
X037252Y029344D02*
X038028Y029344D01*
X037950Y029663D02*
X037330Y029663D01*
X037330Y029981D02*
X037950Y029981D01*
X037950Y030300D02*
X037330Y030300D01*
X039110Y030300D02*
X039598Y030300D01*
X039110Y029981D02*
X040107Y029981D01*
X038093Y028070D02*
X037187Y028070D01*
X037330Y027752D02*
X037950Y027752D01*
X037950Y027433D02*
X037330Y027433D01*
X037330Y027115D02*
X037950Y027115D01*
X040592Y027115D02*
X040914Y027115D01*
X040914Y026796D02*
X040867Y026796D01*
X040914Y025204D02*
X040787Y025204D01*
X040914Y024885D02*
X040405Y024885D01*
X040914Y024567D02*
X024671Y024567D01*
X024143Y024567D02*
X024143Y024567D01*
X024143Y024885D02*
X024143Y024885D01*
X024143Y025115D02*
X024903Y025115D01*
X023616Y024567D02*
X023153Y024567D01*
X023036Y024885D02*
X023383Y024885D01*
X023383Y025204D02*
X022588Y025204D01*
X022490Y025204D02*
X022310Y025204D01*
X022212Y025204D02*
X021911Y025204D01*
X021911Y025522D02*
X023476Y025522D01*
X023471Y025787D02*
X020960Y025787D01*
X020765Y025982D01*
X020765Y026245D01*
X020765Y025930D01*
X020765Y025930D01*
X020765Y026245D01*
X020765Y026245D01*
X020668Y026148D01*
X019646Y026148D01*
X020261Y026148D01*
X020261Y026208D01*
X020309Y026208D01*
X020309Y026088D01*
X020261Y026088D01*
X020261Y026148D01*
X019646Y026148D01*
X019646Y026148D01*
X019646Y025648D02*
X020425Y025648D01*
X020765Y025307D01*
X020660Y025202D01*
X020660Y024647D01*
X021532Y023930D02*
X021863Y023930D01*
X022310Y023930D02*
X022490Y023930D01*
X022490Y024248D02*
X022310Y024248D01*
X022310Y024567D02*
X022490Y024567D01*
X022490Y024885D02*
X022310Y024885D01*
X021860Y026207D02*
X021472Y026207D01*
X021435Y026245D01*
X021860Y026207D02*
X021920Y026267D01*
X020765Y026159D02*
X020765Y026159D01*
X020309Y026159D02*
X020261Y026159D01*
X019860Y027148D02*
X019646Y027148D01*
X019860Y027148D02*
X020120Y027407D01*
X020635Y027407D01*
X020753Y027290D01*
X020954Y028389D02*
X024778Y028389D01*
X023763Y028707D02*
X021877Y028707D01*
X021951Y029026D02*
X023763Y029026D01*
X023763Y029344D02*
X022180Y029344D01*
X022180Y029663D02*
X023763Y029663D01*
X023897Y029981D02*
X022159Y029981D01*
X020620Y030267D02*
X020599Y030259D01*
X020397Y030057D01*
X020384Y030076D01*
X020348Y030112D01*
X020306Y030141D01*
X020258Y030160D01*
X020208Y030170D01*
X020104Y030170D01*
X020104Y029937D01*
X020104Y030170D01*
X019999Y030170D01*
X019949Y030160D01*
X019934Y030154D01*
X019920Y030160D01*
X019869Y030170D01*
X019765Y030170D01*
X019661Y030170D01*
X019628Y030164D01*
X019687Y030188D01*
X019766Y030267D01*
X020620Y030267D01*
X020104Y029981D02*
X020104Y029981D01*
X020104Y029937D02*
X020104Y029937D01*
X019765Y029937D02*
X019765Y029937D01*
X019765Y030170D01*
X019765Y029937D01*
X019765Y029981D02*
X019765Y029981D01*
X019093Y030367D02*
X015024Y030367D01*
X014896Y030367D01*
X014779Y030319D01*
X014502Y030042D01*
X014479Y030076D01*
X014443Y030112D01*
X014420Y030127D01*
X014500Y030127D01*
X014647Y030188D01*
X014759Y030301D01*
X014820Y030448D01*
X014820Y030506D01*
X019060Y030506D01*
X019060Y030448D01*
X019093Y030367D01*
X018063Y029727D02*
X018063Y029487D01*
X018060Y029487D01*
X017913Y029427D01*
X017834Y029347D01*
X016293Y029347D01*
X016221Y029419D01*
X016104Y029467D01*
X015997Y029467D01*
X015997Y029727D01*
X018063Y029727D01*
X018063Y029663D02*
X015997Y029663D01*
X014760Y030300D02*
X014758Y030300D01*
X014236Y030170D02*
X014198Y030170D01*
X014094Y030170D01*
X014044Y030160D01*
X014029Y030154D01*
X014014Y030160D01*
X013964Y030170D01*
X013860Y030170D01*
X013860Y029937D01*
X013860Y029937D01*
X013860Y030170D01*
X013755Y030170D01*
X013705Y030160D01*
X013658Y030141D01*
X013615Y030112D01*
X013579Y030076D01*
X013550Y030034D01*
X013531Y029986D01*
X013521Y029936D01*
X013521Y029767D01*
X013413Y029767D01*
X013131Y030049D01*
X013041Y030139D01*
X012924Y030187D01*
X012256Y030187D01*
X012139Y030139D01*
X011500Y029500D01*
X011500Y029723D01*
X011412Y029936D01*
X011249Y030099D01*
X011035Y030187D01*
X010805Y030187D01*
X010591Y030099D01*
X010428Y029936D01*
X010420Y029916D01*
X010412Y029936D01*
X010249Y030099D01*
X010035Y030187D01*
X009805Y030187D01*
X009591Y030099D01*
X009428Y029936D01*
X009420Y029916D01*
X009412Y029936D01*
X009249Y030099D01*
X009035Y030187D01*
X008805Y030187D01*
X008591Y030099D01*
X008428Y029936D01*
X008407Y029885D01*
X008399Y029901D01*
X008347Y029972D01*
X008285Y030035D01*
X008214Y030086D01*
X008135Y030126D01*
X008051Y030154D01*
X007964Y030167D01*
X007920Y030167D01*
X007876Y030167D01*
X007789Y030154D01*
X007705Y030126D01*
X007626Y030086D01*
X007555Y030035D01*
X007493Y029972D01*
X007441Y029901D01*
X007440Y029899D01*
X007440Y030506D01*
X007960Y030506D01*
X007960Y030448D01*
X008021Y030301D01*
X008133Y030188D01*
X008280Y030127D01*
X008440Y030127D01*
X008587Y030188D01*
X008666Y030267D01*
X014114Y030267D01*
X014193Y030188D01*
X014236Y030170D01*
X014198Y030170D02*
X014198Y029937D01*
X014198Y030170D01*
X014198Y029981D02*
X014198Y029981D01*
X014198Y029937D02*
X014198Y029937D01*
X013860Y029981D02*
X013860Y029981D01*
X013530Y029981D02*
X013199Y029981D01*
X011981Y029981D02*
X011366Y029981D01*
X011500Y029663D02*
X011663Y029663D01*
X010474Y029981D02*
X010366Y029981D01*
X009474Y029981D02*
X009366Y029981D01*
X008474Y029981D02*
X008338Y029981D01*
X007920Y029981D02*
X007920Y029981D01*
X007920Y030167D02*
X007920Y029307D01*
X007920Y029307D01*
X007920Y030167D01*
X008022Y030300D02*
X007440Y030300D01*
X007440Y029981D02*
X007502Y029981D01*
X007920Y029663D02*
X007920Y029663D01*
X007920Y029344D02*
X007920Y029344D01*
X009786Y024567D02*
X009934Y024567D01*
X010386Y024567D02*
X011055Y024567D01*
X010868Y024248D02*
X011595Y024248D01*
X012085Y024248D02*
X012845Y024248D01*
X012578Y023997D02*
X012578Y023321D01*
X012578Y023997D01*
X012578Y023930D02*
X012578Y023930D01*
X012578Y023611D02*
X012578Y023611D01*
X012578Y023321D02*
X012578Y023321D01*
X011078Y023321D02*
X011078Y023321D01*
X011078Y023997D01*
X011078Y023321D01*
X011078Y023611D02*
X011078Y023611D01*
X011078Y023930D02*
X011078Y023930D01*
X016115Y028387D02*
X016079Y028474D01*
X016075Y028478D01*
X016147Y028508D01*
X016166Y028527D01*
X018102Y028527D01*
X018106Y028517D01*
X018185Y028439D01*
X018288Y028396D01*
X018832Y028396D01*
X018898Y028423D01*
X018898Y028387D01*
X016115Y028387D01*
X016114Y028389D02*
X018898Y028389D01*
X017639Y025138D02*
X017639Y025059D01*
X017639Y025138D01*
X017639Y025138D01*
X017846Y023293D02*
X017846Y023293D01*
X018322Y023293D02*
X021693Y023293D01*
X021585Y022974D02*
X018322Y022974D01*
X018680Y022367D02*
X017929Y022367D01*
X017846Y022450D01*
X019014Y022656D02*
X021626Y022656D01*
X021878Y022337D02*
X019120Y022337D01*
X027877Y029026D02*
X027946Y029026D01*
X027877Y029344D02*
X029643Y029344D01*
X029643Y029663D02*
X027877Y029663D01*
X027743Y029981D02*
X029777Y029981D01*
X027017Y029981D02*
X026339Y029981D01*
X026338Y029986D02*
X026318Y030034D01*
X026290Y030076D01*
X026254Y030112D01*
X026211Y030141D01*
X026164Y030160D01*
X026113Y030170D01*
X026009Y030170D01*
X025905Y030170D01*
X025855Y030160D01*
X025840Y030154D01*
X025825Y030160D01*
X025775Y030170D01*
X025671Y030170D01*
X025671Y029937D01*
X025671Y029937D01*
X025671Y030170D01*
X025566Y030170D01*
X025516Y030160D01*
X025469Y030141D01*
X025426Y030112D01*
X025390Y030076D01*
X025361Y030034D01*
X025342Y029986D01*
X025332Y029936D01*
X025332Y029733D01*
X025671Y029733D01*
X025671Y029733D01*
X025671Y029981D02*
X025671Y029981D01*
X025341Y029981D02*
X024623Y029981D01*
X025157Y029663D02*
X025332Y029663D01*
X026009Y029733D02*
X026348Y029733D01*
X026348Y029936D01*
X026338Y029986D01*
X026348Y029663D02*
X026483Y029663D01*
X026009Y029937D02*
X026009Y030170D01*
X026009Y029937D01*
X026009Y029937D01*
X026009Y029981D02*
X026009Y029981D01*
X031114Y016286D02*
X031326Y016286D01*
X034071Y010553D02*
X034616Y010553D01*
X034433Y010234D02*
X034030Y010234D01*
D52*
X033595Y010607D02*
X033595Y010762D01*
X034040Y011207D01*
X033595Y011807D02*
X033560Y011842D01*
X033560Y012167D01*
X033055Y012673D01*
X032900Y012673D01*
X031820Y012673D01*
X031735Y012587D01*
X030920Y012587D01*
X029900Y013607D01*
X027440Y013607D01*
X026960Y014087D01*
X024800Y014087D01*
X024980Y014267D02*
X024920Y014327D01*
X024680Y014327D01*
X024560Y014207D01*
X024140Y014207D01*
X023960Y014387D01*
X023780Y014207D01*
X021560Y014207D01*
X021440Y014327D01*
X021320Y014207D01*
X020780Y014207D01*
X020600Y014387D01*
X020600Y015407D01*
X020720Y015527D01*
X020720Y018227D01*
X019880Y019067D01*
X017480Y019067D01*
X017360Y018947D01*
X017360Y018827D01*
X017300Y018767D01*
X016580Y018767D01*
X016400Y018947D01*
X016400Y019667D01*
X016280Y019787D01*
X014840Y019787D01*
X014660Y019607D01*
X014600Y019607D01*
X014480Y019487D01*
X014600Y019787D02*
X014000Y019787D01*
X013700Y020087D01*
X013700Y020327D01*
X013580Y020447D01*
X013411Y020818D02*
X013580Y020987D01*
X013580Y021986D01*
X013578Y021988D01*
X013100Y021966D02*
X013078Y021988D01*
X013100Y021966D02*
X013100Y021287D01*
X013291Y021097D01*
X013291Y020917D01*
X010580Y018206D01*
X010580Y014727D01*
X010100Y014387D02*
X010100Y015167D01*
X010400Y015467D01*
X010400Y018287D01*
X011180Y019067D01*
X011180Y019607D01*
X010940Y019847D01*
X008600Y019847D01*
X007760Y020087D02*
X009560Y020087D01*
X009767Y020294D01*
X010011Y020294D01*
X010044Y020327D01*
X010400Y020327D01*
X010760Y020687D01*
X010760Y021467D01*
X010578Y021649D01*
X010578Y021988D01*
X011078Y021988D02*
X011180Y021886D01*
X011180Y019607D01*
X011580Y019008D02*
X013389Y020818D01*
X013411Y020818D01*
X014060Y021167D02*
X014060Y021947D01*
X014078Y021988D01*
X014578Y021988D02*
X014600Y021947D01*
X014600Y021467D01*
X014720Y021347D01*
X014720Y021047D02*
X014180Y021047D01*
X014060Y021167D01*
X014480Y020627D02*
X014600Y020507D01*
X020360Y020507D01*
X024620Y016247D01*
X025400Y016247D01*
X025520Y016127D01*
X027440Y016127D01*
X027560Y016007D01*
X029600Y016007D01*
X029960Y015647D01*
X029960Y014817D01*
X029480Y014797D02*
X029480Y014387D01*
X029300Y014207D01*
X027200Y014207D01*
X026960Y014447D01*
X026780Y014267D01*
X024980Y014267D01*
X024440Y014817D02*
X024440Y015467D01*
X020120Y019787D01*
X016760Y019787D01*
X016640Y019667D01*
X016940Y019607D02*
X016640Y019307D01*
X016880Y019307D02*
X016880Y019127D01*
X016760Y019007D01*
X016700Y019007D01*
X016880Y019307D02*
X017000Y019427D01*
X020000Y019427D01*
X021940Y017487D01*
X021940Y014817D01*
X021440Y014817D02*
X021440Y014327D01*
X020940Y014817D02*
X020940Y018247D01*
X019940Y019247D01*
X017180Y019247D01*
X017120Y019187D01*
X017120Y019007D01*
X017720Y018587D02*
X011840Y018587D01*
X012020Y018767D02*
X011900Y018887D01*
X012020Y018767D02*
X015860Y018767D01*
X015860Y018827D01*
X016940Y019607D02*
X020060Y019607D01*
X023440Y016227D01*
X023440Y014817D01*
X023940Y014817D02*
X023960Y014797D01*
X023960Y014387D01*
X023120Y013367D02*
X023720Y012767D01*
X024440Y012767D01*
X024620Y012947D01*
X029600Y012947D01*
X031640Y010907D01*
X031640Y010067D01*
X031820Y009887D01*
X034614Y009887D01*
X034902Y010176D01*
X034160Y009707D02*
X031760Y009707D01*
X031460Y010007D01*
X031460Y010847D01*
X029540Y012767D01*
X025580Y012767D01*
X025460Y012647D01*
X025460Y012527D01*
X025280Y012347D01*
X024680Y012347D01*
X024620Y012407D01*
X024140Y012407D01*
X023960Y012227D01*
X023960Y011387D01*
X023940Y011367D01*
X023960Y011347D01*
X023960Y010907D01*
X023900Y010847D01*
X023900Y010282D01*
X023900Y009613D02*
X023900Y007607D01*
X023120Y006827D01*
X023990Y006527D02*
X023990Y005537D01*
X023923Y005470D01*
X023923Y005127D01*
X020180Y007127D02*
X020180Y009527D01*
X021440Y010402D02*
X021560Y010282D01*
X021440Y010402D02*
X021440Y011367D01*
X021500Y011427D01*
X021500Y012947D01*
X021920Y013367D01*
X023120Y013367D01*
X023060Y013187D02*
X023660Y012587D01*
X024800Y012587D01*
X023060Y013187D02*
X022040Y013187D01*
X021680Y012827D01*
X021680Y010907D01*
X021800Y010787D01*
X022160Y010787D01*
X022665Y010282D01*
X022700Y010282D01*
X022700Y009613D02*
X021560Y009613D01*
X020180Y007127D02*
X020000Y006947D01*
X019220Y006947D01*
X017960Y008987D02*
X017657Y009290D01*
X016760Y009290D01*
X017392Y009290D01*
X016880Y009467D02*
X018002Y009467D01*
X018020Y009486D01*
X018020Y009827D01*
X016880Y009467D02*
X016820Y009527D01*
X016640Y009527D01*
X016563Y009450D01*
X016563Y009290D01*
X013880Y009527D02*
X013880Y007713D01*
X014466Y007127D01*
X013550Y006216D02*
X013550Y009197D01*
X011120Y011627D01*
X010065Y011627D01*
X009560Y012133D01*
X009560Y012802D02*
X009560Y013707D01*
X009580Y013727D01*
X010040Y013967D02*
X010040Y013342D01*
X010580Y012802D01*
X010615Y012167D02*
X010580Y012133D01*
X010615Y012167D02*
X010820Y012167D01*
X013690Y009297D01*
X013690Y006158D01*
X013600Y006068D01*
X013600Y004911D01*
X013344Y004911D02*
X013344Y006010D01*
X013550Y006216D01*
X012860Y005687D02*
X012436Y005687D01*
X012398Y005650D01*
X012823Y005650D01*
X012860Y005687D01*
X013088Y005459D01*
X013088Y004911D01*
X012585Y004427D02*
X012025Y003867D01*
X012585Y004427D02*
X014720Y004427D01*
X015175Y003973D01*
X015175Y003867D01*
X015380Y004127D02*
X016400Y005147D01*
X016400Y006647D01*
X012694Y007127D02*
X011840Y007127D01*
X011720Y007007D01*
X011297Y006319D02*
X011240Y006262D01*
X011297Y006319D02*
X012398Y006319D01*
X011240Y005593D02*
X011240Y004907D01*
X013880Y009527D02*
X011120Y012287D01*
X011120Y013907D01*
X010820Y014207D01*
X010280Y014207D01*
X010100Y014387D01*
X010040Y013967D02*
X009580Y014427D01*
X009580Y014727D01*
X011580Y014727D02*
X011580Y019008D01*
X010040Y020807D02*
X009200Y020807D01*
X008900Y021107D01*
X009200Y021347D02*
X009560Y021347D01*
X009200Y021347D02*
X009080Y021467D01*
X009080Y021947D01*
X009078Y021988D01*
X008600Y021947D02*
X008578Y021988D01*
X008600Y021947D02*
X008600Y021407D01*
X008540Y021347D01*
X007640Y021347D01*
X007340Y021750D02*
X007578Y021988D01*
X007340Y022226D01*
X007340Y022907D01*
X007578Y023146D01*
X007578Y023321D01*
X007520Y023379D01*
X007520Y024107D01*
X007880Y024467D01*
X010940Y024467D01*
X011078Y024329D01*
X011078Y024167D01*
X011060Y024167D01*
X011078Y024167D02*
X012560Y024167D01*
X012560Y024227D01*
X012680Y024347D01*
X017078Y024347D01*
X017300Y024167D02*
X017078Y023946D01*
X017078Y023321D01*
X016580Y023323D02*
X016578Y023321D01*
X016580Y023323D02*
X016580Y024107D01*
X016160Y024047D02*
X016100Y023987D01*
X016100Y023343D01*
X016078Y023321D01*
X015620Y023363D02*
X015578Y023321D01*
X015620Y023363D02*
X015620Y023987D01*
X015200Y024107D02*
X015140Y024107D01*
X015080Y024047D01*
X015080Y023323D01*
X015078Y023321D01*
X014578Y023321D02*
X014540Y023359D01*
X014540Y023987D01*
X014060Y023987D02*
X014060Y023339D01*
X014078Y023321D01*
X013580Y023323D02*
X013580Y023927D01*
X013640Y023987D01*
X013640Y024047D01*
X013220Y024107D02*
X013160Y024107D01*
X013040Y023987D01*
X013040Y023359D01*
X013078Y023321D01*
X012578Y023321D02*
X012560Y023327D01*
X012560Y024167D01*
X012080Y023867D02*
X012080Y023323D01*
X012078Y023321D01*
X011578Y023321D02*
X011578Y023666D01*
X011840Y023927D01*
X012020Y023927D01*
X012080Y023867D01*
X011078Y024167D02*
X011078Y023321D01*
X010580Y023327D02*
X010578Y023321D01*
X010580Y023327D02*
X010580Y024107D01*
X010460Y024227D01*
X010160Y024227D01*
X010100Y023987D02*
X008360Y023987D01*
X008060Y024167D02*
X008060Y023327D01*
X008078Y023321D01*
X008578Y023321D02*
X008600Y023267D01*
X008600Y022727D01*
X008540Y022667D01*
X008360Y022667D01*
X008060Y022667D02*
X008060Y022007D01*
X008078Y021988D01*
X007340Y021750D02*
X007340Y020507D01*
X007760Y020087D01*
X010040Y020807D02*
X010011Y020964D01*
X010078Y021988D02*
X009578Y021988D01*
X009680Y022727D02*
X009560Y022847D01*
X009560Y023267D01*
X009578Y023321D01*
X009080Y023267D02*
X009078Y023321D01*
X009080Y023267D02*
X009080Y022667D01*
X009680Y022727D02*
X009860Y022727D01*
X010078Y023321D02*
X010100Y023327D01*
X010100Y023987D01*
X009560Y024227D02*
X009500Y024287D01*
X008180Y024287D01*
X008060Y024167D01*
X008300Y025007D02*
X008120Y025187D01*
X008060Y025187D01*
X008300Y025007D02*
X010880Y025007D01*
X011180Y025307D01*
X011420Y025307D01*
X011540Y025427D01*
X011540Y025727D01*
X011580Y025727D01*
X011120Y026147D02*
X011000Y026267D01*
X011000Y026927D01*
X010940Y026987D01*
X010940Y027827D01*
X012320Y029207D01*
X012800Y029207D01*
X012860Y029147D01*
X012980Y029147D01*
X013100Y029027D01*
X013100Y028367D01*
X013400Y028067D01*
X014840Y028067D01*
X014960Y028187D01*
X014960Y028847D01*
X015260Y029147D01*
X016040Y029147D01*
X016160Y029027D01*
X018080Y029027D01*
X018140Y029087D01*
X018560Y028873D02*
X018560Y028847D01*
X015920Y028847D01*
X015500Y028813D02*
X015500Y027587D01*
X015380Y027467D01*
X013340Y027467D01*
X013280Y027527D01*
X012980Y027527D02*
X012680Y027527D01*
X012560Y027647D01*
X012560Y028873D01*
X012560Y029542D02*
X012585Y029567D01*
X012920Y029567D01*
X013404Y029084D01*
X013860Y029084D01*
X014198Y029084D02*
X014596Y029084D01*
X015020Y029507D01*
X015475Y029507D01*
X015500Y029482D01*
X014960Y030047D02*
X014360Y029447D01*
X013280Y029447D01*
X012860Y029867D01*
X012320Y029867D01*
X011480Y029027D01*
X011480Y028847D01*
X011240Y028607D01*
X007640Y028607D01*
X009920Y028007D02*
X009920Y027767D01*
X010040Y027647D01*
X010040Y026147D01*
X010460Y025727D01*
X010580Y025727D01*
X011120Y026147D02*
X013760Y026147D01*
X014180Y025727D01*
X014580Y025727D01*
X014840Y026327D02*
X015260Y026747D01*
X015560Y026747D01*
X015580Y026727D01*
X014840Y026327D02*
X011300Y026327D01*
X011180Y026447D01*
X011180Y026927D01*
X011420Y027167D01*
X011660Y027167D01*
X011960Y027467D01*
X012200Y027467D01*
X012320Y027587D01*
X012320Y028247D01*
X012140Y027287D02*
X011660Y026807D01*
X011660Y026747D01*
X011600Y026747D01*
X011580Y026727D01*
X012140Y027287D02*
X018980Y027287D01*
X019520Y026147D02*
X017780Y026147D01*
X017639Y026148D01*
X019040Y025007D02*
X019160Y025127D01*
X019626Y025127D01*
X019646Y025148D01*
X019040Y025007D02*
X019040Y024767D01*
X019220Y024587D01*
X019640Y024587D01*
X017900Y023867D02*
X017900Y023174D01*
X017846Y023120D01*
X017874Y023147D01*
X021680Y023147D01*
X022400Y023867D01*
X022400Y024467D01*
X023471Y025787D02*
X023540Y025907D01*
X032240Y025907D01*
X032480Y026147D01*
X034760Y026147D01*
X034902Y026176D01*
X032720Y026627D02*
X032180Y026087D01*
X022400Y026087D01*
X022340Y026147D01*
X024140Y026327D02*
X024200Y026267D01*
X027080Y026267D01*
X027200Y026387D01*
X027800Y027167D01*
X027440Y028067D02*
X015920Y028067D01*
X015740Y028247D01*
X014960Y030047D02*
X019040Y030047D01*
X019640Y029447D01*
X020240Y029447D01*
X020780Y029987D01*
X021740Y029987D01*
X021860Y029867D01*
X021860Y029387D01*
X021380Y028907D01*
X021380Y028873D01*
X021345Y029507D02*
X020960Y029507D01*
X020536Y029084D01*
X020104Y029084D01*
X019765Y029084D02*
X019464Y029084D01*
X019040Y029507D01*
X018595Y029507D01*
X018560Y029542D01*
X019460Y030527D02*
X019520Y030587D01*
X032360Y030587D01*
X032360Y030527D01*
X032540Y029627D02*
X033200Y029627D01*
X033200Y029602D01*
X033049Y029084D02*
X033200Y028933D01*
X033049Y029084D02*
X031915Y029084D01*
X031576Y029084D02*
X031224Y029084D01*
X030740Y029567D01*
X030165Y029567D01*
X030140Y029542D01*
X030140Y028873D02*
X030140Y028847D01*
X028220Y028847D01*
X027440Y028067D01*
X027380Y028847D02*
X026720Y028847D01*
X026356Y029084D02*
X026009Y029084D01*
X025671Y029084D02*
X025284Y029084D01*
X024860Y029507D01*
X024295Y029507D01*
X024260Y029542D01*
X024260Y028873D02*
X024260Y028847D01*
X024860Y028847D01*
X026356Y029084D02*
X026780Y029507D01*
X027345Y029507D01*
X027380Y029542D01*
X027380Y028873D02*
X027380Y028847D01*
X026540Y027167D02*
X024380Y027167D01*
X024320Y027107D01*
X024260Y027107D01*
X024143Y027115D01*
X021380Y029542D02*
X021345Y029507D01*
X019646Y026148D02*
X019520Y026147D01*
X017600Y024167D02*
X017300Y024167D01*
X017600Y024167D02*
X017900Y023867D01*
X016400Y024527D02*
X013880Y024527D01*
X012680Y025727D01*
X012580Y025727D01*
X013220Y024827D02*
X011360Y024827D01*
X013578Y023321D02*
X013580Y023323D01*
X012980Y022667D02*
X014960Y022667D01*
X015080Y022547D01*
X015080Y022007D01*
X015078Y021988D01*
X015560Y022007D02*
X015578Y021988D01*
X015560Y022007D02*
X015560Y022547D01*
X015440Y022667D01*
X015320Y022667D01*
X016100Y022547D02*
X016100Y022007D01*
X016078Y021988D01*
X016578Y021988D02*
X016580Y021947D01*
X016580Y021467D01*
X016700Y021347D01*
X018920Y021347D01*
X017720Y021587D02*
X022940Y021587D01*
X023720Y019907D02*
X021200Y019907D01*
X020420Y020687D01*
X015920Y020687D01*
X015860Y020747D01*
X014720Y020147D02*
X014540Y019967D01*
X014180Y019967D01*
X014000Y020147D01*
X014420Y020207D02*
X014540Y020327D01*
X020300Y020327D01*
X024560Y016067D01*
X025280Y016067D01*
X025400Y015947D01*
X027320Y015947D01*
X027440Y015827D01*
X028700Y015827D01*
X028960Y015567D01*
X028960Y014817D01*
X029460Y014817D02*
X029480Y014797D01*
X027460Y014817D02*
X027460Y015507D01*
X027200Y015767D01*
X025280Y015767D01*
X025160Y015887D01*
X024500Y015887D01*
X020240Y020147D01*
X014720Y020147D01*
X014780Y019967D02*
X014600Y019787D01*
X014780Y019967D02*
X020180Y019967D01*
X024440Y015707D01*
X025040Y015707D01*
X025160Y015587D01*
X026240Y015587D01*
X026460Y015367D01*
X026460Y014817D01*
X026960Y014817D02*
X026960Y014447D01*
X027740Y017507D02*
X027740Y017867D01*
X027800Y017867D01*
X027737Y018122D01*
X028820Y019247D02*
X028820Y020113D01*
X029600Y020747D02*
X029600Y019307D01*
X030440Y018467D01*
X030440Y017567D01*
X030280Y017407D01*
X030020Y017407D01*
X031220Y017207D02*
X031220Y016727D01*
X031220Y017207D02*
X031520Y017207D01*
X032060Y016667D01*
X032600Y016667D01*
X032900Y016367D01*
X033860Y016367D01*
X034040Y016547D01*
X034040Y016642D01*
X033895Y016787D01*
X033980Y016873D01*
X033980Y016967D01*
X033980Y017593D01*
X032900Y017387D02*
X032880Y017407D01*
X032382Y017407D01*
X032382Y016907D02*
X033105Y016907D01*
X033225Y016787D01*
X033225Y019487D01*
X033895Y019487D02*
X033895Y018347D01*
X033980Y018262D01*
X032382Y016407D02*
X032382Y015505D01*
X032720Y015167D01*
X033225Y015167D01*
X033225Y014087D01*
X033740Y013727D02*
X032205Y013727D01*
X031820Y013342D01*
X032900Y013342D02*
X034040Y013342D01*
X033740Y013727D02*
X033895Y013882D01*
X033895Y014087D01*
X034040Y012673D02*
X034537Y012176D01*
X034902Y012176D01*
X032925Y011807D02*
X031760Y011807D01*
X031880Y010727D02*
X032900Y010727D01*
X032900Y010607D01*
X032925Y010607D01*
X034160Y009707D02*
X034691Y009176D01*
X034902Y009176D01*
X030930Y006537D02*
X030930Y005234D01*
X030883Y005187D01*
X025460Y009107D02*
X025460Y009587D01*
X025245Y009587D01*
X025220Y009613D01*
X025220Y010282D02*
X025220Y010727D01*
X026540Y009673D02*
X027680Y009673D01*
X027680Y010342D02*
X027475Y010547D01*
X027200Y010547D01*
X026960Y010787D01*
X026960Y011367D01*
X029460Y011367D02*
X029460Y010442D01*
X029420Y010402D01*
X019100Y016907D02*
X012140Y016907D01*
X014950Y014813D02*
X014956Y014807D01*
X015560Y014807D01*
X015764Y014604D01*
X015764Y014327D01*
X015740Y014327D01*
X015764Y014327D02*
X015764Y013991D01*
X015800Y014027D01*
X015764Y013991D02*
X015764Y013907D01*
X015584Y014087D01*
X015200Y014087D01*
X014996Y013884D01*
X014996Y013700D01*
X015252Y013700D02*
X015252Y013435D01*
X015260Y013427D01*
X015764Y013700D02*
X015764Y013907D01*
X015252Y012834D02*
X015252Y012519D01*
X015200Y012467D01*
X014960Y012467D01*
X015020Y012527D01*
X015020Y012810D01*
X014996Y012834D01*
X014960Y012467D02*
X014780Y012467D01*
X014720Y012527D01*
X014480Y012767D01*
X013580Y012767D01*
X013400Y012587D01*
X013400Y011087D01*
X023720Y019907D02*
X025220Y021407D01*
X026045Y019697D02*
X026060Y019547D01*
X026060Y019427D01*
X026000Y019367D01*
X025040Y019367D01*
X029600Y020747D02*
X029720Y020867D01*
X029875Y020867D01*
X029960Y020782D01*
X032720Y026627D02*
X038000Y026627D01*
X035420Y029087D02*
X035120Y028787D01*
X034760Y028787D01*
X034615Y028933D01*
X033920Y028933D01*
X035420Y029087D02*
X035420Y029627D01*
X035780Y029987D01*
X036710Y029987D01*
X036750Y029947D01*
X017846Y022450D02*
X017689Y022607D01*
X017300Y022607D01*
X017078Y022386D01*
X017078Y021988D01*
X016880Y022667D02*
X016220Y022667D01*
X016100Y022547D01*
X016400Y024527D02*
X016400Y024587D01*
X012680Y022667D02*
X012140Y022667D01*
X012080Y022607D01*
X012080Y022007D01*
X012078Y021988D01*
X011600Y022007D02*
X011578Y021988D01*
X011600Y022007D02*
X011600Y022607D01*
X011600Y022667D01*
X010580Y022667D01*
X011420Y021347D02*
X012440Y021347D01*
X012560Y021467D01*
X012560Y021947D01*
X012578Y021988D01*
X014420Y030527D02*
X014420Y030587D01*
X008420Y030587D01*
X008360Y030527D01*
D53*
X019646Y025148D02*
X019680Y025148D01*
X020600Y024227D01*
X021320Y024227D01*
X021500Y024407D01*
X021500Y025242D01*
X021435Y025307D01*
X030860Y017747D02*
X031220Y017747D01*
X031580Y017747D01*
X031580Y016727D02*
X030860Y016727D01*
X026420Y012527D02*
X026420Y011407D01*
X026460Y011367D01*
X027440Y011387D02*
X027460Y011367D01*
X027440Y011387D02*
X027440Y012227D01*
X028940Y011347D02*
X028960Y011367D01*
X028940Y011347D02*
X028940Y008387D01*
X029741Y007586D01*
X029741Y005888D01*
X030080Y007127D02*
X030140Y007187D01*
X030140Y007727D01*
X029420Y008447D01*
X029420Y009733D01*
X030560Y009733D02*
X030655Y009827D01*
X031040Y009827D01*
X029960Y008747D02*
X030920Y007787D01*
X030920Y006547D01*
X030930Y006537D01*
X029960Y008747D02*
X029960Y011367D01*
X026540Y010342D02*
X026035Y010342D01*
X025940Y010247D01*
X025940Y009862D01*
X026000Y009802D01*
X024440Y011367D02*
X024440Y007187D01*
X024020Y006767D01*
X024020Y006557D01*
X023990Y006527D01*
X022760Y006209D02*
X022760Y007067D01*
X023440Y007747D01*
X023440Y011367D01*
X021940Y011367D02*
X021920Y011387D01*
X021920Y012287D01*
X020900Y012407D02*
X020900Y011407D01*
X020940Y011367D01*
X019520Y010487D02*
X019520Y010102D01*
X019497Y008079D01*
X018980Y008567D02*
X018860Y008447D01*
X018860Y004907D01*
X018620Y004667D01*
X018620Y004187D01*
X018320Y003887D01*
X015195Y003887D01*
X015175Y003867D01*
X015380Y004073D01*
X015380Y004127D01*
X015380Y005327D01*
X015080Y005627D01*
X014360Y005627D01*
X014112Y005379D01*
X014112Y004911D01*
X015800Y006227D02*
X015800Y007427D01*
X015920Y007547D01*
X015920Y007907D01*
X016160Y008147D01*
X016352Y008147D01*
X016378Y008173D01*
X016486Y008173D01*
X016760Y008447D01*
X016760Y008699D01*
X016760Y008700D01*
X016760Y008688D01*
X016563Y008995D02*
X017293Y008995D01*
X017900Y008387D01*
X018109Y008147D01*
X018375Y007882D01*
X018375Y009953D01*
X018446Y009882D01*
X018626Y009882D01*
X018980Y009527D01*
X018980Y008567D01*
X018375Y009953D02*
X018020Y010307D01*
X018020Y010725D01*
X018019Y010726D01*
X017960Y010785D01*
X017960Y011327D01*
X018320Y011687D01*
X018920Y011687D01*
X019220Y011987D01*
X019220Y012707D01*
X019040Y012887D01*
X019040Y013727D01*
X018404Y014364D01*
X018404Y014464D01*
X018440Y014501D01*
X018440Y015107D01*
X018065Y015482D01*
X014950Y015482D01*
X014905Y015527D01*
X014540Y015527D01*
X014257Y015244D01*
X014257Y013563D01*
X014600Y013127D02*
X013820Y013127D01*
X013588Y013360D01*
X013588Y013563D01*
X014600Y013127D02*
X014780Y013307D01*
X015260Y013307D01*
X015500Y013067D01*
X015500Y012842D01*
X015508Y012834D01*
X015508Y012579D01*
X015560Y012527D01*
X015680Y012527D01*
X015740Y012587D01*
X015740Y012810D01*
X015764Y012834D01*
X015500Y013067D02*
X015500Y013127D01*
X015260Y013367D01*
X015260Y013427D01*
X015800Y014027D02*
X015920Y014147D01*
X012580Y014727D02*
X012300Y014727D01*
X012080Y014507D01*
X012080Y012587D01*
X013100Y011567D01*
X013100Y010967D01*
X013280Y010787D01*
X015260Y010787D01*
X016040Y010007D01*
X016040Y008267D01*
X016160Y008147D01*
X016378Y007504D02*
X016400Y007482D01*
X016400Y006647D01*
X016940Y006107D02*
X017000Y006047D01*
X017660Y006047D01*
X018188Y005520D01*
X018375Y005520D01*
X012398Y006319D02*
X012112Y006319D01*
X011900Y006107D01*
X011900Y003993D01*
X012025Y003867D01*
X018688Y010726D02*
X019282Y010726D01*
X019520Y010487D01*
D54*
X025340Y011507D03*
X024740Y016547D03*
X023300Y020207D03*
X018080Y018467D03*
X014360Y016427D03*
X008900Y021107D03*
X018020Y024287D03*
X034880Y017027D03*
X034940Y016367D03*
X036920Y017027D03*
X034940Y014147D03*
X040460Y011027D03*
X036080Y022127D03*
D55*
X020900Y008987D03*
D56*
X016220Y014147D02*
X015920Y014147D01*
M02*
