G75*
%MOIN*%
%OFA0B0*%
%FSLAX24Y24*%
%IPPOS*%
%LPD*%
%AMOC8*
5,1,8,0,0,1.08239X$1,22.5*
%
%ADD10C,0.0030*%
%ADD11R,0.0010X0.0750*%
%ADD12R,0.0010X0.0230*%
%ADD13R,0.0010X0.0810*%
%ADD14R,0.0010X0.0840*%
%ADD15R,0.0010X0.0240*%
%ADD16R,0.0010X0.0870*%
%ADD17R,0.0010X0.0890*%
%ADD18R,0.0010X0.0920*%
%ADD19R,0.0010X0.0930*%
%ADD20R,0.0010X0.0950*%
%ADD21R,0.0010X0.0960*%
%ADD22R,0.0010X0.0980*%
%ADD23R,0.0010X0.1000*%
%ADD24R,0.0010X0.0390*%
%ADD25R,0.0010X0.0020*%
%ADD26R,0.0010X0.0010*%
%ADD27R,0.0010X0.0190*%
%ADD28R,0.0010X0.0310*%
%ADD29R,0.0010X0.0280*%
%ADD30R,0.0010X0.0260*%
%ADD31R,0.0010X0.0250*%
%ADD32R,0.0010X0.0220*%
%ADD33R,0.0010X0.0210*%
%ADD34R,0.0010X0.0200*%
%ADD35R,0.0010X0.1630*%
%ADD36R,0.0010X0.1600*%
%ADD37R,0.0010X0.1570*%
%ADD38R,0.0010X0.1560*%
%ADD39R,0.0010X0.1540*%
%ADD40R,0.0010X0.1520*%
%ADD41R,0.0010X0.1500*%
%ADD42R,0.0010X0.1470*%
%ADD43R,0.0010X0.1460*%
%ADD44R,0.0010X0.1430*%
%ADD45R,0.0010X0.1390*%
%ADD46R,0.0010X0.1380*%
%ADD47R,0.0010X0.1400*%
%ADD48R,0.0010X0.0270*%
%ADD49R,0.0010X0.0180*%
%ADD50R,0.0010X0.0420*%
%ADD51R,0.0010X0.0410*%
%ADD52R,0.0010X0.0400*%
%ADD53R,0.0010X0.0380*%
%ADD54R,0.0010X0.0370*%
%ADD55R,0.0010X0.0360*%
%ADD56R,0.0010X0.0350*%
%ADD57R,0.0010X0.0300*%
%ADD58R,0.0010X0.0340*%
%ADD59R,0.0010X0.0330*%
%ADD60R,0.0010X0.1090*%
%ADD61R,0.0010X0.1070*%
%ADD62R,0.0010X0.1060*%
%ADD63R,0.0010X0.1050*%
%ADD64R,0.0010X0.1030*%
%ADD65R,0.0010X0.1020*%
%ADD66R,0.0010X0.0990*%
%ADD67R,0.0010X0.0970*%
%ADD68R,0.0010X0.0940*%
%ADD69R,0.0010X0.0900*%
%ADD70R,0.0010X0.0880*%
%ADD71R,0.0010X0.0860*%
%ADD72R,0.0010X0.0830*%
%ADD73R,0.0010X0.0800*%
%ADD74R,0.0010X0.0780*%
%ADD75R,0.0010X0.0730*%
%ADD76R,0.0010X0.0680*%
%ADD77C,0.0040*%
%ADD78R,0.0374X0.0197*%
%ADD79C,0.0050*%
%ADD80C,0.0060*%
%ADD81R,0.0160X0.0340*%
%ADD82R,0.0197X0.0374*%
%ADD83C,0.0080*%
%ADD84C,0.0020*%
%ADD85R,0.0900X0.0250*%
%ADD86R,0.0200X0.1000*%
%ADD87C,0.0100*%
%ADD88R,0.0340X0.0160*%
%ADD89C,0.0020*%
%ADD90R,0.0200X0.0200*%
%ADD91R,0.1000X0.0200*%
%ADD92C,0.0010*%
%ADD93R,0.0244X0.0161*%
D10*
X009605Y007091D02*
X009653Y007042D01*
X009702Y007042D01*
X009750Y007091D01*
X009750Y007188D01*
X009798Y007236D01*
X009847Y007236D01*
X009895Y007188D01*
X009895Y007091D01*
X009847Y007042D01*
X009605Y007091D02*
X009605Y007188D01*
X009653Y007236D01*
X009605Y007337D02*
X009702Y007434D01*
X009605Y007531D01*
X009895Y007531D01*
X009895Y007632D02*
X009702Y007632D01*
X009605Y007728D01*
X009702Y007825D01*
X009895Y007825D01*
X009750Y007825D02*
X009750Y007632D01*
X009895Y007337D02*
X009605Y007337D01*
X011085Y007144D02*
X011375Y007144D01*
X011375Y007048D02*
X011375Y007241D01*
X011182Y007048D02*
X011085Y007144D01*
X011133Y006947D02*
X011230Y006947D01*
X011278Y006898D01*
X011278Y006753D01*
X011278Y006850D02*
X011375Y006947D01*
X011375Y006753D02*
X011085Y006753D01*
X011085Y006898D01*
X011133Y006947D01*
X011813Y006033D02*
X011764Y005984D01*
X011764Y005887D01*
X011813Y005839D01*
X011861Y005839D01*
X011910Y005887D01*
X011910Y006033D01*
X012006Y006033D02*
X011813Y006033D01*
X012006Y006033D02*
X012055Y005984D01*
X012055Y005887D01*
X012006Y005839D01*
X012055Y005738D02*
X012055Y005544D01*
X011861Y005738D01*
X011813Y005738D01*
X011764Y005689D01*
X011764Y005593D01*
X011813Y005544D01*
X011813Y005443D02*
X011764Y005395D01*
X011764Y005298D01*
X011813Y005250D01*
X012006Y005250D01*
X012055Y005298D01*
X012055Y005395D01*
X012006Y005443D01*
X015942Y006208D02*
X015990Y006160D01*
X016183Y006160D01*
X016232Y006208D01*
X016232Y006305D01*
X016183Y006353D01*
X016232Y006454D02*
X016038Y006648D01*
X015990Y006648D01*
X015942Y006599D01*
X015942Y006503D01*
X015990Y006454D01*
X015990Y006353D02*
X015942Y006305D01*
X015942Y006208D01*
X016232Y006454D02*
X016232Y006648D01*
X016087Y006749D02*
X016087Y006943D01*
X016232Y006894D02*
X015942Y006894D01*
X016087Y006749D01*
X016108Y008582D02*
X016108Y008728D01*
X016060Y008776D01*
X015963Y008776D01*
X015915Y008728D01*
X015915Y008582D01*
X016205Y008582D01*
X016157Y008877D02*
X016205Y008925D01*
X016205Y009022D01*
X016157Y009071D01*
X015915Y009071D01*
X015963Y009172D02*
X016012Y009172D01*
X016060Y009220D01*
X016060Y009317D01*
X016108Y009365D01*
X016157Y009365D01*
X016205Y009317D01*
X016205Y009220D01*
X016157Y009172D01*
X015963Y009172D02*
X015915Y009220D01*
X015915Y009317D01*
X015963Y009365D01*
X015915Y009466D02*
X015915Y009611D01*
X015963Y009660D01*
X016012Y009660D01*
X016060Y009611D01*
X016060Y009466D01*
X016205Y009466D02*
X016205Y009611D01*
X016157Y009660D01*
X016108Y009660D01*
X016060Y009611D01*
X016205Y009466D02*
X015915Y009466D01*
X015915Y009761D02*
X016012Y009858D01*
X015915Y009955D01*
X016205Y009955D01*
X016205Y009761D02*
X015915Y009761D01*
X015915Y008877D02*
X016157Y008877D01*
X017229Y010661D02*
X017423Y010661D01*
X017524Y010709D02*
X017572Y010661D01*
X017669Y010661D01*
X017718Y010709D01*
X017718Y010758D01*
X017669Y010806D01*
X017621Y010806D01*
X017669Y010806D02*
X017718Y010854D01*
X017718Y010903D01*
X017669Y010951D01*
X017572Y010951D01*
X017524Y010903D01*
X017229Y010951D02*
X017229Y010661D01*
X020375Y008433D02*
X020520Y008433D01*
X020568Y008384D01*
X020568Y008288D01*
X020520Y008239D01*
X020375Y008239D01*
X020375Y008142D02*
X020375Y008433D01*
X020472Y008239D02*
X020568Y008142D01*
X020670Y008191D02*
X020718Y008142D01*
X020766Y008142D01*
X020815Y008191D01*
X020815Y008433D01*
X020863Y008433D02*
X020766Y008433D01*
X020964Y008288D02*
X021158Y008288D01*
X021259Y008288D02*
X021356Y008336D01*
X021404Y008336D01*
X021452Y008288D01*
X021452Y008191D01*
X021404Y008142D01*
X021307Y008142D01*
X021259Y008191D01*
X021259Y008288D02*
X021259Y008433D01*
X021452Y008433D01*
X021554Y008288D02*
X021747Y008288D01*
X021848Y008336D02*
X021848Y008384D01*
X021897Y008433D01*
X021993Y008433D01*
X022042Y008384D01*
X022042Y008336D01*
X021993Y008288D01*
X021897Y008288D01*
X021848Y008336D01*
X021897Y008288D02*
X021848Y008239D01*
X021848Y008191D01*
X021897Y008142D01*
X021993Y008142D01*
X022042Y008191D01*
X022042Y008239D01*
X021993Y008288D01*
X021109Y008142D02*
X021109Y008433D01*
X020964Y008288D01*
X020992Y009168D02*
X021185Y009168D01*
X021234Y009217D01*
X021234Y009314D01*
X021185Y009362D01*
X021234Y009463D02*
X021234Y009657D01*
X021234Y009560D02*
X020943Y009560D01*
X021040Y009463D01*
X020992Y009362D02*
X020943Y009314D01*
X020943Y009217D01*
X020992Y009168D01*
X020992Y009758D02*
X020943Y009806D01*
X020943Y009903D01*
X020992Y009951D01*
X021185Y009758D01*
X021234Y009806D01*
X021234Y009903D01*
X021185Y009951D01*
X020992Y009951D01*
X020992Y009758D02*
X021185Y009758D01*
X022065Y009670D02*
X022355Y009670D01*
X022355Y009573D02*
X022355Y009767D01*
X022307Y009868D02*
X022355Y009916D01*
X022355Y010013D01*
X022307Y010061D01*
X022210Y010061D01*
X022162Y010013D01*
X022162Y009964D01*
X022210Y009868D01*
X022065Y009868D01*
X022065Y010061D01*
X022065Y009670D02*
X022162Y009573D01*
X022210Y009472D02*
X022258Y009424D01*
X022258Y009278D01*
X022355Y009278D02*
X022065Y009278D01*
X022065Y009424D01*
X022113Y009472D01*
X022210Y009472D01*
X022258Y009375D02*
X022355Y009472D01*
X023283Y009500D02*
X023380Y009403D01*
X023332Y009302D02*
X023283Y009254D01*
X023283Y009157D01*
X023332Y009108D01*
X023525Y009108D01*
X023574Y009157D01*
X023574Y009254D01*
X023525Y009302D01*
X023574Y009403D02*
X023574Y009597D01*
X023574Y009500D02*
X023283Y009500D01*
X023380Y009698D02*
X023283Y009794D01*
X023574Y009794D01*
X023574Y009698D02*
X023574Y009891D01*
X024585Y010061D02*
X024633Y009964D01*
X024730Y009868D01*
X024730Y010013D01*
X024778Y010061D01*
X024827Y010061D01*
X024875Y010013D01*
X024875Y009916D01*
X024827Y009868D01*
X024730Y009868D01*
X024875Y009767D02*
X024875Y009573D01*
X024875Y009670D02*
X024585Y009670D01*
X024682Y009573D01*
X024730Y009472D02*
X024778Y009424D01*
X024778Y009278D01*
X024875Y009278D02*
X024585Y009278D01*
X024585Y009424D01*
X024633Y009472D01*
X024730Y009472D01*
X024778Y009375D02*
X024875Y009472D01*
X025923Y009374D02*
X025923Y009277D01*
X025972Y009228D01*
X026165Y009228D01*
X026214Y009277D01*
X026214Y009374D01*
X026165Y009422D01*
X026165Y009523D02*
X026214Y009571D01*
X026214Y009668D01*
X026165Y009717D01*
X026117Y009717D01*
X026069Y009668D01*
X026069Y009523D01*
X026165Y009523D01*
X026069Y009523D02*
X025972Y009620D01*
X025923Y009717D01*
X025923Y009818D02*
X026069Y009818D01*
X026020Y009914D01*
X026020Y009963D01*
X026069Y010011D01*
X026165Y010011D01*
X026214Y009963D01*
X026214Y009866D01*
X026165Y009818D01*
X025923Y009818D02*
X025923Y010011D01*
X025972Y009422D02*
X025923Y009374D01*
X027045Y009338D02*
X027045Y009484D01*
X027093Y009532D01*
X027190Y009532D01*
X027238Y009484D01*
X027238Y009338D01*
X027335Y009338D02*
X027045Y009338D01*
X027238Y009435D02*
X027335Y009532D01*
X027190Y009633D02*
X027190Y009827D01*
X027093Y009928D02*
X027045Y009976D01*
X027045Y010073D01*
X027093Y010121D01*
X027142Y010121D01*
X027335Y009928D01*
X027335Y010121D01*
X027335Y009778D02*
X027045Y009778D01*
X027190Y009633D01*
X027155Y008493D02*
X027300Y008493D01*
X027348Y008444D01*
X027348Y008348D01*
X027300Y008299D01*
X027155Y008299D01*
X027155Y008202D02*
X027155Y008493D01*
X027252Y008299D02*
X027348Y008202D01*
X027450Y008251D02*
X027498Y008202D01*
X027546Y008202D01*
X027595Y008251D01*
X027595Y008493D01*
X027643Y008493D02*
X027546Y008493D01*
X027744Y008348D02*
X027938Y008348D01*
X028039Y008348D02*
X028136Y008396D01*
X028184Y008396D01*
X028232Y008348D01*
X028232Y008251D01*
X028184Y008202D01*
X028087Y008202D01*
X028039Y008251D01*
X028039Y008348D02*
X028039Y008493D01*
X028232Y008493D01*
X028334Y008348D02*
X028527Y008348D01*
X028628Y008396D02*
X028628Y008444D01*
X028677Y008493D01*
X028773Y008493D01*
X028822Y008444D01*
X028822Y008396D01*
X028773Y008348D01*
X028677Y008348D01*
X028628Y008396D01*
X028677Y008348D02*
X028628Y008299D01*
X028628Y008251D01*
X028677Y008202D01*
X028773Y008202D01*
X028822Y008251D01*
X028822Y008299D01*
X028773Y008348D01*
X027889Y008493D02*
X027744Y008348D01*
X027889Y008202D02*
X027889Y008493D01*
X028785Y009398D02*
X028785Y009544D01*
X028833Y009592D01*
X028930Y009592D01*
X028978Y009544D01*
X028978Y009398D01*
X029075Y009398D02*
X028785Y009398D01*
X028978Y009495D02*
X029075Y009592D01*
X028930Y009693D02*
X028930Y009887D01*
X029027Y009988D02*
X029075Y010036D01*
X029075Y010133D01*
X029027Y010181D01*
X028978Y010181D01*
X028930Y010133D01*
X028930Y010084D01*
X028930Y010133D02*
X028882Y010181D01*
X028833Y010181D01*
X028785Y010133D01*
X028785Y010036D01*
X028833Y009988D01*
X028785Y009838D02*
X028930Y009693D01*
X029075Y009838D02*
X028785Y009838D01*
X029943Y009777D02*
X029992Y009680D01*
X030089Y009583D01*
X030089Y009728D01*
X030137Y009777D01*
X030185Y009777D01*
X030234Y009728D01*
X030234Y009631D01*
X030185Y009583D01*
X030089Y009583D01*
X030185Y009482D02*
X030234Y009434D01*
X030234Y009337D01*
X030185Y009288D01*
X029992Y009288D01*
X029943Y009337D01*
X029943Y009434D01*
X029992Y009482D01*
X030089Y009878D02*
X030089Y010023D01*
X030137Y010071D01*
X030185Y010071D01*
X030234Y010023D01*
X030234Y009926D01*
X030185Y009878D01*
X030089Y009878D01*
X029992Y009974D01*
X029943Y010071D01*
X031996Y010502D02*
X032044Y010454D01*
X032141Y010454D01*
X032189Y010502D01*
X032290Y010502D02*
X032339Y010454D01*
X032435Y010454D01*
X032484Y010502D01*
X032484Y010696D01*
X032435Y010744D01*
X032339Y010744D01*
X032290Y010696D01*
X032290Y010647D01*
X032339Y010599D01*
X032484Y010599D01*
X032189Y010696D02*
X032141Y010744D01*
X032044Y010744D01*
X031996Y010696D01*
X031996Y010502D01*
X032046Y011312D02*
X032239Y011312D01*
X032142Y011312D02*
X032142Y011603D01*
X032046Y011506D01*
X031945Y011554D02*
X031945Y011458D01*
X031896Y011409D01*
X031751Y011409D01*
X031751Y011312D02*
X031751Y011603D01*
X031896Y011603D01*
X031945Y011554D01*
X031848Y011409D02*
X031945Y011312D01*
X032340Y011458D02*
X032534Y011458D01*
X032485Y011603D02*
X032340Y011458D01*
X032485Y011312D02*
X032485Y011603D01*
X032478Y012342D02*
X032478Y012488D01*
X032430Y012536D01*
X032333Y012536D01*
X032285Y012488D01*
X032285Y012342D01*
X032575Y012342D01*
X032478Y012439D02*
X032575Y012536D01*
X032527Y012637D02*
X032478Y012637D01*
X032430Y012685D01*
X032430Y012782D01*
X032478Y012831D01*
X032527Y012831D01*
X032575Y012782D01*
X032575Y012685D01*
X032527Y012637D01*
X032430Y012685D02*
X032382Y012637D01*
X032333Y012637D01*
X032285Y012685D01*
X032285Y012782D01*
X032333Y012831D01*
X032382Y012831D01*
X032430Y012782D01*
X031476Y012821D02*
X031476Y012627D01*
X031476Y012724D02*
X031186Y012724D01*
X031283Y012627D01*
X031234Y012526D02*
X031186Y012478D01*
X031186Y012381D01*
X031234Y012332D01*
X031428Y012332D01*
X031476Y012381D01*
X031476Y012478D01*
X031428Y012526D01*
X031476Y012922D02*
X031283Y013115D01*
X031234Y013115D01*
X031186Y013067D01*
X031186Y012970D01*
X031234Y012922D01*
X031476Y012922D02*
X031476Y013115D01*
X030705Y013151D02*
X030415Y013151D01*
X030512Y013054D01*
X030463Y012953D02*
X030657Y012759D01*
X030705Y012808D01*
X030705Y012904D01*
X030657Y012953D01*
X030463Y012953D01*
X030415Y012904D01*
X030415Y012808D01*
X030463Y012759D01*
X030657Y012759D01*
X030657Y012658D02*
X030608Y012658D01*
X030560Y012610D01*
X030560Y012464D01*
X030657Y012464D01*
X030705Y012513D01*
X030705Y012610D01*
X030657Y012658D01*
X030463Y012561D02*
X030560Y012464D01*
X030560Y012363D02*
X030608Y012315D01*
X030608Y012170D01*
X030608Y012267D02*
X030705Y012363D01*
X030560Y012363D02*
X030463Y012363D01*
X030415Y012315D01*
X030415Y012170D01*
X030705Y012170D01*
X030705Y012069D02*
X030415Y012069D01*
X030560Y012069D02*
X030560Y011875D01*
X030705Y011875D02*
X030415Y011875D01*
X030463Y012561D02*
X030415Y012658D01*
X030705Y013054D02*
X030705Y013247D01*
X030657Y013348D02*
X030705Y013397D01*
X030705Y013494D01*
X030657Y013542D01*
X030608Y013542D01*
X030560Y013494D01*
X030560Y013348D01*
X030657Y013348D01*
X030560Y013348D02*
X030463Y013445D01*
X030415Y013542D01*
X030463Y013643D02*
X030512Y013643D01*
X030560Y013691D01*
X030560Y013788D01*
X030608Y013837D01*
X030657Y013837D01*
X030705Y013788D01*
X030705Y013691D01*
X030657Y013643D01*
X030608Y013643D01*
X030560Y013691D01*
X030560Y013788D02*
X030512Y013837D01*
X030463Y013837D01*
X030415Y013788D01*
X030415Y013691D01*
X030463Y013643D01*
X030463Y013938D02*
X030415Y013986D01*
X030415Y014083D01*
X030463Y014131D01*
X030657Y013938D01*
X030705Y013986D01*
X030705Y014083D01*
X030657Y014131D01*
X030463Y014131D01*
X030463Y013938D02*
X030657Y013938D01*
X032055Y013932D02*
X032055Y014223D01*
X032200Y014223D01*
X032248Y014174D01*
X032248Y014078D01*
X032200Y014029D01*
X032055Y014029D01*
X032152Y014029D02*
X032248Y013932D01*
X032350Y013932D02*
X032543Y014126D01*
X032543Y014174D01*
X032495Y014223D01*
X032398Y014223D01*
X032350Y014174D01*
X032350Y013932D02*
X032543Y013932D01*
X032644Y013981D02*
X032693Y013932D01*
X032789Y013932D01*
X032838Y013981D01*
X032838Y014029D01*
X032789Y014078D01*
X032741Y014078D01*
X032789Y014078D02*
X032838Y014126D01*
X032838Y014174D01*
X032789Y014223D01*
X032693Y014223D01*
X032644Y014174D01*
X032698Y015012D02*
X032795Y015012D01*
X032843Y015061D01*
X032843Y015254D01*
X032795Y015303D01*
X032698Y015303D01*
X032650Y015254D01*
X032650Y015206D01*
X032698Y015158D01*
X032843Y015158D01*
X032698Y015012D02*
X032650Y015061D01*
X032548Y015012D02*
X032452Y015109D01*
X032500Y015109D02*
X032355Y015109D01*
X032355Y015012D02*
X032355Y015303D01*
X032500Y015303D01*
X032548Y015254D01*
X032548Y015158D01*
X032500Y015109D01*
X032829Y016154D02*
X032926Y016154D01*
X032975Y016202D01*
X033076Y016154D02*
X033269Y016154D01*
X033172Y016154D02*
X033172Y016444D01*
X033076Y016347D01*
X032975Y016396D02*
X032926Y016444D01*
X032829Y016444D01*
X032781Y016396D01*
X032781Y016202D01*
X032829Y016154D01*
X033370Y016299D02*
X033564Y016299D01*
X033515Y016444D02*
X033370Y016299D01*
X033515Y016154D02*
X033515Y016444D01*
X033558Y017262D02*
X033558Y017408D01*
X033510Y017456D01*
X033413Y017456D01*
X033365Y017408D01*
X033365Y017262D01*
X033655Y017262D01*
X033558Y017359D02*
X033655Y017456D01*
X033655Y017557D02*
X033462Y017751D01*
X033413Y017751D01*
X033365Y017702D01*
X033365Y017605D01*
X033413Y017557D01*
X033655Y017557D02*
X033655Y017751D01*
X033607Y017852D02*
X033655Y017900D01*
X033655Y017997D01*
X033607Y018045D01*
X033413Y018045D01*
X033365Y017997D01*
X033365Y017900D01*
X033413Y017852D01*
X033462Y017852D01*
X033510Y017900D01*
X033510Y018045D01*
X032460Y018364D02*
X032411Y018316D01*
X032315Y018316D01*
X032266Y018364D01*
X032266Y018413D01*
X032315Y018461D01*
X032411Y018461D01*
X032460Y018413D01*
X032460Y018364D01*
X032411Y018461D02*
X032460Y018510D01*
X032460Y018558D01*
X032411Y018606D01*
X032315Y018606D01*
X032266Y018558D01*
X032266Y018510D01*
X032315Y018461D01*
X032165Y018364D02*
X032117Y018316D01*
X032020Y018316D01*
X031972Y018364D01*
X032165Y018558D01*
X032165Y018364D01*
X031972Y018364D02*
X031972Y018558D01*
X032020Y018606D01*
X032117Y018606D01*
X032165Y018558D01*
X031870Y018606D02*
X031774Y018558D01*
X031677Y018461D01*
X031822Y018461D01*
X031870Y018413D01*
X031870Y018364D01*
X031822Y018316D01*
X031725Y018316D01*
X031677Y018364D01*
X031677Y018461D01*
X031576Y018558D02*
X031382Y018364D01*
X031382Y018316D01*
X031281Y018364D02*
X031233Y018316D01*
X031136Y018316D01*
X031088Y018364D01*
X031088Y018413D01*
X031136Y018461D01*
X031233Y018461D01*
X031281Y018413D01*
X031281Y018364D01*
X031233Y018461D02*
X031281Y018510D01*
X031281Y018558D01*
X031233Y018606D01*
X031136Y018606D01*
X031088Y018558D01*
X031088Y018510D01*
X031136Y018461D01*
X030986Y018558D02*
X030986Y018606D01*
X030986Y018558D02*
X030890Y018461D01*
X030890Y018316D01*
X030890Y018461D02*
X030793Y018558D01*
X030793Y018606D01*
X030692Y018606D02*
X030498Y018413D01*
X030547Y018461D02*
X030692Y018316D01*
X030498Y018316D02*
X030498Y018606D01*
X030397Y018558D02*
X030349Y018606D01*
X030252Y018606D01*
X030204Y018558D01*
X030204Y018510D01*
X030252Y018461D01*
X030349Y018461D01*
X030397Y018413D01*
X030397Y018364D01*
X030349Y018316D01*
X030252Y018316D01*
X030204Y018364D01*
X030108Y019172D02*
X030156Y019221D01*
X030156Y019318D01*
X030108Y019366D01*
X030108Y019467D02*
X030156Y019515D01*
X030156Y019612D01*
X030108Y019661D01*
X030011Y019661D01*
X029963Y019612D01*
X029963Y019564D01*
X030011Y019467D01*
X029866Y019467D01*
X029866Y019661D01*
X029914Y019366D02*
X029866Y019318D01*
X029866Y019221D01*
X029914Y019172D01*
X030108Y019172D01*
X031382Y018606D02*
X031576Y018606D01*
X031576Y018558D01*
X032049Y019334D02*
X032001Y019382D01*
X032001Y019576D01*
X032049Y019624D01*
X032146Y019624D01*
X032195Y019576D01*
X032296Y019576D02*
X032344Y019624D01*
X032441Y019624D01*
X032489Y019576D01*
X032489Y019527D01*
X032296Y019334D01*
X032489Y019334D01*
X032590Y019334D02*
X032784Y019527D01*
X032784Y019576D01*
X032735Y019624D01*
X032639Y019624D01*
X032590Y019576D01*
X032590Y019334D02*
X032784Y019334D01*
X032195Y019382D02*
X032146Y019334D01*
X032049Y019334D01*
X031919Y020199D02*
X031919Y020392D01*
X031919Y020199D02*
X031629Y020199D01*
X031180Y020746D02*
X030890Y020746D01*
X030890Y020891D01*
X030938Y020940D01*
X031132Y020940D01*
X031180Y020891D01*
X031180Y020746D01*
X031132Y021041D02*
X031180Y021089D01*
X031180Y021186D01*
X031132Y021234D01*
X031083Y021234D01*
X031035Y021186D01*
X031035Y021138D01*
X031035Y021186D02*
X030986Y021234D01*
X030938Y021234D01*
X030890Y021186D01*
X030890Y021089D01*
X030938Y021041D01*
X028435Y020517D02*
X028435Y020420D01*
X028387Y020372D01*
X028338Y020372D01*
X028290Y020420D01*
X028290Y020517D01*
X028338Y020565D01*
X028387Y020565D01*
X028435Y020517D01*
X028290Y020517D02*
X028242Y020565D01*
X028193Y020565D01*
X028145Y020517D01*
X028145Y020420D01*
X028193Y020372D01*
X028242Y020372D01*
X028290Y020420D01*
X028242Y020271D02*
X028193Y020271D01*
X028145Y020222D01*
X028145Y020125D01*
X028193Y020077D01*
X028193Y019976D02*
X028290Y019976D01*
X028338Y019928D01*
X028338Y019782D01*
X028435Y019782D02*
X028145Y019782D01*
X028145Y019928D01*
X028193Y019976D01*
X028338Y019879D02*
X028435Y019976D01*
X028435Y020077D02*
X028242Y020271D01*
X028435Y020271D02*
X028435Y020077D01*
X025834Y020207D02*
X025641Y020207D01*
X025786Y020352D01*
X025786Y020062D01*
X025540Y020110D02*
X025540Y020304D01*
X025491Y020352D01*
X025346Y020352D01*
X025346Y020062D01*
X025491Y020062D01*
X025540Y020110D01*
X023525Y022011D02*
X023525Y022108D01*
X023477Y022156D01*
X023380Y022156D01*
X023380Y022059D01*
X023477Y021962D02*
X023525Y022011D01*
X023477Y021962D02*
X023283Y021962D01*
X023235Y022011D01*
X023235Y022108D01*
X023283Y022156D01*
X023235Y022257D02*
X023525Y022451D01*
X023235Y022451D01*
X023235Y022552D02*
X023235Y022697D01*
X023283Y022745D01*
X023477Y022745D01*
X023525Y022697D01*
X023525Y022552D01*
X023235Y022552D01*
X023235Y022257D02*
X023525Y022257D01*
X024027Y023450D02*
X024220Y023450D01*
X024268Y023499D01*
X024268Y023595D01*
X024220Y023644D01*
X024220Y023745D02*
X024268Y023745D01*
X024220Y023745D02*
X024027Y023938D01*
X023978Y023938D01*
X023978Y023745D01*
X024027Y023644D02*
X023978Y023595D01*
X023978Y023499D01*
X024027Y023450D01*
X025013Y023482D02*
X025013Y023289D01*
X025062Y023240D01*
X025159Y023240D01*
X025207Y023289D01*
X025308Y023289D02*
X025356Y023240D01*
X025453Y023240D01*
X025502Y023289D01*
X025502Y023337D01*
X025453Y023386D01*
X025405Y023386D01*
X025453Y023386D02*
X025502Y023434D01*
X025502Y023482D01*
X025453Y023531D01*
X025356Y023531D01*
X025308Y023482D01*
X025207Y023482D02*
X025159Y023531D01*
X025062Y023531D01*
X025013Y023482D01*
X021788Y024879D02*
X021594Y024686D01*
X021594Y024637D01*
X021493Y024637D02*
X021300Y024637D01*
X021493Y024831D01*
X021493Y024879D01*
X021445Y024928D01*
X021348Y024928D01*
X021300Y024879D01*
X021198Y024879D02*
X021198Y024783D01*
X021150Y024734D01*
X021005Y024734D01*
X021005Y024637D02*
X021005Y024928D01*
X021150Y024928D01*
X021198Y024879D01*
X021102Y024734D02*
X021198Y024637D01*
X021594Y024928D02*
X021788Y024928D01*
X021788Y024879D01*
X021695Y026590D02*
X021599Y026590D01*
X021550Y026638D01*
X021449Y026590D02*
X021256Y026590D01*
X021352Y026590D02*
X021352Y026880D01*
X021256Y026784D01*
X021155Y026832D02*
X021106Y026880D01*
X021009Y026880D01*
X020961Y026832D01*
X020961Y026638D01*
X021009Y026590D01*
X021106Y026590D01*
X021155Y026638D01*
X021550Y026832D02*
X021599Y026880D01*
X021695Y026880D01*
X021744Y026832D01*
X021744Y026784D01*
X021695Y026735D01*
X021744Y026687D01*
X021744Y026638D01*
X021695Y026590D01*
X021695Y026735D02*
X021647Y026735D01*
X021731Y027645D02*
X021538Y027645D01*
X021731Y027839D01*
X021731Y027887D01*
X021683Y027935D01*
X021586Y027935D01*
X021538Y027887D01*
X021437Y027887D02*
X021388Y027935D01*
X021291Y027935D01*
X021243Y027887D01*
X021142Y027887D02*
X021142Y027790D01*
X021094Y027742D01*
X020948Y027742D01*
X020948Y027645D02*
X020948Y027935D01*
X021094Y027935D01*
X021142Y027887D01*
X021045Y027742D02*
X021142Y027645D01*
X021243Y027645D02*
X021437Y027839D01*
X021437Y027887D01*
X021437Y027645D02*
X021243Y027645D01*
X021725Y028542D02*
X021725Y028688D01*
X021773Y028736D01*
X021870Y028736D01*
X021918Y028688D01*
X021918Y028542D01*
X022015Y028542D02*
X021725Y028542D01*
X021918Y028639D02*
X022015Y028736D01*
X022015Y028837D02*
X022015Y029031D01*
X022015Y028934D02*
X021725Y028934D01*
X021822Y028837D01*
X021773Y029132D02*
X021725Y029180D01*
X021725Y029277D01*
X021773Y029325D01*
X021967Y029132D01*
X022015Y029180D01*
X022015Y029277D01*
X021967Y029325D01*
X021773Y029325D01*
X021773Y029132D02*
X021967Y029132D01*
X021627Y030282D02*
X021434Y030282D01*
X021627Y030476D01*
X021627Y030524D01*
X021579Y030573D01*
X021482Y030573D01*
X021434Y030524D01*
X021332Y030282D02*
X021139Y030282D01*
X021139Y030573D01*
X021038Y030524D02*
X020989Y030573D01*
X020844Y030573D01*
X020844Y030282D01*
X020989Y030282D01*
X021038Y030331D01*
X021038Y030524D01*
X023585Y029228D02*
X023875Y029228D01*
X023875Y029132D02*
X023875Y029325D01*
X023682Y029132D02*
X023585Y029228D01*
X023585Y028934D02*
X023875Y028934D01*
X023875Y028837D02*
X023875Y029031D01*
X023682Y028837D02*
X023585Y028934D01*
X023633Y028736D02*
X023730Y028736D01*
X023778Y028688D01*
X023778Y028542D01*
X023875Y028542D02*
X023585Y028542D01*
X023585Y028688D01*
X023633Y028736D01*
X023778Y028639D02*
X023875Y028736D01*
X026075Y028013D02*
X026075Y027819D01*
X026172Y027722D01*
X026268Y027819D01*
X026268Y028013D01*
X026370Y028013D02*
X026515Y028013D01*
X026563Y027964D01*
X026563Y027771D01*
X026515Y027722D01*
X026370Y027722D01*
X026370Y028013D01*
X026664Y028013D02*
X026809Y028013D01*
X026858Y027964D01*
X026858Y027771D01*
X026809Y027722D01*
X026664Y027722D01*
X026664Y028013D01*
X027395Y027964D02*
X027395Y027771D01*
X027443Y027722D01*
X027540Y027722D01*
X027588Y027771D01*
X027588Y027868D01*
X027492Y027868D01*
X027588Y027964D02*
X027540Y028013D01*
X027443Y028013D01*
X027395Y027964D01*
X027690Y028013D02*
X027883Y027722D01*
X027883Y028013D01*
X027984Y028013D02*
X028129Y028013D01*
X028178Y027964D01*
X028178Y027771D01*
X028129Y027722D01*
X027984Y027722D01*
X027984Y028013D01*
X027690Y028013D02*
X027690Y027722D01*
X027785Y028542D02*
X027785Y028688D01*
X027833Y028736D01*
X027930Y028736D01*
X027978Y028688D01*
X027978Y028542D01*
X028075Y028542D02*
X027785Y028542D01*
X027978Y028639D02*
X028075Y028736D01*
X028075Y028837D02*
X028075Y029031D01*
X028075Y028934D02*
X027785Y028934D01*
X027882Y028837D01*
X027833Y029132D02*
X027785Y029180D01*
X027785Y029277D01*
X027833Y029325D01*
X027882Y029325D01*
X028075Y029132D01*
X028075Y029325D01*
X027459Y030128D02*
X027362Y030128D01*
X027314Y030176D01*
X027212Y030128D02*
X027019Y030128D01*
X027019Y030418D01*
X026918Y030370D02*
X026869Y030418D01*
X026724Y030418D01*
X026724Y030128D01*
X026869Y030128D01*
X026918Y030176D01*
X026918Y030370D01*
X027314Y030370D02*
X027362Y030418D01*
X027459Y030418D01*
X027507Y030370D01*
X027507Y030321D01*
X027459Y030273D01*
X027507Y030225D01*
X027507Y030176D01*
X027459Y030128D01*
X027459Y030273D02*
X027410Y030273D01*
X029465Y029337D02*
X029465Y029240D01*
X029513Y029192D01*
X029610Y029288D02*
X029610Y029337D01*
X029658Y029385D01*
X029707Y029385D01*
X029755Y029337D01*
X029755Y029240D01*
X029707Y029192D01*
X029755Y029091D02*
X029755Y028897D01*
X029755Y028994D02*
X029465Y028994D01*
X029562Y028897D01*
X029610Y028796D02*
X029658Y028748D01*
X029658Y028602D01*
X029755Y028602D02*
X029465Y028602D01*
X029465Y028748D01*
X029513Y028796D01*
X029610Y028796D01*
X029658Y028699D02*
X029755Y028796D01*
X029610Y029337D02*
X029562Y029385D01*
X029513Y029385D01*
X029465Y029337D01*
X032664Y030273D02*
X032809Y030273D01*
X032858Y030322D01*
X032858Y030515D01*
X032809Y030564D01*
X032664Y030564D01*
X032664Y030273D01*
X032959Y030273D02*
X032959Y030564D01*
X032959Y030273D02*
X033152Y030273D01*
X033254Y030419D02*
X033447Y030419D01*
X033399Y030564D02*
X033254Y030419D01*
X033399Y030273D02*
X033399Y030564D01*
X033407Y028541D02*
X033213Y028541D01*
X033407Y028348D01*
X033455Y028396D01*
X033455Y028493D01*
X033407Y028541D01*
X033407Y028348D02*
X033213Y028348D01*
X033165Y028396D01*
X033165Y028493D01*
X033213Y028541D01*
X033213Y028247D02*
X033165Y028198D01*
X033165Y028101D01*
X033213Y028053D01*
X033213Y027952D02*
X033310Y027952D01*
X033358Y027904D01*
X033358Y027758D01*
X033455Y027758D02*
X033165Y027758D01*
X033165Y027904D01*
X033213Y027952D01*
X033358Y027855D02*
X033455Y027952D01*
X033455Y028053D02*
X033262Y028247D01*
X033213Y028247D01*
X033455Y028247D02*
X033455Y028053D01*
X033765Y027993D02*
X033765Y028138D01*
X033813Y028187D01*
X033910Y028187D01*
X033958Y028138D01*
X033958Y027993D01*
X033958Y028090D02*
X034055Y028187D01*
X033910Y028288D02*
X033910Y028481D01*
X034055Y028433D02*
X033765Y028433D01*
X033910Y028288D01*
X034055Y027993D02*
X033765Y027993D01*
X032155Y023921D02*
X032155Y023728D01*
X031962Y023921D01*
X031913Y023921D01*
X031865Y023873D01*
X031865Y023776D01*
X031913Y023728D01*
X031913Y023627D02*
X031865Y023578D01*
X031865Y023481D01*
X031913Y023433D01*
X032107Y023433D01*
X032155Y023481D01*
X032155Y023578D01*
X032107Y023627D01*
X029641Y016084D02*
X029689Y016036D01*
X029689Y015987D01*
X029641Y015939D01*
X029689Y015890D01*
X029689Y015842D01*
X029641Y015794D01*
X029544Y015794D01*
X029496Y015842D01*
X029394Y015794D02*
X029298Y015890D01*
X029346Y015890D02*
X029201Y015890D01*
X029201Y015794D02*
X029201Y016084D01*
X029346Y016084D01*
X029394Y016036D01*
X029394Y015939D01*
X029346Y015890D01*
X029496Y016036D02*
X029544Y016084D01*
X029641Y016084D01*
X029641Y015939D02*
X029592Y015939D01*
X025474Y016001D02*
X025474Y016049D01*
X025426Y016097D01*
X025281Y016097D01*
X025281Y016001D01*
X025329Y015952D01*
X025426Y015952D01*
X025474Y016001D01*
X025377Y016194D02*
X025474Y016242D01*
X025377Y016194D02*
X025281Y016097D01*
X025180Y016001D02*
X025180Y016194D01*
X025131Y016242D01*
X024986Y016242D01*
X024986Y015952D01*
X025131Y015952D01*
X025180Y016001D01*
X025257Y014131D02*
X025305Y014083D01*
X025305Y013986D01*
X025257Y013938D01*
X025063Y014131D01*
X025257Y014131D01*
X025257Y013938D02*
X025063Y013938D01*
X025015Y013986D01*
X025015Y014083D01*
X025063Y014131D01*
X025063Y013837D02*
X025112Y013837D01*
X025160Y013788D01*
X025160Y013691D01*
X025112Y013643D01*
X025063Y013643D01*
X025015Y013691D01*
X025015Y013788D01*
X025063Y013837D01*
X025160Y013788D02*
X025208Y013837D01*
X025257Y013837D01*
X025305Y013788D01*
X025305Y013691D01*
X025257Y013643D01*
X025208Y013643D01*
X025160Y013691D01*
X025208Y013542D02*
X025160Y013494D01*
X025160Y013348D01*
X025257Y013348D01*
X025305Y013397D01*
X025305Y013494D01*
X025257Y013542D01*
X025208Y013542D01*
X025063Y013445D02*
X025160Y013348D01*
X025063Y013445D02*
X025015Y013542D01*
X025015Y013151D02*
X025305Y013151D01*
X025305Y013247D02*
X025305Y013054D01*
X025257Y012953D02*
X025305Y012904D01*
X025305Y012808D01*
X025257Y012759D01*
X025063Y012953D01*
X025257Y012953D01*
X025112Y013054D02*
X025015Y013151D01*
X025063Y012953D02*
X025015Y012904D01*
X025015Y012808D01*
X025063Y012759D01*
X025257Y012759D01*
X025257Y012658D02*
X025208Y012658D01*
X025160Y012610D01*
X025160Y012464D01*
X025257Y012464D01*
X025305Y012513D01*
X025305Y012610D01*
X025257Y012658D01*
X025063Y012561D02*
X025160Y012464D01*
X025160Y012363D02*
X025208Y012315D01*
X025208Y012170D01*
X025208Y012267D02*
X025305Y012363D01*
X025160Y012363D02*
X025063Y012363D01*
X025015Y012315D01*
X025015Y012170D01*
X025305Y012170D01*
X025305Y012069D02*
X025015Y012069D01*
X025160Y012069D02*
X025160Y011875D01*
X025305Y011875D02*
X025015Y011875D01*
X025063Y012561D02*
X025015Y012658D01*
X025515Y008433D02*
X025515Y008142D01*
X025612Y008239D01*
X025708Y008142D01*
X025708Y008433D01*
X025810Y008336D02*
X025906Y008433D01*
X026003Y008336D01*
X026003Y008142D01*
X026104Y008142D02*
X026104Y008433D01*
X026298Y008142D01*
X026298Y008433D01*
X026003Y008288D02*
X025810Y008288D01*
X025810Y008336D02*
X025810Y008142D01*
X032655Y008202D02*
X032848Y008202D01*
X032950Y008202D02*
X032950Y008396D01*
X033046Y008493D01*
X033143Y008396D01*
X033143Y008202D01*
X033244Y008202D02*
X033244Y008493D01*
X033438Y008202D01*
X033438Y008493D01*
X033143Y008348D02*
X032950Y008348D01*
X032655Y008493D02*
X032655Y008202D01*
X033454Y012332D02*
X033648Y012332D01*
X033696Y012381D01*
X033696Y012478D01*
X033648Y012526D01*
X033696Y012627D02*
X033696Y012821D01*
X033696Y012724D02*
X033406Y012724D01*
X033503Y012627D01*
X033454Y012526D02*
X033406Y012478D01*
X033406Y012381D01*
X033454Y012332D01*
X037430Y013108D02*
X037575Y013108D01*
X037623Y013157D01*
X037623Y013205D01*
X037575Y013253D01*
X037430Y013253D01*
X037575Y013253D02*
X037623Y013302D01*
X037623Y013350D01*
X037575Y013398D01*
X037430Y013398D01*
X037430Y013108D01*
X037724Y013108D02*
X037918Y013108D01*
X037821Y013108D02*
X037821Y013398D01*
X037724Y013302D01*
X040720Y008122D02*
X040768Y008122D01*
X040768Y007929D01*
X040720Y007929D02*
X040672Y007977D01*
X040672Y008074D01*
X040720Y008122D01*
X040865Y008074D02*
X040865Y007977D01*
X040817Y007929D01*
X040720Y007929D01*
X040865Y007829D02*
X040865Y007732D01*
X040865Y007781D02*
X040575Y007781D01*
X040575Y007732D01*
X040720Y007631D02*
X040672Y007583D01*
X040672Y007438D01*
X040575Y007438D02*
X040865Y007438D01*
X040865Y007583D01*
X040817Y007631D01*
X040720Y007631D01*
X040720Y007336D02*
X040865Y007336D01*
X040865Y007191D01*
X040817Y007143D01*
X040768Y007191D01*
X040768Y007336D01*
X040720Y007336D02*
X040672Y007288D01*
X040672Y007191D01*
X040672Y007043D02*
X040672Y006947D01*
X040623Y006995D02*
X040817Y006995D01*
X040865Y007043D01*
X040768Y006845D02*
X040768Y006652D01*
X040720Y006652D02*
X040672Y006700D01*
X040672Y006797D01*
X040720Y006845D01*
X040768Y006845D01*
X040865Y006797D02*
X040865Y006700D01*
X040817Y006652D01*
X040720Y006652D01*
X040672Y006551D02*
X040768Y006406D01*
X040865Y006551D01*
X040865Y006406D02*
X040575Y006406D01*
X040672Y006305D02*
X040672Y006160D01*
X040720Y006112D01*
X040817Y006112D01*
X040865Y006160D01*
X040865Y006305D01*
X040817Y006011D02*
X040720Y006011D01*
X040672Y005962D01*
X040672Y005865D01*
X040720Y005817D01*
X040817Y005817D01*
X040865Y005865D01*
X040865Y005962D01*
X040817Y006011D01*
X040817Y005716D02*
X040768Y005716D01*
X040720Y005668D01*
X040720Y005571D01*
X040672Y005522D01*
X040623Y005522D01*
X040575Y005571D01*
X040575Y005668D01*
X040623Y005716D01*
X040817Y005716D02*
X040865Y005668D01*
X040865Y005571D01*
X040817Y005522D01*
X039524Y004793D02*
X039524Y004502D01*
X039572Y004648D02*
X039379Y004648D01*
X039524Y004793D01*
X039181Y004793D02*
X039181Y004502D01*
X039084Y004502D02*
X039278Y004502D01*
X039084Y004696D02*
X039181Y004793D01*
X038983Y004744D02*
X038790Y004551D01*
X038838Y004502D01*
X038935Y004502D01*
X038983Y004551D01*
X038983Y004744D01*
X038935Y004793D01*
X038838Y004793D01*
X038790Y004744D01*
X038790Y004551D01*
X038688Y004502D02*
X038495Y004502D01*
X038688Y004696D01*
X038688Y004744D01*
X038640Y004793D01*
X038543Y004793D01*
X038495Y004744D01*
X037329Y002733D02*
X037232Y002636D01*
X037329Y002733D02*
X037329Y002442D01*
X037232Y002442D02*
X037426Y002442D01*
X037133Y002442D02*
X037085Y002442D01*
X037085Y002491D01*
X037133Y002491D01*
X037133Y002442D01*
X036984Y002442D02*
X036790Y002442D01*
X036984Y002636D01*
X036984Y002684D01*
X036935Y002733D01*
X036839Y002733D01*
X036790Y002684D01*
X036689Y002733D02*
X036496Y002442D01*
X036394Y002491D02*
X036346Y002442D01*
X036249Y002442D01*
X036201Y002491D01*
X036394Y002684D01*
X036394Y002491D01*
X036201Y002491D02*
X036201Y002684D01*
X036249Y002733D01*
X036346Y002733D01*
X036394Y002684D01*
X036102Y002491D02*
X036102Y002442D01*
X036054Y002442D01*
X036054Y002491D01*
X036102Y002491D01*
X035952Y002442D02*
X035759Y002442D01*
X035952Y002636D01*
X035952Y002684D01*
X035904Y002733D01*
X035807Y002733D01*
X035759Y002684D01*
X035363Y002684D02*
X035315Y002733D01*
X035218Y002733D01*
X035170Y002684D01*
X035170Y002491D01*
X035218Y002442D01*
X035315Y002442D01*
X035363Y002491D01*
X035068Y002491D02*
X035068Y002684D01*
X035020Y002733D01*
X034875Y002733D01*
X034875Y002442D01*
X035020Y002442D01*
X035068Y002491D01*
X018509Y015618D02*
X018509Y015715D01*
X018460Y015763D01*
X018363Y015864D02*
X018363Y016058D01*
X018218Y016009D02*
X018363Y015864D01*
X018267Y015763D02*
X018218Y015715D01*
X018218Y015618D01*
X018267Y015569D01*
X018460Y015569D01*
X018509Y015618D01*
X018509Y016009D02*
X018218Y016009D01*
X015045Y015922D02*
X014755Y015922D01*
X014755Y016068D01*
X014803Y016116D01*
X014900Y016116D01*
X014948Y016068D01*
X014948Y015922D01*
X014948Y016019D02*
X015045Y016116D01*
X015045Y016217D02*
X014852Y016411D01*
X014803Y016411D01*
X014755Y016362D01*
X014755Y016265D01*
X014803Y016217D01*
X015045Y016217D02*
X015045Y016411D01*
X013627Y014197D02*
X013530Y014197D01*
X013482Y014149D01*
X013482Y014101D01*
X013530Y014052D01*
X013627Y014052D01*
X013676Y014004D01*
X013676Y013956D01*
X013627Y013907D01*
X013530Y013907D01*
X013482Y013956D01*
X013482Y014004D01*
X013530Y014052D01*
X013627Y014052D02*
X013676Y014101D01*
X013676Y014149D01*
X013627Y014197D01*
X013381Y014149D02*
X013332Y014197D01*
X013236Y014197D01*
X013187Y014149D01*
X013187Y013956D01*
X013236Y013907D01*
X013332Y013907D01*
X013381Y013956D01*
X010795Y011492D02*
X010747Y011492D01*
X010553Y011685D01*
X010505Y011685D01*
X010505Y011492D01*
X010505Y011294D02*
X010795Y011294D01*
X010795Y011197D02*
X010795Y011391D01*
X010602Y011197D02*
X010505Y011294D01*
X010553Y011096D02*
X010505Y011048D01*
X010505Y010902D01*
X010795Y010902D01*
X010698Y010902D02*
X010698Y011048D01*
X010650Y011096D01*
X010553Y011096D01*
X010698Y010999D02*
X010795Y011096D01*
X009175Y011862D02*
X008885Y011862D01*
X008885Y012008D01*
X008933Y012056D01*
X009030Y012056D01*
X009078Y012008D01*
X009078Y011862D01*
X009078Y011959D02*
X009175Y012056D01*
X009175Y012157D02*
X009175Y012351D01*
X009175Y012254D02*
X008885Y012254D01*
X008982Y012157D01*
X008982Y012452D02*
X008933Y012452D01*
X008885Y012500D01*
X008885Y012597D01*
X008933Y012645D01*
X008982Y012645D01*
X009030Y012597D01*
X009030Y012500D01*
X008982Y012452D01*
X009030Y012500D02*
X009078Y012452D01*
X009127Y012452D01*
X009175Y012500D01*
X009175Y012597D01*
X009127Y012645D01*
X009078Y012645D01*
X009030Y012597D01*
X007927Y013798D02*
X007975Y013847D01*
X007975Y013895D01*
X007927Y013944D01*
X007685Y013944D01*
X007685Y013992D02*
X007685Y013895D01*
X007685Y014093D02*
X007685Y014238D01*
X007733Y014287D01*
X007830Y014287D01*
X007878Y014238D01*
X007878Y014093D01*
X007975Y014093D02*
X007685Y014093D01*
X007733Y014388D02*
X007685Y014436D01*
X007685Y014533D01*
X007733Y014581D01*
X007782Y014581D01*
X007975Y014388D01*
X007975Y014581D01*
X006905Y014585D02*
X006905Y014392D01*
X006905Y014488D02*
X006615Y014488D01*
X006712Y014392D01*
X006663Y014291D02*
X006857Y014097D01*
X006905Y014145D01*
X006905Y014242D01*
X006857Y014291D01*
X006663Y014291D01*
X006615Y014242D01*
X006615Y014145D01*
X006663Y014097D01*
X006857Y014097D01*
X006905Y013996D02*
X006905Y013802D01*
X006712Y013996D01*
X006663Y013996D01*
X006615Y013948D01*
X006615Y013851D01*
X006663Y013802D01*
X006425Y013700D02*
X006232Y013700D01*
X006328Y013700D02*
X006232Y013797D01*
X006232Y013845D01*
X006280Y013599D02*
X006328Y013599D01*
X006328Y013406D01*
X006280Y013406D02*
X006232Y013454D01*
X006232Y013551D01*
X006280Y013599D01*
X006425Y013551D02*
X006425Y013454D01*
X006377Y013406D01*
X006280Y013406D01*
X006328Y013304D02*
X006135Y013304D01*
X006135Y013111D02*
X006328Y013111D01*
X006425Y013208D01*
X006328Y013304D01*
X006232Y012716D02*
X006232Y012667D01*
X006328Y012571D01*
X006232Y012571D02*
X006425Y012571D01*
X006328Y012470D02*
X006328Y012276D01*
X006280Y012276D02*
X006232Y012324D01*
X006232Y012421D01*
X006280Y012470D01*
X006328Y012470D01*
X006425Y012421D02*
X006425Y012324D01*
X006377Y012276D01*
X006280Y012276D01*
X006232Y012176D02*
X006232Y012080D01*
X006183Y012128D02*
X006377Y012128D01*
X006425Y012176D01*
X006425Y011978D02*
X006232Y011978D01*
X006425Y011978D02*
X006425Y011833D01*
X006377Y011785D01*
X006232Y011785D01*
X006280Y011684D02*
X006232Y011635D01*
X006232Y011539D01*
X006280Y011490D01*
X006377Y011490D01*
X006425Y011539D01*
X006425Y011635D01*
X006377Y011684D01*
X006280Y011684D01*
X006280Y011389D02*
X006328Y011341D01*
X006328Y011196D01*
X006328Y011292D02*
X006425Y011389D01*
X006280Y011389D02*
X006183Y011389D01*
X006135Y011341D01*
X006135Y011196D01*
X006425Y011196D01*
X006328Y010800D02*
X006328Y010606D01*
X006280Y010606D02*
X006232Y010655D01*
X006232Y010751D01*
X006280Y010800D01*
X006328Y010800D01*
X006425Y010751D02*
X006425Y010655D01*
X006377Y010606D01*
X006280Y010606D01*
X006232Y010505D02*
X006232Y010360D01*
X006280Y010312D01*
X006328Y010360D01*
X006328Y010457D01*
X006377Y010505D01*
X006425Y010457D01*
X006425Y010312D01*
X006425Y010211D02*
X006425Y010065D01*
X006377Y010017D01*
X006328Y010065D01*
X006328Y010211D01*
X006280Y010211D02*
X006425Y010211D01*
X006280Y010211D02*
X006232Y010162D01*
X006232Y010065D01*
X006232Y009916D02*
X006280Y009868D01*
X006280Y009722D01*
X006425Y009722D02*
X006425Y009868D01*
X006377Y009916D01*
X006328Y009916D01*
X006280Y009868D01*
X006232Y009916D02*
X006183Y009916D01*
X006135Y009868D01*
X006135Y009722D01*
X006425Y009722D01*
X007595Y009952D02*
X007837Y009952D01*
X007885Y010001D01*
X007885Y010098D01*
X007837Y010146D01*
X007595Y010146D01*
X007595Y010247D02*
X007595Y010441D01*
X007595Y010542D02*
X007885Y010542D01*
X007885Y010735D01*
X007740Y010344D02*
X007740Y010247D01*
X007885Y010247D02*
X007595Y010247D01*
X012115Y009053D02*
X012115Y008762D01*
X012212Y008859D01*
X012308Y008762D01*
X012308Y009053D01*
X012410Y009053D02*
X012555Y009053D01*
X012603Y009004D01*
X012603Y008908D01*
X012555Y008859D01*
X012410Y008859D01*
X012410Y008762D02*
X012410Y009053D01*
X012704Y009004D02*
X012704Y008956D01*
X012753Y008908D01*
X012849Y008908D01*
X012898Y008859D01*
X012898Y008811D01*
X012849Y008762D01*
X012753Y008762D01*
X012704Y008811D01*
X012704Y009004D02*
X012753Y009053D01*
X012849Y009053D01*
X012898Y009004D01*
X006425Y014240D02*
X006425Y014434D01*
X006425Y014337D02*
X006135Y014337D01*
X006232Y014240D01*
X006377Y014535D02*
X006377Y014583D01*
X006425Y014583D01*
X006425Y014535D01*
X006377Y014535D01*
X006377Y014682D02*
X006183Y014876D01*
X006377Y014876D01*
X006425Y014827D01*
X006425Y014731D01*
X006377Y014682D01*
X006183Y014682D01*
X006135Y014731D01*
X006135Y014827D01*
X006183Y014876D01*
X006615Y014831D02*
X006760Y014686D01*
X006760Y014880D01*
X006905Y014831D02*
X006615Y014831D01*
X009905Y019054D02*
X010099Y019054D01*
X010147Y019102D01*
X010147Y019199D01*
X010099Y019248D01*
X010099Y019349D02*
X010050Y019349D01*
X010002Y019397D01*
X010002Y019494D01*
X010050Y019542D01*
X010099Y019542D01*
X010147Y019494D01*
X010147Y019397D01*
X010099Y019349D01*
X010002Y019397D02*
X009954Y019349D01*
X009905Y019349D01*
X009857Y019397D01*
X009857Y019494D01*
X009905Y019542D01*
X009954Y019542D01*
X010002Y019494D01*
X009954Y019643D02*
X010002Y019692D01*
X010002Y019837D01*
X009905Y019837D02*
X009857Y019789D01*
X009857Y019692D01*
X009905Y019643D01*
X009954Y019643D01*
X010099Y019643D02*
X010147Y019692D01*
X010147Y019789D01*
X010099Y019837D01*
X009905Y019837D01*
X009905Y019248D02*
X009857Y019199D01*
X009857Y019102D01*
X009905Y019054D01*
X011641Y024123D02*
X011593Y024172D01*
X011641Y024123D02*
X011738Y024123D01*
X011787Y024172D01*
X011787Y024220D01*
X011738Y024268D01*
X011641Y024268D01*
X011593Y024317D01*
X011593Y024365D01*
X011641Y024413D01*
X011738Y024413D01*
X011787Y024365D01*
X011888Y024413D02*
X011888Y024123D01*
X011888Y024220D02*
X012081Y024413D01*
X012182Y024413D02*
X012182Y024123D01*
X012279Y024220D01*
X012376Y024123D01*
X012376Y024413D01*
X012081Y024123D02*
X011936Y024268D01*
X007975Y025427D02*
X007927Y025378D01*
X007975Y025427D02*
X007975Y025475D01*
X007927Y025524D01*
X007685Y025524D01*
X007685Y025572D02*
X007685Y025475D01*
X007685Y025673D02*
X007685Y025818D01*
X007733Y025867D01*
X007830Y025867D01*
X007878Y025818D01*
X007878Y025673D01*
X007975Y025673D02*
X007685Y025673D01*
X007782Y025968D02*
X007685Y026064D01*
X007975Y026064D01*
X007975Y025968D02*
X007975Y026161D01*
X008057Y027602D02*
X007863Y027602D01*
X007815Y027651D01*
X007815Y027748D01*
X007863Y027796D01*
X007960Y027796D02*
X007960Y027699D01*
X007960Y027796D02*
X008057Y027796D01*
X008105Y027748D01*
X008105Y027651D01*
X008057Y027602D01*
X008105Y027897D02*
X007815Y027897D01*
X008105Y028091D01*
X007815Y028091D01*
X007815Y028192D02*
X007815Y028337D01*
X007863Y028385D01*
X008057Y028385D01*
X008105Y028337D01*
X008105Y028192D01*
X007815Y028192D01*
X008775Y028151D02*
X009065Y027957D01*
X009065Y027856D02*
X008968Y027759D01*
X008968Y027808D02*
X008968Y027662D01*
X009065Y027662D02*
X008775Y027662D01*
X008775Y027808D01*
X008823Y027856D01*
X008920Y027856D01*
X008968Y027808D01*
X008775Y027957D02*
X009065Y028151D01*
X009065Y028252D02*
X009065Y028397D01*
X009017Y028445D01*
X008823Y028445D01*
X008775Y028397D01*
X008775Y028252D01*
X009065Y028252D01*
X009795Y028211D02*
X010085Y028017D01*
X010085Y028211D02*
X009795Y028017D01*
X009795Y027916D02*
X009795Y027722D01*
X009795Y027819D02*
X010085Y027819D01*
X010085Y028312D02*
X009795Y028312D01*
X009795Y028457D01*
X009843Y028505D01*
X010037Y028505D01*
X010085Y028457D01*
X010085Y028312D01*
X010755Y028252D02*
X010755Y028397D01*
X010803Y028445D01*
X010997Y028445D01*
X011045Y028397D01*
X011045Y028252D01*
X010755Y028252D01*
X010803Y028151D02*
X010755Y028102D01*
X010755Y027957D01*
X011045Y027957D01*
X011045Y028102D01*
X010997Y028151D01*
X010803Y028151D01*
X010755Y027856D02*
X010948Y027856D01*
X011045Y027759D01*
X010948Y027662D01*
X010755Y027662D01*
X012545Y027942D02*
X012545Y028088D01*
X012593Y028136D01*
X012690Y028136D01*
X012738Y028088D01*
X012738Y027942D01*
X012835Y027942D02*
X012545Y027942D01*
X012738Y028039D02*
X012835Y028136D01*
X012787Y028237D02*
X012835Y028285D01*
X012835Y028382D01*
X012787Y028431D01*
X012690Y028431D01*
X012642Y028382D01*
X012642Y028334D01*
X012690Y028237D01*
X012545Y028237D01*
X012545Y028431D01*
X010234Y029982D02*
X010040Y029982D01*
X010040Y030273D01*
X009939Y030176D02*
X009939Y029982D01*
X009939Y030128D02*
X009745Y030128D01*
X009745Y030176D02*
X009842Y030273D01*
X009939Y030176D01*
X009745Y030176D02*
X009745Y029982D01*
X009646Y029982D02*
X009549Y029982D01*
X009597Y029982D02*
X009597Y030273D01*
X009549Y030273D02*
X009646Y030273D01*
X009448Y030224D02*
X009448Y030128D01*
X009399Y030079D01*
X009254Y030079D01*
X009254Y029982D02*
X009254Y030273D01*
X009399Y030273D01*
X009448Y030224D01*
X009351Y030079D02*
X009448Y029982D01*
X009153Y029982D02*
X008960Y029982D01*
X008960Y030273D01*
X009153Y030273D01*
X009056Y030128D02*
X008960Y030128D01*
X008858Y030079D02*
X008858Y030031D01*
X008810Y029982D01*
X008713Y029982D01*
X008665Y030031D01*
X008713Y030128D02*
X008810Y030128D01*
X008858Y030079D01*
X008858Y030224D02*
X008810Y030273D01*
X008713Y030273D01*
X008665Y030224D01*
X008665Y030176D01*
X008713Y030128D01*
X014904Y030257D02*
X015049Y030257D01*
X015098Y030305D01*
X015098Y030499D01*
X015049Y030547D01*
X014904Y030547D01*
X014904Y030257D01*
X015199Y030257D02*
X015199Y030547D01*
X015199Y030257D02*
X015392Y030257D01*
X015494Y030257D02*
X015687Y030257D01*
X015590Y030257D02*
X015590Y030547D01*
X015494Y030450D01*
X017825Y029151D02*
X017825Y028957D01*
X017873Y028856D02*
X017970Y028856D01*
X018018Y028808D01*
X018018Y028662D01*
X018115Y028662D02*
X017825Y028662D01*
X017825Y028808D01*
X017873Y028856D01*
X018018Y028759D02*
X018115Y028856D01*
X018115Y028957D02*
X018067Y028957D01*
X017873Y029151D01*
X017825Y029151D01*
X015595Y028322D02*
X015547Y028371D01*
X015498Y028371D01*
X015450Y028322D01*
X015450Y028177D01*
X015547Y028177D01*
X015595Y028225D01*
X015595Y028322D01*
X015450Y028177D02*
X015353Y028274D01*
X015305Y028371D01*
X015353Y028076D02*
X015305Y028028D01*
X015305Y027882D01*
X015595Y027882D01*
X015498Y027882D02*
X015498Y028028D01*
X015450Y028076D01*
X015353Y028076D01*
X015498Y027979D02*
X015595Y028076D01*
X016400Y027124D02*
X016448Y027027D01*
X016545Y026930D01*
X016545Y027076D01*
X016594Y027124D01*
X016642Y027124D01*
X016690Y027076D01*
X016690Y026979D01*
X016642Y026930D01*
X016545Y026930D01*
X016497Y026829D02*
X016448Y026829D01*
X016400Y026781D01*
X016400Y026684D01*
X016448Y026636D01*
X016448Y026535D02*
X016497Y026535D01*
X016545Y026486D01*
X016545Y026390D01*
X016497Y026341D01*
X016448Y026341D01*
X016400Y026390D01*
X016400Y026486D01*
X016448Y026535D01*
X016545Y026486D02*
X016594Y026535D01*
X016642Y026535D01*
X016690Y026486D01*
X016690Y026390D01*
X016642Y026341D01*
X016594Y026341D01*
X016545Y026390D01*
X016690Y026240D02*
X016690Y026047D01*
X016690Y026143D02*
X016400Y026143D01*
X016497Y026047D01*
X016545Y025945D02*
X016594Y025897D01*
X016594Y025752D01*
X016690Y025752D02*
X016400Y025752D01*
X016400Y025897D01*
X016448Y025945D01*
X016545Y025945D01*
X016448Y025651D02*
X016400Y025602D01*
X016400Y025506D01*
X016448Y025457D01*
X016642Y025457D01*
X016690Y025506D01*
X016690Y025602D01*
X016642Y025651D01*
X016690Y025356D02*
X016400Y025356D01*
X016497Y025259D01*
X016400Y025163D01*
X016690Y025163D01*
X016690Y026636D02*
X016497Y026829D01*
X016690Y026829D02*
X016690Y026636D01*
X018058Y022009D02*
X018009Y021961D01*
X018009Y021864D01*
X018058Y021815D01*
X018009Y021714D02*
X018058Y021617D01*
X018154Y021521D01*
X018154Y021666D01*
X018203Y021714D01*
X018251Y021714D01*
X018300Y021666D01*
X018300Y021569D01*
X018251Y021521D01*
X018154Y021521D01*
X018058Y021420D02*
X018009Y021371D01*
X018009Y021274D01*
X018058Y021226D01*
X018251Y021226D01*
X018300Y021274D01*
X018300Y021371D01*
X018251Y021420D01*
X018300Y021815D02*
X018106Y022009D01*
X018058Y022009D01*
X018300Y022009D02*
X018300Y021815D01*
D11*
X006867Y015733D03*
D12*
X006697Y015183D03*
X006687Y015173D03*
X005717Y015243D03*
X005797Y016233D03*
X005807Y016243D03*
X005827Y016253D03*
X005837Y016263D03*
X005857Y016273D03*
X005867Y016283D03*
X005877Y016293D03*
X005887Y016293D03*
X005897Y016303D03*
X005907Y016313D03*
X005927Y016323D03*
X005937Y016333D03*
X005957Y016343D03*
X005967Y016353D03*
X005977Y016363D03*
X005997Y016373D03*
X006007Y016383D03*
X006027Y016393D03*
X006037Y016403D03*
X006057Y016413D03*
X006067Y016423D03*
X006077Y016433D03*
X006097Y016443D03*
X006107Y016453D03*
X006127Y016463D03*
X006137Y016473D03*
X006157Y016483D03*
X006377Y016643D03*
X006387Y016643D03*
X006397Y016653D03*
X006407Y016663D03*
X006427Y016673D03*
X006437Y016683D03*
X006457Y016693D03*
X006467Y016703D03*
X006477Y016713D03*
X006487Y016713D03*
X006497Y016723D03*
X006507Y016733D03*
X006527Y016743D03*
X006537Y016753D03*
X006557Y016763D03*
X006567Y016773D03*
X006577Y016783D03*
X006587Y016783D03*
X006597Y016793D03*
X006607Y016803D03*
X006627Y016813D03*
X006637Y016823D03*
X006647Y016833D03*
X006657Y016833D03*
X006667Y016843D03*
X006677Y016853D03*
X006697Y016863D03*
X006707Y016873D03*
X006727Y016883D03*
X006737Y016893D03*
X006757Y016903D03*
X006767Y016913D03*
X006777Y016923D03*
X006797Y016933D03*
X006807Y016943D03*
X006827Y016953D03*
X006837Y016963D03*
X006857Y016973D03*
X006867Y016983D03*
D13*
X006857Y015703D03*
D14*
X006847Y015688D03*
D15*
X006407Y015198D03*
X006157Y015308D03*
X006147Y015298D03*
X005707Y015248D03*
X005697Y015258D03*
X005817Y016248D03*
X005847Y016268D03*
X005917Y016318D03*
X005947Y016338D03*
X005987Y016368D03*
X006017Y016388D03*
X006047Y016408D03*
X006087Y016438D03*
X006117Y016458D03*
X006147Y016478D03*
X006167Y016488D03*
X006177Y016498D03*
X006417Y016668D03*
X006447Y016688D03*
X006517Y016738D03*
X006547Y016758D03*
X006617Y016808D03*
X006687Y016858D03*
X006717Y016878D03*
X006747Y016898D03*
X006787Y016928D03*
X006817Y016948D03*
X006847Y016968D03*
D16*
X006837Y015673D03*
D17*
X006827Y015663D03*
D18*
X006817Y015648D03*
X005537Y015708D03*
D19*
X006807Y015643D03*
D20*
X006797Y015633D03*
X005557Y015703D03*
D21*
X006787Y015628D03*
D22*
X006777Y015618D03*
X006767Y015618D03*
D23*
X006757Y015608D03*
X005587Y015698D03*
D24*
X005737Y016113D03*
X006747Y015293D03*
D25*
X006747Y015508D03*
X006747Y015538D03*
X005447Y015528D03*
X005447Y015558D03*
X005447Y015588D03*
X005447Y015618D03*
X005447Y015888D03*
D26*
X005447Y015863D03*
X005447Y015843D03*
X005447Y015823D03*
X005447Y015803D03*
X005447Y015783D03*
X005447Y015763D03*
X005447Y015743D03*
X005447Y015723D03*
X005447Y015703D03*
X005447Y015683D03*
X005447Y015663D03*
X005447Y015643D03*
X005447Y015503D03*
X005457Y015423D03*
X005657Y015503D03*
X006377Y015403D03*
X006747Y015563D03*
X006747Y015583D03*
X006747Y015603D03*
X006747Y015623D03*
X006747Y015643D03*
X006747Y015663D03*
X006747Y015683D03*
X006747Y015703D03*
X006747Y015723D03*
X006747Y015743D03*
X006747Y015763D03*
X006747Y015783D03*
X006747Y015803D03*
X006747Y015823D03*
X006747Y015843D03*
X006747Y015863D03*
X006747Y015883D03*
X006747Y015903D03*
D27*
X006747Y016013D03*
X006737Y016013D03*
X006727Y016013D03*
X006717Y016013D03*
X006707Y016013D03*
X006697Y016013D03*
X006687Y016013D03*
X006677Y016013D03*
X006667Y016013D03*
X006657Y016013D03*
X006647Y016013D03*
X006637Y016013D03*
X006627Y016013D03*
X006617Y016013D03*
X006607Y016013D03*
X006597Y016013D03*
X006587Y016013D03*
X006577Y016013D03*
X006567Y016013D03*
X006557Y016013D03*
X006547Y016013D03*
X006537Y016013D03*
X006527Y016013D03*
X006517Y016013D03*
X006507Y016013D03*
X006497Y016013D03*
X006487Y016013D03*
X006477Y016013D03*
X006467Y016013D03*
X006457Y016013D03*
X006447Y016013D03*
X006437Y016013D03*
X006427Y016013D03*
X006417Y016013D03*
X006407Y016013D03*
X006397Y016013D03*
X006387Y016013D03*
X006377Y016013D03*
X006177Y016013D03*
X006167Y016013D03*
X006157Y016013D03*
X006147Y016013D03*
X006137Y016013D03*
X006127Y016013D03*
X006117Y016013D03*
X006107Y016013D03*
X006097Y016013D03*
X006087Y016013D03*
X006077Y016013D03*
X006067Y016013D03*
X006057Y016013D03*
X006047Y016013D03*
X006037Y016013D03*
X006027Y016013D03*
X006017Y016013D03*
X006007Y016013D03*
X005997Y016013D03*
X005987Y016013D03*
X005977Y016013D03*
X005967Y016013D03*
X005957Y016013D03*
X005947Y016013D03*
X005937Y016013D03*
X005927Y016013D03*
X005917Y016013D03*
X005907Y016013D03*
X005897Y016013D03*
X005887Y016013D03*
X005877Y016013D03*
X005867Y016013D03*
X005857Y016013D03*
X005847Y016013D03*
X005837Y016013D03*
X005827Y016013D03*
X005817Y016013D03*
X005807Y016013D03*
X005797Y016013D03*
X005817Y015203D03*
X005857Y015193D03*
X005867Y015193D03*
X005877Y015193D03*
X005887Y015193D03*
X005897Y015193D03*
X005907Y015193D03*
X005917Y015193D03*
X005927Y015193D03*
X005937Y015193D03*
X005947Y015193D03*
X005957Y015193D03*
X005977Y015203D03*
X005987Y015203D03*
X005997Y015203D03*
X006017Y015213D03*
X006027Y015213D03*
X006037Y015213D03*
X006047Y015223D03*
X006067Y015233D03*
D28*
X006737Y015253D03*
D29*
X006727Y015228D03*
X006377Y015248D03*
D30*
X006387Y015228D03*
X006717Y015208D03*
X005687Y015268D03*
X005677Y015278D03*
D31*
X006167Y015323D03*
X006397Y015213D03*
X006707Y015193D03*
D32*
X006677Y015168D03*
X006667Y015158D03*
X006437Y015168D03*
X006427Y015178D03*
X006417Y015188D03*
X006137Y015288D03*
X006127Y015278D03*
X006117Y015268D03*
X005737Y015228D03*
X005727Y015238D03*
D33*
X005747Y015223D03*
X005757Y015223D03*
X005767Y015213D03*
X005777Y015213D03*
X005807Y015203D03*
X006097Y015253D03*
X006107Y015263D03*
X006447Y015163D03*
X006457Y015153D03*
X006477Y015143D03*
X006507Y015133D03*
X006607Y015133D03*
X006637Y015143D03*
X006647Y015153D03*
X006657Y015153D03*
D34*
X006627Y015138D03*
X006617Y015138D03*
X006597Y015128D03*
X006587Y015128D03*
X006577Y015128D03*
X006567Y015128D03*
X006557Y015128D03*
X006547Y015128D03*
X006537Y015128D03*
X006527Y015128D03*
X006517Y015128D03*
X006497Y015138D03*
X006487Y015138D03*
X006467Y015148D03*
X006087Y015248D03*
X006077Y015238D03*
X006057Y015228D03*
X005847Y015198D03*
X005837Y015198D03*
X005827Y015198D03*
X005797Y015208D03*
X005787Y015208D03*
X005447Y016008D03*
D35*
X006367Y015933D03*
D36*
X006357Y015938D03*
X006347Y015938D03*
D37*
X006337Y015943D03*
D38*
X006327Y015938D03*
D39*
X006317Y015948D03*
D40*
X006307Y015948D03*
D41*
X006297Y015948D03*
D42*
X006287Y015953D03*
D43*
X006277Y015958D03*
D44*
X006267Y015963D03*
D45*
X006257Y015973D03*
X006227Y015953D03*
D46*
X006237Y015968D03*
X006247Y015978D03*
D47*
X006217Y015948D03*
X006207Y015938D03*
X006197Y015928D03*
X006187Y015918D03*
D48*
X006177Y015343D03*
D49*
X006007Y015208D03*
X005967Y015198D03*
D50*
X005787Y016128D03*
X005777Y016128D03*
D51*
X005767Y016123D03*
D52*
X005757Y016118D03*
X005747Y016118D03*
D53*
X005727Y016108D03*
X005717Y016108D03*
D54*
X005707Y016103D03*
D55*
X005697Y016098D03*
D56*
X005687Y016093D03*
X005677Y016093D03*
D57*
X005667Y015298D03*
D58*
X005667Y016088D03*
D59*
X005657Y016083D03*
X005657Y015323D03*
D60*
X005647Y015703D03*
D61*
X005637Y015703D03*
D62*
X005627Y015698D03*
D63*
X005617Y015703D03*
D64*
X005607Y015703D03*
D65*
X005597Y015698D03*
D66*
X005577Y015703D03*
D67*
X005567Y015703D03*
D68*
X005547Y015708D03*
D69*
X005527Y015708D03*
D70*
X005517Y015718D03*
D71*
X005507Y015718D03*
D72*
X005497Y015723D03*
D73*
X005487Y015728D03*
D74*
X005477Y015738D03*
D75*
X005467Y015753D03*
D76*
X005457Y015778D03*
D77*
X005650Y014966D02*
X005880Y014966D01*
X005880Y014813D02*
X005650Y014813D01*
X005573Y014889D01*
X005650Y014966D01*
X005650Y014813D02*
X005573Y014736D01*
X005573Y014659D01*
X005880Y014659D01*
X005727Y014506D02*
X005727Y014199D01*
X005803Y014199D02*
X005650Y014199D01*
X005573Y014275D01*
X005573Y014429D01*
X005650Y014506D01*
X005727Y014506D01*
X005880Y014429D02*
X005880Y014275D01*
X005803Y014199D01*
X005880Y014045D02*
X005803Y013968D01*
X005496Y013968D01*
X005573Y013892D02*
X005573Y014045D01*
X005573Y013738D02*
X005573Y013508D01*
X005650Y013431D01*
X005727Y013508D01*
X005727Y013662D01*
X005803Y013738D01*
X005880Y013662D01*
X005880Y013431D01*
X005880Y013278D02*
X005880Y013048D01*
X005803Y012971D01*
X005573Y012971D01*
X005496Y012817D02*
X005420Y012741D01*
X005420Y012587D01*
X005496Y012511D01*
X005573Y012511D01*
X005650Y012587D01*
X005650Y012741D01*
X005727Y012817D01*
X005803Y012817D01*
X005880Y012741D01*
X005880Y012587D01*
X005803Y012511D01*
X005803Y011897D02*
X005650Y011897D01*
X005573Y011820D01*
X005573Y011590D01*
X006033Y011590D01*
X005880Y011590D02*
X005880Y011820D01*
X005803Y011897D01*
X005803Y011436D02*
X005650Y011436D01*
X005573Y011360D01*
X005573Y011129D01*
X006033Y011129D01*
X005880Y011129D02*
X005880Y011360D01*
X005803Y011436D01*
X005727Y010976D02*
X005727Y010746D01*
X005803Y010669D01*
X005880Y010746D01*
X005880Y010976D01*
X005650Y010976D01*
X005573Y010899D01*
X005573Y010746D01*
X005650Y010516D02*
X005727Y010516D01*
X005727Y010209D01*
X005803Y010209D02*
X005650Y010209D01*
X005573Y010285D01*
X005573Y010439D01*
X005650Y010516D01*
X005880Y010439D02*
X005880Y010285D01*
X005803Y010209D01*
X005803Y010055D02*
X005727Y009978D01*
X005727Y009825D01*
X005650Y009748D01*
X005573Y009825D01*
X005573Y010055D01*
X005803Y010055D02*
X005880Y009978D01*
X005880Y009748D01*
X005880Y009595D02*
X005880Y009365D01*
X005803Y009288D01*
X005727Y009365D01*
X005727Y009595D01*
X005650Y009595D02*
X005880Y009595D01*
X005650Y009595D02*
X005573Y009518D01*
X005573Y009365D01*
X005573Y009134D02*
X005650Y009058D01*
X005650Y008827D01*
X005880Y008827D02*
X005420Y008827D01*
X005420Y009058D01*
X005496Y009134D01*
X005573Y009134D01*
X005650Y009058D02*
X005727Y009134D01*
X005803Y009134D01*
X005880Y009058D01*
X005880Y008827D01*
X006033Y013124D02*
X006033Y013201D01*
X005957Y013278D01*
X005573Y013278D01*
X013782Y013399D02*
X014063Y013399D01*
X014063Y013734D02*
X013782Y013734D01*
X018214Y010891D02*
X018494Y010891D01*
X018494Y010556D02*
X018214Y010556D01*
X021395Y010088D02*
X021395Y009807D01*
X021730Y009807D02*
X021730Y010088D01*
X023735Y010088D02*
X023735Y009807D01*
X024070Y009807D02*
X024070Y010088D01*
X026375Y010148D02*
X026375Y009867D01*
X026710Y009867D02*
X026710Y010148D01*
X030395Y010208D02*
X030395Y009927D01*
X030730Y009927D02*
X030730Y010208D01*
X033120Y010437D02*
X033400Y010437D01*
X033400Y010772D02*
X033120Y010772D01*
X033870Y012867D02*
X033870Y013148D01*
X034205Y013148D02*
X034205Y012867D01*
X035520Y012422D02*
X035673Y012269D01*
X035520Y012422D02*
X035980Y012422D01*
X035980Y012269D02*
X035980Y012576D01*
X035980Y012115D02*
X035520Y012115D01*
X035520Y011808D02*
X035980Y012115D01*
X035980Y011808D02*
X035520Y011808D01*
X035596Y011655D02*
X035520Y011578D01*
X035520Y011425D01*
X035596Y011348D01*
X035903Y011348D01*
X035980Y011425D01*
X035980Y011578D01*
X035903Y011655D01*
X035596Y011655D01*
X035596Y011194D02*
X035520Y011118D01*
X035520Y010964D01*
X035596Y010887D01*
X035903Y010887D01*
X035980Y010964D01*
X035980Y011118D01*
X035903Y011194D01*
X037878Y010546D02*
X037894Y010534D01*
X037908Y010519D01*
X037918Y010502D01*
X037926Y010483D01*
X037930Y010463D01*
X037930Y010443D01*
X037926Y010423D01*
X037918Y010404D01*
X037908Y010387D01*
X037894Y010372D01*
X037878Y010360D01*
X037878Y010359D02*
X037862Y010347D01*
X037848Y010332D01*
X037838Y010315D01*
X037830Y010296D01*
X037826Y010276D01*
X037826Y010256D01*
X037830Y010236D01*
X037838Y010217D01*
X037848Y010200D01*
X037862Y010185D01*
X037878Y010173D01*
X039403Y010360D02*
X039777Y010360D01*
X039590Y010173D02*
X039590Y010547D01*
X039590Y012220D02*
X039590Y012594D01*
X037878Y012406D02*
X037862Y012394D01*
X037848Y012379D01*
X037838Y012362D01*
X037830Y012343D01*
X037826Y012323D01*
X037826Y012303D01*
X037830Y012283D01*
X037838Y012264D01*
X037848Y012247D01*
X037862Y012232D01*
X037878Y012220D01*
X037878Y012407D02*
X037894Y012419D01*
X037908Y012434D01*
X037918Y012451D01*
X037926Y012470D01*
X037930Y012490D01*
X037930Y012510D01*
X037926Y012530D01*
X037918Y012549D01*
X037908Y012566D01*
X037894Y012581D01*
X037878Y012593D01*
X033700Y016617D02*
X033420Y016617D01*
X033420Y016952D02*
X033700Y016952D01*
X033700Y019317D02*
X033420Y019317D01*
X033420Y019652D02*
X033700Y019652D01*
X030125Y020307D02*
X030125Y020588D01*
X029790Y020588D02*
X029790Y020307D01*
X025818Y017932D02*
X025511Y017932D01*
X025511Y017702D01*
X025665Y017779D01*
X025742Y017779D01*
X025818Y017702D01*
X025818Y017549D01*
X025742Y017472D01*
X025588Y017472D01*
X025511Y017549D01*
X025358Y017549D02*
X025358Y017856D01*
X025281Y017932D01*
X025051Y017932D01*
X025051Y017472D01*
X025281Y017472D01*
X025358Y017549D01*
X031650Y013148D02*
X031650Y012867D01*
X031985Y012867D02*
X031985Y013148D01*
X034140Y003175D02*
X034140Y002868D01*
X034140Y002715D02*
X033680Y002715D01*
X033833Y002868D02*
X033680Y003022D01*
X034140Y003022D01*
X034140Y002715D02*
X033680Y002408D01*
X034140Y002408D01*
X034063Y002254D02*
X034140Y002178D01*
X034140Y002024D01*
X034063Y001947D01*
X033756Y001947D01*
X033680Y002024D01*
X033680Y002178D01*
X033756Y002254D01*
X016548Y007699D02*
X016548Y007979D01*
X016213Y007979D02*
X016213Y007699D01*
X012563Y006125D02*
X012563Y005845D01*
X012228Y005845D02*
X012228Y006125D01*
X010176Y020489D02*
X010176Y020769D01*
X009841Y020769D02*
X009841Y020489D01*
X017681Y022645D02*
X017681Y022925D01*
X018016Y022925D02*
X018016Y022645D01*
X020960Y026075D02*
X021240Y026075D01*
X021240Y026410D02*
X020960Y026410D01*
X035520Y027944D02*
X035596Y027867D01*
X035903Y027867D01*
X035980Y027944D01*
X035980Y028098D01*
X035903Y028174D01*
X035903Y028328D02*
X035980Y028405D01*
X035980Y028558D01*
X035903Y028635D01*
X035596Y028635D01*
X035520Y028558D01*
X035520Y028405D01*
X035596Y028328D01*
X035903Y028328D01*
X035596Y028174D02*
X035520Y028098D01*
X035520Y027944D01*
X035520Y028788D02*
X035980Y029095D01*
X035520Y029095D01*
X035596Y029249D02*
X035520Y029325D01*
X035520Y029479D01*
X035596Y029556D01*
X035673Y029556D01*
X035980Y029249D01*
X035980Y029556D01*
X035980Y028788D02*
X035520Y028788D01*
D78*
X029958Y020676D03*
X029958Y020216D03*
X031818Y013236D03*
X031818Y012776D03*
X034038Y012776D03*
X034038Y013236D03*
X030562Y010299D03*
X030562Y009839D03*
X026542Y009779D03*
X026542Y010239D03*
X023902Y010179D03*
X023902Y009719D03*
X021562Y009719D03*
X021562Y010179D03*
X016380Y008070D03*
X016380Y007610D03*
X012396Y006213D03*
X012396Y005753D03*
X010009Y020398D03*
X010009Y020858D03*
X017848Y022557D03*
X017848Y023017D03*
D79*
X018094Y023454D02*
X017586Y023454D01*
X017586Y022116D01*
X018094Y022116D01*
X018106Y022116D02*
X018106Y023454D01*
X020431Y025048D02*
X021769Y025048D01*
X021769Y025059D02*
X021769Y025555D01*
X021769Y025567D02*
X020431Y025567D01*
X020431Y025555D02*
X020431Y025059D01*
X020431Y025985D02*
X021769Y025985D01*
X021769Y025997D02*
X021769Y026505D01*
X020431Y026505D01*
X020431Y025997D01*
X020418Y027030D02*
X021757Y027030D01*
X021757Y027042D02*
X021757Y027538D01*
X021757Y027550D02*
X020418Y027550D01*
X020418Y027538D02*
X020418Y027042D01*
X021120Y028538D02*
X021120Y029877D01*
X021132Y029877D02*
X021628Y029877D01*
X021640Y029877D02*
X021640Y028538D01*
X021628Y028538D02*
X021132Y028538D01*
X020826Y028847D02*
X020826Y030265D01*
X020826Y030665D01*
X020826Y030265D02*
X019054Y030265D01*
X019054Y030665D01*
X019054Y030265D02*
X019054Y028847D01*
X020826Y028847D01*
X020249Y028857D02*
X019619Y028857D01*
X019619Y029960D01*
X020249Y029960D01*
X020249Y028857D01*
X020171Y029369D02*
X019698Y029369D01*
X019856Y029409D02*
X019856Y029448D01*
X019974Y029448D01*
X019974Y029409D01*
X019895Y029409D01*
X018820Y029877D02*
X018820Y028538D01*
X018808Y028538D02*
X018312Y028538D01*
X018300Y028538D02*
X018300Y029877D01*
X018312Y029877D02*
X018808Y029877D01*
X019054Y030665D02*
X019056Y030723D01*
X019062Y030781D01*
X019071Y030838D01*
X019084Y030894D01*
X019101Y030950D01*
X019121Y031004D01*
X019145Y031057D01*
X019173Y031108D01*
X019203Y031157D01*
X019237Y031204D01*
X019274Y031249D01*
X019314Y031291D01*
X019356Y031331D01*
X019401Y031368D01*
X019448Y031402D01*
X019497Y031432D01*
X019548Y031460D01*
X019601Y031484D01*
X019655Y031504D01*
X019711Y031521D01*
X019767Y031534D01*
X019824Y031543D01*
X019882Y031549D01*
X019940Y031551D01*
X019998Y031549D01*
X020056Y031543D01*
X020113Y031534D01*
X020169Y031521D01*
X020225Y031504D01*
X020279Y031484D01*
X020332Y031460D01*
X020383Y031432D01*
X020432Y031402D01*
X020479Y031368D01*
X020524Y031331D01*
X020566Y031291D01*
X020606Y031249D01*
X020643Y031204D01*
X020677Y031157D01*
X020707Y031108D01*
X020735Y031057D01*
X020759Y031004D01*
X020779Y030950D01*
X020796Y030894D01*
X020809Y030838D01*
X020818Y030781D01*
X020824Y030723D01*
X020826Y030665D01*
X024000Y029877D02*
X024000Y028538D01*
X024012Y028538D02*
X024508Y028538D01*
X024520Y028538D02*
X024520Y029877D01*
X024508Y029877D02*
X024012Y029877D01*
X024934Y030265D02*
X024934Y030665D01*
X024934Y030265D02*
X026706Y030265D01*
X026706Y030665D01*
X026706Y030265D02*
X026706Y028847D01*
X024934Y028847D01*
X024934Y030265D01*
X025525Y029960D02*
X026155Y029960D01*
X026155Y028857D01*
X025525Y028857D01*
X025525Y029960D01*
X025761Y029448D02*
X025879Y029448D01*
X025879Y029409D01*
X025800Y029409D01*
X025761Y029409D02*
X025761Y029448D01*
X025604Y029369D02*
X026076Y029369D01*
X027120Y029877D02*
X027120Y028538D01*
X027132Y028538D02*
X027628Y028538D01*
X027640Y028538D02*
X027640Y029877D01*
X027628Y029877D02*
X027132Y029877D01*
X026706Y030665D02*
X026704Y030723D01*
X026698Y030781D01*
X026689Y030838D01*
X026676Y030894D01*
X026659Y030950D01*
X026639Y031004D01*
X026615Y031057D01*
X026587Y031108D01*
X026557Y031157D01*
X026523Y031204D01*
X026486Y031249D01*
X026446Y031291D01*
X026404Y031331D01*
X026359Y031368D01*
X026312Y031402D01*
X026263Y031432D01*
X026212Y031460D01*
X026159Y031484D01*
X026105Y031504D01*
X026049Y031521D01*
X025993Y031534D01*
X025936Y031543D01*
X025878Y031549D01*
X025820Y031551D01*
X025762Y031549D01*
X025704Y031543D01*
X025647Y031534D01*
X025591Y031521D01*
X025535Y031504D01*
X025481Y031484D01*
X025428Y031460D01*
X025377Y031432D01*
X025328Y031402D01*
X025281Y031368D01*
X025236Y031331D01*
X025194Y031291D01*
X025154Y031249D01*
X025117Y031204D01*
X025083Y031157D01*
X025053Y031108D01*
X025025Y031057D01*
X025001Y031004D01*
X024981Y030950D01*
X024964Y030894D01*
X024951Y030838D01*
X024942Y030781D01*
X024936Y030723D01*
X024934Y030665D01*
X029880Y029877D02*
X029880Y028538D01*
X029892Y028538D02*
X030388Y028538D01*
X030400Y028538D02*
X030400Y029877D01*
X030388Y029877D02*
X029892Y029877D01*
X030874Y030265D02*
X030874Y030665D01*
X030874Y030265D02*
X032646Y030265D01*
X032646Y030665D01*
X032646Y030265D02*
X032646Y028847D01*
X030874Y028847D01*
X030874Y030265D01*
X031430Y029960D02*
X032060Y029960D01*
X032060Y028857D01*
X031430Y028857D01*
X031430Y029960D01*
X031667Y029448D02*
X031785Y029448D01*
X031785Y029409D01*
X031706Y029409D01*
X031667Y029409D02*
X031667Y029448D01*
X031509Y029369D02*
X031982Y029369D01*
X032940Y029937D02*
X032940Y028598D01*
X032952Y028598D02*
X033448Y028598D01*
X033460Y028598D02*
X033460Y029937D01*
X033448Y029937D02*
X032952Y029937D01*
X033660Y029937D02*
X033660Y028598D01*
X033672Y028598D02*
X034168Y028598D01*
X034180Y028598D02*
X034180Y029937D01*
X034168Y029937D02*
X033672Y029937D01*
X034402Y029676D02*
X034402Y030515D01*
X036076Y030515D01*
X036076Y024609D01*
X035402Y025676D02*
X034402Y025676D01*
X034402Y029676D01*
X035402Y029676D01*
X035402Y025676D01*
X034402Y025676D02*
X034402Y012676D01*
X035402Y012676D01*
X035402Y008676D01*
X034402Y008676D01*
X034402Y012676D01*
X034300Y012338D02*
X033792Y012338D01*
X033780Y012338D02*
X033780Y013677D01*
X033792Y013677D02*
X034300Y013677D01*
X034300Y012338D01*
X033929Y012067D02*
X032591Y012067D01*
X032591Y012055D02*
X032591Y011559D01*
X032591Y011548D02*
X033929Y011548D01*
X033929Y011559D02*
X033929Y012055D01*
X033160Y012338D02*
X033160Y013677D01*
X033148Y013677D02*
X032652Y013677D01*
X032640Y013677D02*
X032640Y012338D01*
X032652Y012338D02*
X033148Y012338D01*
X032080Y012338D02*
X032080Y013677D01*
X031572Y013677D01*
X031560Y013677D02*
X031560Y012338D01*
X031572Y012338D02*
X032080Y012338D01*
X032591Y010867D02*
X033929Y010867D01*
X033929Y010359D01*
X033929Y010348D02*
X032591Y010348D01*
X032591Y010359D02*
X032591Y010867D01*
X030820Y010737D02*
X030820Y009398D01*
X030808Y009398D02*
X030300Y009398D01*
X030300Y010737D01*
X030808Y010737D01*
X029680Y010737D02*
X029680Y009398D01*
X029668Y009398D02*
X029172Y009398D01*
X029160Y009398D02*
X029160Y010737D01*
X029172Y010737D02*
X029668Y010737D01*
X029960Y011817D02*
X026510Y011817D01*
X026476Y011819D01*
X026443Y011825D01*
X026411Y011834D01*
X026380Y011847D01*
X026350Y011863D01*
X026323Y011882D01*
X026298Y011905D01*
X026275Y011930D01*
X026256Y011957D01*
X026240Y011987D01*
X026227Y012018D01*
X026218Y012050D01*
X026212Y012083D01*
X026210Y012117D01*
X026210Y014067D01*
X026209Y014098D01*
X026211Y014129D01*
X026217Y014159D01*
X026227Y014189D01*
X026239Y014217D01*
X026255Y014244D01*
X026273Y014269D01*
X026294Y014291D01*
X026318Y014311D01*
X026343Y014329D01*
X026371Y014343D01*
X026399Y014354D01*
X026429Y014362D01*
X026460Y014367D01*
X029960Y014367D01*
X029710Y014117D02*
X029712Y014148D01*
X029718Y014179D01*
X029728Y014209D01*
X029741Y014237D01*
X029758Y014264D01*
X029778Y014288D01*
X029801Y014310D01*
X029826Y014328D01*
X029854Y014343D01*
X029883Y014355D01*
X029913Y014363D01*
X029944Y014367D01*
X029976Y014367D01*
X030007Y014363D01*
X030037Y014355D01*
X030066Y014343D01*
X030094Y014328D01*
X030119Y014310D01*
X030142Y014288D01*
X030162Y014264D01*
X030179Y014237D01*
X030192Y014209D01*
X030202Y014179D01*
X030208Y014148D01*
X030210Y014117D01*
X030208Y014086D01*
X030202Y014055D01*
X030192Y014025D01*
X030179Y013997D01*
X030162Y013970D01*
X030142Y013946D01*
X030119Y013924D01*
X030094Y013906D01*
X030066Y013891D01*
X030037Y013879D01*
X030007Y013871D01*
X029976Y013867D01*
X029944Y013867D01*
X029913Y013871D01*
X029883Y013879D01*
X029854Y013891D01*
X029826Y013906D01*
X029801Y013924D01*
X029778Y013946D01*
X029758Y013970D01*
X029741Y013997D01*
X029728Y014025D01*
X029718Y014055D01*
X029712Y014086D01*
X029710Y014117D01*
X029960Y014367D02*
X029991Y014362D01*
X030021Y014354D01*
X030049Y014343D01*
X030077Y014329D01*
X030102Y014311D01*
X030126Y014291D01*
X030147Y014269D01*
X030165Y014244D01*
X030181Y014217D01*
X030193Y014189D01*
X030203Y014159D01*
X030209Y014129D01*
X030211Y014098D01*
X030210Y014067D01*
X030210Y012067D01*
X030208Y012037D01*
X030203Y012007D01*
X030194Y011978D01*
X030181Y011951D01*
X030166Y011925D01*
X030147Y011901D01*
X030126Y011880D01*
X030102Y011861D01*
X030076Y011846D01*
X030049Y011833D01*
X030020Y011824D01*
X029990Y011819D01*
X029960Y011817D01*
X030010Y011817D01*
X027940Y010677D02*
X027940Y009338D01*
X027928Y009338D02*
X027432Y009338D01*
X027420Y009338D02*
X027420Y010677D01*
X027432Y010677D02*
X027928Y010677D01*
X026800Y010677D02*
X026800Y009338D01*
X026788Y009338D02*
X026280Y009338D01*
X026280Y010677D01*
X026788Y010677D01*
X025480Y010617D02*
X025480Y009278D01*
X025468Y009278D02*
X024972Y009278D01*
X024960Y009278D02*
X024960Y010617D01*
X024972Y010617D02*
X025468Y010617D01*
X024160Y010617D02*
X024160Y009278D01*
X024148Y009278D02*
X023640Y009278D01*
X023640Y010617D01*
X024148Y010617D01*
X022960Y010617D02*
X022960Y009278D01*
X022948Y009278D02*
X022452Y009278D01*
X022440Y009278D02*
X022440Y010617D01*
X022452Y010617D02*
X022948Y010617D01*
X021820Y010617D02*
X021820Y009278D01*
X021808Y009278D02*
X021300Y009278D01*
X021300Y010617D01*
X021808Y010617D01*
X020990Y011817D02*
X024440Y011817D01*
X024490Y011817D01*
X024440Y011817D02*
X024470Y011819D01*
X024500Y011824D01*
X024529Y011833D01*
X024556Y011846D01*
X024582Y011861D01*
X024606Y011880D01*
X024627Y011901D01*
X024646Y011925D01*
X024661Y011951D01*
X024674Y011978D01*
X024683Y012007D01*
X024688Y012037D01*
X024690Y012067D01*
X024690Y014067D01*
X024190Y014117D02*
X024192Y014148D01*
X024198Y014179D01*
X024208Y014209D01*
X024221Y014237D01*
X024238Y014264D01*
X024258Y014288D01*
X024281Y014310D01*
X024306Y014328D01*
X024334Y014343D01*
X024363Y014355D01*
X024393Y014363D01*
X024424Y014367D01*
X024456Y014367D01*
X024487Y014363D01*
X024517Y014355D01*
X024546Y014343D01*
X024574Y014328D01*
X024599Y014310D01*
X024622Y014288D01*
X024642Y014264D01*
X024659Y014237D01*
X024672Y014209D01*
X024682Y014179D01*
X024688Y014148D01*
X024690Y014117D01*
X024688Y014086D01*
X024682Y014055D01*
X024672Y014025D01*
X024659Y013997D01*
X024642Y013970D01*
X024622Y013946D01*
X024599Y013924D01*
X024574Y013906D01*
X024546Y013891D01*
X024517Y013879D01*
X024487Y013871D01*
X024456Y013867D01*
X024424Y013867D01*
X024393Y013871D01*
X024363Y013879D01*
X024334Y013891D01*
X024306Y013906D01*
X024281Y013924D01*
X024258Y013946D01*
X024238Y013970D01*
X024221Y013997D01*
X024208Y014025D01*
X024198Y014055D01*
X024192Y014086D01*
X024190Y014117D01*
X024440Y014367D02*
X024471Y014362D01*
X024501Y014354D01*
X024529Y014343D01*
X024557Y014329D01*
X024582Y014311D01*
X024606Y014291D01*
X024627Y014269D01*
X024645Y014244D01*
X024661Y014217D01*
X024673Y014189D01*
X024683Y014159D01*
X024689Y014129D01*
X024691Y014098D01*
X024690Y014067D01*
X024440Y014367D02*
X020940Y014367D01*
X020909Y014362D01*
X020879Y014354D01*
X020851Y014343D01*
X020823Y014329D01*
X020798Y014311D01*
X020774Y014291D01*
X020753Y014269D01*
X020735Y014244D01*
X020719Y014217D01*
X020707Y014189D01*
X020697Y014159D01*
X020691Y014129D01*
X020689Y014098D01*
X020690Y014067D01*
X020690Y012117D01*
X020692Y012083D01*
X020698Y012050D01*
X020707Y012018D01*
X020720Y011987D01*
X020736Y011957D01*
X020755Y011930D01*
X020778Y011905D01*
X020803Y011882D01*
X020830Y011863D01*
X020860Y011847D01*
X020891Y011834D01*
X020923Y011825D01*
X020956Y011819D01*
X020990Y011817D01*
X016638Y008508D02*
X016638Y007169D01*
X016626Y007169D02*
X016118Y007169D01*
X016118Y008508D01*
X016626Y008508D01*
X014080Y006627D02*
X014080Y006127D01*
X013080Y006127D02*
X013080Y006627D01*
X012658Y006654D02*
X012658Y005315D01*
X012150Y005315D01*
X012139Y005315D02*
X012139Y006654D01*
X012150Y006654D02*
X012658Y006654D01*
X011500Y006597D02*
X011500Y005258D01*
X011488Y005258D02*
X010992Y005258D01*
X010980Y005258D02*
X010980Y006597D01*
X010992Y006597D02*
X011488Y006597D01*
X012261Y004989D02*
X012734Y004989D01*
X012734Y004438D01*
X014466Y004438D01*
X014466Y004989D01*
X014939Y004989D01*
X014939Y003297D01*
X012261Y003297D01*
X012261Y004989D01*
X012261Y003297D02*
X012261Y003021D01*
X012419Y003021D01*
X012419Y002863D01*
X012418Y002864D02*
X012419Y002847D01*
X012422Y002830D01*
X012429Y002814D01*
X012439Y002799D01*
X012451Y002787D01*
X012465Y002777D01*
X012480Y002769D01*
X012497Y002765D01*
X012498Y002765D02*
X014683Y002765D01*
X014700Y002766D01*
X014717Y002769D01*
X014733Y002776D01*
X014748Y002786D01*
X014760Y002798D01*
X014770Y002812D01*
X014778Y002827D01*
X014782Y002844D01*
X014781Y002844D02*
X014781Y003021D01*
X014939Y003021D01*
X014939Y003297D01*
X020210Y002946D02*
X020210Y002159D01*
X026510Y002159D01*
X026510Y002946D01*
X020210Y002946D01*
X020210Y008064D01*
X026510Y008064D01*
X026510Y002946D01*
X027170Y003006D02*
X033470Y003006D01*
X033470Y008124D01*
X027170Y008124D01*
X027170Y003006D01*
X027170Y002219D01*
X033470Y002219D01*
X033470Y003006D01*
X034402Y008467D02*
X036076Y008467D01*
X036076Y013192D01*
X034501Y013192D01*
X034501Y016341D01*
X036076Y016341D01*
X036076Y018704D01*
X034501Y018704D01*
X034501Y024609D01*
X034501Y024589D02*
X039619Y024589D01*
X039619Y024609D02*
X039619Y018704D01*
X036076Y018704D01*
X034240Y018597D02*
X034240Y017258D01*
X034228Y017258D02*
X033732Y017258D01*
X033720Y017258D02*
X033720Y018597D01*
X033732Y018597D02*
X034228Y018597D01*
X034229Y019228D02*
X032891Y019228D01*
X032891Y019239D02*
X032891Y019747D01*
X034229Y019747D01*
X034229Y019239D01*
X033816Y020217D02*
X032241Y020217D01*
X031848Y020611D01*
X031848Y022304D01*
X032241Y022698D01*
X033816Y022698D01*
X034210Y022304D01*
X034210Y020611D01*
X033816Y020217D01*
X031989Y018222D02*
X030414Y018222D01*
X030414Y018223D02*
X030399Y018221D01*
X030384Y018217D01*
X030370Y018210D01*
X030358Y018200D01*
X030348Y018188D01*
X030341Y018174D01*
X030337Y018159D01*
X030335Y018144D01*
X030335Y016175D01*
X030337Y016160D01*
X030341Y016145D01*
X030348Y016131D01*
X030358Y016119D01*
X030370Y016109D01*
X030384Y016102D01*
X030399Y016098D01*
X030414Y016096D01*
X031989Y016096D01*
X032004Y016098D01*
X032019Y016102D01*
X032033Y016109D01*
X032045Y016119D01*
X032055Y016131D01*
X032062Y016145D01*
X032066Y016160D01*
X032068Y016175D01*
X032067Y016175D02*
X032067Y018144D01*
X032068Y018144D02*
X032066Y018159D01*
X032062Y018174D01*
X032055Y018188D01*
X032045Y018200D01*
X032033Y018210D01*
X032019Y018217D01*
X032004Y018221D01*
X031989Y018223D01*
X032891Y017047D02*
X034229Y017047D01*
X034229Y016539D01*
X034229Y016528D02*
X032891Y016528D01*
X032891Y016539D02*
X032891Y017047D01*
X032891Y015427D02*
X034229Y015427D01*
X034229Y015415D02*
X034229Y014919D01*
X034229Y014908D02*
X032891Y014908D01*
X032891Y014919D02*
X032891Y015415D01*
X032891Y014347D02*
X034229Y014347D01*
X034229Y014335D02*
X034229Y013839D01*
X034229Y013828D02*
X032891Y013828D01*
X032891Y013839D02*
X032891Y014335D01*
X029760Y015567D02*
X029762Y015598D01*
X029768Y015629D01*
X029778Y015659D01*
X029791Y015687D01*
X029808Y015714D01*
X029828Y015738D01*
X029851Y015760D01*
X029876Y015778D01*
X029904Y015793D01*
X029933Y015805D01*
X029963Y015813D01*
X029994Y015817D01*
X030026Y015817D01*
X030057Y015813D01*
X030087Y015805D01*
X030116Y015793D01*
X030144Y015778D01*
X030169Y015760D01*
X030192Y015738D01*
X030212Y015714D01*
X030229Y015687D01*
X030242Y015659D01*
X030252Y015629D01*
X030258Y015598D01*
X030260Y015567D01*
X030258Y015536D01*
X030252Y015505D01*
X030242Y015475D01*
X030229Y015447D01*
X030212Y015420D01*
X030192Y015396D01*
X030169Y015374D01*
X030144Y015356D01*
X030116Y015341D01*
X030087Y015329D01*
X030057Y015321D01*
X030026Y015317D01*
X029994Y015317D01*
X029963Y015321D01*
X029933Y015329D01*
X029904Y015341D01*
X029876Y015356D01*
X029851Y015374D01*
X029828Y015396D01*
X029808Y015420D01*
X029791Y015447D01*
X029778Y015475D01*
X029768Y015505D01*
X029762Y015536D01*
X029760Y015567D01*
X029645Y016149D02*
X028306Y016149D01*
X028306Y016161D02*
X028306Y016657D01*
X028306Y016669D02*
X029645Y016669D01*
X029645Y016657D02*
X029645Y016161D01*
X029437Y017907D02*
X029439Y017927D01*
X029444Y017947D01*
X029454Y017965D01*
X029466Y017982D01*
X029481Y017996D01*
X029499Y018006D01*
X029518Y018014D01*
X029538Y018018D01*
X029558Y018018D01*
X029578Y018014D01*
X029597Y018006D01*
X029615Y017996D01*
X029630Y017982D01*
X029642Y017965D01*
X029652Y017947D01*
X029657Y017927D01*
X029659Y017907D01*
X029657Y017887D01*
X029652Y017867D01*
X029642Y017849D01*
X029630Y017832D01*
X029615Y017818D01*
X029597Y017808D01*
X029578Y017800D01*
X029558Y017796D01*
X029538Y017796D01*
X029518Y017800D01*
X029499Y017808D01*
X029481Y017818D01*
X029466Y017832D01*
X029454Y017849D01*
X029444Y017867D01*
X029439Y017887D01*
X029437Y017907D01*
X029700Y019778D02*
X029700Y021117D01*
X029712Y021117D02*
X030220Y021117D01*
X030220Y019778D01*
X029712Y019778D01*
X029080Y019778D02*
X029080Y021117D01*
X029068Y021117D02*
X028572Y021117D01*
X028560Y021117D02*
X028560Y019778D01*
X028572Y019778D02*
X029068Y019778D01*
X024320Y019453D02*
X024320Y019153D01*
X024170Y018993D02*
X023870Y018993D01*
X023795Y018918D01*
X023795Y018693D01*
X024245Y018693D01*
X024245Y018918D01*
X024170Y018993D01*
X024020Y018533D02*
X024095Y018458D01*
X024095Y018232D01*
X024245Y018232D02*
X023795Y018232D01*
X023795Y018458D01*
X023870Y018533D01*
X024020Y018533D01*
X024095Y019614D02*
X024245Y019764D01*
X024095Y019914D01*
X023795Y019914D01*
X023795Y020074D02*
X023795Y020299D01*
X023870Y020374D01*
X024170Y020374D01*
X024245Y020299D01*
X024245Y020074D01*
X023795Y020074D01*
X023795Y019614D02*
X024095Y019614D01*
X024170Y020534D02*
X023870Y020534D01*
X023795Y020609D01*
X023795Y020760D01*
X023870Y020835D01*
X024170Y020835D02*
X024245Y020760D01*
X024245Y020609D01*
X024170Y020534D01*
X022617Y017177D02*
X022617Y023988D01*
X004901Y023988D01*
X004901Y017177D01*
X022617Y017177D01*
X024240Y015567D02*
X024242Y015598D01*
X024248Y015629D01*
X024258Y015659D01*
X024271Y015687D01*
X024288Y015714D01*
X024308Y015738D01*
X024331Y015760D01*
X024356Y015778D01*
X024384Y015793D01*
X024413Y015805D01*
X024443Y015813D01*
X024474Y015817D01*
X024506Y015817D01*
X024537Y015813D01*
X024567Y015805D01*
X024596Y015793D01*
X024624Y015778D01*
X024649Y015760D01*
X024672Y015738D01*
X024692Y015714D01*
X024709Y015687D01*
X024722Y015659D01*
X024732Y015629D01*
X024738Y015598D01*
X024740Y015567D01*
X024738Y015536D01*
X024732Y015505D01*
X024722Y015475D01*
X024709Y015447D01*
X024692Y015420D01*
X024672Y015396D01*
X024649Y015374D01*
X024624Y015356D01*
X024596Y015341D01*
X024567Y015329D01*
X024537Y015321D01*
X024506Y015317D01*
X024474Y015317D01*
X024443Y015321D01*
X024413Y015329D01*
X024384Y015341D01*
X024356Y015356D01*
X024331Y015374D01*
X024308Y015396D01*
X024288Y015420D01*
X024271Y015447D01*
X024258Y015475D01*
X024248Y015505D01*
X024242Y015536D01*
X024240Y015567D01*
X015971Y013582D02*
X015971Y012952D01*
X014789Y012952D01*
X014789Y013582D01*
X015971Y013582D01*
X015702Y013425D02*
X015704Y013445D01*
X015709Y013465D01*
X015719Y013483D01*
X015731Y013500D01*
X015746Y013514D01*
X015764Y013524D01*
X015783Y013532D01*
X015803Y013536D01*
X015823Y013536D01*
X015843Y013532D01*
X015862Y013524D01*
X015880Y013514D01*
X015895Y013500D01*
X015907Y013483D01*
X015917Y013465D01*
X015922Y013445D01*
X015924Y013425D01*
X015922Y013405D01*
X015917Y013385D01*
X015907Y013367D01*
X015895Y013350D01*
X015880Y013336D01*
X015862Y013326D01*
X015843Y013318D01*
X015823Y013314D01*
X015803Y013314D01*
X015783Y013318D01*
X015764Y013326D01*
X015746Y013336D01*
X015731Y013350D01*
X015719Y013367D01*
X015709Y013385D01*
X015704Y013405D01*
X015702Y013425D01*
X014592Y013304D02*
X013253Y013304D01*
X013253Y013811D01*
X013253Y013823D02*
X014592Y013823D01*
X014592Y013811D02*
X014592Y013304D01*
X014690Y014478D02*
X014690Y015817D01*
X014702Y015817D02*
X015198Y015817D01*
X015210Y015817D02*
X015210Y014478D01*
X015198Y014478D02*
X014702Y014478D01*
X010840Y013137D02*
X010840Y011798D01*
X010828Y011798D02*
X010332Y011798D01*
X010320Y011798D02*
X010320Y013137D01*
X010332Y013137D02*
X010828Y013137D01*
X009820Y013137D02*
X009820Y011798D01*
X009808Y011798D02*
X009312Y011798D01*
X009300Y011798D02*
X009300Y013137D01*
X009312Y013137D02*
X009808Y013137D01*
X009800Y011207D02*
X008000Y011207D01*
X008000Y009807D01*
X009800Y009807D01*
X009800Y011207D01*
X009510Y011109D02*
X009510Y010302D01*
X008294Y010302D01*
X008294Y011105D01*
X008294Y011109D02*
X009510Y011109D01*
X009751Y019960D02*
X009751Y021298D01*
X009763Y021298D02*
X010271Y021298D01*
X010271Y019960D01*
X009763Y019960D01*
X012300Y028538D02*
X012300Y029877D01*
X012312Y029877D02*
X012808Y029877D01*
X012820Y029877D02*
X012820Y028538D01*
X012808Y028538D02*
X012312Y028538D01*
X013143Y028869D02*
X013143Y030286D01*
X013143Y030686D01*
X013143Y030286D02*
X014915Y030286D01*
X014915Y030686D01*
X014915Y030286D02*
X014915Y028869D01*
X013143Y028869D01*
X013714Y028857D02*
X014344Y028857D01*
X014344Y029960D01*
X013714Y029960D01*
X013714Y028857D01*
X013793Y029369D02*
X014265Y029369D01*
X014068Y029409D02*
X013989Y029409D01*
X013950Y029409D02*
X013950Y029448D01*
X014068Y029448D01*
X014068Y029409D01*
X015240Y029817D02*
X015240Y028478D01*
X015252Y028478D02*
X015748Y028478D01*
X015760Y028478D02*
X015760Y029817D01*
X015748Y029817D02*
X015252Y029817D01*
X014915Y030686D02*
X014913Y030744D01*
X014907Y030802D01*
X014898Y030859D01*
X014885Y030915D01*
X014868Y030971D01*
X014848Y031025D01*
X014824Y031078D01*
X014796Y031129D01*
X014766Y031178D01*
X014732Y031225D01*
X014695Y031270D01*
X014655Y031312D01*
X014613Y031352D01*
X014568Y031389D01*
X014521Y031423D01*
X014472Y031453D01*
X014421Y031481D01*
X014368Y031505D01*
X014314Y031525D01*
X014258Y031542D01*
X014202Y031555D01*
X014145Y031564D01*
X014087Y031570D01*
X014029Y031572D01*
X013971Y031570D01*
X013913Y031564D01*
X013856Y031555D01*
X013800Y031542D01*
X013744Y031525D01*
X013690Y031505D01*
X013637Y031481D01*
X013586Y031453D01*
X013537Y031423D01*
X013490Y031389D01*
X013445Y031352D01*
X013403Y031312D01*
X013363Y031270D01*
X013326Y031225D01*
X013292Y031178D01*
X013262Y031129D01*
X013234Y031078D01*
X013210Y031025D01*
X013190Y030971D01*
X013173Y030915D01*
X013160Y030859D01*
X013151Y030802D01*
X013145Y030744D01*
X013143Y030686D01*
X030874Y030665D02*
X030876Y030723D01*
X030882Y030781D01*
X030891Y030838D01*
X030904Y030894D01*
X030921Y030950D01*
X030941Y031004D01*
X030965Y031057D01*
X030993Y031108D01*
X031023Y031157D01*
X031057Y031204D01*
X031094Y031249D01*
X031134Y031291D01*
X031176Y031331D01*
X031221Y031368D01*
X031268Y031402D01*
X031317Y031432D01*
X031368Y031460D01*
X031421Y031484D01*
X031475Y031504D01*
X031531Y031521D01*
X031587Y031534D01*
X031644Y031543D01*
X031702Y031549D01*
X031760Y031551D01*
X031818Y031549D01*
X031876Y031543D01*
X031933Y031534D01*
X031989Y031521D01*
X032045Y031504D01*
X032099Y031484D01*
X032152Y031460D01*
X032203Y031432D01*
X032252Y031402D01*
X032299Y031368D01*
X032344Y031331D01*
X032386Y031291D01*
X032426Y031249D01*
X032463Y031204D01*
X032497Y031157D01*
X032527Y031108D01*
X032555Y031057D01*
X032579Y031004D01*
X032599Y030950D01*
X032616Y030894D01*
X032629Y030838D01*
X032638Y030781D01*
X032644Y030723D01*
X032646Y030665D01*
X036565Y030257D02*
X036640Y030332D01*
X036715Y030332D01*
X036790Y030257D01*
X036865Y030332D01*
X036940Y030332D01*
X037015Y030257D01*
X037015Y030107D01*
X036940Y030032D01*
X036790Y030182D02*
X036790Y030257D01*
X036565Y030257D02*
X036565Y030107D01*
X036640Y030032D01*
X038315Y030082D02*
X038465Y029932D01*
X038315Y030082D02*
X038765Y030082D01*
X038765Y029932D02*
X038765Y030232D01*
X039130Y028952D02*
X039055Y028877D01*
X039055Y028727D01*
X039130Y028652D01*
X039130Y028492D02*
X039055Y028417D01*
X039055Y028267D01*
X039130Y028192D01*
X039205Y028192D01*
X039280Y028267D01*
X039280Y028417D01*
X039355Y028492D01*
X039430Y028492D01*
X039505Y028417D01*
X039505Y028267D01*
X039430Y028192D01*
X039505Y028652D02*
X039205Y028952D01*
X039130Y028952D01*
X039505Y028952D02*
X039505Y028652D01*
X038715Y027132D02*
X038715Y026832D01*
X038415Y027132D01*
X038340Y027132D01*
X038265Y027057D01*
X038265Y026907D01*
X038340Y026832D01*
X037015Y027057D02*
X036565Y027057D01*
X036790Y026832D01*
X036790Y027132D01*
X037257Y016341D02*
X036076Y016341D01*
X037257Y016341D02*
X037257Y013192D01*
X036076Y013192D01*
X034402Y008676D02*
X034402Y008467D01*
D80*
X033430Y011667D02*
X033090Y011667D01*
X033090Y011948D02*
X033430Y011948D01*
X033040Y012837D02*
X033040Y013177D01*
X032760Y013177D02*
X032760Y012837D01*
X033390Y013947D02*
X033730Y013947D01*
X033730Y014228D02*
X033390Y014228D01*
X033390Y015027D02*
X033730Y015027D01*
X033730Y015308D02*
X033390Y015308D01*
X033840Y017757D02*
X033840Y018097D01*
X034120Y018097D02*
X034120Y017757D01*
X029145Y016549D02*
X028805Y016549D01*
X028805Y016269D02*
X029145Y016269D01*
X028960Y020277D02*
X028960Y020617D01*
X028680Y020617D02*
X028680Y020277D01*
X028868Y022735D02*
X028868Y023035D01*
X029018Y022885D02*
X028718Y022885D01*
X028318Y023335D02*
X027968Y023335D01*
X027968Y022835D01*
X027768Y022835D01*
X027768Y023835D01*
X027968Y023835D01*
X027968Y023335D01*
X025668Y023335D02*
X025670Y023424D01*
X025676Y023513D01*
X025686Y023602D01*
X025700Y023690D01*
X025717Y023777D01*
X025739Y023863D01*
X025765Y023949D01*
X025794Y024033D01*
X025827Y024116D01*
X025863Y024197D01*
X025904Y024277D01*
X025947Y024354D01*
X025994Y024430D01*
X026045Y024503D01*
X026098Y024574D01*
X026155Y024643D01*
X026215Y024709D01*
X026278Y024773D01*
X026343Y024833D01*
X026411Y024891D01*
X026482Y024945D01*
X026555Y024996D01*
X026630Y025044D01*
X026707Y025089D01*
X026786Y025130D01*
X026867Y025167D01*
X026949Y025201D01*
X027033Y025232D01*
X027118Y025258D01*
X027204Y025281D01*
X027291Y025299D01*
X027379Y025314D01*
X027468Y025325D01*
X027557Y025332D01*
X027646Y025335D01*
X027735Y025334D01*
X027824Y025329D01*
X027912Y025320D01*
X028001Y025307D01*
X028088Y025290D01*
X028175Y025270D01*
X028261Y025245D01*
X028345Y025217D01*
X028428Y025185D01*
X028510Y025149D01*
X028590Y025110D01*
X028668Y025067D01*
X028744Y025021D01*
X028818Y024971D01*
X028890Y024918D01*
X028959Y024862D01*
X029026Y024803D01*
X029090Y024741D01*
X029151Y024677D01*
X029210Y024609D01*
X029265Y024539D01*
X029317Y024467D01*
X029366Y024392D01*
X029411Y024316D01*
X029453Y024237D01*
X029491Y024157D01*
X029526Y024075D01*
X029557Y023991D01*
X029585Y023906D01*
X029608Y023820D01*
X029628Y023733D01*
X029644Y023646D01*
X029656Y023557D01*
X029664Y023469D01*
X029668Y023380D01*
X029668Y023290D01*
X029664Y023201D01*
X029656Y023113D01*
X029644Y023024D01*
X029628Y022937D01*
X029608Y022850D01*
X029585Y022764D01*
X029557Y022679D01*
X029526Y022595D01*
X029491Y022513D01*
X029453Y022433D01*
X029411Y022354D01*
X029366Y022278D01*
X029317Y022203D01*
X029265Y022131D01*
X029210Y022061D01*
X029151Y021993D01*
X029090Y021929D01*
X029026Y021867D01*
X028959Y021808D01*
X028890Y021752D01*
X028818Y021699D01*
X028744Y021649D01*
X028668Y021603D01*
X028590Y021560D01*
X028510Y021521D01*
X028428Y021485D01*
X028345Y021453D01*
X028261Y021425D01*
X028175Y021400D01*
X028088Y021380D01*
X028001Y021363D01*
X027912Y021350D01*
X027824Y021341D01*
X027735Y021336D01*
X027646Y021335D01*
X027557Y021338D01*
X027468Y021345D01*
X027379Y021356D01*
X027291Y021371D01*
X027204Y021389D01*
X027118Y021412D01*
X027033Y021438D01*
X026949Y021469D01*
X026867Y021503D01*
X026786Y021540D01*
X026707Y021581D01*
X026630Y021626D01*
X026555Y021674D01*
X026482Y021725D01*
X026411Y021779D01*
X026343Y021837D01*
X026278Y021897D01*
X026215Y021961D01*
X026155Y022027D01*
X026098Y022096D01*
X026045Y022167D01*
X025994Y022240D01*
X025947Y022316D01*
X025904Y022393D01*
X025863Y022473D01*
X025827Y022554D01*
X025794Y022637D01*
X025765Y022721D01*
X025739Y022807D01*
X025717Y022893D01*
X025700Y022980D01*
X025686Y023068D01*
X025676Y023157D01*
X025670Y023246D01*
X025668Y023335D01*
X027018Y023335D02*
X027418Y023335D01*
X024143Y025465D02*
X024143Y025665D01*
X024143Y025865D01*
X022143Y026115D02*
X022145Y026204D01*
X022151Y026293D01*
X022161Y026382D01*
X022175Y026470D01*
X022192Y026557D01*
X022214Y026643D01*
X022240Y026729D01*
X022269Y026813D01*
X022302Y026896D01*
X022338Y026977D01*
X022379Y027057D01*
X022422Y027134D01*
X022469Y027210D01*
X022520Y027283D01*
X022573Y027354D01*
X022630Y027423D01*
X022690Y027489D01*
X022753Y027553D01*
X022818Y027613D01*
X022886Y027671D01*
X022957Y027725D01*
X023030Y027776D01*
X023105Y027824D01*
X023182Y027869D01*
X023261Y027910D01*
X023342Y027947D01*
X023424Y027981D01*
X023508Y028012D01*
X023593Y028038D01*
X023679Y028061D01*
X023766Y028079D01*
X023854Y028094D01*
X023943Y028105D01*
X024032Y028112D01*
X024121Y028115D01*
X024210Y028114D01*
X024299Y028109D01*
X024387Y028100D01*
X024476Y028087D01*
X024563Y028070D01*
X024650Y028050D01*
X024736Y028025D01*
X024820Y027997D01*
X024903Y027965D01*
X024985Y027929D01*
X025065Y027890D01*
X025143Y027847D01*
X025219Y027801D01*
X025293Y027751D01*
X025365Y027698D01*
X025434Y027642D01*
X025501Y027583D01*
X025565Y027521D01*
X025626Y027457D01*
X025685Y027389D01*
X025740Y027319D01*
X025792Y027247D01*
X025841Y027172D01*
X025886Y027096D01*
X025928Y027017D01*
X025966Y026937D01*
X026001Y026855D01*
X026032Y026771D01*
X026060Y026686D01*
X026083Y026600D01*
X026103Y026513D01*
X026119Y026426D01*
X026131Y026337D01*
X026139Y026249D01*
X026143Y026160D01*
X026143Y026070D01*
X026139Y025981D01*
X026131Y025893D01*
X026119Y025804D01*
X026103Y025717D01*
X026083Y025630D01*
X026060Y025544D01*
X026032Y025459D01*
X026001Y025375D01*
X025966Y025293D01*
X025928Y025213D01*
X025886Y025134D01*
X025841Y025058D01*
X025792Y024983D01*
X025740Y024911D01*
X025685Y024841D01*
X025626Y024773D01*
X025565Y024709D01*
X025501Y024647D01*
X025434Y024588D01*
X025365Y024532D01*
X025293Y024479D01*
X025219Y024429D01*
X025143Y024383D01*
X025065Y024340D01*
X024985Y024301D01*
X024903Y024265D01*
X024820Y024233D01*
X024736Y024205D01*
X024650Y024180D01*
X024563Y024160D01*
X024476Y024143D01*
X024387Y024130D01*
X024299Y024121D01*
X024210Y024116D01*
X024121Y024115D01*
X024032Y024118D01*
X023943Y024125D01*
X023854Y024136D01*
X023766Y024151D01*
X023679Y024169D01*
X023593Y024192D01*
X023508Y024218D01*
X023424Y024249D01*
X023342Y024283D01*
X023261Y024320D01*
X023182Y024361D01*
X023105Y024406D01*
X023030Y024454D01*
X022957Y024505D01*
X022886Y024559D01*
X022818Y024617D01*
X022753Y024677D01*
X022690Y024741D01*
X022630Y024807D01*
X022573Y024876D01*
X022520Y024947D01*
X022469Y025020D01*
X022422Y025096D01*
X022379Y025173D01*
X022338Y025253D01*
X022302Y025334D01*
X022269Y025417D01*
X022240Y025501D01*
X022214Y025587D01*
X022192Y025673D01*
X022175Y025760D01*
X022161Y025848D01*
X022151Y025937D01*
X022145Y026026D01*
X022143Y026115D01*
X021270Y025448D02*
X020930Y025448D01*
X020930Y025167D02*
X021270Y025167D01*
X019154Y024868D02*
X019154Y027427D01*
X017776Y027427D01*
X017776Y024868D01*
X019154Y024868D01*
X020917Y027150D02*
X021257Y027150D01*
X021257Y027430D02*
X020917Y027430D01*
X021240Y029037D02*
X021240Y029377D01*
X021520Y029377D02*
X021520Y029037D01*
X024120Y029037D02*
X024120Y029377D01*
X024400Y029377D02*
X024400Y029037D01*
X024643Y027765D02*
X024643Y027465D01*
X024793Y027615D02*
X024493Y027615D01*
X024143Y026765D02*
X024143Y026565D01*
X024143Y026465D01*
X024593Y026465D01*
X024593Y026215D01*
X023693Y026215D01*
X023693Y026465D01*
X024143Y026465D01*
X027240Y029037D02*
X027240Y029377D01*
X027520Y029377D02*
X027520Y029037D01*
X030000Y029037D02*
X030000Y029377D01*
X030280Y029377D02*
X030280Y029037D01*
X032210Y027377D02*
X032210Y027077D01*
X032060Y027227D02*
X032360Y027227D01*
X031760Y026677D02*
X031760Y026327D01*
X032260Y026327D01*
X032260Y026127D01*
X031260Y026127D01*
X031260Y026327D01*
X031760Y026327D01*
X029760Y026027D02*
X029762Y026116D01*
X029768Y026205D01*
X029778Y026294D01*
X029792Y026382D01*
X029809Y026469D01*
X029831Y026555D01*
X029857Y026641D01*
X029886Y026725D01*
X029919Y026808D01*
X029955Y026889D01*
X029996Y026969D01*
X030039Y027046D01*
X030086Y027122D01*
X030137Y027195D01*
X030190Y027266D01*
X030247Y027335D01*
X030307Y027401D01*
X030370Y027465D01*
X030435Y027525D01*
X030503Y027583D01*
X030574Y027637D01*
X030647Y027688D01*
X030722Y027736D01*
X030799Y027781D01*
X030878Y027822D01*
X030959Y027859D01*
X031041Y027893D01*
X031125Y027924D01*
X031210Y027950D01*
X031296Y027973D01*
X031383Y027991D01*
X031471Y028006D01*
X031560Y028017D01*
X031649Y028024D01*
X031738Y028027D01*
X031827Y028026D01*
X031916Y028021D01*
X032004Y028012D01*
X032093Y027999D01*
X032180Y027982D01*
X032267Y027962D01*
X032353Y027937D01*
X032437Y027909D01*
X032520Y027877D01*
X032602Y027841D01*
X032682Y027802D01*
X032760Y027759D01*
X032836Y027713D01*
X032910Y027663D01*
X032982Y027610D01*
X033051Y027554D01*
X033118Y027495D01*
X033182Y027433D01*
X033243Y027369D01*
X033302Y027301D01*
X033357Y027231D01*
X033409Y027159D01*
X033458Y027084D01*
X033503Y027008D01*
X033545Y026929D01*
X033583Y026849D01*
X033618Y026767D01*
X033649Y026683D01*
X033677Y026598D01*
X033700Y026512D01*
X033720Y026425D01*
X033736Y026338D01*
X033748Y026249D01*
X033756Y026161D01*
X033760Y026072D01*
X033760Y025982D01*
X033756Y025893D01*
X033748Y025805D01*
X033736Y025716D01*
X033720Y025629D01*
X033700Y025542D01*
X033677Y025456D01*
X033649Y025371D01*
X033618Y025287D01*
X033583Y025205D01*
X033545Y025125D01*
X033503Y025046D01*
X033458Y024970D01*
X033409Y024895D01*
X033357Y024823D01*
X033302Y024753D01*
X033243Y024685D01*
X033182Y024621D01*
X033118Y024559D01*
X033051Y024500D01*
X032982Y024444D01*
X032910Y024391D01*
X032836Y024341D01*
X032760Y024295D01*
X032682Y024252D01*
X032602Y024213D01*
X032520Y024177D01*
X032437Y024145D01*
X032353Y024117D01*
X032267Y024092D01*
X032180Y024072D01*
X032093Y024055D01*
X032004Y024042D01*
X031916Y024033D01*
X031827Y024028D01*
X031738Y024027D01*
X031649Y024030D01*
X031560Y024037D01*
X031471Y024048D01*
X031383Y024063D01*
X031296Y024081D01*
X031210Y024104D01*
X031125Y024130D01*
X031041Y024161D01*
X030959Y024195D01*
X030878Y024232D01*
X030799Y024273D01*
X030722Y024318D01*
X030647Y024366D01*
X030574Y024417D01*
X030503Y024471D01*
X030435Y024529D01*
X030370Y024589D01*
X030307Y024653D01*
X030247Y024719D01*
X030190Y024788D01*
X030137Y024859D01*
X030086Y024932D01*
X030039Y025008D01*
X029996Y025085D01*
X029955Y025165D01*
X029919Y025246D01*
X029886Y025329D01*
X029857Y025413D01*
X029831Y025499D01*
X029809Y025585D01*
X029792Y025672D01*
X029778Y025760D01*
X029768Y025849D01*
X029762Y025938D01*
X029760Y026027D01*
X031760Y025777D02*
X031760Y025377D01*
X036440Y027667D02*
X036440Y027817D01*
X036440Y028217D01*
X036440Y029167D01*
X036440Y029517D01*
X036440Y029667D01*
X036640Y029867D01*
X037240Y029867D01*
X037340Y029867D01*
X037340Y029967D01*
X037940Y029967D01*
X037940Y029867D01*
X038040Y029867D01*
X038640Y029867D01*
X038840Y029667D01*
X038840Y029517D01*
X038840Y029167D01*
X038840Y028167D01*
X038840Y027817D01*
X038840Y027667D01*
X038640Y027467D01*
X038040Y027467D01*
X037940Y027467D01*
X037940Y027367D01*
X037340Y027367D01*
X037340Y027467D01*
X037240Y027467D01*
X036640Y027467D01*
X036440Y027667D01*
X036640Y027817D02*
X036642Y027845D01*
X036648Y027872D01*
X036657Y027898D01*
X036670Y027923D01*
X036687Y027946D01*
X036706Y027966D01*
X036728Y027983D01*
X036752Y027997D01*
X036778Y028007D01*
X036805Y028014D01*
X036833Y028017D01*
X036861Y028016D01*
X036888Y028011D01*
X036915Y028002D01*
X036940Y027990D01*
X036963Y027975D01*
X036984Y027956D01*
X037002Y027935D01*
X037017Y027911D01*
X037028Y027885D01*
X037036Y027859D01*
X037040Y027831D01*
X037040Y027803D01*
X037036Y027775D01*
X037028Y027749D01*
X037017Y027723D01*
X037002Y027699D01*
X036984Y027678D01*
X036963Y027659D01*
X036940Y027644D01*
X036915Y027632D01*
X036888Y027623D01*
X036861Y027618D01*
X036833Y027617D01*
X036805Y027620D01*
X036778Y027627D01*
X036752Y027637D01*
X036728Y027651D01*
X036706Y027668D01*
X036687Y027688D01*
X036670Y027711D01*
X036657Y027736D01*
X036648Y027762D01*
X036642Y027789D01*
X036640Y027817D01*
X036790Y028167D02*
X036790Y029167D01*
X036590Y029517D02*
X036592Y029545D01*
X036598Y029572D01*
X036607Y029598D01*
X036620Y029623D01*
X036637Y029646D01*
X036656Y029666D01*
X036678Y029683D01*
X036702Y029697D01*
X036728Y029707D01*
X036755Y029714D01*
X036783Y029717D01*
X036811Y029716D01*
X036838Y029711D01*
X036865Y029702D01*
X036890Y029690D01*
X036913Y029675D01*
X036934Y029656D01*
X036952Y029635D01*
X036967Y029611D01*
X036978Y029585D01*
X036986Y029559D01*
X036990Y029531D01*
X036990Y029503D01*
X036986Y029475D01*
X036978Y029449D01*
X036967Y029423D01*
X036952Y029399D01*
X036934Y029378D01*
X036913Y029359D01*
X036890Y029344D01*
X036865Y029332D01*
X036838Y029323D01*
X036811Y029318D01*
X036783Y029317D01*
X036755Y029320D01*
X036728Y029327D01*
X036702Y029337D01*
X036678Y029351D01*
X036656Y029368D01*
X036637Y029388D01*
X036620Y029411D01*
X036607Y029436D01*
X036598Y029462D01*
X036592Y029489D01*
X036590Y029517D01*
X037140Y029617D02*
X037440Y029617D01*
X037490Y029517D02*
X037840Y029617D01*
X038140Y029617D01*
X038290Y029517D02*
X038292Y029545D01*
X038298Y029572D01*
X038307Y029598D01*
X038320Y029623D01*
X038337Y029646D01*
X038356Y029666D01*
X038378Y029683D01*
X038402Y029697D01*
X038428Y029707D01*
X038455Y029714D01*
X038483Y029717D01*
X038511Y029716D01*
X038538Y029711D01*
X038565Y029702D01*
X038590Y029690D01*
X038613Y029675D01*
X038634Y029656D01*
X038652Y029635D01*
X038667Y029611D01*
X038678Y029585D01*
X038686Y029559D01*
X038690Y029531D01*
X038690Y029503D01*
X038686Y029475D01*
X038678Y029449D01*
X038667Y029423D01*
X038652Y029399D01*
X038634Y029378D01*
X038613Y029359D01*
X038590Y029344D01*
X038565Y029332D01*
X038538Y029323D01*
X038511Y029318D01*
X038483Y029317D01*
X038455Y029320D01*
X038428Y029327D01*
X038402Y029337D01*
X038378Y029351D01*
X038356Y029368D01*
X038337Y029388D01*
X038320Y029411D01*
X038307Y029436D01*
X038298Y029462D01*
X038292Y029489D01*
X038290Y029517D01*
X038540Y029167D02*
X038540Y028167D01*
X038290Y027817D02*
X038292Y027845D01*
X038298Y027872D01*
X038307Y027898D01*
X038320Y027923D01*
X038337Y027946D01*
X038356Y027966D01*
X038378Y027983D01*
X038402Y027997D01*
X038428Y028007D01*
X038455Y028014D01*
X038483Y028017D01*
X038511Y028016D01*
X038538Y028011D01*
X038565Y028002D01*
X038590Y027990D01*
X038613Y027975D01*
X038634Y027956D01*
X038652Y027935D01*
X038667Y027911D01*
X038678Y027885D01*
X038686Y027859D01*
X038690Y027831D01*
X038690Y027803D01*
X038686Y027775D01*
X038678Y027749D01*
X038667Y027723D01*
X038652Y027699D01*
X038634Y027678D01*
X038613Y027659D01*
X038590Y027644D01*
X038565Y027632D01*
X038538Y027623D01*
X038511Y027618D01*
X038483Y027617D01*
X038455Y027620D01*
X038428Y027627D01*
X038402Y027637D01*
X038378Y027651D01*
X038356Y027668D01*
X038337Y027688D01*
X038320Y027711D01*
X038307Y027736D01*
X038298Y027762D01*
X038292Y027789D01*
X038290Y027817D01*
X037540Y028667D02*
X037542Y028687D01*
X037548Y028705D01*
X037557Y028723D01*
X037569Y028738D01*
X037584Y028750D01*
X037602Y028759D01*
X037620Y028765D01*
X037640Y028767D01*
X037660Y028765D01*
X037678Y028759D01*
X037696Y028750D01*
X037711Y028738D01*
X037723Y028723D01*
X037732Y028705D01*
X037738Y028687D01*
X037740Y028667D01*
X037738Y028647D01*
X037732Y028629D01*
X037723Y028611D01*
X037711Y028596D01*
X037696Y028584D01*
X037678Y028575D01*
X037660Y028569D01*
X037640Y028567D01*
X037620Y028569D01*
X037602Y028575D01*
X037584Y028584D01*
X037569Y028596D01*
X037557Y028611D01*
X037548Y028629D01*
X037542Y028647D01*
X037540Y028667D01*
X036940Y028667D02*
X036942Y028719D01*
X036948Y028771D01*
X036958Y028823D01*
X036971Y028873D01*
X036988Y028923D01*
X037009Y028971D01*
X037034Y029017D01*
X037062Y029061D01*
X037093Y029103D01*
X037127Y029143D01*
X037164Y029180D01*
X037204Y029214D01*
X037246Y029245D01*
X037290Y029273D01*
X037336Y029298D01*
X037384Y029319D01*
X037434Y029336D01*
X037484Y029349D01*
X037536Y029359D01*
X037588Y029365D01*
X037640Y029367D01*
X037692Y029365D01*
X037744Y029359D01*
X037796Y029349D01*
X037846Y029336D01*
X037896Y029319D01*
X037944Y029298D01*
X037990Y029273D01*
X038034Y029245D01*
X038076Y029214D01*
X038116Y029180D01*
X038153Y029143D01*
X038187Y029103D01*
X038218Y029061D01*
X038246Y029017D01*
X038271Y028971D01*
X038292Y028923D01*
X038309Y028873D01*
X038322Y028823D01*
X038332Y028771D01*
X038338Y028719D01*
X038340Y028667D01*
X038338Y028615D01*
X038332Y028563D01*
X038322Y028511D01*
X038309Y028461D01*
X038292Y028411D01*
X038271Y028363D01*
X038246Y028317D01*
X038218Y028273D01*
X038187Y028231D01*
X038153Y028191D01*
X038116Y028154D01*
X038076Y028120D01*
X038034Y028089D01*
X037990Y028061D01*
X037944Y028036D01*
X037896Y028015D01*
X037846Y027998D01*
X037796Y027985D01*
X037744Y027975D01*
X037692Y027969D01*
X037640Y027967D01*
X037588Y027969D01*
X037536Y027975D01*
X037484Y027985D01*
X037434Y027998D01*
X037384Y028015D01*
X037336Y028036D01*
X037290Y028061D01*
X037246Y028089D01*
X037204Y028120D01*
X037164Y028154D01*
X037127Y028191D01*
X037093Y028231D01*
X037062Y028273D01*
X037034Y028317D01*
X037009Y028363D01*
X036988Y028411D01*
X036971Y028461D01*
X036958Y028511D01*
X036948Y028563D01*
X036942Y028615D01*
X036940Y028667D01*
X034060Y029097D02*
X034060Y029437D01*
X033780Y029437D02*
X033780Y029097D01*
X033340Y029097D02*
X033340Y029437D01*
X033060Y029437D02*
X033060Y029097D01*
X018700Y029037D02*
X018700Y029377D01*
X018420Y029377D02*
X018420Y029037D01*
X016080Y026977D02*
X015830Y027227D01*
X015330Y027227D01*
X015080Y026977D01*
X015080Y025477D01*
X014830Y025227D01*
X014330Y025227D01*
X014080Y025477D01*
X014080Y026977D01*
X013830Y027227D01*
X013330Y027227D01*
X013080Y026977D01*
X013080Y025477D01*
X012830Y025227D01*
X012330Y025227D01*
X012080Y025477D01*
X012080Y026977D01*
X011830Y027227D01*
X011330Y027227D01*
X011080Y026977D01*
X011080Y025477D01*
X010830Y025227D01*
X010330Y025227D01*
X010080Y025477D01*
X010080Y026977D01*
X009830Y027227D01*
X009330Y027227D01*
X009080Y026977D01*
X008830Y027227D01*
X008330Y027227D01*
X008080Y026977D01*
X008080Y025477D01*
X008330Y025227D01*
X008830Y025227D01*
X009080Y025477D01*
X009080Y026977D01*
X010080Y026977D02*
X010330Y027227D01*
X010830Y027227D01*
X011080Y026977D01*
X012080Y026977D02*
X012330Y027227D01*
X012830Y027227D01*
X013080Y026977D01*
X014080Y026977D02*
X014330Y027227D01*
X014830Y027227D01*
X015080Y026977D01*
X016080Y026977D02*
X016080Y025477D01*
X015830Y025227D01*
X015330Y025227D01*
X015080Y025477D01*
X014080Y025477D02*
X013830Y025227D01*
X013330Y025227D01*
X013080Y025477D01*
X012080Y025477D02*
X011830Y025227D01*
X011330Y025227D01*
X011080Y025477D01*
X010080Y025477D02*
X009830Y025227D01*
X009330Y025227D01*
X009080Y025477D01*
X009170Y028807D02*
X008670Y028807D01*
X008420Y029057D01*
X008170Y028807D01*
X007670Y028807D01*
X007420Y029057D01*
X007420Y029557D01*
X007670Y029807D01*
X008170Y029807D01*
X008420Y029557D01*
X008670Y029807D01*
X009170Y029807D01*
X009420Y029557D01*
X009420Y029057D01*
X009170Y028807D01*
X009420Y029057D02*
X009670Y028807D01*
X010170Y028807D01*
X010420Y029057D01*
X010670Y028807D01*
X011170Y028807D01*
X011420Y029057D01*
X011420Y029557D01*
X011170Y029807D01*
X010670Y029807D01*
X010420Y029557D01*
X010420Y029057D01*
X010420Y029557D02*
X010170Y029807D01*
X009670Y029807D01*
X009420Y029557D01*
X008420Y029557D02*
X008420Y029057D01*
X012420Y029037D02*
X012420Y029377D01*
X012700Y029377D02*
X012700Y029037D01*
X015360Y028977D02*
X015360Y029317D01*
X015640Y029317D02*
X015640Y028977D01*
X015090Y015317D02*
X015090Y014977D01*
X014810Y014977D02*
X014810Y015317D01*
X013080Y014977D02*
X013080Y013477D01*
X012830Y013227D01*
X012330Y013227D01*
X012080Y013477D01*
X012080Y014977D01*
X011830Y015227D01*
X011330Y015227D01*
X011080Y014977D01*
X011080Y013477D01*
X010830Y013227D01*
X010330Y013227D01*
X010080Y013477D01*
X010080Y014977D01*
X009830Y015227D01*
X009330Y015227D01*
X009080Y014977D01*
X008830Y015227D01*
X008330Y015227D01*
X008080Y014977D01*
X008080Y013477D01*
X008330Y013227D01*
X008830Y013227D01*
X009080Y013477D01*
X009080Y014977D01*
X010080Y014977D02*
X010330Y015227D01*
X010830Y015227D01*
X011080Y014977D01*
X012080Y014977D02*
X012330Y015227D01*
X012830Y015227D01*
X013080Y014977D01*
X012080Y013477D02*
X011830Y013227D01*
X011330Y013227D01*
X011080Y013477D01*
X010720Y012637D02*
X010720Y012297D01*
X010440Y012297D02*
X010440Y012637D01*
X009700Y012637D02*
X009700Y012297D01*
X009420Y012297D02*
X009420Y012637D01*
X009330Y013227D02*
X009080Y013477D01*
X009330Y013227D02*
X009830Y013227D01*
X010080Y013477D01*
X012130Y008677D02*
X012230Y008677D01*
X012230Y007627D01*
X012230Y007427D01*
X012230Y006827D01*
X012230Y006327D01*
X013330Y006327D01*
X013830Y006327D01*
X014930Y006327D01*
X014930Y006827D01*
X014930Y007427D01*
X014930Y007627D01*
X014630Y007627D01*
X014630Y007727D01*
X014280Y007727D01*
X014280Y007627D01*
X013880Y007627D01*
X013880Y007527D01*
X013280Y007527D01*
X013280Y007627D01*
X012830Y007627D01*
X012830Y007727D01*
X012530Y007727D01*
X012530Y007627D01*
X012230Y007627D01*
X012130Y007627D02*
X012130Y008677D01*
X012130Y007627D02*
X012130Y006227D01*
X014580Y006227D01*
X014580Y006127D01*
X014080Y006127D01*
X014080Y001958D01*
X013080Y001958D01*
X013080Y006127D01*
X014080Y006127D01*
X013830Y006327D02*
X013830Y006727D01*
X013330Y006727D01*
X013330Y006327D01*
X013080Y006127D02*
X012580Y006127D01*
X012580Y006227D01*
X013480Y006977D02*
X013580Y006977D01*
X013680Y006977D01*
X013580Y006977D02*
X013580Y007127D01*
X013780Y007127D02*
X013280Y007277D01*
X012930Y007277D01*
X013780Y007277D02*
X014230Y007277D01*
X014930Y007627D02*
X014930Y008677D01*
X015030Y008677D01*
X015030Y007627D01*
X015030Y006227D01*
X014580Y006227D01*
X011380Y006097D02*
X011380Y005757D01*
X011100Y005757D02*
X011100Y006097D01*
X017754Y011964D02*
X018054Y011964D01*
X017904Y012114D02*
X017904Y011814D01*
X018404Y012814D02*
X018404Y013014D01*
X018404Y013114D01*
X017954Y013114D01*
X017954Y013364D01*
X018854Y013364D01*
X018854Y013114D01*
X018404Y013114D01*
X016404Y013464D02*
X016406Y013553D01*
X016412Y013642D01*
X016422Y013731D01*
X016436Y013819D01*
X016453Y013906D01*
X016475Y013992D01*
X016501Y014078D01*
X016530Y014162D01*
X016563Y014245D01*
X016599Y014326D01*
X016640Y014406D01*
X016683Y014483D01*
X016730Y014559D01*
X016781Y014632D01*
X016834Y014703D01*
X016891Y014772D01*
X016951Y014838D01*
X017014Y014902D01*
X017079Y014962D01*
X017147Y015020D01*
X017218Y015074D01*
X017291Y015125D01*
X017366Y015173D01*
X017443Y015218D01*
X017522Y015259D01*
X017603Y015296D01*
X017685Y015330D01*
X017769Y015361D01*
X017854Y015387D01*
X017940Y015410D01*
X018027Y015428D01*
X018115Y015443D01*
X018204Y015454D01*
X018293Y015461D01*
X018382Y015464D01*
X018471Y015463D01*
X018560Y015458D01*
X018648Y015449D01*
X018737Y015436D01*
X018824Y015419D01*
X018911Y015399D01*
X018997Y015374D01*
X019081Y015346D01*
X019164Y015314D01*
X019246Y015278D01*
X019326Y015239D01*
X019404Y015196D01*
X019480Y015150D01*
X019554Y015100D01*
X019626Y015047D01*
X019695Y014991D01*
X019762Y014932D01*
X019826Y014870D01*
X019887Y014806D01*
X019946Y014738D01*
X020001Y014668D01*
X020053Y014596D01*
X020102Y014521D01*
X020147Y014445D01*
X020189Y014366D01*
X020227Y014286D01*
X020262Y014204D01*
X020293Y014120D01*
X020321Y014035D01*
X020344Y013949D01*
X020364Y013862D01*
X020380Y013775D01*
X020392Y013686D01*
X020400Y013598D01*
X020404Y013509D01*
X020404Y013419D01*
X020400Y013330D01*
X020392Y013242D01*
X020380Y013153D01*
X020364Y013066D01*
X020344Y012979D01*
X020321Y012893D01*
X020293Y012808D01*
X020262Y012724D01*
X020227Y012642D01*
X020189Y012562D01*
X020147Y012483D01*
X020102Y012407D01*
X020053Y012332D01*
X020001Y012260D01*
X019946Y012190D01*
X019887Y012122D01*
X019826Y012058D01*
X019762Y011996D01*
X019695Y011937D01*
X019626Y011881D01*
X019554Y011828D01*
X019480Y011778D01*
X019404Y011732D01*
X019326Y011689D01*
X019246Y011650D01*
X019164Y011614D01*
X019081Y011582D01*
X018997Y011554D01*
X018911Y011529D01*
X018824Y011509D01*
X018737Y011492D01*
X018648Y011479D01*
X018560Y011470D01*
X018471Y011465D01*
X018382Y011464D01*
X018293Y011467D01*
X018204Y011474D01*
X018115Y011485D01*
X018027Y011500D01*
X017940Y011518D01*
X017854Y011541D01*
X017769Y011567D01*
X017685Y011598D01*
X017603Y011632D01*
X017522Y011669D01*
X017443Y011710D01*
X017366Y011755D01*
X017291Y011803D01*
X017218Y011854D01*
X017147Y011908D01*
X017079Y011966D01*
X017014Y012026D01*
X016951Y012090D01*
X016891Y012156D01*
X016834Y012225D01*
X016781Y012296D01*
X016730Y012369D01*
X016683Y012445D01*
X016640Y012522D01*
X016599Y012602D01*
X016563Y012683D01*
X016530Y012766D01*
X016501Y012850D01*
X016475Y012936D01*
X016453Y013022D01*
X016436Y013109D01*
X016422Y013197D01*
X016412Y013286D01*
X016406Y013375D01*
X016404Y013464D01*
X018404Y013714D02*
X018404Y013914D01*
X018404Y014114D01*
X022560Y010117D02*
X022560Y009777D01*
X022840Y009777D02*
X022840Y010117D01*
X025080Y010117D02*
X025080Y009777D01*
X025360Y009777D02*
X025360Y010117D01*
X027540Y010177D02*
X027540Y009837D01*
X027820Y009837D02*
X027820Y010177D01*
X029280Y010237D02*
X029280Y009897D01*
X029560Y009897D02*
X029560Y010237D01*
D81*
X033010Y011807D03*
X033510Y011807D03*
X033310Y014087D03*
X033810Y014087D03*
X033810Y015167D03*
X033310Y015167D03*
X029225Y016409D03*
X028725Y016409D03*
X021350Y025307D03*
X020850Y025307D03*
X020837Y027290D03*
X021337Y027290D03*
D82*
X021332Y026243D03*
X020872Y026243D03*
X033332Y019485D03*
X033792Y019485D03*
X033792Y016785D03*
X033332Y016785D03*
X033492Y010605D03*
X033032Y010605D03*
X018585Y010724D03*
X018125Y010724D03*
X014151Y013565D03*
X013691Y013565D03*
D83*
X007501Y002062D02*
X007501Y001235D01*
X007698Y001117D01*
X009982Y001117D01*
X009982Y000880D01*
X007698Y000880D01*
X007698Y001117D01*
X007501Y002062D02*
X007698Y002180D01*
X009982Y002180D01*
X010179Y002062D01*
X010179Y001235D01*
X009982Y001117D01*
X009982Y002180D02*
X009982Y003754D01*
X009982Y004188D01*
X007698Y004188D01*
X007698Y003754D01*
X007698Y002180D01*
X007698Y004188D02*
X007580Y004188D01*
X007580Y006707D01*
X010100Y006707D01*
X010100Y004188D01*
X009982Y004188D01*
X009273Y004188D02*
X008407Y004188D01*
X007580Y005014D02*
X007580Y005880D01*
X008407Y006707D02*
X009273Y006707D01*
X010100Y005880D02*
X010100Y005014D01*
X008171Y005447D02*
X008173Y005498D01*
X008179Y005549D01*
X008189Y005599D01*
X008202Y005649D01*
X008220Y005697D01*
X008240Y005744D01*
X008265Y005789D01*
X008293Y005832D01*
X008324Y005873D01*
X008358Y005911D01*
X008395Y005946D01*
X008434Y005979D01*
X008476Y006009D01*
X008520Y006035D01*
X008566Y006057D01*
X008614Y006077D01*
X008663Y006092D01*
X008713Y006104D01*
X008763Y006112D01*
X008814Y006116D01*
X008866Y006116D01*
X008917Y006112D01*
X008967Y006104D01*
X009017Y006092D01*
X009066Y006077D01*
X009114Y006057D01*
X009160Y006035D01*
X009204Y006009D01*
X009246Y005979D01*
X009285Y005946D01*
X009322Y005911D01*
X009356Y005873D01*
X009387Y005832D01*
X009415Y005789D01*
X009440Y005744D01*
X009460Y005697D01*
X009478Y005649D01*
X009491Y005599D01*
X009501Y005549D01*
X009507Y005498D01*
X009509Y005447D01*
X009507Y005396D01*
X009501Y005345D01*
X009491Y005295D01*
X009478Y005245D01*
X009460Y005197D01*
X009440Y005150D01*
X009415Y005105D01*
X009387Y005062D01*
X009356Y005021D01*
X009322Y004983D01*
X009285Y004948D01*
X009246Y004915D01*
X009204Y004885D01*
X009160Y004859D01*
X009114Y004837D01*
X009066Y004817D01*
X009017Y004802D01*
X008967Y004790D01*
X008917Y004782D01*
X008866Y004778D01*
X008814Y004778D01*
X008763Y004782D01*
X008713Y004790D01*
X008663Y004802D01*
X008614Y004817D01*
X008566Y004837D01*
X008520Y004859D01*
X008476Y004885D01*
X008434Y004915D01*
X008395Y004948D01*
X008358Y004983D01*
X008324Y005021D01*
X008293Y005062D01*
X008265Y005105D01*
X008240Y005150D01*
X008220Y005197D01*
X008202Y005245D01*
X008189Y005295D01*
X008179Y005345D01*
X008173Y005396D01*
X008171Y005447D01*
X007580Y005447D02*
X007582Y005518D01*
X007588Y005588D01*
X007598Y005658D01*
X007612Y005727D01*
X007629Y005796D01*
X007651Y005863D01*
X007676Y005929D01*
X007705Y005994D01*
X007737Y006056D01*
X007773Y006117D01*
X007812Y006176D01*
X007855Y006233D01*
X007900Y006287D01*
X007949Y006338D01*
X008000Y006387D01*
X008054Y006432D01*
X008111Y006475D01*
X008170Y006514D01*
X008231Y006550D01*
X008293Y006582D01*
X008358Y006611D01*
X008424Y006636D01*
X008491Y006658D01*
X008560Y006675D01*
X008629Y006689D01*
X008699Y006699D01*
X008769Y006705D01*
X008840Y006707D01*
X008911Y006705D01*
X008981Y006699D01*
X009051Y006689D01*
X009120Y006675D01*
X009189Y006658D01*
X009256Y006636D01*
X009322Y006611D01*
X009387Y006582D01*
X009449Y006550D01*
X009510Y006514D01*
X009569Y006475D01*
X009626Y006432D01*
X009680Y006387D01*
X009731Y006338D01*
X009780Y006287D01*
X009825Y006233D01*
X009868Y006176D01*
X009907Y006117D01*
X009943Y006056D01*
X009975Y005994D01*
X010004Y005929D01*
X010029Y005863D01*
X010051Y005796D01*
X010068Y005727D01*
X010082Y005658D01*
X010092Y005588D01*
X010098Y005518D01*
X010100Y005447D01*
X010098Y005376D01*
X010092Y005306D01*
X010082Y005236D01*
X010068Y005167D01*
X010051Y005098D01*
X010029Y005031D01*
X010004Y004965D01*
X009975Y004900D01*
X009943Y004838D01*
X009907Y004777D01*
X009868Y004718D01*
X009825Y004661D01*
X009780Y004607D01*
X009731Y004556D01*
X009680Y004507D01*
X009626Y004462D01*
X009569Y004419D01*
X009510Y004380D01*
X009449Y004344D01*
X009387Y004312D01*
X009322Y004283D01*
X009256Y004258D01*
X009189Y004236D01*
X009120Y004219D01*
X009051Y004205D01*
X008981Y004195D01*
X008911Y004189D01*
X008840Y004187D01*
X008769Y004189D01*
X008699Y004195D01*
X008629Y004205D01*
X008560Y004219D01*
X008491Y004236D01*
X008424Y004258D01*
X008358Y004283D01*
X008293Y004312D01*
X008231Y004344D01*
X008170Y004380D01*
X008111Y004419D01*
X008054Y004462D01*
X008000Y004507D01*
X007949Y004556D01*
X007900Y004607D01*
X007855Y004661D01*
X007812Y004718D01*
X007773Y004777D01*
X007737Y004838D01*
X007705Y004900D01*
X007676Y004965D01*
X007651Y005031D01*
X007629Y005098D01*
X007612Y005167D01*
X007598Y005236D01*
X007588Y005306D01*
X007582Y005376D01*
X007580Y005447D01*
X012261Y004989D02*
X012261Y004360D01*
X012734Y004438D02*
X012734Y004989D01*
X012261Y004989D01*
X012734Y004438D02*
X014466Y004438D01*
X014466Y004989D01*
X014939Y004989D01*
X014939Y004360D01*
X014939Y003297D02*
X012261Y003297D01*
X012261Y003021D02*
X012025Y002785D01*
X014939Y003021D02*
X015175Y002785D01*
X018808Y006038D02*
X018808Y006199D01*
X018861Y006252D01*
X019075Y006252D01*
X019128Y006199D01*
X019128Y006038D01*
X018808Y006038D01*
X018968Y006407D02*
X018968Y006620D01*
X017931Y006707D02*
X017931Y006867D01*
X017878Y006920D01*
X017664Y006920D01*
X017611Y006867D01*
X017611Y006707D01*
X017931Y006707D01*
X017771Y007075D02*
X017771Y007288D01*
X017878Y007182D02*
X017664Y007182D01*
X025986Y015976D02*
X025986Y016154D01*
X025986Y015976D02*
X027797Y015976D01*
X027797Y016154D01*
X027285Y016154D02*
X027285Y016941D01*
X027797Y016941D02*
X027797Y017118D01*
X025986Y017118D01*
X025986Y016941D01*
X025986Y017551D02*
X025986Y017728D01*
X025986Y017551D02*
X027797Y017551D01*
X027797Y017728D01*
X027285Y017728D02*
X027285Y018516D01*
X027797Y018516D02*
X027797Y018693D01*
X025986Y018693D01*
X025986Y018516D01*
X025986Y019126D02*
X025986Y019303D01*
X025986Y019126D02*
X027797Y019126D01*
X027797Y019303D01*
X027285Y019303D02*
X027285Y020091D01*
X027797Y020091D02*
X027797Y020268D01*
X025986Y020268D01*
X025986Y020091D01*
X030434Y021495D02*
X030434Y023306D01*
X030611Y023306D01*
X031399Y023306D02*
X031576Y023306D01*
X031576Y021495D01*
X031399Y021495D01*
X031399Y022007D02*
X030611Y022007D01*
X030611Y021495D02*
X030434Y021495D01*
X034388Y007518D02*
X037203Y007518D01*
X037105Y007518D01*
X037932Y007518D01*
X037932Y005215D01*
X037932Y005234D01*
X037932Y003227D01*
X037932Y005215D01*
X037892Y006829D02*
X034388Y006829D01*
X034388Y007518D01*
X035136Y007518D01*
X034388Y007518D02*
X034388Y003227D01*
X034388Y006829D01*
X037203Y007518D02*
X037932Y007518D01*
X037932Y007085D01*
X037932Y003227D02*
X034388Y003227D01*
X037932Y003227D01*
X037932Y001927D01*
X034388Y001927D01*
X034388Y003227D01*
D84*
X013719Y003880D02*
X013533Y003880D01*
X013673Y004020D01*
X013673Y003740D01*
X013443Y003880D02*
X013443Y003973D01*
X013396Y004020D01*
X013256Y004020D01*
X013256Y003740D01*
X013256Y003833D02*
X013396Y003833D01*
X013443Y003880D01*
X013167Y004020D02*
X013073Y004020D01*
X013120Y004020D02*
X013120Y003786D01*
X013073Y003740D01*
X013027Y003740D01*
X012980Y003786D01*
X036440Y028217D02*
X036540Y028217D01*
X036540Y029167D01*
X036440Y029167D01*
X037140Y029167D02*
X037140Y028167D01*
X038140Y028167D01*
X038140Y029167D01*
X037140Y029167D01*
X037390Y028667D02*
X037392Y028698D01*
X037398Y028729D01*
X037408Y028759D01*
X037421Y028787D01*
X037438Y028814D01*
X037458Y028838D01*
X037481Y028860D01*
X037506Y028878D01*
X037534Y028893D01*
X037563Y028905D01*
X037593Y028913D01*
X037624Y028917D01*
X037656Y028917D01*
X037687Y028913D01*
X037717Y028905D01*
X037746Y028893D01*
X037774Y028878D01*
X037799Y028860D01*
X037822Y028838D01*
X037842Y028814D01*
X037859Y028787D01*
X037872Y028759D01*
X037882Y028729D01*
X037888Y028698D01*
X037890Y028667D01*
X037888Y028636D01*
X037882Y028605D01*
X037872Y028575D01*
X037859Y028547D01*
X037842Y028520D01*
X037822Y028496D01*
X037799Y028474D01*
X037774Y028456D01*
X037746Y028441D01*
X037717Y028429D01*
X037687Y028421D01*
X037656Y028417D01*
X037624Y028417D01*
X037593Y028421D01*
X037563Y028429D01*
X037534Y028441D01*
X037506Y028456D01*
X037481Y028474D01*
X037458Y028496D01*
X037438Y028520D01*
X037421Y028547D01*
X037408Y028575D01*
X037398Y028605D01*
X037392Y028636D01*
X037390Y028667D01*
X038740Y028167D02*
X038840Y028167D01*
X038740Y028167D02*
X038740Y029167D01*
X038840Y029167D01*
D85*
X024143Y025890D03*
X018404Y013689D03*
D86*
X027468Y023335D03*
D87*
X037514Y012978D02*
X039954Y012978D01*
X039954Y009986D01*
X037514Y009986D01*
X037514Y009789D02*
X039954Y009789D01*
X039954Y009986D01*
X037514Y009789D02*
X037514Y012978D01*
X019733Y000500D02*
X019497Y000736D01*
X017253Y000736D01*
X017017Y000500D01*
X019733Y000500D01*
X019497Y000736D02*
X019497Y008295D01*
X017253Y008295D01*
X017253Y000736D01*
X016998Y000989D02*
X017065Y001056D01*
X017065Y001189D01*
X016998Y001256D01*
X016665Y001256D01*
X016731Y001449D02*
X016798Y001449D01*
X016865Y001516D01*
X016865Y001650D01*
X016932Y001716D01*
X016998Y001716D01*
X017065Y001650D01*
X017065Y001516D01*
X016998Y001449D01*
X016731Y001449D02*
X016665Y001516D01*
X016665Y001650D01*
X016731Y001716D01*
X016665Y001910D02*
X016665Y002110D01*
X016731Y002177D01*
X016798Y002177D01*
X016865Y002110D01*
X016865Y001910D01*
X016865Y002110D02*
X016932Y002177D01*
X016998Y002177D01*
X017065Y002110D01*
X017065Y001910D01*
X016665Y001910D01*
X016798Y002370D02*
X016665Y002504D01*
X017065Y002504D01*
X017065Y002637D02*
X017065Y002370D01*
X018198Y002744D02*
X018552Y002744D01*
X018788Y001169D01*
X017961Y001169D02*
X018198Y002744D01*
X016998Y000989D02*
X016665Y000989D01*
X017834Y005515D02*
X017834Y005782D01*
X017701Y005648D02*
X017968Y005648D01*
X018889Y007695D02*
X018889Y007962D01*
D88*
X022700Y009697D03*
X022700Y010197D03*
X025220Y010197D03*
X025220Y009697D03*
X027680Y009757D03*
X027680Y010257D03*
X029420Y010317D03*
X029420Y009817D03*
X032900Y012757D03*
X032900Y013257D03*
X033980Y017677D03*
X033980Y018177D03*
X028820Y020197D03*
X028820Y020697D03*
X030140Y028957D03*
X030140Y029457D03*
X027380Y029457D03*
X027380Y028957D03*
X024260Y028957D03*
X024260Y029457D03*
X021380Y029457D03*
X021380Y028957D03*
X018560Y028957D03*
X018560Y029457D03*
X015500Y029397D03*
X015500Y028897D03*
X012560Y028957D03*
X012560Y029457D03*
X014950Y015397D03*
X014950Y014897D03*
X010580Y012717D03*
X010580Y012217D03*
X009560Y012217D03*
X009560Y012717D03*
X011240Y006177D03*
X011240Y005677D03*
X033200Y029017D03*
X033200Y029517D03*
X033920Y029517D03*
X033920Y029017D03*
D89*
X016858Y009290D02*
X016267Y009290D01*
X016267Y008700D01*
X016858Y008700D01*
X016858Y009290D01*
D90*
X012580Y013727D03*
X011580Y013727D03*
X010580Y013727D03*
X009580Y013727D03*
X008580Y013727D03*
X008580Y014727D03*
X009580Y014727D03*
X010580Y014727D03*
X011580Y014727D03*
X012580Y014727D03*
X012580Y025727D03*
X011580Y025727D03*
X010580Y025727D03*
X009580Y025727D03*
X008580Y025727D03*
X008580Y026727D03*
X009580Y026727D03*
X010580Y026727D03*
X011580Y026727D03*
X012580Y026727D03*
X013580Y026727D03*
X014580Y026727D03*
X015580Y026727D03*
X015580Y025727D03*
X014580Y025727D03*
X013580Y025727D03*
X010920Y029307D03*
X009920Y029307D03*
X008920Y029307D03*
X007920Y029307D03*
D91*
X031760Y025827D03*
D92*
X009250Y011007D02*
X008550Y010307D01*
X008550Y010457D02*
X009200Y011107D01*
X009100Y011157D02*
X008550Y010607D01*
X008550Y010757D02*
X008950Y011157D01*
X008800Y011157D02*
X008550Y010907D01*
X008750Y010357D02*
X009250Y010857D01*
X009250Y010707D02*
X008900Y010357D01*
X009050Y010357D02*
X009250Y010557D01*
D93*
X008900Y010241D03*
M02*
